ISO-10303-21;
HEADER;
/* Generated by software containing ST-Developer
 * from STEP Tools, Inc. (www.steptools.com) 
 */

FILE_DESCRIPTION(
/* description */ (''),
/* implementation_level */ '2;1');

FILE_NAME(
/* name */ 'AirflowWallCornerBracket.step',
/* time_stamp */ '2026-07-08T17:02:42+03:00',
/* author */ (''),
/* organization */ (''),
/* preprocessor_version */ 'ST-DEVELOPER v20.1',
/* originating_system */ 'Autodesk Translation Framework v15.8.0.0',
/* authorisation */ '');

FILE_SCHEMA (('AUTOMOTIVE_DESIGN { 1 0 10303 214 3 1 1 }'));
ENDSEC;

DATA;
#10=MECHANICAL_DESIGN_GEOMETRIC_PRESENTATION_REPRESENTATION('',(#13),#249);
#11=SHAPE_REPRESENTATION_RELATIONSHIP('SRR','None',#256,#12);
#12=ADVANCED_BREP_SHAPE_REPRESENTATION('',(#14),#248);
#13=STYLED_ITEM('',(#266),#14);
#14=MANIFOLD_SOLID_BREP('G\X\F6vde1',#149);
#15=FACE_OUTER_BOUND('',#23,.T.);
#16=FACE_OUTER_BOUND('',#24,.T.);
#17=FACE_OUTER_BOUND('',#25,.T.);
#18=FACE_OUTER_BOUND('',#26,.T.);
#19=FACE_OUTER_BOUND('',#27,.T.);
#20=FACE_OUTER_BOUND('',#28,.T.);
#21=FACE_OUTER_BOUND('',#29,.T.);
#22=FACE_OUTER_BOUND('',#30,.T.);
#23=EDGE_LOOP('',(#97,#98,#99,#100));
#24=EDGE_LOOP('',(#101,#102,#103,#104));
#25=EDGE_LOOP('',(#105,#106,#107,#108));
#26=EDGE_LOOP('',(#109,#110,#111,#112,#113,#114));
#27=EDGE_LOOP('',(#115,#116,#117,#118));
#28=EDGE_LOOP('',(#119,#120,#121,#122,#123,#124));
#29=EDGE_LOOP('',(#125,#126,#127,#128));
#30=EDGE_LOOP('',(#129,#130,#131,#132));
#31=LINE('',#211,#49);
#32=LINE('',#213,#50);
#33=LINE('',#215,#51);
#34=LINE('',#216,#52);
#35=LINE('',#219,#53);
#36=LINE('',#221,#54);
#37=LINE('',#222,#55);
#38=LINE('',#225,#56);
#39=LINE('',#227,#57);
#40=LINE('',#228,#58);
#41=LINE('',#231,#59);
#42=LINE('',#233,#60);
#43=LINE('',#234,#61);
#44=LINE('',#237,#62);
#45=LINE('',#239,#63);
#46=LINE('',#240,#64);
#47=LINE('',#242,#65);
#48=LINE('',#243,#66);
#49=VECTOR('',#175,10.);
#50=VECTOR('',#176,10.);
#51=VECTOR('',#177,10.);
#52=VECTOR('',#178,10.);
#53=VECTOR('',#181,10.);
#54=VECTOR('',#182,10.);
#55=VECTOR('',#183,10.);
#56=VECTOR('',#186,10.);
#57=VECTOR('',#187,10.);
#58=VECTOR('',#188,10.);
#59=VECTOR('',#191,10.);
#60=VECTOR('',#192,10.);
#61=VECTOR('',#193,10.);
#62=VECTOR('',#196,10.);
#63=VECTOR('',#197,10.);
#64=VECTOR('',#198,10.);
#65=VECTOR('',#201,10.);
#66=VECTOR('',#202,10.);
#67=VERTEX_POINT('',#209);
#68=VERTEX_POINT('',#210);
#69=VERTEX_POINT('',#212);
#70=VERTEX_POINT('',#214);
#71=VERTEX_POINT('',#218);
#72=VERTEX_POINT('',#220);
#73=VERTEX_POINT('',#224);
#74=VERTEX_POINT('',#226);
#75=VERTEX_POINT('',#230);
#76=VERTEX_POINT('',#232);
#77=VERTEX_POINT('',#236);
#78=VERTEX_POINT('',#238);
#79=EDGE_CURVE('',#67,#68,#31,.T.);
#80=EDGE_CURVE('',#69,#68,#32,.T.);
#81=EDGE_CURVE('',#70,#69,#33,.T.);
#82=EDGE_CURVE('',#67,#70,#34,.T.);
#83=EDGE_CURVE('',#71,#70,#35,.T.);
#84=EDGE_CURVE('',#69,#72,#36,.T.);
#85=EDGE_CURVE('',#72,#71,#37,.T.);
#86=EDGE_CURVE('',#72,#73,#38,.T.);
#87=EDGE_CURVE('',#74,#73,#39,.T.);
#88=EDGE_CURVE('',#71,#74,#40,.T.);
#89=EDGE_CURVE('',#75,#67,#41,.T.);
#90=EDGE_CURVE('',#76,#74,#42,.T.);
#91=EDGE_CURVE('',#75,#76,#43,.T.);
#92=EDGE_CURVE('',#77,#75,#44,.T.);
#93=EDGE_CURVE('',#78,#76,#45,.T.);
#94=EDGE_CURVE('',#77,#78,#46,.T.);
#95=EDGE_CURVE('',#68,#77,#47,.T.);
#96=EDGE_CURVE('',#73,#78,#48,.T.);
#97=ORIENTED_EDGE('',*,*,#79,.T.);
#98=ORIENTED_EDGE('',*,*,#80,.F.);
#99=ORIENTED_EDGE('',*,*,#81,.F.);
#100=ORIENTED_EDGE('',*,*,#82,.F.);
#101=ORIENTED_EDGE('',*,*,#83,.T.);
#102=ORIENTED_EDGE('',*,*,#81,.T.);
#103=ORIENTED_EDGE('',*,*,#84,.T.);
#104=ORIENTED_EDGE('',*,*,#85,.T.);
#105=ORIENTED_EDGE('',*,*,#86,.T.);
#106=ORIENTED_EDGE('',*,*,#87,.F.);
#107=ORIENTED_EDGE('',*,*,#88,.F.);
#108=ORIENTED_EDGE('',*,*,#85,.F.);
#109=ORIENTED_EDGE('',*,*,#89,.T.);
#110=ORIENTED_EDGE('',*,*,#82,.T.);
#111=ORIENTED_EDGE('',*,*,#83,.F.);
#112=ORIENTED_EDGE('',*,*,#88,.T.);
#113=ORIENTED_EDGE('',*,*,#90,.F.);
#114=ORIENTED_EDGE('',*,*,#91,.F.);
#115=ORIENTED_EDGE('',*,*,#92,.T.);
#116=ORIENTED_EDGE('',*,*,#91,.T.);
#117=ORIENTED_EDGE('',*,*,#93,.F.);
#118=ORIENTED_EDGE('',*,*,#94,.F.);
#119=ORIENTED_EDGE('',*,*,#95,.T.);
#120=ORIENTED_EDGE('',*,*,#94,.T.);
#121=ORIENTED_EDGE('',*,*,#96,.F.);
#122=ORIENTED_EDGE('',*,*,#86,.F.);
#123=ORIENTED_EDGE('',*,*,#84,.F.);
#124=ORIENTED_EDGE('',*,*,#80,.T.);
#125=ORIENTED_EDGE('',*,*,#96,.T.);
#126=ORIENTED_EDGE('',*,*,#93,.T.);
#127=ORIENTED_EDGE('',*,*,#90,.T.);
#128=ORIENTED_EDGE('',*,*,#87,.T.);
#129=ORIENTED_EDGE('',*,*,#79,.F.);
#130=ORIENTED_EDGE('',*,*,#89,.F.);
#131=ORIENTED_EDGE('',*,*,#92,.F.);
#132=ORIENTED_EDGE('',*,*,#95,.F.);
#133=PLANE('',#163);
#134=PLANE('',#164);
#135=PLANE('',#165);
#136=PLANE('',#166);
#137=PLANE('',#167);
#138=PLANE('',#168);
#139=PLANE('',#169);
#140=PLANE('',#170);
#141=ADVANCED_FACE('',(#15),#133,.T.);
#142=ADVANCED_FACE('',(#16),#134,.T.);
#143=ADVANCED_FACE('',(#17),#135,.T.);
#144=ADVANCED_FACE('',(#18),#136,.T.);
#145=ADVANCED_FACE('',(#19),#137,.T.);
#146=ADVANCED_FACE('',(#20),#138,.T.);
#147=ADVANCED_FACE('',(#21),#139,.T.);
#148=ADVANCED_FACE('',(#22),#140,.F.);
#149=CLOSED_SHELL('',(#141,#142,#143,#144,#145,#146,#147,#148));
#150=DERIVED_UNIT_ELEMENT(#152,1.);
#151=DERIVED_UNIT_ELEMENT(#251,-3.);
#152=(
MASS_UNIT()
NAMED_UNIT(*)
SI_UNIT(.KILO.,.GRAM.)
);
#153=DERIVED_UNIT((#150,#151));
#154=MEASURE_REPRESENTATION_ITEM('density measure',
POSITIVE_RATIO_MEASURE(7850.),#153);
#155=PROPERTY_DEFINITION_REPRESENTATION(#160,#157);
#156=PROPERTY_DEFINITION_REPRESENTATION(#161,#158);
#157=REPRESENTATION('material name',(#159),#248);
#158=REPRESENTATION('density',(#154),#248);
#159=DESCRIPTIVE_REPRESENTATION_ITEM('\X\C7elik','\X\C7elik');
#160=PROPERTY_DEFINITION('material property','material name',#258);
#161=PROPERTY_DEFINITION('material property','density of part',#258);
#162=AXIS2_PLACEMENT_3D('',#207,#171,#172);
#163=AXIS2_PLACEMENT_3D('',#208,#173,#174);
#164=AXIS2_PLACEMENT_3D('',#217,#179,#180);
#165=AXIS2_PLACEMENT_3D('',#223,#184,#185);
#166=AXIS2_PLACEMENT_3D('',#229,#189,#190);
#167=AXIS2_PLACEMENT_3D('',#235,#194,#195);
#168=AXIS2_PLACEMENT_3D('',#241,#199,#200);
#169=AXIS2_PLACEMENT_3D('',#244,#203,#204);
#170=AXIS2_PLACEMENT_3D('',#245,#205,#206);
#171=DIRECTION('axis',(0.,0.,1.));
#172=DIRECTION('refdir',(1.,0.,0.));
#173=DIRECTION('center_axis',(1.,0.,0.));
#174=DIRECTION('ref_axis',(0.,0.,-1.));
#175=DIRECTION('',(0.,0.,1.));
#176=DIRECTION('',(0.,1.,0.));
#177=DIRECTION('',(0.,0.,1.));
#178=DIRECTION('',(0.,-1.,0.));
#179=DIRECTION('center_axis',(0.,-1.,0.));
#180=DIRECTION('ref_axis',(0.,0.,-1.));
#181=DIRECTION('',(1.,0.,0.));
#182=DIRECTION('',(-1.,0.,0.));
#183=DIRECTION('',(0.,0.,-1.));
#184=DIRECTION('center_axis',(-1.,0.,0.));
#185=DIRECTION('ref_axis',(0.,0.,1.));
#186=DIRECTION('',(0.,1.,0.));
#187=DIRECTION('',(0.,0.,1.));
#188=DIRECTION('',(0.,1.,0.));
#189=DIRECTION('center_axis',(0.,0.,-1.));
#190=DIRECTION('ref_axis',(-1.,0.,0.));
#191=DIRECTION('',(-1.,0.,0.));
#192=DIRECTION('',(-1.,0.,0.));
#193=DIRECTION('',(0.,1.,0.));
#194=DIRECTION('center_axis',(1.,0.,0.));
#195=DIRECTION('ref_axis',(0.,0.,-1.));
#196=DIRECTION('',(0.,0.,-1.));
#197=DIRECTION('',(0.,0.,-1.));
#198=DIRECTION('',(0.,1.,0.));
#199=DIRECTION('center_axis',(0.,0.,1.));
#200=DIRECTION('ref_axis',(1.,0.,0.));
#201=DIRECTION('',(1.,0.,0.));
#202=DIRECTION('',(1.,0.,0.));
#203=DIRECTION('center_axis',(0.,1.,0.));
#204=DIRECTION('ref_axis',(0.,0.,1.));
#205=DIRECTION('center_axis',(0.,1.,0.));
#206=DIRECTION('ref_axis',(-1.,0.,0.));
#207=CARTESIAN_POINT('',(0.,0.,0.));
#208=CARTESIAN_POINT('Origin',(-30.7000004023314,-27.917868637708,110.145917661627));
#209=CARTESIAN_POINT('',(-30.7000004023314,-27.917868637708,102.000001519918));
#210=CARTESIAN_POINT('',(-30.7000004023314,-27.917868637708,110.145917661627));
#211=CARTESIAN_POINT('',(-30.7000004023314,-27.917868637708,102.000001519918));
#212=CARTESIAN_POINT('',(-30.7000004023314,-42.917868637708,110.145917661627));
#213=CARTESIAN_POINT('',(-30.7000004023314,-27.917868637708,110.145917661627));
#214=CARTESIAN_POINT('',(-30.7000004023314,-42.917868637708,102.000001519918));
#215=CARTESIAN_POINT('',(-30.7000004023314,-42.917868637708,102.000001519918));
#216=CARTESIAN_POINT('',(-30.7000004023314,-27.917868637708,102.000001519918));
#217=CARTESIAN_POINT('Origin',(-31.8500004470348,-42.917868637708,106.072959590773));
#218=CARTESIAN_POINT('',(-33.0000004917383,-42.917868637708,102.000001519918));
#219=CARTESIAN_POINT('',(-33.0000004917383,-42.917868637708,102.000001519918));
#220=CARTESIAN_POINT('',(-33.0000004917383,-42.917868637708,110.145917661627));
#221=CARTESIAN_POINT('',(-30.7000004023314,-42.917868637708,110.145917661627));
#222=CARTESIAN_POINT('',(-33.0000004917383,-42.917868637708,110.145917661627));
#223=CARTESIAN_POINT('Origin',(-33.0000004917383,-27.917868637708,102.000001519918));
#224=CARTESIAN_POINT('',(-33.0000004917383,-25.617868637708,110.145917661627));
#225=CARTESIAN_POINT('',(-33.0000004917383,-27.917868637708,110.145917661627));
#226=CARTESIAN_POINT('',(-33.0000004917383,-25.617868637708,102.000001519918));
#227=CARTESIAN_POINT('',(-33.0000004917383,-25.617868637708,110.145917661627));
#228=CARTESIAN_POINT('',(-33.0000004917383,-27.917868637708,102.000001519918));
#229=CARTESIAN_POINT('Origin',(-14.0000002086163,-27.917868637708,102.000001519918));
#230=CARTESIAN_POINT('',(-14.0000002086163,-27.917868637708,102.000001519918));
#231=CARTESIAN_POINT('',(-14.0000002086163,-27.917868637708,102.000001519918));
#232=CARTESIAN_POINT('',(-14.0000002086163,-25.617868637708,102.000001519918));
#233=CARTESIAN_POINT('',(-14.0000002086163,-25.617868637708,102.000001519918));
#234=CARTESIAN_POINT('',(-14.0000002086163,-27.917868637708,102.000001519918));
#235=CARTESIAN_POINT('Origin',(-14.0000002086163,-27.917868637708,110.145917661627));
#236=CARTESIAN_POINT('',(-14.0000002086163,-27.917868637708,110.145917661627));
#237=CARTESIAN_POINT('',(-14.0000002086163,-27.917868637708,110.145917661627));
#238=CARTESIAN_POINT('',(-14.0000002086163,-25.617868637708,110.145917661627));
#239=CARTESIAN_POINT('',(-14.0000002086163,-25.617868637708,110.145917661627));
#240=CARTESIAN_POINT('',(-14.0000002086163,-27.917868637708,110.145917661627));
#241=CARTESIAN_POINT('Origin',(-30.7000004023314,-27.917868637708,110.145917661627));
#242=CARTESIAN_POINT('',(-30.7000004023314,-27.917868637708,110.145917661627));
#243=CARTESIAN_POINT('',(-30.7000004023314,-25.617868637708,110.145917661627));
#244=CARTESIAN_POINT('Origin',(-22.3500003054738,-25.617868637708,106.072959590773));
#245=CARTESIAN_POINT('Origin',(-22.3500003054738,-27.917868637708,106.072959590773));
#246=UNCERTAINTY_MEASURE_WITH_UNIT(LENGTH_MEASURE(0.01),#250,
'DISTANCE_ACCURACY_VALUE',
'Maximum model space distance between geometric entities at asserted c
onnectivities');
#247=UNCERTAINTY_MEASURE_WITH_UNIT(LENGTH_MEASURE(0.01),#250,
'DISTANCE_ACCURACY_VALUE',
'Maximum model space distance between geometric entities at asserted c
onnectivities');
#248=(
GEOMETRIC_REPRESENTATION_CONTEXT(3)
GLOBAL_UNCERTAINTY_ASSIGNED_CONTEXT((#246))
GLOBAL_UNIT_ASSIGNED_CONTEXT((#250,#252,#253))
REPRESENTATION_CONTEXT('','3D')
);
#249=(
GEOMETRIC_REPRESENTATION_CONTEXT(3)
GLOBAL_UNCERTAINTY_ASSIGNED_CONTEXT((#247))
GLOBAL_UNIT_ASSIGNED_CONTEXT((#250,#252,#253))
REPRESENTATION_CONTEXT('','3D')
);
#250=(
LENGTH_UNIT()
NAMED_UNIT(*)
SI_UNIT(.MILLI.,.METRE.)
);
#251=(
LENGTH_UNIT()
NAMED_UNIT(*)
SI_UNIT($,.METRE.)
);
#252=(
NAMED_UNIT(*)
PLANE_ANGLE_UNIT()
SI_UNIT($,.RADIAN.)
);
#253=(
NAMED_UNIT(*)
SI_UNIT($,.STERADIAN.)
SOLID_ANGLE_UNIT()
);
#254=SHAPE_DEFINITION_REPRESENTATION(#255,#256);
#255=PRODUCT_DEFINITION_SHAPE('',$,#258);
#256=SHAPE_REPRESENTATION('',(#162),#248);
#257=PRODUCT_DEFINITION_CONTEXT('part definition',#262,'design');
#258=PRODUCT_DEFINITION('2026-07-08-17-02-42-293',
'AirflowWallCornerBracket',#259,#257);
#259=PRODUCT_DEFINITION_FORMATION('',$,#264);
#260=PRODUCT_RELATED_PRODUCT_CATEGORY('AirflowWallCornerBracket',
'AirflowWallCornerBracket',(#264));
#261=APPLICATION_PROTOCOL_DEFINITION('international standard',
'automotive_design',2009,#262);
#262=APPLICATION_CONTEXT(
'Core Data for Automotive Mechanical Design Process');
#263=PRODUCT_CONTEXT('part definition',#262,'mechanical');
#264=PRODUCT('2026-07-08-17-02-42-293','AirflowWallCornerBracket',$,(#263));
#265=PRESENTATION_STYLE_ASSIGNMENT((#267));
#266=PRESENTATION_STYLE_ASSIGNMENT((#268));
#267=SURFACE_STYLE_USAGE(.BOTH.,#269);
#268=SURFACE_STYLE_USAGE(.BOTH.,#270);
#269=SURFACE_SIDE_STYLE('',(#271));
#270=SURFACE_SIDE_STYLE('',(#272));
#271=SURFACE_STYLE_FILL_AREA(#273);
#272=SURFACE_STYLE_FILL_AREA(#274);
#273=FILL_AREA_STYLE('\X\C7elik - Saten',(#275));
#274=FILL_AREA_STYLE('ABS (Beyaz)',(#276));
#275=FILL_AREA_STYLE_COLOUR('\X\C7elik - Saten',#277);
#276=FILL_AREA_STYLE_COLOUR('ABS (Beyaz)',#278);
#277=COLOUR_RGB('\X\C7elik - Saten',0.627450980392157,0.627450980392157,
0.627450980392157);
#278=COLOUR_RGB('ABS (Beyaz)',0.,0.,0.);
ENDSEC;
END-ISO-10303-21;
