ISO-10303-21;
HEADER;
/* Generated by software containing ST-Developer
 * from STEP Tools, Inc. (www.steptools.com) 
 */

FILE_DESCRIPTION(
/* description */ (''),
/* implementation_level */ '2;1');

FILE_NAME(
/* name */ 'AirflowCover.step',
/* time_stamp */ '2026-07-08T17:02:09+03:00',
/* author */ (''),
/* organization */ (''),
/* preprocessor_version */ 'ST-DEVELOPER v20.1',
/* originating_system */ 'Autodesk Translation Framework v15.8.0.0',
/* authorisation */ '');

FILE_SCHEMA (('AUTOMOTIVE_DESIGN { 1 0 10303 214 3 1 1 }'));
ENDSEC;

DATA;
#10=MECHANICAL_DESIGN_GEOMETRIC_PRESENTATION_REPRESENTATION('',(#13),#385);
#11=SHAPE_REPRESENTATION_RELATIONSHIP('SRR','None',#392,#12);
#12=ADVANCED_BREP_SHAPE_REPRESENTATION('',(#14),#384);
#13=STYLED_ITEM('',(#402),#14);
#14=MANIFOLD_SOLID_BREP('AirflowCover',#237);
#15=FACE_BOUND('',#30,.T.);
#16=FACE_BOUND('',#33,.T.);
#17=FACE_OUTER_BOUND('',#29,.T.);
#18=FACE_OUTER_BOUND('',#31,.T.);
#19=FACE_OUTER_BOUND('',#32,.T.);
#20=FACE_OUTER_BOUND('',#34,.T.);
#21=FACE_OUTER_BOUND('',#35,.T.);
#22=FACE_OUTER_BOUND('',#36,.T.);
#23=FACE_OUTER_BOUND('',#37,.T.);
#24=FACE_OUTER_BOUND('',#38,.T.);
#25=FACE_OUTER_BOUND('',#39,.T.);
#26=FACE_OUTER_BOUND('',#40,.T.);
#27=FACE_OUTER_BOUND('',#41,.T.);
#28=FACE_OUTER_BOUND('',#42,.T.);
#29=EDGE_LOOP('',(#153,#154,#155,#156,#157,#158));
#30=EDGE_LOOP('',(#159,#160,#161,#162));
#31=EDGE_LOOP('',(#163,#164,#165,#166));
#32=EDGE_LOOP('',(#167,#168,#169,#170,#171,#172));
#33=EDGE_LOOP('',(#173,#174,#175,#176));
#34=EDGE_LOOP('',(#177,#178,#179,#180));
#35=EDGE_LOOP('',(#181,#182,#183,#184));
#36=EDGE_LOOP('',(#185,#186,#187,#188));
#37=EDGE_LOOP('',(#189,#190,#191,#192));
#38=EDGE_LOOP('',(#193,#194,#195,#196));
#39=EDGE_LOOP('',(#197,#198,#199,#200));
#40=EDGE_LOOP('',(#201,#202,#203,#204));
#41=EDGE_LOOP('',(#205,#206,#207,#208));
#42=EDGE_LOOP('',(#209,#210,#211,#212));
#43=LINE('',#323,#73);
#44=LINE('',#325,#74);
#45=LINE('',#327,#75);
#46=LINE('',#329,#76);
#47=LINE('',#331,#77);
#48=LINE('',#332,#78);
#49=LINE('',#335,#79);
#50=LINE('',#337,#80);
#51=LINE('',#339,#81);
#52=LINE('',#340,#82);
#53=LINE('',#343,#83);
#54=LINE('',#345,#84);
#55=LINE('',#346,#85);
#56=LINE('',#350,#86);
#57=LINE('',#352,#87);
#58=LINE('',#354,#88);
#59=LINE('',#356,#89);
#60=LINE('',#358,#90);
#61=LINE('',#359,#91);
#62=LINE('',#361,#92);
#63=LINE('',#363,#93);
#64=LINE('',#364,#94);
#65=LINE('',#366,#95);
#66=LINE('',#367,#96);
#67=LINE('',#369,#97);
#68=LINE('',#371,#98);
#69=LINE('',#373,#99);
#70=LINE('',#376,#100);
#71=LINE('',#377,#101);
#72=LINE('',#379,#102);
#73=VECTOR('',#267,10.);
#74=VECTOR('',#268,10.);
#75=VECTOR('',#269,10.);
#76=VECTOR('',#270,10.);
#77=VECTOR('',#271,10.);
#78=VECTOR('',#272,10.);
#79=VECTOR('',#273,10.);
#80=VECTOR('',#274,10.);
#81=VECTOR('',#275,10.);
#82=VECTOR('',#276,10.);
#83=VECTOR('',#279,10.);
#84=VECTOR('',#280,10.);
#85=VECTOR('',#281,10.);
#86=VECTOR('',#284,10.);
#87=VECTOR('',#285,10.);
#88=VECTOR('',#286,10.);
#89=VECTOR('',#287,10.);
#90=VECTOR('',#288,10.);
#91=VECTOR('',#289,10.);
#92=VECTOR('',#290,10.);
#93=VECTOR('',#291,10.);
#94=VECTOR('',#292,10.);
#95=VECTOR('',#295,10.);
#96=VECTOR('',#296,10.);
#97=VECTOR('',#299,10.);
#98=VECTOR('',#302,10.);
#99=VECTOR('',#305,10.);
#100=VECTOR('',#310,10.);
#101=VECTOR('',#311,10.);
#102=VECTOR('',#314,10.);
#103=VERTEX_POINT('',#321);
#104=VERTEX_POINT('',#322);
#105=VERTEX_POINT('',#324);
#106=VERTEX_POINT('',#326);
#107=VERTEX_POINT('',#328);
#108=VERTEX_POINT('',#330);
#109=VERTEX_POINT('',#333);
#110=VERTEX_POINT('',#334);
#111=VERTEX_POINT('',#336);
#112=VERTEX_POINT('',#338);
#113=VERTEX_POINT('',#342);
#114=VERTEX_POINT('',#344);
#115=VERTEX_POINT('',#348);
#116=VERTEX_POINT('',#349);
#117=VERTEX_POINT('',#351);
#118=VERTEX_POINT('',#353);
#119=VERTEX_POINT('',#355);
#120=VERTEX_POINT('',#357);
#121=VERTEX_POINT('',#360);
#122=VERTEX_POINT('',#362);
#123=EDGE_CURVE('',#103,#104,#43,.T.);
#124=EDGE_CURVE('',#104,#105,#44,.T.);
#125=EDGE_CURVE('',#106,#105,#45,.T.);
#126=EDGE_CURVE('',#107,#106,#46,.T.);
#127=EDGE_CURVE('',#107,#108,#47,.T.);
#128=EDGE_CURVE('',#108,#103,#48,.T.);
#129=EDGE_CURVE('',#109,#110,#49,.T.);
#130=EDGE_CURVE('',#110,#111,#50,.F.);
#131=EDGE_CURVE('',#111,#112,#51,.F.);
#132=EDGE_CURVE('',#112,#109,#52,.T.);
#133=EDGE_CURVE('',#109,#113,#53,.T.);
#134=EDGE_CURVE('',#113,#114,#54,.T.);
#135=EDGE_CURVE('',#110,#114,#55,.T.);
#136=EDGE_CURVE('',#115,#116,#56,.T.);
#137=EDGE_CURVE('',#116,#117,#57,.T.);
#138=EDGE_CURVE('',#117,#118,#58,.T.);
#139=EDGE_CURVE('',#119,#118,#59,.T.);
#140=EDGE_CURVE('',#119,#120,#60,.T.);
#141=EDGE_CURVE('',#120,#115,#61,.T.);
#142=EDGE_CURVE('',#121,#113,#62,.T.);
#143=EDGE_CURVE('',#122,#121,#63,.F.);
#144=EDGE_CURVE('',#114,#122,#64,.F.);
#145=EDGE_CURVE('',#115,#103,#65,.T.);
#146=EDGE_CURVE('',#116,#108,#66,.T.);
#147=EDGE_CURVE('',#122,#111,#67,.F.);
#148=EDGE_CURVE('',#117,#107,#68,.T.);
#149=EDGE_CURVE('',#121,#112,#69,.F.);
#150=EDGE_CURVE('',#118,#106,#70,.T.);
#151=EDGE_CURVE('',#105,#119,#71,.T.);
#152=EDGE_CURVE('',#104,#120,#72,.T.);
#153=ORIENTED_EDGE('',*,*,#123,.T.);
#154=ORIENTED_EDGE('',*,*,#124,.T.);
#155=ORIENTED_EDGE('',*,*,#125,.F.);
#156=ORIENTED_EDGE('',*,*,#126,.F.);
#157=ORIENTED_EDGE('',*,*,#127,.T.);
#158=ORIENTED_EDGE('',*,*,#128,.T.);
#159=ORIENTED_EDGE('',*,*,#129,.T.);
#160=ORIENTED_EDGE('',*,*,#130,.T.);
#161=ORIENTED_EDGE('',*,*,#131,.T.);
#162=ORIENTED_EDGE('',*,*,#132,.T.);
#163=ORIENTED_EDGE('',*,*,#129,.F.);
#164=ORIENTED_EDGE('',*,*,#133,.T.);
#165=ORIENTED_EDGE('',*,*,#134,.T.);
#166=ORIENTED_EDGE('',*,*,#135,.F.);
#167=ORIENTED_EDGE('',*,*,#136,.T.);
#168=ORIENTED_EDGE('',*,*,#137,.T.);
#169=ORIENTED_EDGE('',*,*,#138,.T.);
#170=ORIENTED_EDGE('',*,*,#139,.F.);
#171=ORIENTED_EDGE('',*,*,#140,.T.);
#172=ORIENTED_EDGE('',*,*,#141,.T.);
#173=ORIENTED_EDGE('',*,*,#134,.F.);
#174=ORIENTED_EDGE('',*,*,#142,.F.);
#175=ORIENTED_EDGE('',*,*,#143,.F.);
#176=ORIENTED_EDGE('',*,*,#144,.F.);
#177=ORIENTED_EDGE('',*,*,#145,.T.);
#178=ORIENTED_EDGE('',*,*,#128,.F.);
#179=ORIENTED_EDGE('',*,*,#146,.F.);
#180=ORIENTED_EDGE('',*,*,#136,.F.);
#181=ORIENTED_EDGE('',*,*,#135,.T.);
#182=ORIENTED_EDGE('',*,*,#144,.T.);
#183=ORIENTED_EDGE('',*,*,#147,.T.);
#184=ORIENTED_EDGE('',*,*,#130,.F.);
#185=ORIENTED_EDGE('',*,*,#137,.F.);
#186=ORIENTED_EDGE('',*,*,#146,.T.);
#187=ORIENTED_EDGE('',*,*,#127,.F.);
#188=ORIENTED_EDGE('',*,*,#148,.F.);
#189=ORIENTED_EDGE('',*,*,#142,.T.);
#190=ORIENTED_EDGE('',*,*,#133,.F.);
#191=ORIENTED_EDGE('',*,*,#132,.F.);
#192=ORIENTED_EDGE('',*,*,#149,.F.);
#193=ORIENTED_EDGE('',*,*,#143,.T.);
#194=ORIENTED_EDGE('',*,*,#149,.T.);
#195=ORIENTED_EDGE('',*,*,#131,.F.);
#196=ORIENTED_EDGE('',*,*,#147,.F.);
#197=ORIENTED_EDGE('',*,*,#139,.T.);
#198=ORIENTED_EDGE('',*,*,#150,.T.);
#199=ORIENTED_EDGE('',*,*,#125,.T.);
#200=ORIENTED_EDGE('',*,*,#151,.T.);
#201=ORIENTED_EDGE('',*,*,#141,.F.);
#202=ORIENTED_EDGE('',*,*,#152,.F.);
#203=ORIENTED_EDGE('',*,*,#123,.F.);
#204=ORIENTED_EDGE('',*,*,#145,.F.);
#205=ORIENTED_EDGE('',*,*,#152,.T.);
#206=ORIENTED_EDGE('',*,*,#140,.F.);
#207=ORIENTED_EDGE('',*,*,#151,.F.);
#208=ORIENTED_EDGE('',*,*,#124,.F.);
#209=ORIENTED_EDGE('',*,*,#138,.F.);
#210=ORIENTED_EDGE('',*,*,#148,.T.);
#211=ORIENTED_EDGE('',*,*,#126,.T.);
#212=ORIENTED_EDGE('',*,*,#150,.F.);
#213=PLANE('',#251);
#214=PLANE('',#252);
#215=PLANE('',#253);
#216=PLANE('',#254);
#217=PLANE('',#255);
#218=PLANE('',#256);
#219=PLANE('',#257);
#220=PLANE('',#258);
#221=PLANE('',#259);
#222=PLANE('',#260);
#223=PLANE('',#261);
#224=PLANE('',#262);
#225=ADVANCED_FACE('',(#17,#15),#213,.T.);
#226=ADVANCED_FACE('',(#18),#214,.T.);
#227=ADVANCED_FACE('',(#19,#16),#215,.F.);
#228=ADVANCED_FACE('',(#20),#216,.T.);
#229=ADVANCED_FACE('',(#21),#217,.T.);
#230=ADVANCED_FACE('',(#22),#218,.T.);
#231=ADVANCED_FACE('',(#23),#219,.T.);
#232=ADVANCED_FACE('',(#24),#220,.T.);
#233=ADVANCED_FACE('',(#25),#221,.T.);
#234=ADVANCED_FACE('',(#26),#222,.T.);
#235=ADVANCED_FACE('',(#27),#223,.T.);
#236=ADVANCED_FACE('',(#28),#224,.T.);
#237=CLOSED_SHELL('',(#225,#226,#227,#228,#229,#230,#231,#232,#233,#234,
#235,#236));
#238=DERIVED_UNIT_ELEMENT(#240,1.);
#239=DERIVED_UNIT_ELEMENT(#387,-3.);
#240=(
MASS_UNIT()
NAMED_UNIT(*)
SI_UNIT(.KILO.,.GRAM.)
);
#241=DERIVED_UNIT((#238,#239));
#242=MEASURE_REPRESENTATION_ITEM('density measure',
POSITIVE_RATIO_MEASURE(7850.),#241);
#243=PROPERTY_DEFINITION_REPRESENTATION(#248,#245);
#244=PROPERTY_DEFINITION_REPRESENTATION(#249,#246);
#245=REPRESENTATION('material name',(#247),#384);
#246=REPRESENTATION('density',(#242),#384);
#247=DESCRIPTIVE_REPRESENTATION_ITEM('\X\C7elik','\X\C7elik');
#248=PROPERTY_DEFINITION('material property','material name',#394);
#249=PROPERTY_DEFINITION('material property','density of part',#394);
#250=AXIS2_PLACEMENT_3D('',#319,#263,#264);
#251=AXIS2_PLACEMENT_3D('',#320,#265,#266);
#252=AXIS2_PLACEMENT_3D('',#341,#277,#278);
#253=AXIS2_PLACEMENT_3D('',#347,#282,#283);
#254=AXIS2_PLACEMENT_3D('',#365,#293,#294);
#255=AXIS2_PLACEMENT_3D('',#368,#297,#298);
#256=AXIS2_PLACEMENT_3D('',#370,#300,#301);
#257=AXIS2_PLACEMENT_3D('',#372,#303,#304);
#258=AXIS2_PLACEMENT_3D('',#374,#306,#307);
#259=AXIS2_PLACEMENT_3D('',#375,#308,#309);
#260=AXIS2_PLACEMENT_3D('',#378,#312,#313);
#261=AXIS2_PLACEMENT_3D('',#380,#315,#316);
#262=AXIS2_PLACEMENT_3D('',#381,#317,#318);
#263=DIRECTION('axis',(0.,0.,1.));
#264=DIRECTION('refdir',(1.,0.,0.));
#265=DIRECTION('center_axis',(0.,0.,1.));
#266=DIRECTION('ref_axis',(1.,0.,0.));
#267=DIRECTION('',(-0.432976908312989,-0.901405012670623,0.));
#268=DIRECTION('',(0.,-1.,0.));
#269=DIRECTION('',(-1.,0.,0.));
#270=DIRECTION('',(0.,-1.,0.));
#271=DIRECTION('',(-1.,0.,0.));
#272=DIRECTION('',(0.,-1.,0.));
#273=DIRECTION('',(-1.,0.,0.));
#274=DIRECTION('',(0.,-1.,0.));
#275=DIRECTION('',(-1.,-9.75447862921917E-17,0.));
#276=DIRECTION('',(0.,-1.,0.));
#277=DIRECTION('center_axis',(0.,1.,0.));
#278=DIRECTION('ref_axis',(-1.,0.,0.));
#279=DIRECTION('',(0.,0.,-1.));
#280=DIRECTION('',(-1.,0.,0.));
#281=DIRECTION('',(0.,0.,-1.));
#282=DIRECTION('center_axis',(0.,0.,1.));
#283=DIRECTION('ref_axis',(-1.,0.,0.));
#284=DIRECTION('',(0.,1.,0.));
#285=DIRECTION('',(1.,0.,0.));
#286=DIRECTION('',(0.,-1.,0.));
#287=DIRECTION('',(1.,0.,0.));
#288=DIRECTION('',(0.,1.,0.));
#289=DIRECTION('',(0.432976908312989,0.901405012670623,0.));
#290=DIRECTION('',(0.,-1.,0.));
#291=DIRECTION('',(-1.,-9.75447862921917E-17,0.));
#292=DIRECTION('',(0.,-1.,0.));
#293=DIRECTION('center_axis',(-1.,0.,0.));
#294=DIRECTION('ref_axis',(0.,-1.,0.));
#295=DIRECTION('',(0.,0.,1.));
#296=DIRECTION('',(0.,0.,1.));
#297=DIRECTION('center_axis',(1.,0.,0.));
#298=DIRECTION('ref_axis',(0.,1.,0.));
#299=DIRECTION('',(0.,0.,-1.));
#300=DIRECTION('center_axis',(0.,1.,0.));
#301=DIRECTION('ref_axis',(-1.,0.,0.));
#302=DIRECTION('',(0.,0.,1.));
#303=DIRECTION('center_axis',(-1.,0.,0.));
#304=DIRECTION('ref_axis',(0.,-1.,0.));
#305=DIRECTION('',(0.,0.,-1.));
#306=DIRECTION('center_axis',(9.75447862921917E-17,-1.,0.));
#307=DIRECTION('ref_axis',(1.,9.75447862921917E-17,0.));
#308=DIRECTION('center_axis',(0.,-1.,0.));
#309=DIRECTION('ref_axis',(0.,0.,-1.));
#310=DIRECTION('',(0.,0.,1.));
#311=DIRECTION('',(0.,0.,-1.));
#312=DIRECTION('center_axis',(-0.901405012670623,0.432976908312989,0.));
#313=DIRECTION('ref_axis',(-0.432976908312989,-0.901405012670623,0.));
#314=DIRECTION('',(0.,0.,-1.));
#315=DIRECTION('center_axis',(-1.,0.,0.));
#316=DIRECTION('ref_axis',(0.,-1.,0.));
#317=DIRECTION('center_axis',(1.,0.,0.));
#318=DIRECTION('ref_axis',(0.,1.,0.));
#319=CARTESIAN_POINT('',(0.,0.,0.));
#320=CARTESIAN_POINT('Origin',(-1.91176142597334,-155.73274775327,124.2));
#321=CARTESIAN_POINT('',(-30.7000014581718,-111.465005294303,124.2));
#322=CARTESIAN_POINT('',(-40.3235233958391,-131.500001959503,124.2));
#323=CARTESIAN_POINT('',(-40.3235233958391,-131.500001959503,124.2));
#324=CARTESIAN_POINT('',(-40.3235233958391,-203.000002980232,124.2));
#325=CARTESIAN_POINT('',(-40.3235233958391,-200.000002980232,124.2));
#326=CARTESIAN_POINT('',(36.5000005438924,-203.000002980232,124.2));
#327=CARTESIAN_POINT('',(36.5000005438924,-203.000002980232,124.2));
#328=CARTESIAN_POINT('',(36.5000005438924,-27.917868637708,124.2));
#329=CARTESIAN_POINT('',(36.5000005438924,-200.000002980232,124.2));
#330=CARTESIAN_POINT('',(-30.7000004023314,-27.917868637708,124.2));
#331=CARTESIAN_POINT('',(-30.7000004023314,-27.917868637708,124.2));
#332=CARTESIAN_POINT('',(-30.7000004023314,-111.465492526307,124.2));
#333=CARTESIAN_POINT('',(18.5266983306804,-111.465492526307,124.2));
#334=CARTESIAN_POINT('',(-27.6000004023314,-111.465492526307,124.2));
#335=CARTESIAN_POINT('',(36.5000005438924,-111.465492526307,124.2));
#336=CARTESIAN_POINT('',(-27.6000004023314,-31.017868637708,124.2));
#337=CARTESIAN_POINT('',(-27.6000004023314,-133.599120139788,124.2));
#338=CARTESIAN_POINT('',(18.5266983306804,-31.017868637708,124.2));
#339=CARTESIAN_POINT('',(-14.4558809141524,-31.017868637708,124.2));
#340=CARTESIAN_POINT('',(18.5266983306804,-31.617868637708,124.2));
#341=CARTESIAN_POINT('Origin',(36.5000005438924,-111.465492526307,121.1));
#342=CARTESIAN_POINT('',(18.5266983306804,-111.465492526307,121.1));
#343=CARTESIAN_POINT('',(18.5266983306804,-111.465492526307,121.1));
#344=CARTESIAN_POINT('',(-27.6000004023314,-111.465492526307,121.1));
#345=CARTESIAN_POINT('',(36.5000005438924,-111.465492526307,121.1));
#346=CARTESIAN_POINT('',(-27.6000004023314,-111.465492526307,121.1));
#347=CARTESIAN_POINT('Origin',(-1.91176142597334,-155.73274775327,121.1));
#348=CARTESIAN_POINT('',(-30.7000014581718,-111.465005294303,121.1));
#349=CARTESIAN_POINT('',(-30.7000004023314,-27.917868637708,121.1));
#350=CARTESIAN_POINT('',(-30.7000004023314,-111.465492526307,121.1));
#351=CARTESIAN_POINT('',(36.5000005438924,-27.917868637708,121.1));
#352=CARTESIAN_POINT('',(-30.7000004023314,-27.917868637708,121.1));
#353=CARTESIAN_POINT('',(36.5000005438924,-203.000002980232,121.1));
#354=CARTESIAN_POINT('',(36.5000005438924,-111.465492526307,121.1));
#355=CARTESIAN_POINT('',(-40.3235233958391,-203.000002980232,121.1));
#356=CARTESIAN_POINT('',(36.5000005438924,-203.000002980232,121.1));
#357=CARTESIAN_POINT('',(-40.3235233958391,-131.500001959503,121.1));
#358=CARTESIAN_POINT('',(-40.3235233958391,-200.000002980232,121.1));
#359=CARTESIAN_POINT('',(-40.3235233958391,-131.500001959503,121.1));
#360=CARTESIAN_POINT('',(18.5266983306804,-31.017868637708,121.1));
#361=CARTESIAN_POINT('',(18.5266983306804,-31.617868637708,121.1));
#362=CARTESIAN_POINT('',(-27.6000004023314,-31.017868637708,121.1));
#363=CARTESIAN_POINT('',(-14.4558809141524,-31.017868637708,121.1));
#364=CARTESIAN_POINT('',(-27.6000004023314,-133.599120139788,121.1));
#365=CARTESIAN_POINT('Origin',(-30.7000004023314,-27.917868637708,121.1));
#366=CARTESIAN_POINT('',(-30.7000014581718,-111.465005294303,121.1));
#367=CARTESIAN_POINT('',(-30.7000004023314,-27.917868637708,121.1));
#368=CARTESIAN_POINT('Origin',(-27.6000004023314,-111.465492526307,121.1));
#369=CARTESIAN_POINT('',(-27.6000004023314,-31.017868637708,121.1));
#370=CARTESIAN_POINT('Origin',(36.5000005438924,-27.917868637708,121.1));
#371=CARTESIAN_POINT('',(36.5000005438924,-27.917868637708,121.1));
#372=CARTESIAN_POINT('Origin',(18.5266983306804,-31.617868637708,121.1));
#373=CARTESIAN_POINT('',(18.5266983306804,-31.017868637708,121.1));
#374=CARTESIAN_POINT('Origin',(-27.0000004023314,-31.017868637708,121.1));
#375=CARTESIAN_POINT('Origin',(-40.3235233958391,-203.000002980232,121.1));
#376=CARTESIAN_POINT('',(36.5000005438924,-203.000002980232,121.1));
#377=CARTESIAN_POINT('',(-40.3235233958391,-203.000002980232,121.1));
#378=CARTESIAN_POINT('Origin',(-30.7000014581718,-111.465005294303,121.1));
#379=CARTESIAN_POINT('',(-40.3235233958391,-131.500001959503,121.1));
#380=CARTESIAN_POINT('Origin',(-40.3235233958391,-111.465492526307,121.1));
#381=CARTESIAN_POINT('Origin',(36.5000005438924,-200.000002980232,121.1));
#382=UNCERTAINTY_MEASURE_WITH_UNIT(LENGTH_MEASURE(0.01),#386,
'DISTANCE_ACCURACY_VALUE',
'Maximum model space distance between geometric entities at asserted c
onnectivities');
#383=UNCERTAINTY_MEASURE_WITH_UNIT(LENGTH_MEASURE(0.01),#386,
'DISTANCE_ACCURACY_VALUE',
'Maximum model space distance between geometric entities at asserted c
onnectivities');
#384=(
GEOMETRIC_REPRESENTATION_CONTEXT(3)
GLOBAL_UNCERTAINTY_ASSIGNED_CONTEXT((#382))
GLOBAL_UNIT_ASSIGNED_CONTEXT((#386,#388,#389))
REPRESENTATION_CONTEXT('','3D')
);
#385=(
GEOMETRIC_REPRESENTATION_CONTEXT(3)
GLOBAL_UNCERTAINTY_ASSIGNED_CONTEXT((#383))
GLOBAL_UNIT_ASSIGNED_CONTEXT((#386,#388,#389))
REPRESENTATION_CONTEXT('','3D')
);
#386=(
LENGTH_UNIT()
NAMED_UNIT(*)
SI_UNIT(.MILLI.,.METRE.)
);
#387=(
LENGTH_UNIT()
NAMED_UNIT(*)
SI_UNIT($,.METRE.)
);
#388=(
NAMED_UNIT(*)
PLANE_ANGLE_UNIT()
SI_UNIT($,.RADIAN.)
);
#389=(
NAMED_UNIT(*)
SI_UNIT($,.STERADIAN.)
SOLID_ANGLE_UNIT()
);
#390=SHAPE_DEFINITION_REPRESENTATION(#391,#392);
#391=PRODUCT_DEFINITION_SHAPE('',$,#394);
#392=SHAPE_REPRESENTATION('',(#250),#384);
#393=PRODUCT_DEFINITION_CONTEXT('part definition',#398,'design');
#394=PRODUCT_DEFINITION('2026-07-08-17-02-09-811','AirflowCover',#395,#393);
#395=PRODUCT_DEFINITION_FORMATION('',$,#400);
#396=PRODUCT_RELATED_PRODUCT_CATEGORY('AirflowCover','AirflowCover',(#400));
#397=APPLICATION_PROTOCOL_DEFINITION('international standard',
'automotive_design',2009,#398);
#398=APPLICATION_CONTEXT(
'Core Data for Automotive Mechanical Design Process');
#399=PRODUCT_CONTEXT('part definition',#398,'mechanical');
#400=PRODUCT('2026-07-08-17-02-09-811','AirflowCover',$,(#399));
#401=PRESENTATION_STYLE_ASSIGNMENT((#403));
#402=PRESENTATION_STYLE_ASSIGNMENT((#404));
#403=SURFACE_STYLE_USAGE(.BOTH.,#405);
#404=SURFACE_STYLE_USAGE(.BOTH.,#406);
#405=SURFACE_SIDE_STYLE('',(#407));
#406=SURFACE_SIDE_STYLE('',(#408));
#407=SURFACE_STYLE_FILL_AREA(#409);
#408=SURFACE_STYLE_FILL_AREA(#410);
#409=FILL_AREA_STYLE('\X\C7elik - Saten',(#411));
#410=FILL_AREA_STYLE('Opaque(28,28,28)',(#412));
#411=FILL_AREA_STYLE_COLOUR('\X\C7elik - Saten',#413);
#412=FILL_AREA_STYLE_COLOUR('Opaque(28,28,28)',#414);
#413=COLOUR_RGB('\X\C7elik - Saten',0.627450980392157,0.627450980392157,
0.627450980392157);
#414=COLOUR_RGB('Opaque(28,28,28)',0.109803921568627,0.109803921568627,
0.109803921568627);
ENDSEC;
END-ISO-10303-21;
