ISO-10303-21;
HEADER;
/* Generated by software containing ST-Developer
 * from STEP Tools, Inc. (www.steptools.com) 
 */

FILE_DESCRIPTION(
/* description */ (''),
/* implementation_level */ '2;1');

FILE_NAME(
/* name */ 'BeltTensioner.step',
/* time_stamp */ '2026-07-08T17:00:57+03:00',
/* author */ (''),
/* organization */ (''),
/* preprocessor_version */ 'ST-DEVELOPER v20.1',
/* originating_system */ 'Autodesk Translation Framework v15.8.0.0',
/* authorisation */ '');

FILE_SCHEMA (('AUTOMOTIVE_DESIGN { 1 0 10303 214 3 1 1 }'));
ENDSEC;

DATA;
#10=MECHANICAL_DESIGN_GEOMETRIC_PRESENTATION_REPRESENTATION('',(#13,#14,
#15,#16),#817);
#11=SHAPE_REPRESENTATION_RELATIONSHIP('SRR','None',#824,#12);
#12=ADVANCED_BREP_SHAPE_REPRESENTATION('',(#17,#18,#19,#20),#816);
#13=STYLED_ITEM('',(#834),#17);
#14=STYLED_ITEM('',(#834),#18);
#15=STYLED_ITEM('',(#834),#19);
#16=STYLED_ITEM('',(#834),#20);
#17=MANIFOLD_SOLID_BREP('G\X\F6vde4',#494);
#18=MANIFOLD_SOLID_BREP('G\X\F6vde5',#495);
#19=MANIFOLD_SOLID_BREP('G\X\F6vde6',#496);
#20=MANIFOLD_SOLID_BREP('G\X\F6vde7',#497);
#21=CYLINDRICAL_SURFACE('',#515,15.);
#22=CYLINDRICAL_SURFACE('',#524,2.55);
#23=CYLINDRICAL_SURFACE('',#526,2.55);
#24=CYLINDRICAL_SURFACE('',#527,3.);
#25=FACE_BOUND('',#59,.T.);
#26=FACE_BOUND('',#63,.T.);
#27=FACE_BOUND('',#78,.T.);
#28=FACE_BOUND('',#80,.T.);
#29=FACE_OUTER_BOUND('',#58,.T.);
#30=FACE_OUTER_BOUND('',#60,.T.);
#31=FACE_OUTER_BOUND('',#61,.T.);
#32=FACE_OUTER_BOUND('',#62,.T.);
#33=FACE_OUTER_BOUND('',#64,.T.);
#34=FACE_OUTER_BOUND('',#65,.T.);
#35=FACE_OUTER_BOUND('',#66,.T.);
#36=FACE_OUTER_BOUND('',#67,.T.);
#37=FACE_OUTER_BOUND('',#68,.T.);
#38=FACE_OUTER_BOUND('',#69,.T.);
#39=FACE_OUTER_BOUND('',#70,.T.);
#40=FACE_OUTER_BOUND('',#71,.T.);
#41=FACE_OUTER_BOUND('',#72,.T.);
#42=FACE_OUTER_BOUND('',#73,.T.);
#43=FACE_OUTER_BOUND('',#74,.T.);
#44=FACE_OUTER_BOUND('',#75,.T.);
#45=FACE_OUTER_BOUND('',#76,.T.);
#46=FACE_OUTER_BOUND('',#77,.T.);
#47=FACE_OUTER_BOUND('',#79,.T.);
#48=FACE_OUTER_BOUND('',#81,.T.);
#49=FACE_OUTER_BOUND('',#82,.T.);
#50=FACE_OUTER_BOUND('',#83,.T.);
#51=FACE_OUTER_BOUND('',#84,.T.);
#52=FACE_OUTER_BOUND('',#85,.T.);
#53=FACE_OUTER_BOUND('',#86,.T.);
#54=FACE_OUTER_BOUND('',#87,.T.);
#55=FACE_OUTER_BOUND('',#88,.T.);
#56=FACE_OUTER_BOUND('',#89,.T.);
#57=FACE_OUTER_BOUND('',#90,.T.);
#58=EDGE_LOOP('',(#314,#315,#316,#317));
#59=EDGE_LOOP('',(#318,#319,#320,#321));
#60=EDGE_LOOP('',(#322,#323,#324,#325));
#61=EDGE_LOOP('',(#326,#327,#328,#329));
#62=EDGE_LOOP('',(#330,#331,#332,#333));
#63=EDGE_LOOP('',(#334,#335,#336,#337));
#64=EDGE_LOOP('',(#338,#339,#340,#341));
#65=EDGE_LOOP('',(#342,#343,#344,#345));
#66=EDGE_LOOP('',(#346,#347,#348,#349));
#67=EDGE_LOOP('',(#350,#351,#352,#353));
#68=EDGE_LOOP('',(#354,#355,#356,#357));
#69=EDGE_LOOP('',(#358,#359,#360,#361));
#70=EDGE_LOOP('',(#362,#363,#364,#365));
#71=EDGE_LOOP('',(#366,#367,#368,#369));
#72=EDGE_LOOP('',(#370,#371,#372,#373));
#73=EDGE_LOOP('',(#374,#375,#376,#377));
#74=EDGE_LOOP('',(#378,#379,#380,#381));
#75=EDGE_LOOP('',(#382,#383,#384,#385));
#76=EDGE_LOOP('',(#386,#387,#388,#389));
#77=EDGE_LOOP('',(#390,#391,#392,#393,#394,#395));
#78=EDGE_LOOP('',(#396));
#79=EDGE_LOOP('',(#397,#398,#399,#400,#401,#402));
#80=EDGE_LOOP('',(#403));
#81=EDGE_LOOP('',(#404,#405,#406,#407));
#82=EDGE_LOOP('',(#408,#409,#410,#411));
#83=EDGE_LOOP('',(#412,#413,#414,#415));
#84=EDGE_LOOP('',(#416,#417,#418));
#85=EDGE_LOOP('',(#419,#420,#421));
#86=EDGE_LOOP('',(#422,#423,#424,#425));
#87=EDGE_LOOP('',(#426,#427,#428,#429));
#88=EDGE_LOOP('',(#430,#431,#432,#433));
#89=EDGE_LOOP('',(#434,#435,#436));
#90=EDGE_LOOP('',(#437,#438,#439));
#91=LINE('',#685,#146);
#92=LINE('',#687,#147);
#93=LINE('',#688,#148);
#94=LINE('',#691,#149);
#95=LINE('',#695,#150);
#96=LINE('',#699,#151);
#97=LINE('',#702,#152);
#98=LINE('',#705,#153);
#99=LINE('',#706,#154);
#100=LINE('',#709,#155);
#101=LINE('',#710,#156);
#102=LINE('',#713,#157);
#103=LINE('',#717,#158);
#104=LINE('',#720,#159);
#105=LINE('',#723,#160);
#106=LINE('',#724,#161);
#107=LINE('',#726,#162);
#108=LINE('',#728,#163);
#109=LINE('',#734,#164);
#110=LINE('',#739,#165);
#111=LINE('',#741,#166);
#112=LINE('',#743,#167);
#113=LINE('',#744,#168);
#114=LINE('',#747,#169);
#115=LINE('',#749,#170);
#116=LINE('',#750,#171);
#117=LINE('',#753,#172);
#118=LINE('',#755,#173);
#119=LINE('',#756,#174);
#120=LINE('',#759,#175);
#121=LINE('',#761,#176);
#122=LINE('',#762,#177);
#123=LINE('',#765,#178);
#124=LINE('',#767,#179);
#125=LINE('',#768,#180);
#126=LINE('',#770,#181);
#127=LINE('',#771,#182);
#128=LINE('',#777,#183);
#129=LINE('',#779,#184);
#130=LINE('',#781,#185);
#131=LINE('',#782,#186);
#132=LINE('',#785,#187);
#133=LINE('',#787,#188);
#134=LINE('',#788,#189);
#135=LINE('',#790,#190);
#136=LINE('',#791,#191);
#137=LINE('',#797,#192);
#138=LINE('',#799,#193);
#139=LINE('',#801,#194);
#140=LINE('',#802,#195);
#141=LINE('',#805,#196);
#142=LINE('',#807,#197);
#143=LINE('',#808,#198);
#144=LINE('',#810,#199);
#145=LINE('',#811,#200);
#146=VECTOR('',#554,10.);
#147=VECTOR('',#555,10.);
#148=VECTOR('',#556,10.);
#149=VECTOR('',#557,10.);
#150=VECTOR('',#560,10.);
#151=VECTOR('',#565,10.);
#152=VECTOR('',#568,10.);
#153=VECTOR('',#571,10.);
#154=VECTOR('',#572,10.);
#155=VECTOR('',#575,10.);
#156=VECTOR('',#576,10.);
#157=VECTOR('',#577,10.);
#158=VECTOR('',#580,10.);
#159=VECTOR('',#585,10.);
#160=VECTOR('',#590,10.);
#161=VECTOR('',#591,10.);
#162=VECTOR('',#594,10.);
#163=VECTOR('',#597,10.);
#164=VECTOR('',#604,3.);
#165=VECTOR('',#609,10.);
#166=VECTOR('',#610,10.);
#167=VECTOR('',#611,10.);
#168=VECTOR('',#612,10.);
#169=VECTOR('',#615,10.);
#170=VECTOR('',#616,10.);
#171=VECTOR('',#617,10.);
#172=VECTOR('',#620,10.);
#173=VECTOR('',#621,10.);
#174=VECTOR('',#622,10.);
#175=VECTOR('',#625,10.);
#176=VECTOR('',#626,10.);
#177=VECTOR('',#627,10.);
#178=VECTOR('',#630,10.);
#179=VECTOR('',#631,10.);
#180=VECTOR('',#632,10.);
#181=VECTOR('',#635,10.);
#182=VECTOR('',#636,10.);
#183=VECTOR('',#643,10.);
#184=VECTOR('',#644,10.);
#185=VECTOR('',#645,10.);
#186=VECTOR('',#646,10.);
#187=VECTOR('',#649,10.);
#188=VECTOR('',#650,10.);
#189=VECTOR('',#651,10.);
#190=VECTOR('',#654,10.);
#191=VECTOR('',#655,10.);
#192=VECTOR('',#662,10.);
#193=VECTOR('',#663,10.);
#194=VECTOR('',#664,10.);
#195=VECTOR('',#665,10.);
#196=VECTOR('',#668,10.);
#197=VECTOR('',#669,10.);
#198=VECTOR('',#670,10.);
#199=VECTOR('',#673,10.);
#200=VECTOR('',#674,10.);
#201=CIRCLE('',#512,15.);
#202=CIRCLE('',#513,2.55);
#203=CIRCLE('',#514,2.55);
#204=CIRCLE('',#516,15.);
#205=CIRCLE('',#519,2.55);
#206=CIRCLE('',#520,2.55);
#207=CIRCLE('',#528,3.);
#208=CIRCLE('',#529,3.);
#209=VERTEX_POINT('',#681);
#210=VERTEX_POINT('',#682);
#211=VERTEX_POINT('',#684);
#212=VERTEX_POINT('',#686);
#213=VERTEX_POINT('',#689);
#214=VERTEX_POINT('',#690);
#215=VERTEX_POINT('',#692);
#216=VERTEX_POINT('',#694);
#217=VERTEX_POINT('',#698);
#218=VERTEX_POINT('',#700);
#219=VERTEX_POINT('',#704);
#220=VERTEX_POINT('',#708);
#221=VERTEX_POINT('',#711);
#222=VERTEX_POINT('',#712);
#223=VERTEX_POINT('',#714);
#224=VERTEX_POINT('',#716);
#225=VERTEX_POINT('',#731);
#226=VERTEX_POINT('',#733);
#227=VERTEX_POINT('',#737);
#228=VERTEX_POINT('',#738);
#229=VERTEX_POINT('',#740);
#230=VERTEX_POINT('',#742);
#231=VERTEX_POINT('',#746);
#232=VERTEX_POINT('',#748);
#233=VERTEX_POINT('',#752);
#234=VERTEX_POINT('',#754);
#235=VERTEX_POINT('',#758);
#236=VERTEX_POINT('',#760);
#237=VERTEX_POINT('',#764);
#238=VERTEX_POINT('',#766);
#239=VERTEX_POINT('',#775);
#240=VERTEX_POINT('',#776);
#241=VERTEX_POINT('',#778);
#242=VERTEX_POINT('',#780);
#243=VERTEX_POINT('',#784);
#244=VERTEX_POINT('',#786);
#245=VERTEX_POINT('',#795);
#246=VERTEX_POINT('',#796);
#247=VERTEX_POINT('',#798);
#248=VERTEX_POINT('',#800);
#249=VERTEX_POINT('',#804);
#250=VERTEX_POINT('',#806);
#251=EDGE_CURVE('',#209,#210,#201,.T.);
#252=EDGE_CURVE('',#209,#211,#91,.T.);
#253=EDGE_CURVE('',#211,#212,#92,.T.);
#254=EDGE_CURVE('',#210,#212,#93,.T.);
#255=EDGE_CURVE('',#213,#214,#94,.T.);
#256=EDGE_CURVE('',#214,#215,#202,.T.);
#257=EDGE_CURVE('',#215,#216,#95,.T.);
#258=EDGE_CURVE('',#216,#213,#203,.T.);
#259=EDGE_CURVE('',#210,#217,#96,.T.);
#260=EDGE_CURVE('',#217,#218,#204,.T.);
#261=EDGE_CURVE('',#218,#209,#97,.T.);
#262=EDGE_CURVE('',#218,#219,#98,.F.);
#263=EDGE_CURVE('',#219,#211,#99,.T.);
#264=EDGE_CURVE('',#217,#220,#100,.T.);
#265=EDGE_CURVE('',#220,#219,#101,.T.);
#266=EDGE_CURVE('',#221,#222,#102,.T.);
#267=EDGE_CURVE('',#222,#223,#205,.T.);
#268=EDGE_CURVE('',#223,#224,#103,.T.);
#269=EDGE_CURVE('',#224,#221,#206,.T.);
#270=EDGE_CURVE('',#212,#220,#104,.T.);
#271=EDGE_CURVE('',#215,#224,#105,.T.);
#272=EDGE_CURVE('',#216,#223,#106,.T.);
#273=EDGE_CURVE('',#213,#222,#107,.T.);
#274=EDGE_CURVE('',#214,#221,#108,.T.);
#275=EDGE_CURVE('',#225,#225,#207,.T.);
#276=EDGE_CURVE('',#225,#226,#109,.T.);
#277=EDGE_CURVE('',#226,#226,#208,.T.);
#278=EDGE_CURVE('',#227,#228,#110,.T.);
#279=EDGE_CURVE('',#227,#229,#111,.T.);
#280=EDGE_CURVE('',#230,#229,#112,.T.);
#281=EDGE_CURVE('',#228,#230,#113,.T.);
#282=EDGE_CURVE('',#228,#231,#114,.T.);
#283=EDGE_CURVE('',#232,#230,#115,.T.);
#284=EDGE_CURVE('',#231,#232,#116,.T.);
#285=EDGE_CURVE('',#231,#233,#117,.T.);
#286=EDGE_CURVE('',#234,#232,#118,.T.);
#287=EDGE_CURVE('',#233,#234,#119,.T.);
#288=EDGE_CURVE('',#233,#235,#120,.T.);
#289=EDGE_CURVE('',#236,#234,#121,.T.);
#290=EDGE_CURVE('',#235,#236,#122,.T.);
#291=EDGE_CURVE('',#235,#237,#123,.T.);
#292=EDGE_CURVE('',#238,#236,#124,.T.);
#293=EDGE_CURVE('',#237,#238,#125,.T.);
#294=EDGE_CURVE('',#227,#237,#126,.T.);
#295=EDGE_CURVE('',#229,#238,#127,.T.);
#296=EDGE_CURVE('',#239,#240,#128,.T.);
#297=EDGE_CURVE('',#239,#241,#129,.T.);
#298=EDGE_CURVE('',#242,#241,#130,.T.);
#299=EDGE_CURVE('',#240,#242,#131,.T.);
#300=EDGE_CURVE('',#243,#240,#132,.T.);
#301=EDGE_CURVE('',#244,#242,#133,.T.);
#302=EDGE_CURVE('',#243,#244,#134,.T.);
#303=EDGE_CURVE('',#239,#243,#135,.T.);
#304=EDGE_CURVE('',#241,#244,#136,.T.);
#305=EDGE_CURVE('',#245,#246,#137,.T.);
#306=EDGE_CURVE('',#245,#247,#138,.T.);
#307=EDGE_CURVE('',#248,#247,#139,.T.);
#308=EDGE_CURVE('',#246,#248,#140,.T.);
#309=EDGE_CURVE('',#249,#246,#141,.T.);
#310=EDGE_CURVE('',#250,#248,#142,.T.);
#311=EDGE_CURVE('',#249,#250,#143,.T.);
#312=EDGE_CURVE('',#245,#249,#144,.T.);
#313=EDGE_CURVE('',#247,#250,#145,.T.);
#314=ORIENTED_EDGE('',*,*,#251,.F.);
#315=ORIENTED_EDGE('',*,*,#252,.T.);
#316=ORIENTED_EDGE('',*,*,#253,.T.);
#317=ORIENTED_EDGE('',*,*,#254,.F.);
#318=ORIENTED_EDGE('',*,*,#255,.T.);
#319=ORIENTED_EDGE('',*,*,#256,.T.);
#320=ORIENTED_EDGE('',*,*,#257,.T.);
#321=ORIENTED_EDGE('',*,*,#258,.T.);
#322=ORIENTED_EDGE('',*,*,#251,.T.);
#323=ORIENTED_EDGE('',*,*,#259,.T.);
#324=ORIENTED_EDGE('',*,*,#260,.T.);
#325=ORIENTED_EDGE('',*,*,#261,.T.);
#326=ORIENTED_EDGE('',*,*,#261,.F.);
#327=ORIENTED_EDGE('',*,*,#262,.T.);
#328=ORIENTED_EDGE('',*,*,#263,.T.);
#329=ORIENTED_EDGE('',*,*,#252,.F.);
#330=ORIENTED_EDGE('',*,*,#260,.F.);
#331=ORIENTED_EDGE('',*,*,#264,.T.);
#332=ORIENTED_EDGE('',*,*,#265,.T.);
#333=ORIENTED_EDGE('',*,*,#262,.F.);
#334=ORIENTED_EDGE('',*,*,#266,.T.);
#335=ORIENTED_EDGE('',*,*,#267,.T.);
#336=ORIENTED_EDGE('',*,*,#268,.T.);
#337=ORIENTED_EDGE('',*,*,#269,.T.);
#338=ORIENTED_EDGE('',*,*,#263,.F.);
#339=ORIENTED_EDGE('',*,*,#265,.F.);
#340=ORIENTED_EDGE('',*,*,#270,.F.);
#341=ORIENTED_EDGE('',*,*,#253,.F.);
#342=ORIENTED_EDGE('',*,*,#259,.F.);
#343=ORIENTED_EDGE('',*,*,#254,.T.);
#344=ORIENTED_EDGE('',*,*,#270,.T.);
#345=ORIENTED_EDGE('',*,*,#264,.F.);
#346=ORIENTED_EDGE('',*,*,#257,.F.);
#347=ORIENTED_EDGE('',*,*,#271,.T.);
#348=ORIENTED_EDGE('',*,*,#268,.F.);
#349=ORIENTED_EDGE('',*,*,#272,.F.);
#350=ORIENTED_EDGE('',*,*,#258,.F.);
#351=ORIENTED_EDGE('',*,*,#272,.T.);
#352=ORIENTED_EDGE('',*,*,#267,.F.);
#353=ORIENTED_EDGE('',*,*,#273,.F.);
#354=ORIENTED_EDGE('',*,*,#255,.F.);
#355=ORIENTED_EDGE('',*,*,#273,.T.);
#356=ORIENTED_EDGE('',*,*,#266,.F.);
#357=ORIENTED_EDGE('',*,*,#274,.F.);
#358=ORIENTED_EDGE('',*,*,#256,.F.);
#359=ORIENTED_EDGE('',*,*,#274,.T.);
#360=ORIENTED_EDGE('',*,*,#269,.F.);
#361=ORIENTED_EDGE('',*,*,#271,.F.);
#362=ORIENTED_EDGE('',*,*,#275,.F.);
#363=ORIENTED_EDGE('',*,*,#276,.T.);
#364=ORIENTED_EDGE('',*,*,#277,.F.);
#365=ORIENTED_EDGE('',*,*,#276,.F.);
#366=ORIENTED_EDGE('',*,*,#278,.F.);
#367=ORIENTED_EDGE('',*,*,#279,.T.);
#368=ORIENTED_EDGE('',*,*,#280,.F.);
#369=ORIENTED_EDGE('',*,*,#281,.F.);
#370=ORIENTED_EDGE('',*,*,#282,.F.);
#371=ORIENTED_EDGE('',*,*,#281,.T.);
#372=ORIENTED_EDGE('',*,*,#283,.F.);
#373=ORIENTED_EDGE('',*,*,#284,.F.);
#374=ORIENTED_EDGE('',*,*,#285,.F.);
#375=ORIENTED_EDGE('',*,*,#284,.T.);
#376=ORIENTED_EDGE('',*,*,#286,.F.);
#377=ORIENTED_EDGE('',*,*,#287,.F.);
#378=ORIENTED_EDGE('',*,*,#288,.F.);
#379=ORIENTED_EDGE('',*,*,#287,.T.);
#380=ORIENTED_EDGE('',*,*,#289,.F.);
#381=ORIENTED_EDGE('',*,*,#290,.F.);
#382=ORIENTED_EDGE('',*,*,#291,.F.);
#383=ORIENTED_EDGE('',*,*,#290,.T.);
#384=ORIENTED_EDGE('',*,*,#292,.F.);
#385=ORIENTED_EDGE('',*,*,#293,.F.);
#386=ORIENTED_EDGE('',*,*,#294,.T.);
#387=ORIENTED_EDGE('',*,*,#293,.T.);
#388=ORIENTED_EDGE('',*,*,#295,.F.);
#389=ORIENTED_EDGE('',*,*,#279,.F.);
#390=ORIENTED_EDGE('',*,*,#295,.T.);
#391=ORIENTED_EDGE('',*,*,#292,.T.);
#392=ORIENTED_EDGE('',*,*,#289,.T.);
#393=ORIENTED_EDGE('',*,*,#286,.T.);
#394=ORIENTED_EDGE('',*,*,#283,.T.);
#395=ORIENTED_EDGE('',*,*,#280,.T.);
#396=ORIENTED_EDGE('',*,*,#275,.T.);
#397=ORIENTED_EDGE('',*,*,#294,.F.);
#398=ORIENTED_EDGE('',*,*,#278,.T.);
#399=ORIENTED_EDGE('',*,*,#282,.T.);
#400=ORIENTED_EDGE('',*,*,#285,.T.);
#401=ORIENTED_EDGE('',*,*,#288,.T.);
#402=ORIENTED_EDGE('',*,*,#291,.T.);
#403=ORIENTED_EDGE('',*,*,#277,.T.);
#404=ORIENTED_EDGE('',*,*,#296,.F.);
#405=ORIENTED_EDGE('',*,*,#297,.T.);
#406=ORIENTED_EDGE('',*,*,#298,.F.);
#407=ORIENTED_EDGE('',*,*,#299,.F.);
#408=ORIENTED_EDGE('',*,*,#300,.T.);
#409=ORIENTED_EDGE('',*,*,#299,.T.);
#410=ORIENTED_EDGE('',*,*,#301,.F.);
#411=ORIENTED_EDGE('',*,*,#302,.F.);
#412=ORIENTED_EDGE('',*,*,#303,.T.);
#413=ORIENTED_EDGE('',*,*,#302,.T.);
#414=ORIENTED_EDGE('',*,*,#304,.F.);
#415=ORIENTED_EDGE('',*,*,#297,.F.);
#416=ORIENTED_EDGE('',*,*,#304,.T.);
#417=ORIENTED_EDGE('',*,*,#301,.T.);
#418=ORIENTED_EDGE('',*,*,#298,.T.);
#419=ORIENTED_EDGE('',*,*,#303,.F.);
#420=ORIENTED_EDGE('',*,*,#296,.T.);
#421=ORIENTED_EDGE('',*,*,#300,.F.);
#422=ORIENTED_EDGE('',*,*,#305,.F.);
#423=ORIENTED_EDGE('',*,*,#306,.T.);
#424=ORIENTED_EDGE('',*,*,#307,.F.);
#425=ORIENTED_EDGE('',*,*,#308,.F.);
#426=ORIENTED_EDGE('',*,*,#309,.T.);
#427=ORIENTED_EDGE('',*,*,#308,.T.);
#428=ORIENTED_EDGE('',*,*,#310,.F.);
#429=ORIENTED_EDGE('',*,*,#311,.F.);
#430=ORIENTED_EDGE('',*,*,#312,.T.);
#431=ORIENTED_EDGE('',*,*,#311,.T.);
#432=ORIENTED_EDGE('',*,*,#313,.F.);
#433=ORIENTED_EDGE('',*,*,#306,.F.);
#434=ORIENTED_EDGE('',*,*,#313,.T.);
#435=ORIENTED_EDGE('',*,*,#310,.T.);
#436=ORIENTED_EDGE('',*,*,#307,.T.);
#437=ORIENTED_EDGE('',*,*,#312,.F.);
#438=ORIENTED_EDGE('',*,*,#305,.T.);
#439=ORIENTED_EDGE('',*,*,#309,.F.);
#440=PLANE('',#511);
#441=PLANE('',#517);
#442=PLANE('',#518);
#443=PLANE('',#521);
#444=PLANE('',#522);
#445=PLANE('',#523);
#446=PLANE('',#525);
#447=PLANE('',#530);
#448=PLANE('',#531);
#449=PLANE('',#532);
#450=PLANE('',#533);
#451=PLANE('',#534);
#452=PLANE('',#535);
#453=PLANE('',#536);
#454=PLANE('',#537);
#455=PLANE('',#538);
#456=PLANE('',#539);
#457=PLANE('',#540);
#458=PLANE('',#541);
#459=PLANE('',#542);
#460=PLANE('',#543);
#461=PLANE('',#544);
#462=PLANE('',#545);
#463=PLANE('',#546);
#464=PLANE('',#547);
#465=ADVANCED_FACE('',(#29,#25),#440,.F.);
#466=ADVANCED_FACE('',(#30),#21,.T.);
#467=ADVANCED_FACE('',(#31),#441,.F.);
#468=ADVANCED_FACE('',(#32,#26),#442,.F.);
#469=ADVANCED_FACE('',(#33),#443,.F.);
#470=ADVANCED_FACE('',(#34),#444,.F.);
#471=ADVANCED_FACE('',(#35),#445,.F.);
#472=ADVANCED_FACE('',(#36),#22,.F.);
#473=ADVANCED_FACE('',(#37),#446,.F.);
#474=ADVANCED_FACE('',(#38),#23,.F.);
#475=ADVANCED_FACE('',(#39),#24,.F.);
#476=ADVANCED_FACE('',(#40),#447,.T.);
#477=ADVANCED_FACE('',(#41),#448,.T.);
#478=ADVANCED_FACE('',(#42),#449,.T.);
#479=ADVANCED_FACE('',(#43),#450,.T.);
#480=ADVANCED_FACE('',(#44),#451,.T.);
#481=ADVANCED_FACE('',(#45),#452,.T.);
#482=ADVANCED_FACE('',(#46,#27),#453,.T.);
#483=ADVANCED_FACE('',(#47,#28),#454,.F.);
#484=ADVANCED_FACE('',(#48),#455,.T.);
#485=ADVANCED_FACE('',(#49),#456,.T.);
#486=ADVANCED_FACE('',(#50),#457,.T.);
#487=ADVANCED_FACE('',(#51),#458,.T.);
#488=ADVANCED_FACE('',(#52),#459,.F.);
#489=ADVANCED_FACE('',(#53),#460,.T.);
#490=ADVANCED_FACE('',(#54),#461,.T.);
#491=ADVANCED_FACE('',(#55),#462,.T.);
#492=ADVANCED_FACE('',(#56),#463,.T.);
#493=ADVANCED_FACE('',(#57),#464,.F.);
#494=CLOSED_SHELL('',(#465,#466,#467,#468,#469,#470,#471,#472,#473,#474));
#495=CLOSED_SHELL('',(#475,#476,#477,#478,#479,#480,#481,#482,#483));
#496=CLOSED_SHELL('',(#484,#485,#486,#487,#488));
#497=CLOSED_SHELL('',(#489,#490,#491,#492,#493));
#498=DERIVED_UNIT_ELEMENT(#500,1.);
#499=DERIVED_UNIT_ELEMENT(#819,-3.);
#500=(
MASS_UNIT()
NAMED_UNIT(*)
SI_UNIT(.KILO.,.GRAM.)
);
#501=DERIVED_UNIT((#498,#499));
#502=MEASURE_REPRESENTATION_ITEM('density measure',
POSITIVE_RATIO_MEASURE(7850.),#501);
#503=PROPERTY_DEFINITION_REPRESENTATION(#508,#505);
#504=PROPERTY_DEFINITION_REPRESENTATION(#509,#506);
#505=REPRESENTATION('material name',(#507),#816);
#506=REPRESENTATION('density',(#502),#816);
#507=DESCRIPTIVE_REPRESENTATION_ITEM('\X\C7elik','\X\C7elik');
#508=PROPERTY_DEFINITION('material property','material name',#826);
#509=PROPERTY_DEFINITION('material property','density of part',#826);
#510=AXIS2_PLACEMENT_3D('',#679,#548,#549);
#511=AXIS2_PLACEMENT_3D('',#680,#550,#551);
#512=AXIS2_PLACEMENT_3D('',#683,#552,#553);
#513=AXIS2_PLACEMENT_3D('',#693,#558,#559);
#514=AXIS2_PLACEMENT_3D('',#696,#561,#562);
#515=AXIS2_PLACEMENT_3D('',#697,#563,#564);
#516=AXIS2_PLACEMENT_3D('',#701,#566,#567);
#517=AXIS2_PLACEMENT_3D('',#703,#569,#570);
#518=AXIS2_PLACEMENT_3D('',#707,#573,#574);
#519=AXIS2_PLACEMENT_3D('',#715,#578,#579);
#520=AXIS2_PLACEMENT_3D('',#718,#581,#582);
#521=AXIS2_PLACEMENT_3D('',#719,#583,#584);
#522=AXIS2_PLACEMENT_3D('',#721,#586,#587);
#523=AXIS2_PLACEMENT_3D('',#722,#588,#589);
#524=AXIS2_PLACEMENT_3D('',#725,#592,#593);
#525=AXIS2_PLACEMENT_3D('',#727,#595,#596);
#526=AXIS2_PLACEMENT_3D('',#729,#598,#599);
#527=AXIS2_PLACEMENT_3D('',#730,#600,#601);
#528=AXIS2_PLACEMENT_3D('',#732,#602,#603);
#529=AXIS2_PLACEMENT_3D('',#735,#605,#606);
#530=AXIS2_PLACEMENT_3D('',#736,#607,#608);
#531=AXIS2_PLACEMENT_3D('',#745,#613,#614);
#532=AXIS2_PLACEMENT_3D('',#751,#618,#619);
#533=AXIS2_PLACEMENT_3D('',#757,#623,#624);
#534=AXIS2_PLACEMENT_3D('',#763,#628,#629);
#535=AXIS2_PLACEMENT_3D('',#769,#633,#634);
#536=AXIS2_PLACEMENT_3D('',#772,#637,#638);
#537=AXIS2_PLACEMENT_3D('',#773,#639,#640);
#538=AXIS2_PLACEMENT_3D('',#774,#641,#642);
#539=AXIS2_PLACEMENT_3D('',#783,#647,#648);
#540=AXIS2_PLACEMENT_3D('',#789,#652,#653);
#541=AXIS2_PLACEMENT_3D('',#792,#656,#657);
#542=AXIS2_PLACEMENT_3D('',#793,#658,#659);
#543=AXIS2_PLACEMENT_3D('',#794,#660,#661);
#544=AXIS2_PLACEMENT_3D('',#803,#666,#667);
#545=AXIS2_PLACEMENT_3D('',#809,#671,#672);
#546=AXIS2_PLACEMENT_3D('',#812,#675,#676);
#547=AXIS2_PLACEMENT_3D('',#813,#677,#678);
#548=DIRECTION('axis',(0.,0.,1.));
#549=DIRECTION('refdir',(1.,0.,0.));
#550=DIRECTION('center_axis',(0.,1.,0.));
#551=DIRECTION('ref_axis',(0.,0.,-1.));
#552=DIRECTION('center_axis',(0.,1.,0.));
#553=DIRECTION('ref_axis',(0.707106781186547,0.,0.707106781186547));
#554=DIRECTION('',(0.,0.,-1.));
#555=DIRECTION('',(1.,0.,0.));
#556=DIRECTION('',(0.,0.,-1.));
#557=DIRECTION('',(2.27738068167324E-16,0.,1.));
#558=DIRECTION('center_axis',(0.,1.,0.));
#559=DIRECTION('ref_axis',(1.,0.,0.));
#560=DIRECTION('',(0.,0.,-1.));
#561=DIRECTION('center_axis',(0.,1.,0.));
#562=DIRECTION('ref_axis',(1.,0.,0.));
#563=DIRECTION('center_axis',(0.,-1.,0.));
#564=DIRECTION('ref_axis',(-0.707106781186547,0.,0.707106781186547));
#565=DIRECTION('',(0.,1.,0.));
#566=DIRECTION('center_axis',(0.,-1.,0.));
#567=DIRECTION('ref_axis',(-0.707106781186547,0.,0.707106781186547));
#568=DIRECTION('',(0.,-1.,0.));
#569=DIRECTION('center_axis',(1.,0.,0.));
#570=DIRECTION('ref_axis',(0.,0.,-1.));
#571=DIRECTION('',(0.,0.,1.));
#572=DIRECTION('',(0.,-1.,0.));
#573=DIRECTION('center_axis',(0.,-1.,0.));
#574=DIRECTION('ref_axis',(0.,0.,1.));
#575=DIRECTION('',(0.,0.,-1.));
#576=DIRECTION('',(-1.,0.,0.));
#577=DIRECTION('',(-2.27738068167324E-16,0.,-1.));
#578=DIRECTION('center_axis',(0.,-1.,0.));
#579=DIRECTION('ref_axis',(1.,0.,0.));
#580=DIRECTION('',(0.,0.,1.));
#581=DIRECTION('center_axis',(0.,-1.,0.));
#582=DIRECTION('ref_axis',(1.,0.,0.));
#583=DIRECTION('center_axis',(0.,0.,1.));
#584=DIRECTION('ref_axis',(1.,0.,0.));
#585=DIRECTION('',(0.,1.,0.));
#586=DIRECTION('center_axis',(-1.,0.,0.));
#587=DIRECTION('ref_axis',(0.,0.,1.));
#588=DIRECTION('center_axis',(1.,0.,0.));
#589=DIRECTION('ref_axis',(0.,0.,-1.));
#590=DIRECTION('',(0.,1.,0.));
#591=DIRECTION('',(0.,1.,0.));
#592=DIRECTION('center_axis',(0.,1.,0.));
#593=DIRECTION('ref_axis',(1.,0.,0.));
#594=DIRECTION('',(0.,1.,0.));
#595=DIRECTION('center_axis',(-1.,0.,2.27738068167324E-16));
#596=DIRECTION('ref_axis',(2.27738068167324E-16,0.,1.));
#597=DIRECTION('',(0.,1.,0.));
#598=DIRECTION('center_axis',(0.,1.,0.));
#599=DIRECTION('ref_axis',(1.,0.,0.));
#600=DIRECTION('center_axis',(0.,0.,-1.));
#601=DIRECTION('ref_axis',(-1.,0.,0.));
#602=DIRECTION('center_axis',(0.,0.,-1.));
#603=DIRECTION('ref_axis',(-1.,0.,0.));
#604=DIRECTION('',(0.,0.,-1.));
#605=DIRECTION('center_axis',(0.,0.,1.));
#606=DIRECTION('ref_axis',(-1.,0.,0.));
#607=DIRECTION('center_axis',(0.,-1.,0.));
#608=DIRECTION('ref_axis',(1.,0.,0.));
#609=DIRECTION('',(-1.,0.,0.));
#610=DIRECTION('',(0.,0.,1.));
#611=DIRECTION('',(1.,0.,0.));
#612=DIRECTION('',(0.,0.,1.));
#613=DIRECTION('center_axis',(-0.614649576762478,0.788800290178513,0.));
#614=DIRECTION('ref_axis',(-0.788800290178513,-0.614649576762478,0.));
#615=DIRECTION('',(0.788800290178513,0.614649576762478,0.));
#616=DIRECTION('',(-0.788800290178513,-0.614649576762478,0.));
#617=DIRECTION('',(0.,0.,1.));
#618=DIRECTION('center_axis',(-1.,0.,0.));
#619=DIRECTION('ref_axis',(0.,-1.,0.));
#620=DIRECTION('',(0.,1.,0.));
#621=DIRECTION('',(0.,-1.,0.));
#622=DIRECTION('',(0.,0.,1.));
#623=DIRECTION('center_axis',(0.,1.,0.));
#624=DIRECTION('ref_axis',(-1.,0.,0.));
#625=DIRECTION('',(1.,0.,0.));
#626=DIRECTION('',(-1.,0.,0.));
#627=DIRECTION('',(0.,0.,1.));
#628=DIRECTION('center_axis',(1.,0.,0.));
#629=DIRECTION('ref_axis',(0.,1.,0.));
#630=DIRECTION('',(0.,-1.,0.));
#631=DIRECTION('',(0.,1.,0.));
#632=DIRECTION('',(0.,0.,1.));
#633=DIRECTION('center_axis',(0.634965075676551,0.772540842073137,0.));
#634=DIRECTION('ref_axis',(-0.772540842073137,0.634965075676551,0.));
#635=DIRECTION('',(-0.772540842073137,0.634965075676551,0.));
#636=DIRECTION('',(-0.772540842073137,0.634965075676551,0.));
#637=DIRECTION('center_axis',(0.,0.,1.));
#638=DIRECTION('ref_axis',(1.,0.,0.));
#639=DIRECTION('center_axis',(0.,0.,1.));
#640=DIRECTION('ref_axis',(-1.,0.,0.));
#641=DIRECTION('center_axis',(4.30813162290046E-17,0.78086880944303,0.624695047554424));
#642=DIRECTION('ref_axis',(-2.4989078533413E-16,0.624695047554424,-0.78086880944303));
#643=DIRECTION('',(2.4989078533413E-16,-0.624695047554424,0.78086880944303));
#644=DIRECTION('',(-1.,-1.22464679914735E-16,2.22044604925031E-16));
#645=DIRECTION('',(-2.4989078533413E-16,0.624695047554424,-0.78086880944303));
#646=DIRECTION('',(-1.,-1.22464679914735E-16,2.22044604925031E-16));
#647=DIRECTION('center_axis',(1.22464684326365E-16,-1.,1.98682153692194E-8));
#648=DIRECTION('ref_axis',(2.22044602491877E-16,1.98682153692194E-8,1.));
#649=DIRECTION('',(2.22044602491877E-16,1.98682153692194E-8,1.));
#650=DIRECTION('',(2.22044602491877E-16,1.98682153692194E-8,1.));
#651=DIRECTION('',(-1.,-1.22464679914735E-16,2.22044604925031E-16));
#652=DIRECTION('center_axis',(-2.22044604925031E-16,0.,-1.));
#653=DIRECTION('ref_axis',(1.22464679914735E-16,-1.,-2.71926214689378E-32));
#654=DIRECTION('',(1.22464679914735E-16,-1.,-2.71926214689378E-32));
#655=DIRECTION('',(1.22464679914735E-16,-1.,-2.71926214689378E-32));
#656=DIRECTION('center_axis',(-1.,-1.22464679914735E-16,2.22044604925031E-16));
#657=DIRECTION('ref_axis',(-2.22044604925031E-16,0.,-1.));
#658=DIRECTION('center_axis',(-1.,-1.22464679914735E-16,2.22044604925031E-16));
#659=DIRECTION('ref_axis',(2.22044604925031E-16,0.,1.));
#660=DIRECTION('center_axis',(4.30813162290046E-17,0.78086880944303,0.624695047554424));
#661=DIRECTION('ref_axis',(-2.4989078533413E-16,0.624695047554424,-0.78086880944303));
#662=DIRECTION('',(2.4989078533413E-16,-0.624695047554424,0.78086880944303));
#663=DIRECTION('',(-1.,-1.22464679914735E-16,2.22044604925031E-16));
#664=DIRECTION('',(-2.4989078533413E-16,0.624695047554424,-0.78086880944303));
#665=DIRECTION('',(-1.,-1.22464679914735E-16,2.22044604925031E-16));
#666=DIRECTION('center_axis',(1.22464684326365E-16,-1.,1.98682153692194E-8));
#667=DIRECTION('ref_axis',(2.22044602491877E-16,1.98682153692194E-8,1.));
#668=DIRECTION('',(2.22044602491877E-16,1.98682153692194E-8,1.));
#669=DIRECTION('',(2.22044602491877E-16,1.98682153692194E-8,1.));
#670=DIRECTION('',(-1.,-1.22464679914735E-16,2.22044604925031E-16));
#671=DIRECTION('center_axis',(-2.22044604925031E-16,0.,-1.));
#672=DIRECTION('ref_axis',(1.22464679914735E-16,-1.,-2.71926214689378E-32));
#673=DIRECTION('',(1.22464679914735E-16,-1.,-2.71926214689378E-32));
#674=DIRECTION('',(1.22464679914735E-16,-1.,-2.71926214689378E-32));
#675=DIRECTION('center_axis',(-1.,-1.22464679914735E-16,2.22044604925031E-16));
#676=DIRECTION('ref_axis',(-2.22044604925031E-16,0.,-1.));
#677=DIRECTION('center_axis',(-1.,-1.22464679914735E-16,2.22044604925031E-16));
#678=DIRECTION('ref_axis',(2.22044604925031E-16,0.,1.));
#679=CARTESIAN_POINT('',(0.,0.,0.));
#680=CARTESIAN_POINT('Origin',(-23.5001174681,-8.,57.1));
#681=CARTESIAN_POINT('',(-38.5001174681,-8.,82.1));
#682=CARTESIAN_POINT('',(-8.50011746810002,-8.,82.1));
#683=CARTESIAN_POINT('Origin',(-23.5001174681,-8.,82.1));
#684=CARTESIAN_POINT('',(-38.5001174681,-8.,22.1));
#685=CARTESIAN_POINT('',(-38.5001174681,-8.,57.1));
#686=CARTESIAN_POINT('',(-8.50011746810002,-8.,22.1));
#687=CARTESIAN_POINT('',(-43.4083662217422,-8.,22.1));
#688=CARTESIAN_POINT('',(-8.50011746810002,-8.,57.1));
#689=CARTESIAN_POINT('',(-26.050000372529,-8.,60.000001013279));
#690=CARTESIAN_POINT('',(-26.0499988824129,-8.,79.5));
#691=CARTESIAN_POINT('',(-26.0499988824129,-8.,58.5500005066395));
#692=CARTESIAN_POINT('',(-20.9499988824129,-8.,79.5));
#693=CARTESIAN_POINT('Origin',(-23.4999988824129,-8.,79.5));
#694=CARTESIAN_POINT('',(-20.950000372529,-8.,60.000001013279));
#695=CARTESIAN_POINT('',(-20.9499988824129,-8.,68.3));
#696=CARTESIAN_POINT('Origin',(-23.500000372529,-8.,60.0000010281801));
#697=CARTESIAN_POINT('Origin',(-23.5001174681,-6.,82.1));
#698=CARTESIAN_POINT('',(-8.50011746810002,-5.,82.1));
#699=CARTESIAN_POINT('',(-8.50011746810002,-6.,82.1));
#700=CARTESIAN_POINT('',(-38.5001174681,-5.,82.1));
#701=CARTESIAN_POINT('Origin',(-23.5001174681,-5.,82.1));
#702=CARTESIAN_POINT('',(-38.5001174681,-6.,82.1));
#703=CARTESIAN_POINT('Origin',(-38.5001174681,-6.,57.1));
#704=CARTESIAN_POINT('',(-38.5001174681,-5.,22.1));
#705=CARTESIAN_POINT('',(-38.5001174681,-5.,57.1));
#706=CARTESIAN_POINT('',(-38.5001174681,-81.3483798409978,22.1));
#707=CARTESIAN_POINT('Origin',(-23.5001174681,-5.,57.1));
#708=CARTESIAN_POINT('',(-8.50011746810002,-5.,22.1));
#709=CARTESIAN_POINT('',(-8.50011746810002,-5.,57.1));
#710=CARTESIAN_POINT('',(-43.4083662217422,-5.,22.1));
#711=CARTESIAN_POINT('',(-26.0499988824129,-5.,79.5));
#712=CARTESIAN_POINT('',(-26.050000372529,-5.,60.000001013279));
#713=CARTESIAN_POINT('',(-26.0499988824129,-5.,58.5500005066395));
#714=CARTESIAN_POINT('',(-20.950000372529,-5.,60.000001013279));
#715=CARTESIAN_POINT('Origin',(-23.500000372529,-5.,60.0000010281801));
#716=CARTESIAN_POINT('',(-20.9499988824129,-5.,79.5));
#717=CARTESIAN_POINT('',(-20.9499988824129,-5.,68.3));
#718=CARTESIAN_POINT('Origin',(-23.4999988824129,-5.,79.5));
#719=CARTESIAN_POINT('Origin',(-63.3166149753844,-156.696759681996,22.1));
#720=CARTESIAN_POINT('',(-8.50011746810002,-81.3483798409978,22.1));
#721=CARTESIAN_POINT('Origin',(-8.50011746810002,-6.,57.1));
#722=CARTESIAN_POINT('Origin',(-20.9499988824129,-16.5,79.5));
#723=CARTESIAN_POINT('',(-20.9499988824129,-16.5,79.5));
#724=CARTESIAN_POINT('',(-20.950000372529,-16.5,60.000001013279));
#725=CARTESIAN_POINT('Origin',(-23.500000372529,-16.5,60.0000010281801));
#726=CARTESIAN_POINT('',(-26.050000372529,-16.5,60.000001013279));
#727=CARTESIAN_POINT('Origin',(-26.0499988824129,-16.5,60.000001013279));
#728=CARTESIAN_POINT('',(-26.0499988824129,-16.5,79.5));
#729=CARTESIAN_POINT('Origin',(-23.4999988824129,-16.5,79.5));
#730=CARTESIAN_POINT('Origin',(-23.3001174681,1.,27.1));
#731=CARTESIAN_POINT('',(-20.3001174681,1.,27.1));
#732=CARTESIAN_POINT('Origin',(-23.3001174681,1.,27.1));
#733=CARTESIAN_POINT('',(-20.3001174681,1.,22.1));
#734=CARTESIAN_POINT('',(-20.3001174681,0.999999999999999,27.1));
#735=CARTESIAN_POINT('Origin',(-23.3001174681,1.,22.1));
#736=CARTESIAN_POINT('Origin',(-38.5001174681,-5.,22.1));
#737=CARTESIAN_POINT('',(-8.50011746810002,-5.,22.1));
#738=CARTESIAN_POINT('',(-38.5001174681,-5.,22.1));
#739=CARTESIAN_POINT('',(-8.50011746810002,-5.,22.1));
#740=CARTESIAN_POINT('',(-8.50011746810002,-5.,27.1));
#741=CARTESIAN_POINT('',(-8.50011746810002,-5.,22.1));
#742=CARTESIAN_POINT('',(-38.5001174681,-5.,27.1));
#743=CARTESIAN_POINT('',(-8.50011746810002,-5.,27.1));
#744=CARTESIAN_POINT('',(-38.5001174681,-5.,22.1));
#745=CARTESIAN_POINT('Origin',(-30.8001174681,1.,22.1));
#746=CARTESIAN_POINT('',(-30.8001174681,1.,22.1));
#747=CARTESIAN_POINT('',(-38.5001174681,-5.,22.1));
#748=CARTESIAN_POINT('',(-30.8001174681,1.,27.1));
#749=CARTESIAN_POINT('',(-38.5001174681,-5.,27.1));
#750=CARTESIAN_POINT('',(-30.8001174681,1.,22.1));
#751=CARTESIAN_POINT('Origin',(-30.8001174681,7.,22.1));
#752=CARTESIAN_POINT('',(-30.8001174681,7.,22.1));
#753=CARTESIAN_POINT('',(-30.8001174681,-5.,22.1));
#754=CARTESIAN_POINT('',(-30.8001174681,7.,27.1));
#755=CARTESIAN_POINT('',(-30.8001174681,-5.,27.1));
#756=CARTESIAN_POINT('',(-30.8001174681,7.,22.1));
#757=CARTESIAN_POINT('Origin',(-15.8001174681,7.,22.1));
#758=CARTESIAN_POINT('',(-15.8001174681,7.,22.1));
#759=CARTESIAN_POINT('',(-30.8001174681,7.,22.1));
#760=CARTESIAN_POINT('',(-15.8001174681,7.,27.1));
#761=CARTESIAN_POINT('',(-30.8001174681,7.,27.1));
#762=CARTESIAN_POINT('',(-15.8001174681,7.,22.1));
#763=CARTESIAN_POINT('Origin',(-15.8001174681,1.,22.1));
#764=CARTESIAN_POINT('',(-15.8001174681,1.,22.1));
#765=CARTESIAN_POINT('',(-15.8001174681,7.,22.1));
#766=CARTESIAN_POINT('',(-15.8001174681,1.,27.1));
#767=CARTESIAN_POINT('',(-15.8001174681,7.,27.1));
#768=CARTESIAN_POINT('',(-15.8001174681,1.,22.1));
#769=CARTESIAN_POINT('Origin',(-8.50011746810002,-5.,22.1));
#770=CARTESIAN_POINT('',(-8.50011746810002,-5.,22.1));
#771=CARTESIAN_POINT('',(-8.50011746810002,-5.,27.1));
#772=CARTESIAN_POINT('Origin',(-23.5001174681,1.,27.1));
#773=CARTESIAN_POINT('Origin',(-23.5001174681,1.,22.1));
#774=CARTESIAN_POINT('Origin',(-15.7999993115663,-4.99999964237213,42.1));
#775=CARTESIAN_POINT('',(-15.7999993115663,7.00000008940697,27.1000003352761));
#776=CARTESIAN_POINT('',(-15.7999993115663,-4.99999964237213,42.1));
#777=CARTESIAN_POINT('',(-15.7999993115663,7.00000008940697,27.1000003352761));
#778=CARTESIAN_POINT('',(-17.2999993115663,7.00000008940697,27.1000003352761));
#779=CARTESIAN_POINT('',(-15.7999993115663,7.00000008940697,27.1000003352761));
#780=CARTESIAN_POINT('',(-17.2999993115663,-4.99999964237213,42.1));
#781=CARTESIAN_POINT('',(-17.2999993115663,7.00000008940697,27.1000003352761));
#782=CARTESIAN_POINT('',(-15.7999993115663,-4.99999964237213,42.1));
#783=CARTESIAN_POINT('Origin',(-15.7999993115663,-4.99999994039535,27.1000003352761));
#784=CARTESIAN_POINT('',(-15.7999993115663,-4.99999994039535,27.1000003352761));
#785=CARTESIAN_POINT('',(-15.7999993115663,-4.99999994039535,27.1000003352761));
#786=CARTESIAN_POINT('',(-17.2999993115663,-4.99999994039535,27.1000003352761));
#787=CARTESIAN_POINT('',(-17.2999993115663,-4.99999994039535,27.1000003352761));
#788=CARTESIAN_POINT('',(-15.7999993115663,-4.99999994039535,27.1000003352761));
#789=CARTESIAN_POINT('Origin',(-15.7999993115663,7.00000008940697,27.1000003352761));
#790=CARTESIAN_POINT('',(-15.7999993115663,7.00000008940697,27.1000003352761));
#791=CARTESIAN_POINT('',(-17.2999993115663,7.00000008940697,27.1000003352761));
#792=CARTESIAN_POINT('Origin',(-17.2999993115663,1.00000007450581,34.6000001676381));
#793=CARTESIAN_POINT('Origin',(-15.7999993115663,1.00000007450581,34.6000001676381));
#794=CARTESIAN_POINT('Origin',(-29.2999993115663,-4.99999964237213,42.1));
#795=CARTESIAN_POINT('',(-29.2999993115663,7.00000008940697,27.1000003352761));
#796=CARTESIAN_POINT('',(-29.2999993115663,-4.99999964237213,42.1));
#797=CARTESIAN_POINT('',(-29.2999993115663,7.00000008940697,27.1000003352761));
#798=CARTESIAN_POINT('',(-30.7999993115663,7.00000008940697,27.1000003352761));
#799=CARTESIAN_POINT('',(-29.2999993115663,7.00000008940697,27.1000003352761));
#800=CARTESIAN_POINT('',(-30.7999993115663,-4.99999964237213,42.1));
#801=CARTESIAN_POINT('',(-30.7999993115663,7.00000008940697,27.1000003352761));
#802=CARTESIAN_POINT('',(-29.2999993115663,-4.99999964237213,42.1));
#803=CARTESIAN_POINT('Origin',(-29.2999993115663,-4.99999994039535,27.1000003352761));
#804=CARTESIAN_POINT('',(-29.2999993115663,-4.99999994039535,27.1000003352761));
#805=CARTESIAN_POINT('',(-29.2999993115663,-4.99999994039535,27.1000003352761));
#806=CARTESIAN_POINT('',(-30.7999993115663,-4.99999994039535,27.1000003352761));
#807=CARTESIAN_POINT('',(-30.7999993115663,-4.99999994039535,27.1000003352761));
#808=CARTESIAN_POINT('',(-29.2999993115663,-4.99999994039535,27.1000003352761));
#809=CARTESIAN_POINT('Origin',(-29.2999993115663,7.00000008940697,27.1000003352761));
#810=CARTESIAN_POINT('',(-29.2999993115663,7.00000008940697,27.1000003352761));
#811=CARTESIAN_POINT('',(-30.7999993115663,7.00000008940697,27.1000003352761));
#812=CARTESIAN_POINT('Origin',(-30.7999993115663,1.00000007450581,34.6000001676381));
#813=CARTESIAN_POINT('Origin',(-29.2999993115663,1.00000007450581,34.6000001676381));
#814=UNCERTAINTY_MEASURE_WITH_UNIT(LENGTH_MEASURE(0.01),#818,
'DISTANCE_ACCURACY_VALUE',
'Maximum model space distance between geometric entities at asserted c
onnectivities');
#815=UNCERTAINTY_MEASURE_WITH_UNIT(LENGTH_MEASURE(0.01),#818,
'DISTANCE_ACCURACY_VALUE',
'Maximum model space distance between geometric entities at asserted c
onnectivities');
#816=(
GEOMETRIC_REPRESENTATION_CONTEXT(3)
GLOBAL_UNCERTAINTY_ASSIGNED_CONTEXT((#814))
GLOBAL_UNIT_ASSIGNED_CONTEXT((#818,#820,#821))
REPRESENTATION_CONTEXT('','3D')
);
#817=(
GEOMETRIC_REPRESENTATION_CONTEXT(3)
GLOBAL_UNCERTAINTY_ASSIGNED_CONTEXT((#815))
GLOBAL_UNIT_ASSIGNED_CONTEXT((#818,#820,#821))
REPRESENTATION_CONTEXT('','3D')
);
#818=(
LENGTH_UNIT()
NAMED_UNIT(*)
SI_UNIT(.MILLI.,.METRE.)
);
#819=(
LENGTH_UNIT()
NAMED_UNIT(*)
SI_UNIT($,.METRE.)
);
#820=(
NAMED_UNIT(*)
PLANE_ANGLE_UNIT()
SI_UNIT($,.RADIAN.)
);
#821=(
NAMED_UNIT(*)
SI_UNIT($,.STERADIAN.)
SOLID_ANGLE_UNIT()
);
#822=SHAPE_DEFINITION_REPRESENTATION(#823,#824);
#823=PRODUCT_DEFINITION_SHAPE('',$,#826);
#824=SHAPE_REPRESENTATION('',(#510),#816);
#825=PRODUCT_DEFINITION_CONTEXT('part definition',#830,'design');
#826=PRODUCT_DEFINITION('2026-07-08-17-00-57-613','BeltTensioner',#827,
#825);
#827=PRODUCT_DEFINITION_FORMATION('',$,#832);
#828=PRODUCT_RELATED_PRODUCT_CATEGORY('BeltTensioner','BeltTensioner',(#832));
#829=APPLICATION_PROTOCOL_DEFINITION('international standard',
'automotive_design',2009,#830);
#830=APPLICATION_CONTEXT(
'Core Data for Automotive Mechanical Design Process');
#831=PRODUCT_CONTEXT('part definition',#830,'mechanical');
#832=PRODUCT('2026-07-08-17-00-57-613','BeltTensioner',$,(#831));
#833=PRESENTATION_STYLE_ASSIGNMENT((#835));
#834=PRESENTATION_STYLE_ASSIGNMENT((#836));
#835=SURFACE_STYLE_USAGE(.BOTH.,#837);
#836=SURFACE_STYLE_USAGE(.BOTH.,#838);
#837=SURFACE_SIDE_STYLE('',(#839));
#838=SURFACE_SIDE_STYLE('',(#840));
#839=SURFACE_STYLE_FILL_AREA(#841);
#840=SURFACE_STYLE_FILL_AREA(#842);
#841=FILL_AREA_STYLE('\X\C7elik - Saten',(#843));
#842=FILL_AREA_STYLE('Opaque(45,45,45)',(#844));
#843=FILL_AREA_STYLE_COLOUR('\X\C7elik - Saten',#845);
#844=FILL_AREA_STYLE_COLOUR('Opaque(45,45,45)',#846);
#845=COLOUR_RGB('\X\C7elik - Saten',0.627450980392157,0.627450980392157,
0.627450980392157);
#846=COLOUR_RGB('Opaque(45,45,45)',0.176470588235294,0.176470588235294,
0.176470588235294);
ENDSEC;
END-ISO-10303-21;
