ISO-10303-21;
HEADER;
/* Generated by software containing ST-Developer
 * from STEP Tools, Inc. (www.steptools.com) 
 */

FILE_DESCRIPTION(
/* description */ (''),
/* implementation_level */ '2;1');

FILE_NAME(
/* name */ 'EncoderBracket (1).step',
/* time_stamp */ '2026-07-08T17:01:47+03:00',
/* author */ (''),
/* organization */ (''),
/* preprocessor_version */ 'ST-DEVELOPER v20.1',
/* originating_system */ 'Autodesk Translation Framework v15.8.0.0',
/* authorisation */ '');

FILE_SCHEMA (('AUTOMOTIVE_DESIGN { 1 0 10303 214 3 1 1 }'));
ENDSEC;

DATA;
#10=MECHANICAL_DESIGN_GEOMETRIC_PRESENTATION_REPRESENTATION('',(#13),#742);
#11=SHAPE_REPRESENTATION_RELATIONSHIP('SRR','None',#749,#12);
#12=ADVANCED_BREP_SHAPE_REPRESENTATION('',(#14),#741);
#13=STYLED_ITEM('',(#759),#14);
#14=MANIFOLD_SOLID_BREP('EncoderBracket',#436);
#15=FACE_BOUND('',#60,.T.);
#16=FACE_BOUND('',#61,.T.);
#17=FACE_BOUND('',#68,.T.);
#18=FACE_BOUND('',#69,.T.);
#19=FACE_BOUND('',#71,.T.);
#20=FACE_BOUND('',#72,.T.);
#21=FACE_BOUND('',#73,.T.);
#22=FACE_BOUND('',#74,.T.);
#23=FACE_BOUND('',#78,.T.);
#24=FACE_BOUND('',#79,.T.);
#25=FACE_BOUND('',#80,.T.);
#26=FACE_BOUND('',#81,.T.);
#27=PLANE('',#453);
#28=PLANE('',#457);
#29=PLANE('',#467);
#30=PLANE('',#468);
#31=PLANE('',#477);
#32=PLANE('',#478);
#33=PLANE('',#489);
#34=PLANE('',#490);
#35=PLANE('',#491);
#36=PLANE('',#492);
#37=FACE_OUTER_BOUND('',#58,.T.);
#38=FACE_OUTER_BOUND('',#59,.T.);
#39=FACE_OUTER_BOUND('',#62,.T.);
#40=FACE_OUTER_BOUND('',#63,.T.);
#41=FACE_OUTER_BOUND('',#64,.T.);
#42=FACE_OUTER_BOUND('',#65,.T.);
#43=FACE_OUTER_BOUND('',#66,.T.);
#44=FACE_OUTER_BOUND('',#67,.T.);
#45=FACE_OUTER_BOUND('',#70,.T.);
#46=FACE_OUTER_BOUND('',#75,.T.);
#47=FACE_OUTER_BOUND('',#76,.T.);
#48=FACE_OUTER_BOUND('',#77,.T.);
#49=FACE_OUTER_BOUND('',#82,.T.);
#50=FACE_OUTER_BOUND('',#83,.T.);
#51=FACE_OUTER_BOUND('',#84,.T.);
#52=FACE_OUTER_BOUND('',#85,.T.);
#53=FACE_OUTER_BOUND('',#86,.T.);
#54=FACE_OUTER_BOUND('',#87,.T.);
#55=FACE_OUTER_BOUND('',#88,.T.);
#56=FACE_OUTER_BOUND('',#89,.T.);
#57=FACE_OUTER_BOUND('',#90,.T.);
#58=EDGE_LOOP('',(#286,#287,#288,#289));
#59=EDGE_LOOP('',(#290,#291,#292,#293,#294,#295));
#60=EDGE_LOOP('',(#296));
#61=EDGE_LOOP('',(#297));
#62=EDGE_LOOP('',(#298,#299,#300,#301));
#63=EDGE_LOOP('',(#302,#303,#304,#305));
#64=EDGE_LOOP('',(#306,#307,#308,#309));
#65=EDGE_LOOP('',(#310,#311,#312,#313));
#66=EDGE_LOOP('',(#314,#315,#316,#317));
#67=EDGE_LOOP('',(#318,#319,#320,#321,#322,#323));
#68=EDGE_LOOP('',(#324));
#69=EDGE_LOOP('',(#325));
#70=EDGE_LOOP('',(#326,#327,#328,#329,#330,#331,#332));
#71=EDGE_LOOP('',(#333));
#72=EDGE_LOOP('',(#334));
#73=EDGE_LOOP('',(#335));
#74=EDGE_LOOP('',(#336));
#75=EDGE_LOOP('',(#337,#338,#339,#340));
#76=EDGE_LOOP('',(#341,#342,#343,#344));
#77=EDGE_LOOP('',(#345,#346,#347,#348,#349,#350,#351));
#78=EDGE_LOOP('',(#352));
#79=EDGE_LOOP('',(#353));
#80=EDGE_LOOP('',(#354));
#81=EDGE_LOOP('',(#355));
#82=EDGE_LOOP('',(#356,#357,#358,#359));
#83=EDGE_LOOP('',(#360,#361,#362,#363));
#84=EDGE_LOOP('',(#364,#365,#366,#367));
#85=EDGE_LOOP('',(#368,#369,#370,#371));
#86=EDGE_LOOP('',(#372,#373,#374,#375));
#87=EDGE_LOOP('',(#376,#377,#378,#379,#380,#381,#382,#383,#384));
#88=EDGE_LOOP('',(#385,#386,#387,#388,#389,#390,#391,#392,#393,#394,#395));
#89=EDGE_LOOP('',(#396,#397,#398,#399));
#90=EDGE_LOOP('',(#400,#401,#402,#403));
#91=LINE('',#624,#128);
#92=LINE('',#627,#129);
#93=LINE('',#630,#130);
#94=LINE('',#634,#131);
#95=LINE('',#636,#132);
#96=LINE('',#637,#133);
#97=LINE('',#644,#134);
#98=LINE('',#645,#135);
#99=LINE('',#649,#136);
#100=LINE('',#655,#137);
#101=LINE('',#658,#138);
#102=LINE('',#662,#139);
#103=LINE('',#666,#140);
#104=LINE('',#668,#141);
#105=LINE('',#669,#142);
#106=LINE('',#672,#143);
#107=LINE('',#674,#144);
#108=LINE('',#678,#145);
#109=LINE('',#681,#146);
#110=LINE('',#692,#147);
#111=LINE('',#695,#148);
#112=LINE('',#698,#149);
#113=LINE('',#699,#150);
#114=LINE('',#702,#151);
#115=LINE('',#704,#152);
#116=LINE('',#706,#153);
#117=LINE('',#708,#154);
#118=LINE('',#719,#155);
#119=LINE('',#721,#156);
#120=LINE('',#723,#157);
#121=LINE('',#725,#158);
#122=LINE('',#727,#159);
#123=LINE('',#730,#160);
#124=LINE('',#731,#161);
#125=LINE('',#734,#162);
#126=LINE('',#735,#163);
#127=LINE('',#737,#164);
#128=VECTOR('',#499,10.);
#129=VECTOR('',#502,10.);
#130=VECTOR('',#505,10.);
#131=VECTOR('',#508,10.);
#132=VECTOR('',#509,10.);
#133=VECTOR('',#510,10.);
#134=VECTOR('',#517,10.);
#135=VECTOR('',#518,10.);
#136=VECTOR('',#523,10.);
#137=VECTOR('',#530,10.);
#138=VECTOR('',#533,2.55);
#139=VECTOR('',#538,2.54999999999999);
#140=VECTOR('',#543,10.);
#141=VECTOR('',#544,10.);
#142=VECTOR('',#545,10.);
#143=VECTOR('',#548,10.);
#144=VECTOR('',#549,10.);
#145=VECTOR('',#552,10.);
#146=VECTOR('',#555,10.);
#147=VECTOR('',#566,10.);
#148=VECTOR('',#569,10.);
#149=VECTOR('',#572,10.);
#150=VECTOR('',#573,10.);
#151=VECTOR('',#576,10.);
#152=VECTOR('',#577,10.);
#153=VECTOR('',#578,10.);
#154=VECTOR('',#579,10.);
#155=VECTOR('',#592,10.);
#156=VECTOR('',#595,2.);
#157=VECTOR('',#598,1.99999999999999);
#158=VECTOR('',#601,1.99999999999999);
#159=VECTOR('',#604,9.99999999999999);
#160=VECTOR('',#607,10.);
#161=VECTOR('',#608,10.);
#162=VECTOR('',#611,10.);
#163=VECTOR('',#612,10.);
#164=VECTOR('',#615,10.);
#165=CIRCLE('',#451,4.);
#166=CIRCLE('',#452,4.);
#167=CIRCLE('',#454,4.);
#168=CIRCLE('',#455,2.55);
#169=CIRCLE('',#456,2.54999999999999);
#170=CIRCLE('',#459,4.);
#171=CIRCLE('',#461,1.);
#172=CIRCLE('',#462,1.);
#173=CIRCLE('',#464,2.55);
#174=CIRCLE('',#466,2.54999999999999);
#175=CIRCLE('',#469,10.5);
#176=CIRCLE('',#470,10.5);
#177=CIRCLE('',#471,9.99999999999999);
#178=CIRCLE('',#472,1.99999999999999);
#179=CIRCLE('',#473,1.99999999999999);
#180=CIRCLE('',#474,2.);
#181=CIRCLE('',#476,10.5);
#182=CIRCLE('',#479,10.5);
#183=CIRCLE('',#480,9.99999999999999);
#184=CIRCLE('',#481,1.99999999999999);
#185=CIRCLE('',#482,1.99999999999999);
#186=CIRCLE('',#483,2.);
#187=VERTEX_POINT('',#620);
#188=VERTEX_POINT('',#621);
#189=VERTEX_POINT('',#623);
#190=VERTEX_POINT('',#625);
#191=VERTEX_POINT('',#629);
#192=VERTEX_POINT('',#631);
#193=VERTEX_POINT('',#633);
#194=VERTEX_POINT('',#635);
#195=VERTEX_POINT('',#638);
#196=VERTEX_POINT('',#640);
#197=VERTEX_POINT('',#643);
#198=VERTEX_POINT('',#647);
#199=VERTEX_POINT('',#651);
#200=VERTEX_POINT('',#653);
#201=VERTEX_POINT('',#657);
#202=VERTEX_POINT('',#661);
#203=VERTEX_POINT('',#665);
#204=VERTEX_POINT('',#667);
#205=VERTEX_POINT('',#671);
#206=VERTEX_POINT('',#673);
#207=VERTEX_POINT('',#675);
#208=VERTEX_POINT('',#677);
#209=VERTEX_POINT('',#679);
#210=VERTEX_POINT('',#682);
#211=VERTEX_POINT('',#684);
#212=VERTEX_POINT('',#686);
#213=VERTEX_POINT('',#688);
#214=VERTEX_POINT('',#691);
#215=VERTEX_POINT('',#693);
#216=VERTEX_POINT('',#697);
#217=VERTEX_POINT('',#701);
#218=VERTEX_POINT('',#703);
#219=VERTEX_POINT('',#705);
#220=VERTEX_POINT('',#707);
#221=VERTEX_POINT('',#710);
#222=VERTEX_POINT('',#712);
#223=VERTEX_POINT('',#714);
#224=VERTEX_POINT('',#716);
#225=VERTEX_POINT('',#729);
#226=VERTEX_POINT('',#733);
#227=EDGE_CURVE('',#187,#188,#165,.T.);
#228=EDGE_CURVE('',#188,#189,#91,.T.);
#229=EDGE_CURVE('',#189,#190,#166,.T.);
#230=EDGE_CURVE('',#190,#187,#92,.T.);
#231=EDGE_CURVE('',#187,#191,#93,.F.);
#232=EDGE_CURVE('',#192,#191,#167,.T.);
#233=EDGE_CURVE('',#192,#193,#94,.T.);
#234=EDGE_CURVE('',#194,#193,#95,.T.);
#235=EDGE_CURVE('',#194,#188,#96,.T.);
#236=EDGE_CURVE('',#195,#195,#168,.T.);
#237=EDGE_CURVE('',#196,#196,#169,.T.);
#238=EDGE_CURVE('',#190,#197,#97,.F.);
#239=EDGE_CURVE('',#191,#197,#98,.T.);
#240=EDGE_CURVE('',#197,#198,#170,.T.);
#241=EDGE_CURVE('',#198,#192,#99,.T.);
#242=EDGE_CURVE('',#199,#194,#171,.T.);
#243=EDGE_CURVE('',#193,#200,#172,.T.);
#244=EDGE_CURVE('',#200,#199,#100,.T.);
#245=EDGE_CURVE('',#195,#201,#101,.T.);
#246=EDGE_CURVE('',#201,#201,#173,.T.);
#247=EDGE_CURVE('',#196,#202,#102,.T.);
#248=EDGE_CURVE('',#202,#202,#174,.T.);
#249=EDGE_CURVE('',#189,#203,#103,.T.);
#250=EDGE_CURVE('',#204,#203,#104,.T.);
#251=EDGE_CURVE('',#204,#198,#105,.T.);
#252=EDGE_CURVE('',#200,#205,#106,.T.);
#253=EDGE_CURVE('',#205,#206,#107,.T.);
#254=EDGE_CURVE('',#207,#206,#175,.T.);
#255=EDGE_CURVE('',#207,#208,#108,.T.);
#256=EDGE_CURVE('',#209,#208,#176,.T.);
#257=EDGE_CURVE('',#209,#199,#109,.T.);
#258=EDGE_CURVE('',#210,#210,#177,.T.);
#259=EDGE_CURVE('',#211,#211,#178,.T.);
#260=EDGE_CURVE('',#212,#212,#179,.T.);
#261=EDGE_CURVE('',#213,#213,#180,.T.);
#262=EDGE_CURVE('',#206,#214,#110,.T.);
#263=EDGE_CURVE('',#214,#215,#181,.T.);
#264=EDGE_CURVE('',#215,#207,#111,.T.);
#265=EDGE_CURVE('',#216,#215,#112,.T.);
#266=EDGE_CURVE('',#208,#216,#113,.T.);
#267=EDGE_CURVE('',#214,#217,#114,.T.);
#268=EDGE_CURVE('',#217,#218,#115,.T.);
#269=EDGE_CURVE('',#218,#219,#116,.T.);
#270=EDGE_CURVE('',#219,#220,#117,.T.);
#271=EDGE_CURVE('',#216,#220,#182,.T.);
#272=EDGE_CURVE('',#221,#221,#183,.T.);
#273=EDGE_CURVE('',#222,#222,#184,.T.);
#274=EDGE_CURVE('',#223,#223,#185,.T.);
#275=EDGE_CURVE('',#224,#224,#186,.T.);
#276=EDGE_CURVE('',#220,#209,#118,.T.);
#277=EDGE_CURVE('',#213,#224,#119,.T.);
#278=EDGE_CURVE('',#212,#223,#120,.T.);
#279=EDGE_CURVE('',#211,#222,#121,.T.);
#280=EDGE_CURVE('',#210,#221,#122,.T.);
#281=EDGE_CURVE('',#219,#225,#123,.T.);
#282=EDGE_CURVE('',#203,#225,#124,.T.);
#283=EDGE_CURVE('',#226,#204,#125,.T.);
#284=EDGE_CURVE('',#218,#226,#126,.T.);
#285=EDGE_CURVE('',#225,#226,#127,.T.);
#286=ORIENTED_EDGE('',*,*,#227,.T.);
#287=ORIENTED_EDGE('',*,*,#228,.T.);
#288=ORIENTED_EDGE('',*,*,#229,.T.);
#289=ORIENTED_EDGE('',*,*,#230,.T.);
#290=ORIENTED_EDGE('',*,*,#227,.F.);
#291=ORIENTED_EDGE('',*,*,#231,.T.);
#292=ORIENTED_EDGE('',*,*,#232,.F.);
#293=ORIENTED_EDGE('',*,*,#233,.T.);
#294=ORIENTED_EDGE('',*,*,#234,.F.);
#295=ORIENTED_EDGE('',*,*,#235,.T.);
#296=ORIENTED_EDGE('',*,*,#236,.T.);
#297=ORIENTED_EDGE('',*,*,#237,.T.);
#298=ORIENTED_EDGE('',*,*,#230,.F.);
#299=ORIENTED_EDGE('',*,*,#238,.T.);
#300=ORIENTED_EDGE('',*,*,#239,.F.);
#301=ORIENTED_EDGE('',*,*,#231,.F.);
#302=ORIENTED_EDGE('',*,*,#232,.T.);
#303=ORIENTED_EDGE('',*,*,#239,.T.);
#304=ORIENTED_EDGE('',*,*,#240,.T.);
#305=ORIENTED_EDGE('',*,*,#241,.T.);
#306=ORIENTED_EDGE('',*,*,#242,.T.);
#307=ORIENTED_EDGE('',*,*,#234,.T.);
#308=ORIENTED_EDGE('',*,*,#243,.T.);
#309=ORIENTED_EDGE('',*,*,#244,.T.);
#310=ORIENTED_EDGE('',*,*,#236,.F.);
#311=ORIENTED_EDGE('',*,*,#245,.T.);
#312=ORIENTED_EDGE('',*,*,#246,.T.);
#313=ORIENTED_EDGE('',*,*,#245,.F.);
#314=ORIENTED_EDGE('',*,*,#237,.F.);
#315=ORIENTED_EDGE('',*,*,#247,.T.);
#316=ORIENTED_EDGE('',*,*,#248,.T.);
#317=ORIENTED_EDGE('',*,*,#247,.F.);
#318=ORIENTED_EDGE('',*,*,#229,.F.);
#319=ORIENTED_EDGE('',*,*,#249,.T.);
#320=ORIENTED_EDGE('',*,*,#250,.F.);
#321=ORIENTED_EDGE('',*,*,#251,.T.);
#322=ORIENTED_EDGE('',*,*,#240,.F.);
#323=ORIENTED_EDGE('',*,*,#238,.F.);
#324=ORIENTED_EDGE('',*,*,#248,.F.);
#325=ORIENTED_EDGE('',*,*,#246,.F.);
#326=ORIENTED_EDGE('',*,*,#244,.F.);
#327=ORIENTED_EDGE('',*,*,#252,.T.);
#328=ORIENTED_EDGE('',*,*,#253,.T.);
#329=ORIENTED_EDGE('',*,*,#254,.F.);
#330=ORIENTED_EDGE('',*,*,#255,.T.);
#331=ORIENTED_EDGE('',*,*,#256,.F.);
#332=ORIENTED_EDGE('',*,*,#257,.T.);
#333=ORIENTED_EDGE('',*,*,#258,.T.);
#334=ORIENTED_EDGE('',*,*,#259,.T.);
#335=ORIENTED_EDGE('',*,*,#260,.T.);
#336=ORIENTED_EDGE('',*,*,#261,.T.);
#337=ORIENTED_EDGE('',*,*,#254,.T.);
#338=ORIENTED_EDGE('',*,*,#262,.T.);
#339=ORIENTED_EDGE('',*,*,#263,.T.);
#340=ORIENTED_EDGE('',*,*,#264,.T.);
#341=ORIENTED_EDGE('',*,*,#264,.F.);
#342=ORIENTED_EDGE('',*,*,#265,.F.);
#343=ORIENTED_EDGE('',*,*,#266,.F.);
#344=ORIENTED_EDGE('',*,*,#255,.F.);
#345=ORIENTED_EDGE('',*,*,#263,.F.);
#346=ORIENTED_EDGE('',*,*,#267,.T.);
#347=ORIENTED_EDGE('',*,*,#268,.T.);
#348=ORIENTED_EDGE('',*,*,#269,.T.);
#349=ORIENTED_EDGE('',*,*,#270,.T.);
#350=ORIENTED_EDGE('',*,*,#271,.F.);
#351=ORIENTED_EDGE('',*,*,#265,.T.);
#352=ORIENTED_EDGE('',*,*,#272,.F.);
#353=ORIENTED_EDGE('',*,*,#273,.F.);
#354=ORIENTED_EDGE('',*,*,#274,.F.);
#355=ORIENTED_EDGE('',*,*,#275,.F.);
#356=ORIENTED_EDGE('',*,*,#256,.T.);
#357=ORIENTED_EDGE('',*,*,#266,.T.);
#358=ORIENTED_EDGE('',*,*,#271,.T.);
#359=ORIENTED_EDGE('',*,*,#276,.T.);
#360=ORIENTED_EDGE('',*,*,#261,.F.);
#361=ORIENTED_EDGE('',*,*,#277,.T.);
#362=ORIENTED_EDGE('',*,*,#275,.T.);
#363=ORIENTED_EDGE('',*,*,#277,.F.);
#364=ORIENTED_EDGE('',*,*,#260,.F.);
#365=ORIENTED_EDGE('',*,*,#278,.T.);
#366=ORIENTED_EDGE('',*,*,#274,.T.);
#367=ORIENTED_EDGE('',*,*,#278,.F.);
#368=ORIENTED_EDGE('',*,*,#259,.F.);
#369=ORIENTED_EDGE('',*,*,#279,.T.);
#370=ORIENTED_EDGE('',*,*,#273,.T.);
#371=ORIENTED_EDGE('',*,*,#279,.F.);
#372=ORIENTED_EDGE('',*,*,#258,.F.);
#373=ORIENTED_EDGE('',*,*,#280,.T.);
#374=ORIENTED_EDGE('',*,*,#272,.T.);
#375=ORIENTED_EDGE('',*,*,#280,.F.);
#376=ORIENTED_EDGE('',*,*,#228,.F.);
#377=ORIENTED_EDGE('',*,*,#235,.F.);
#378=ORIENTED_EDGE('',*,*,#242,.F.);
#379=ORIENTED_EDGE('',*,*,#257,.F.);
#380=ORIENTED_EDGE('',*,*,#276,.F.);
#381=ORIENTED_EDGE('',*,*,#270,.F.);
#382=ORIENTED_EDGE('',*,*,#281,.T.);
#383=ORIENTED_EDGE('',*,*,#282,.F.);
#384=ORIENTED_EDGE('',*,*,#249,.F.);
#385=ORIENTED_EDGE('',*,*,#241,.F.);
#386=ORIENTED_EDGE('',*,*,#251,.F.);
#387=ORIENTED_EDGE('',*,*,#283,.F.);
#388=ORIENTED_EDGE('',*,*,#284,.F.);
#389=ORIENTED_EDGE('',*,*,#268,.F.);
#390=ORIENTED_EDGE('',*,*,#267,.F.);
#391=ORIENTED_EDGE('',*,*,#262,.F.);
#392=ORIENTED_EDGE('',*,*,#253,.F.);
#393=ORIENTED_EDGE('',*,*,#252,.F.);
#394=ORIENTED_EDGE('',*,*,#243,.F.);
#395=ORIENTED_EDGE('',*,*,#233,.F.);
#396=ORIENTED_EDGE('',*,*,#269,.F.);
#397=ORIENTED_EDGE('',*,*,#284,.T.);
#398=ORIENTED_EDGE('',*,*,#285,.F.);
#399=ORIENTED_EDGE('',*,*,#281,.F.);
#400=ORIENTED_EDGE('',*,*,#250,.T.);
#401=ORIENTED_EDGE('',*,*,#282,.T.);
#402=ORIENTED_EDGE('',*,*,#285,.T.);
#403=ORIENTED_EDGE('',*,*,#283,.T.);
#404=CYLINDRICAL_SURFACE('',#450,4.);
#405=CYLINDRICAL_SURFACE('',#458,4.);
#406=CYLINDRICAL_SURFACE('',#460,1.);
#407=CYLINDRICAL_SURFACE('',#463,2.55);
#408=CYLINDRICAL_SURFACE('',#465,2.54999999999999);
#409=CYLINDRICAL_SURFACE('',#475,10.5);
#410=CYLINDRICAL_SURFACE('',#484,10.5);
#411=CYLINDRICAL_SURFACE('',#485,2.);
#412=CYLINDRICAL_SURFACE('',#486,1.99999999999999);
#413=CYLINDRICAL_SURFACE('',#487,1.99999999999999);
#414=CYLINDRICAL_SURFACE('',#488,9.99999999999999);
#415=ADVANCED_FACE('',(#37),#404,.T.);
#416=ADVANCED_FACE('',(#38,#15,#16),#27,.T.);
#417=ADVANCED_FACE('',(#39),#28,.T.);
#418=ADVANCED_FACE('',(#40),#405,.T.);
#419=ADVANCED_FACE('',(#41),#406,.F.);
#420=ADVANCED_FACE('',(#42),#407,.F.);
#421=ADVANCED_FACE('',(#43),#408,.F.);
#422=ADVANCED_FACE('',(#44,#17,#18),#29,.F.);
#423=ADVANCED_FACE('',(#45,#19,#20,#21,#22),#30,.T.);
#424=ADVANCED_FACE('',(#46),#409,.T.);
#425=ADVANCED_FACE('',(#47),#31,.T.);
#426=ADVANCED_FACE('',(#48,#23,#24,#25,#26),#32,.F.);
#427=ADVANCED_FACE('',(#49),#410,.T.);
#428=ADVANCED_FACE('',(#50),#411,.F.);
#429=ADVANCED_FACE('',(#51),#412,.F.);
#430=ADVANCED_FACE('',(#52),#413,.F.);
#431=ADVANCED_FACE('',(#53),#414,.F.);
#432=ADVANCED_FACE('',(#54),#33,.T.);
#433=ADVANCED_FACE('',(#55),#34,.T.);
#434=ADVANCED_FACE('',(#56),#35,.T.);
#435=ADVANCED_FACE('',(#57),#36,.T.);
#436=CLOSED_SHELL('',(#415,#416,#417,#418,#419,#420,#421,#422,#423,#424,
#425,#426,#427,#428,#429,#430,#431,#432,#433,#434,#435));
#437=DERIVED_UNIT_ELEMENT(#439,1.);
#438=DERIVED_UNIT_ELEMENT(#744,-3.);
#439=(
MASS_UNIT()
NAMED_UNIT(*)
SI_UNIT(.KILO.,.GRAM.)
);
#440=DERIVED_UNIT((#437,#438));
#441=MEASURE_REPRESENTATION_ITEM('density measure',
POSITIVE_RATIO_MEASURE(7850.),#440);
#442=PROPERTY_DEFINITION_REPRESENTATION(#447,#444);
#443=PROPERTY_DEFINITION_REPRESENTATION(#448,#445);
#444=REPRESENTATION('material name',(#446),#741);
#445=REPRESENTATION('density',(#441),#741);
#446=DESCRIPTIVE_REPRESENTATION_ITEM('\X\C7elik','\X\C7elik');
#447=PROPERTY_DEFINITION('material property','material name',#751);
#448=PROPERTY_DEFINITION('material property','density of part',#751);
#449=AXIS2_PLACEMENT_3D('',#618,#493,#494);
#450=AXIS2_PLACEMENT_3D('',#619,#495,#496);
#451=AXIS2_PLACEMENT_3D('',#622,#497,#498);
#452=AXIS2_PLACEMENT_3D('',#626,#500,#501);
#453=AXIS2_PLACEMENT_3D('',#628,#503,#504);
#454=AXIS2_PLACEMENT_3D('',#632,#506,#507);
#455=AXIS2_PLACEMENT_3D('',#639,#511,#512);
#456=AXIS2_PLACEMENT_3D('',#641,#513,#514);
#457=AXIS2_PLACEMENT_3D('',#642,#515,#516);
#458=AXIS2_PLACEMENT_3D('',#646,#519,#520);
#459=AXIS2_PLACEMENT_3D('',#648,#521,#522);
#460=AXIS2_PLACEMENT_3D('',#650,#524,#525);
#461=AXIS2_PLACEMENT_3D('',#652,#526,#527);
#462=AXIS2_PLACEMENT_3D('',#654,#528,#529);
#463=AXIS2_PLACEMENT_3D('',#656,#531,#532);
#464=AXIS2_PLACEMENT_3D('',#659,#534,#535);
#465=AXIS2_PLACEMENT_3D('',#660,#536,#537);
#466=AXIS2_PLACEMENT_3D('',#663,#539,#540);
#467=AXIS2_PLACEMENT_3D('',#664,#541,#542);
#468=AXIS2_PLACEMENT_3D('',#670,#546,#547);
#469=AXIS2_PLACEMENT_3D('',#676,#550,#551);
#470=AXIS2_PLACEMENT_3D('',#680,#553,#554);
#471=AXIS2_PLACEMENT_3D('',#683,#556,#557);
#472=AXIS2_PLACEMENT_3D('',#685,#558,#559);
#473=AXIS2_PLACEMENT_3D('',#687,#560,#561);
#474=AXIS2_PLACEMENT_3D('',#689,#562,#563);
#475=AXIS2_PLACEMENT_3D('',#690,#564,#565);
#476=AXIS2_PLACEMENT_3D('',#694,#567,#568);
#477=AXIS2_PLACEMENT_3D('',#696,#570,#571);
#478=AXIS2_PLACEMENT_3D('',#700,#574,#575);
#479=AXIS2_PLACEMENT_3D('',#709,#580,#581);
#480=AXIS2_PLACEMENT_3D('',#711,#582,#583);
#481=AXIS2_PLACEMENT_3D('',#713,#584,#585);
#482=AXIS2_PLACEMENT_3D('',#715,#586,#587);
#483=AXIS2_PLACEMENT_3D('',#717,#588,#589);
#484=AXIS2_PLACEMENT_3D('',#718,#590,#591);
#485=AXIS2_PLACEMENT_3D('',#720,#593,#594);
#486=AXIS2_PLACEMENT_3D('',#722,#596,#597);
#487=AXIS2_PLACEMENT_3D('',#724,#599,#600);
#488=AXIS2_PLACEMENT_3D('',#726,#602,#603);
#489=AXIS2_PLACEMENT_3D('',#728,#605,#606);
#490=AXIS2_PLACEMENT_3D('',#732,#609,#610);
#491=AXIS2_PLACEMENT_3D('',#736,#613,#614);
#492=AXIS2_PLACEMENT_3D('',#738,#616,#617);
#493=DIRECTION('axis',(0.,0.,1.));
#494=DIRECTION('refdir',(1.,0.,0.));
#495=DIRECTION('center_axis',(-2.6205923429519E-46,0.,1.));
#496=DIRECTION('ref_axis',(0.707106781186549,0.707106781186546,0.));
#497=DIRECTION('center_axis',(0.,0.,-1.));
#498=DIRECTION('ref_axis',(0.707106781186549,0.707106781186546,0.));
#499=DIRECTION('',(2.6205923429519E-46,0.,-1.));
#500=DIRECTION('center_axis',(0.,0.,1.));
#501=DIRECTION('ref_axis',(0.707106781186549,0.707106781186546,0.));
#502=DIRECTION('',(-2.6205923429519E-46,0.,1.));
#503=DIRECTION('center_axis',(0.,0.,1.));
#504=DIRECTION('ref_axis',(-1.,0.,0.));
#505=DIRECTION('',(1.,0.,0.));
#506=DIRECTION('center_axis',(0.,0.,-1.));
#507=DIRECTION('ref_axis',(-0.707106781186551,0.707106781186544,0.));
#508=DIRECTION('',(0.,-1.,0.));
#509=DIRECTION('',(-1.,2.77555756156196E-17,0.));
#510=DIRECTION('',(0.,1.,0.));
#511=DIRECTION('center_axis',(0.,0.,-1.));
#512=DIRECTION('ref_axis',(-1.,0.,0.));
#513=DIRECTION('center_axis',(0.,0.,-1.));
#514=DIRECTION('ref_axis',(-1.,0.,0.));
#515=DIRECTION('center_axis',(0.,1.,0.));
#516=DIRECTION('ref_axis',(-1.,0.,0.));
#517=DIRECTION('',(1.,0.,0.));
#518=DIRECTION('',(2.6205923429519E-46,0.,-1.));
#519=DIRECTION('center_axis',(-2.6205923429519E-46,0.,1.));
#520=DIRECTION('ref_axis',(-0.707106781186551,0.707106781186544,0.));
#521=DIRECTION('center_axis',(0.,0.,1.));
#522=DIRECTION('ref_axis',(-0.707106781186551,0.707106781186544,0.));
#523=DIRECTION('',(-2.6205923429519E-46,0.,1.));
#524=DIRECTION('center_axis',(-1.,2.77555756156196E-17,0.));
#525=DIRECTION('ref_axis',(0.,-0.707106781186554,-0.707106781186541));
#526=DIRECTION('center_axis',(1.,0.,2.6205923429519E-46));
#527=DIRECTION('ref_axis',(0.,-0.707106781186554,-0.707106781186541));
#528=DIRECTION('center_axis',(-1.,0.,-2.6205923429519E-46));
#529=DIRECTION('ref_axis',(0.,-0.707106781186554,-0.707106781186541));
#530=DIRECTION('',(1.,-2.77555756156196E-17,0.));
#531=DIRECTION('center_axis',(0.,0.,1.));
#532=DIRECTION('ref_axis',(-1.,0.,0.));
#533=DIRECTION('',(0.,0.,-1.));
#534=DIRECTION('center_axis',(0.,0.,-1.));
#535=DIRECTION('ref_axis',(-1.,0.,0.));
#536=DIRECTION('center_axis',(0.,0.,1.));
#537=DIRECTION('ref_axis',(-1.,0.,0.));
#538=DIRECTION('',(0.,0.,-1.));
#539=DIRECTION('center_axis',(0.,0.,-1.));
#540=DIRECTION('ref_axis',(-1.,0.,0.));
#541=DIRECTION('center_axis',(0.,0.,1.));
#542=DIRECTION('ref_axis',(-1.,0.,0.));
#543=DIRECTION('',(0.,-1.,0.));
#544=DIRECTION('',(1.,-2.77555756156196E-17,0.));
#545=DIRECTION('',(0.,1.,0.));
#546=DIRECTION('center_axis',(2.77555756156196E-17,1.,9.44167895936398E-30));
#547=DIRECTION('ref_axis',(-1.,2.77555756156196E-17,-1.57895415022715E-58));
#548=DIRECTION('',(-2.6205923429519E-46,-9.44167895936398E-30,1.));
#549=DIRECTION('',(-2.6205923429519E-46,-9.44167895936398E-30,1.));
#550=DIRECTION('center_axis',(-2.77555756156196E-17,-1.,-9.44167895936398E-30));
#551=DIRECTION('ref_axis',(-0.707106781186547,0.,0.707106781186547));
#552=DIRECTION('',(1.,-2.77555756156196E-17,1.57895415022715E-58));
#553=DIRECTION('center_axis',(-2.77555756156196E-17,-1.,-9.44167895936398E-30));
#554=DIRECTION('ref_axis',(0.707106781186547,0.,0.707106781186548));
#555=DIRECTION('',(2.6205923429519E-46,9.44167895936398E-30,-1.));
#556=DIRECTION('center_axis',(-2.77555756156196E-17,-1.,-9.44167895936398E-30));
#557=DIRECTION('ref_axis',(-1.,2.77555756156196E-17,-1.57866320603141E-58));
#558=DIRECTION('center_axis',(-2.77555756156196E-17,-1.,-9.44167895936398E-30));
#559=DIRECTION('ref_axis',(-1.,2.77555756156196E-17,-1.57895415022715E-58));
#560=DIRECTION('center_axis',(-2.77555756156196E-17,-1.,-9.44167895936398E-30));
#561=DIRECTION('ref_axis',(-1.,2.77555756156196E-17,-1.57895415022715E-58));
#562=DIRECTION('center_axis',(-2.77555756156196E-17,-1.,-9.44167895936398E-30));
#563=DIRECTION('ref_axis',(-1.,2.77555756156196E-17,-1.57895415022715E-58));
#564=DIRECTION('center_axis',(0.,1.,0.));
#565=DIRECTION('ref_axis',(-0.707106781186547,0.,0.707106781186547));
#566=DIRECTION('',(0.,-1.,0.));
#567=DIRECTION('center_axis',(2.77555756156196E-17,1.,9.44167895936398E-30));
#568=DIRECTION('ref_axis',(-0.707106781186547,0.,0.707106781186547));
#569=DIRECTION('',(0.,1.,0.));
#570=DIRECTION('center_axis',(-1.57895415022715E-58,0.,1.));
#571=DIRECTION('ref_axis',(1.,-2.77555756156196E-17,1.57895415022715E-58));
#572=DIRECTION('',(-1.,2.77555756156196E-17,-1.57895415022715E-58));
#573=DIRECTION('',(0.,-1.,0.));
#574=DIRECTION('center_axis',(2.77555756156196E-17,1.,9.44167895936398E-30));
#575=DIRECTION('ref_axis',(-1.,2.77555756156196E-17,-1.57895415022715E-58));
#576=DIRECTION('',(2.6205923429519E-46,9.44167895936398E-30,-1.));
#577=DIRECTION('',(2.6205923429519E-46,9.44167895936398E-30,-1.));
#578=DIRECTION('',(1.,-2.77555756156196E-17,1.57895415022715E-58));
#579=DIRECTION('',(-2.6205923429519E-46,-9.44167895936398E-30,1.));
#580=DIRECTION('center_axis',(2.77555756156196E-17,1.,9.44167895936398E-30));
#581=DIRECTION('ref_axis',(0.707106781186547,0.,0.707106781186548));
#582=DIRECTION('center_axis',(-2.77555756156196E-17,-1.,-9.44167895936398E-30));
#583=DIRECTION('ref_axis',(-1.,2.77555756156196E-17,-1.57866320603141E-58));
#584=DIRECTION('center_axis',(-2.77555756156196E-17,-1.,-9.44167895936398E-30));
#585=DIRECTION('ref_axis',(-1.,2.77555756156196E-17,-1.57895415022715E-58));
#586=DIRECTION('center_axis',(-2.77555756156196E-17,-1.,-9.44167895936398E-30));
#587=DIRECTION('ref_axis',(-1.,2.77555756156196E-17,-1.57895415022715E-58));
#588=DIRECTION('center_axis',(-2.77555756156196E-17,-1.,-9.44167895936398E-30));
#589=DIRECTION('ref_axis',(-1.,2.77555756156196E-17,-1.57895415022715E-58));
#590=DIRECTION('center_axis',(0.,1.,0.));
#591=DIRECTION('ref_axis',(0.707106781186547,0.,0.707106781186548));
#592=DIRECTION('',(0.,1.,0.));
#593=DIRECTION('center_axis',(0.,1.,0.));
#594=DIRECTION('ref_axis',(-1.,0.,-1.57895415022715E-58));
#595=DIRECTION('',(0.,-1.,0.));
#596=DIRECTION('center_axis',(0.,1.,0.));
#597=DIRECTION('ref_axis',(-1.,0.,-1.57895415022715E-58));
#598=DIRECTION('',(0.,-1.,0.));
#599=DIRECTION('center_axis',(0.,1.,0.));
#600=DIRECTION('ref_axis',(-1.,0.,-1.57895415022715E-58));
#601=DIRECTION('',(0.,-1.,0.));
#602=DIRECTION('center_axis',(0.,1.,0.));
#603=DIRECTION('ref_axis',(-1.,0.,-1.57866320603141E-58));
#604=DIRECTION('',(0.,-1.,0.));
#605=DIRECTION('center_axis',(1.,0.,2.6205923429519E-46));
#606=DIRECTION('ref_axis',(2.6205923429519E-46,9.44167895936398E-30,-1.));
#607=DIRECTION('',(0.,1.,0.));
#608=DIRECTION('',(2.6205923429519E-46,9.44167895936398E-30,-1.));
#609=DIRECTION('center_axis',(-1.,0.,-2.6205923429519E-46));
#610=DIRECTION('ref_axis',(-2.6205923429519E-46,-9.44167895936398E-30,1.));
#611=DIRECTION('',(-2.6205923429519E-46,-9.44167895936398E-30,1.));
#612=DIRECTION('',(0.,1.,0.));
#613=DIRECTION('center_axis',(1.57895415022715E-58,0.,-1.));
#614=DIRECTION('ref_axis',(-1.,2.77555756156196E-17,-1.57895415022715E-58));
#615=DIRECTION('',(-1.,2.77555756156196E-17,-1.57895415022715E-58));
#616=DIRECTION('center_axis',(2.77555756156196E-17,1.,9.44167895936398E-30));
#617=DIRECTION('ref_axis',(-1.,2.77555756156196E-17,-1.57895415022715E-58));
#618=CARTESIAN_POINT('',(0.,0.,0.));
#619=CARTESIAN_POINT('Origin',(-47.0000006407499,-143.399996582419,47.0500005364418));
#620=CARTESIAN_POINT('',(-47.0000006407499,-139.399996582419,27.1));
#621=CARTESIAN_POINT('',(-42.9999990388751,-143.399996582419,27.1));
#622=CARTESIAN_POINT('Origin',(-47.0000006407499,-143.399996582419,27.1));
#623=CARTESIAN_POINT('',(-42.9999990388751,-143.399996582419,22.1));
#624=CARTESIAN_POINT('',(-43.0000006407499,-143.399996582419,47.0500005364418));
#625=CARTESIAN_POINT('',(-47.0000006407499,-139.399996582419,22.1));
#626=CARTESIAN_POINT('Origin',(-47.0000006407499,-143.399996582419,22.1));
#627=CARTESIAN_POINT('',(-47.0000006407499,-139.399996582419,47.0500005364418));
#628=CARTESIAN_POINT('Origin',(-65.0000001676381,-146.649996582419,27.1));
#629=CARTESIAN_POINT('',(-83.000001296401,-139.399996582419,27.1));
#630=CARTESIAN_POINT('',(-53.9999996032566,-139.399996582419,27.1));
#631=CARTESIAN_POINT('',(-87.000001296401,-143.399996582419,27.1));
#632=CARTESIAN_POINT('Origin',(-83.000001296401,-143.399996582419,27.1));
#633=CARTESIAN_POINT('',(-87.000001296401,-151.899999403953,27.1));
#634=CARTESIAN_POINT('',(-87.000001296401,-152.899996582419,27.1));
#635=CARTESIAN_POINT('',(-42.9999990388751,-151.899999403953,27.1));
#636=CARTESIAN_POINT('',(-65.0000048636967,-151.899999403953,27.1));
#637=CARTESIAN_POINT('',(-42.9999990388751,-140.399996582419,27.1));
#638=CARTESIAN_POINT('',(-45.9499993210658,-145.899996582419,27.1));
#639=CARTESIAN_POINT('Origin',(-48.4999993210658,-145.899996582419,27.1));
#640=CARTESIAN_POINT('',(-78.9500010142103,-145.899996582419,27.1));
#641=CARTESIAN_POINT('Origin',(-81.5000010142103,-145.899996582419,27.1));
#642=CARTESIAN_POINT('Origin',(-42.9999990388751,-139.399996582419,22.1));
#643=CARTESIAN_POINT('',(-83.000001296401,-139.399996582419,22.1));
#644=CARTESIAN_POINT('',(-53.9999996032566,-139.399996582419,22.1));
#645=CARTESIAN_POINT('',(-83.000001296401,-139.399996582419,22.0500001639128));
#646=CARTESIAN_POINT('Origin',(-83.000001296401,-143.399996582419,22.0500001639128));
#647=CARTESIAN_POINT('',(-87.000001296401,-143.399996582419,22.1));
#648=CARTESIAN_POINT('Origin',(-83.000001296401,-143.399996582419,22.1));
#649=CARTESIAN_POINT('',(-87.000001296401,-143.399996582419,22.0500001639128));
#650=CARTESIAN_POINT('Origin',(-65.0000048636967,-151.899999403953,28.1));
#651=CARTESIAN_POINT('',(-43.0000006407499,-152.899999403953,28.1));
#652=CARTESIAN_POINT('Origin',(-43.0000006407499,-151.899999403953,28.1));
#653=CARTESIAN_POINT('',(-87.000001296401,-152.899999403953,28.1));
#654=CARTESIAN_POINT('Origin',(-87.000001296401,-151.899999403953,28.1));
#655=CARTESIAN_POINT('',(-65.0000048636967,-152.899999403953,28.1));
#656=CARTESIAN_POINT('Origin',(-48.4999993210658,-145.899996582419,22.1));
#657=CARTESIAN_POINT('',(-45.9499993210658,-145.899996582419,22.1));
#658=CARTESIAN_POINT('',(-45.9499993210658,-145.899996582419,22.1));
#659=CARTESIAN_POINT('Origin',(-48.4999993210658,-145.899996582419,22.1));
#660=CARTESIAN_POINT('Origin',(-81.5000010142103,-145.899996582419,22.1));
#661=CARTESIAN_POINT('',(-78.9500010142103,-145.899996582419,22.1));
#662=CARTESIAN_POINT('',(-78.9500010142103,-145.899996582419,22.1));
#663=CARTESIAN_POINT('Origin',(-81.5000010142103,-145.899996582419,22.1));
#664=CARTESIAN_POINT('Origin',(-65.0000001676381,-146.649996582419,22.1));
#665=CARTESIAN_POINT('',(-42.9999990388751,-152.899996582419,22.1));
#666=CARTESIAN_POINT('',(-42.9999990388751,-140.399996582419,22.1));
#667=CARTESIAN_POINT('',(-87.000001296401,-152.899996582419,22.1));
#668=CARTESIAN_POINT('',(-65.0000048636967,-152.899999403953,22.1));
#669=CARTESIAN_POINT('',(-87.000001296401,-152.899996582419,22.1));
#670=CARTESIAN_POINT('Origin',(-65.0000095597554,-152.899999403953,47.0000007003546));
#671=CARTESIAN_POINT('',(-87.000001296401,-152.899999403953,28.3999989271187));
#672=CARTESIAN_POINT('',(-87.000001296401,-152.899999403953,28.3999989271187));
#673=CARTESIAN_POINT('',(-86.9999941140412,-152.899999403953,61.5000010728836));
#674=CARTESIAN_POINT('',(-86.9999941140412,-152.899999403953,72.0000010728836));
#675=CARTESIAN_POINT('',(-76.500001296401,-152.899999403953,72.0000010728836));
#676=CARTESIAN_POINT('Origin',(-76.500001296401,-152.899999403953,61.5000010728836));
#677=CARTESIAN_POINT('',(-53.5000006407499,-152.899999403953,72.0000010728836));
#678=CARTESIAN_POINT('',(-43.0000006407499,-152.899999403953,72.0000010728836));
#679=CARTESIAN_POINT('',(-43.0000006407499,-152.899999403953,61.5000010728836));
#680=CARTESIAN_POINT('Origin',(-53.5000006407499,-152.899999403953,61.5000010728836));
#681=CARTESIAN_POINT('',(-43.0000006407499,-152.899999403953,28.3999989271187));
#682=CARTESIAN_POINT('',(-54.9999973773956,-152.899999403953,50.2000000000012));
#683=CARTESIAN_POINT('Origin',(-64.9999973773956,-152.899999403953,50.2000000000012));
#684=CARTESIAN_POINT('',(-50.009616320629,-152.899999403953,57.7000000000012));
#685=CARTESIAN_POINT('Origin',(-52.009616320629,-152.899999403953,57.7000000000012));
#686=CARTESIAN_POINT('',(-75.9903784341622,-152.899999403953,57.7000000000012));
#687=CARTESIAN_POINT('Origin',(-77.9903784341622,-152.899999403953,57.7000000000012));
#688=CARTESIAN_POINT('',(-62.9999973773956,-152.899999403953,35.2000000000012));
#689=CARTESIAN_POINT('Origin',(-64.9999973773956,-152.899999403953,35.2000000000012));
#690=CARTESIAN_POINT('Origin',(-76.500001296401,-157.899999403953,61.5000010728836));
#691=CARTESIAN_POINT('',(-86.9999941140412,-157.899999403953,61.5000010728836));
#692=CARTESIAN_POINT('',(-87.000001296401,-157.899999403953,61.5000010728836));
#693=CARTESIAN_POINT('',(-76.500001296401,-157.899999403953,72.0000010728836));
#694=CARTESIAN_POINT('Origin',(-76.500001296401,-157.899999403953,61.5000010728836));
#695=CARTESIAN_POINT('',(-76.500001296401,-157.899999403953,72.0000010728836));
#696=CARTESIAN_POINT('Origin',(-86.9999941140412,-157.899999403953,72.0000010728836));
#697=CARTESIAN_POINT('',(-53.5000006407499,-157.899999403953,72.0000010728836));
#698=CARTESIAN_POINT('',(-43.0000006407499,-157.899999403953,72.0000010728836));
#699=CARTESIAN_POINT('',(-53.5000006407499,-157.899999403953,72.0000010728836));
#700=CARTESIAN_POINT('Origin',(-65.0000095597554,-157.899999403953,47.0000007003546));
#701=CARTESIAN_POINT('',(-87.000001296401,-157.899999403953,28.3999989271187));
#702=CARTESIAN_POINT('',(-86.9999941140412,-157.899999403953,72.0000010728836));
#703=CARTESIAN_POINT('',(-87.000001296401,-157.899999403953,22.0000003278255));
#704=CARTESIAN_POINT('',(-87.000001296401,-157.899999403953,28.3999989271187));
#705=CARTESIAN_POINT('',(-43.0000006407499,-157.899999403953,22.0000003278255));
#706=CARTESIAN_POINT('',(-87.000001296401,-157.899999403953,22.0000003278255));
#707=CARTESIAN_POINT('',(-43.0000006407499,-157.899999403953,61.5000010728836));
#708=CARTESIAN_POINT('',(-43.0000006407499,-157.899999403953,28.3999989271187));
#709=CARTESIAN_POINT('Origin',(-53.5000006407499,-157.899999403953,61.5000010728836));
#710=CARTESIAN_POINT('',(-54.9999973773956,-157.899999403953,50.2000000000012));
#711=CARTESIAN_POINT('Origin',(-64.9999973773956,-157.899999403953,50.2000000000012));
#712=CARTESIAN_POINT('',(-50.009616320629,-157.899999403953,57.7000000000012));
#713=CARTESIAN_POINT('Origin',(-52.009616320629,-157.899999403953,57.7000000000012));
#714=CARTESIAN_POINT('',(-75.9903784341622,-157.899999403953,57.7000000000012));
#715=CARTESIAN_POINT('Origin',(-77.9903784341622,-157.899999403953,57.7000000000012));
#716=CARTESIAN_POINT('',(-62.9999973773956,-157.899999403953,35.2000000000012));
#717=CARTESIAN_POINT('Origin',(-64.9999973773956,-157.899999403953,35.2000000000012));
#718=CARTESIAN_POINT('Origin',(-53.5000006407499,-157.899999403953,61.5000010728836));
#719=CARTESIAN_POINT('',(-43.0000006407499,-157.899999403953,61.5000010728836));
#720=CARTESIAN_POINT('Origin',(-64.9999973773956,-157.899999403953,35.2000000000012));
#721=CARTESIAN_POINT('',(-62.9999973773956,-157.899999403953,35.2000000000012));
#722=CARTESIAN_POINT('Origin',(-77.9903784341622,-157.899999403953,57.7000000000012));
#723=CARTESIAN_POINT('',(-75.9903784341622,-157.899999403953,57.7000000000012));
#724=CARTESIAN_POINT('Origin',(-52.009616320629,-157.899999403953,57.7000000000012));
#725=CARTESIAN_POINT('',(-50.009616320629,-157.899999403953,57.7000000000012));
#726=CARTESIAN_POINT('Origin',(-64.9999973773956,-157.899999403953,50.2000000000012));
#727=CARTESIAN_POINT('',(-54.9999973773956,-157.899999403953,50.2000000000012));
#728=CARTESIAN_POINT('Origin',(-43.0000006407499,-157.899999403953,72.0000010728836));
#729=CARTESIAN_POINT('',(-43.0000006407499,-152.899999403953,22.0000003278255));
#730=CARTESIAN_POINT('',(-43.0000006407499,-157.899999403953,22.0000003278255));
#731=CARTESIAN_POINT('',(-43.0000006407499,-152.899999403953,28.3999989271187));
#732=CARTESIAN_POINT('Origin',(-87.000001296401,-157.899999403953,22.0000003278255));
#733=CARTESIAN_POINT('',(-87.000001296401,-152.899999403953,22.0000003278255));
#734=CARTESIAN_POINT('',(-87.000001296401,-152.899999403953,28.3999989271187));
#735=CARTESIAN_POINT('',(-87.000001296401,-157.899999403953,22.0000003278255));
#736=CARTESIAN_POINT('Origin',(-43.0000006407499,-157.899999403953,22.0000003278255));
#737=CARTESIAN_POINT('',(-87.000001296401,-152.899999403953,22.0000003278255));
#738=CARTESIAN_POINT('Origin',(-65.0000095597554,-152.899999403953,47.0000007003546));
#739=UNCERTAINTY_MEASURE_WITH_UNIT(LENGTH_MEASURE(0.01),#743,
'DISTANCE_ACCURACY_VALUE',
'Maximum model space distance between geometric entities at asserted c
onnectivities');
#740=UNCERTAINTY_MEASURE_WITH_UNIT(LENGTH_MEASURE(0.01),#743,
'DISTANCE_ACCURACY_VALUE',
'Maximum model space distance between geometric entities at asserted c
onnectivities');
#741=(
GEOMETRIC_REPRESENTATION_CONTEXT(3)
GLOBAL_UNCERTAINTY_ASSIGNED_CONTEXT((#739))
GLOBAL_UNIT_ASSIGNED_CONTEXT((#743,#745,#746))
REPRESENTATION_CONTEXT('','3D')
);
#742=(
GEOMETRIC_REPRESENTATION_CONTEXT(3)
GLOBAL_UNCERTAINTY_ASSIGNED_CONTEXT((#740))
GLOBAL_UNIT_ASSIGNED_CONTEXT((#743,#745,#746))
REPRESENTATION_CONTEXT('','3D')
);
#743=(
LENGTH_UNIT()
NAMED_UNIT(*)
SI_UNIT(.MILLI.,.METRE.)
);
#744=(
LENGTH_UNIT()
NAMED_UNIT(*)
SI_UNIT($,.METRE.)
);
#745=(
NAMED_UNIT(*)
PLANE_ANGLE_UNIT()
SI_UNIT($,.RADIAN.)
);
#746=(
NAMED_UNIT(*)
SI_UNIT($,.STERADIAN.)
SOLID_ANGLE_UNIT()
);
#747=SHAPE_DEFINITION_REPRESENTATION(#748,#749);
#748=PRODUCT_DEFINITION_SHAPE('',$,#751);
#749=SHAPE_REPRESENTATION('',(#449),#741);
#750=PRODUCT_DEFINITION_CONTEXT('part definition',#755,'design');
#751=PRODUCT_DEFINITION('2026-07-08-17-01-47-342','EncoderBracket (1)',
#752,#750);
#752=PRODUCT_DEFINITION_FORMATION('',$,#757);
#753=PRODUCT_RELATED_PRODUCT_CATEGORY('EncoderBracket (1)',
'EncoderBracket (1)',(#757));
#754=APPLICATION_PROTOCOL_DEFINITION('international standard',
'automotive_design',2009,#755);
#755=APPLICATION_CONTEXT(
'Core Data for Automotive Mechanical Design Process');
#756=PRODUCT_CONTEXT('part definition',#755,'mechanical');
#757=PRODUCT('2026-07-08-17-01-47-342','EncoderBracket (1)',$,(#756));
#758=PRESENTATION_STYLE_ASSIGNMENT((#760));
#759=PRESENTATION_STYLE_ASSIGNMENT((#761));
#760=SURFACE_STYLE_USAGE(.BOTH.,#762);
#761=SURFACE_STYLE_USAGE(.BOTH.,#763);
#762=SURFACE_SIDE_STYLE('',(#764));
#763=SURFACE_SIDE_STYLE('',(#765));
#764=SURFACE_STYLE_FILL_AREA(#766);
#765=SURFACE_STYLE_FILL_AREA(#767);
#766=FILL_AREA_STYLE('\X\C7elik - Saten',(#768));
#767=FILL_AREA_STYLE('Opaque(28,28,28)',(#769));
#768=FILL_AREA_STYLE_COLOUR('\X\C7elik - Saten',#770);
#769=FILL_AREA_STYLE_COLOUR('Opaque(28,28,28)',#771);
#770=COLOUR_RGB('\X\C7elik - Saten',0.627450980392157,0.627450980392157,
0.627450980392157);
#771=COLOUR_RGB('Opaque(28,28,28)',0.109803921568627,0.109803921568627,
0.109803921568627);
ENDSEC;
END-ISO-10303-21;
