ISO-10303-21;
HEADER;
/* Generated by software containing ST-Developer
 * from STEP Tools, Inc. (www.steptools.com) 
 */

FILE_DESCRIPTION(
/* description */ (''),
/* implementation_level */ '2;1');

FILE_NAME(
/* name */ 'PaddleShift.step',
/* time_stamp */ '2026-07-10T18:46:10+03:00',
/* author */ (''),
/* organization */ (''),
/* preprocessor_version */ 'ST-DEVELOPER v20.1',
/* originating_system */ 'Autodesk Translation Framework v15.8.0.0',
/* authorisation */ '');

FILE_SCHEMA (('AUTOMOTIVE_DESIGN { 1 0 10303 214 3 1 1 }'));
ENDSEC;

DATA;
#10=MECHANICAL_DESIGN_GEOMETRIC_PRESENTATION_REPRESENTATION('',(#13),#1725);
#11=SHAPE_REPRESENTATION_RELATIONSHIP('SRR','None',#1732,#12);
#12=ADVANCED_BREP_SHAPE_REPRESENTATION('',(#14),#1724);
#13=STYLED_ITEM('',(#1742),#14);
#14=MANIFOLD_SOLID_BREP('PD (1)',#889);
#15=B_SPLINE_SURFACE_WITH_KNOTS('',3,3,((#1412,#1413,#1414,#1415),(#1416,
#1417,#1418,#1419),(#1420,#1421,#1422,#1423),(#1424,#1425,#1426,#1427)),
 .UNSPECIFIED.,.F.,.F.,.F.,(4,4),(4,4),(0.,1.),(0.239641273226319,2.34915246891338),
 .UNSPECIFIED.);
#16=B_SPLINE_SURFACE_WITH_KNOTS('',3,3,((#1466,#1467,#1468,#1469),(#1470,
#1471,#1472,#1473),(#1474,#1475,#1476,#1477),(#1478,#1479,#1480,#1481)),
 .UNSPECIFIED.,.F.,.F.,.F.,(4,4),(4,4),(0.,1.),(1.64604811798709,3.75555931392665),
 .UNSPECIFIED.);
#17=B_SPLINE_SURFACE_WITH_KNOTS('',3,3,((#1648,#1649,#1650,#1651),(#1652,
#1653,#1654,#1655),(#1656,#1657,#1658,#1659),(#1660,#1661,#1662,#1663)),
 .UNSPECIFIED.,.F.,.F.,.F.,(4,4),(4,4),(0.,1.),(0.239641273226319,2.34915246891293),
 .UNSPECIFIED.);
#18=B_SPLINE_SURFACE_WITH_KNOTS('',3,3,((#1675,#1676,#1677,#1678),(#1679,
#1680,#1681,#1682),(#1683,#1684,#1685,#1686),(#1687,#1688,#1689,#1690)),
 .UNSPECIFIED.,.F.,.F.,.F.,(4,4),(4,4),(0.,1.),(1.64604811798709,3.75555931392665),
 .UNSPECIFIED.);
#19=CYLINDRICAL_SURFACE('',#917,3.1);
#20=CYLINDRICAL_SURFACE('',#922,3.1);
#21=CYLINDRICAL_SURFACE('',#927,3.1);
#22=CYLINDRICAL_SURFACE('',#932,3.1);
#23=CYLINDRICAL_SURFACE('',#937,1.64999999999999);
#24=CYLINDRICAL_SURFACE('',#940,1.64999999999999);
#25=CYLINDRICAL_SURFACE('',#952,1.55000000000001);
#26=CYLINDRICAL_SURFACE('',#953,1.55000000000001);
#27=CYLINDRICAL_SURFACE('',#954,1.64999999999999);
#28=CYLINDRICAL_SURFACE('',#957,1.64999999999999);
#29=CYLINDRICAL_SURFACE('',#974,1.55000000000001);
#30=CYLINDRICAL_SURFACE('',#975,1.55000000000001);
#31=FACE_BOUND('',#263,.T.);
#32=FACE_BOUND('',#264,.T.);
#33=FACE_BOUND('',#267,.T.);
#34=FACE_BOUND('',#270,.T.);
#35=FACE_BOUND('',#273,.T.);
#36=FACE_BOUND('',#276,.T.);
#37=FACE_BOUND('',#281,.T.);
#38=FACE_BOUND('',#285,.T.);
#39=FACE_BOUND('',#288,.T.);
#40=FACE_BOUND('',#291,.T.);
#41=FACE_BOUND('',#300,.T.);
#42=FACE_BOUND('',#301,.T.);
#43=FACE_BOUND('',#302,.T.);
#44=FACE_BOUND('',#303,.T.);
#45=FACE_BOUND('',#304,.T.);
#46=FACE_BOUND('',#306,.T.);
#47=FACE_BOUND('',#310,.T.);
#48=FACE_BOUND('',#313,.T.);
#49=FACE_BOUND('',#316,.T.);
#50=FACE_BOUND('',#319,.T.);
#51=FACE_BOUND('',#320,.T.);
#52=FACE_BOUND('',#326,.T.);
#53=PLANE('',#914);
#54=PLANE('',#920);
#55=PLANE('',#925);
#56=PLANE('',#930);
#57=PLANE('',#935);
#58=PLANE('',#943);
#59=PLANE('',#944);
#60=PLANE('',#945);
#61=PLANE('',#946);
#62=PLANE('',#947);
#63=PLANE('',#948);
#64=PLANE('',#949);
#65=PLANE('',#950);
#66=PLANE('',#951);
#67=PLANE('',#960);
#68=PLANE('',#961);
#69=PLANE('',#963);
#70=PLANE('',#964);
#71=PLANE('',#965);
#72=PLANE('',#966);
#73=PLANE('',#967);
#74=PLANE('',#968);
#75=PLANE('',#969);
#76=PLANE('',#970);
#77=PLANE('',#973);
#78=PLANE('',#978);
#79=LINE('',#1234,#145);
#80=LINE('',#1313,#146);
#81=LINE('',#1315,#147);
#82=LINE('',#1317,#148);
#83=LINE('',#1319,#149);
#84=LINE('',#1321,#150);
#85=LINE('',#1323,#151);
#86=LINE('',#1325,#152);
#87=LINE('',#1338,#153);
#88=LINE('',#1347,#154);
#89=LINE('',#1356,#155);
#90=LINE('',#1365,#156);
#91=LINE('',#1374,#157);
#92=LINE('',#1380,#158);
#93=LINE('',#1385,#159);
#94=LINE('',#1387,#160);
#95=LINE('',#1389,#161);
#96=LINE('',#1390,#162);
#97=LINE('',#1392,#163);
#98=LINE('',#1394,#164);
#99=LINE('',#1395,#165);
#100=LINE('',#1399,#166);
#101=LINE('',#1401,#167);
#102=LINE('',#1403,#168);
#103=LINE('',#1404,#169);
#104=LINE('',#1406,#170);
#105=LINE('',#1407,#171);
#106=LINE('',#1410,#172);
#107=LINE('',#1411,#173);
#108=LINE('',#1465,#174);
#109=LINE('',#1519,#175);
#110=LINE('',#1520,#176);
#111=LINE('',#1522,#177);
#112=LINE('',#1525,#178);
#113=LINE('',#1527,#179);
#114=LINE('',#1532,#180);
#115=LINE('',#1538,#181);
#116=LINE('',#1543,#182);
#117=LINE('',#1545,#183);
#118=LINE('',#1547,#184);
#119=LINE('',#1548,#185);
#120=LINE('',#1583,#186);
#121=LINE('',#1585,#187);
#122=LINE('',#1587,#188);
#123=LINE('',#1589,#189);
#124=LINE('',#1590,#190);
#125=LINE('',#1592,#191);
#126=LINE('',#1628,#192);
#127=LINE('',#1630,#193);
#128=LINE('',#1631,#194);
#129=LINE('',#1634,#195);
#130=LINE('',#1636,#196);
#131=LINE('',#1637,#197);
#132=LINE('',#1640,#198);
#133=LINE('',#1642,#199);
#134=LINE('',#1643,#200);
#135=LINE('',#1646,#201);
#136=LINE('',#1647,#202);
#137=LINE('',#1674,#203);
#138=LINE('',#1702,#204);
#139=LINE('',#1703,#205);
#140=LINE('',#1705,#206);
#141=LINE('',#1707,#207);
#142=LINE('',#1714,#208);
#143=LINE('',#1716,#209);
#144=LINE('',#1719,#210);
#145=VECTOR('',#993,28.);
#146=VECTOR('',#1006,10.);
#147=VECTOR('',#1007,10.);
#148=VECTOR('',#1008,10.);
#149=VECTOR('',#1009,10.);
#150=VECTOR('',#1010,10.);
#151=VECTOR('',#1011,10.);
#152=VECTOR('',#1012,10.);
#153=VECTOR('',#1021,3.1);
#154=VECTOR('',#1032,3.1);
#155=VECTOR('',#1043,3.1);
#156=VECTOR('',#1054,3.1);
#157=VECTOR('',#1065,1.64999999999999);
#158=VECTOR('',#1072,1.64999999999999);
#159=VECTOR('',#1077,10.);
#160=VECTOR('',#1078,10.);
#161=VECTOR('',#1079,10.);
#162=VECTOR('',#1080,10.);
#163=VECTOR('',#1083,10.);
#164=VECTOR('',#1084,10.);
#165=VECTOR('',#1085,10.);
#166=VECTOR('',#1088,10.);
#167=VECTOR('',#1089,10.);
#168=VECTOR('',#1090,10.);
#169=VECTOR('',#1091,10.);
#170=VECTOR('',#1094,10.);
#171=VECTOR('',#1095,10.);
#172=VECTOR('',#1098,10.);
#173=VECTOR('',#1099,10.);
#174=VECTOR('',#1102,10.);
#175=VECTOR('',#1105,10.);
#176=VECTOR('',#1106,10.);
#177=VECTOR('',#1109,10.);
#178=VECTOR('',#1114,1.55000000000001);
#179=VECTOR('',#1117,1.55000000000001);
#180=VECTOR('',#1122,1.64999999999999);
#181=VECTOR('',#1129,1.64999999999999);
#182=VECTOR('',#1134,10.);
#183=VECTOR('',#1135,10.);
#184=VECTOR('',#1136,10.);
#185=VECTOR('',#1137,10.);
#186=VECTOR('',#1140,10.);
#187=VECTOR('',#1141,10.);
#188=VECTOR('',#1142,10.);
#189=VECTOR('',#1143,10.);
#190=VECTOR('',#1144,10.);
#191=VECTOR('',#1145,10.);
#192=VECTOR('',#1150,10.);
#193=VECTOR('',#1151,10.);
#194=VECTOR('',#1152,10.);
#195=VECTOR('',#1155,10.);
#196=VECTOR('',#1156,10.);
#197=VECTOR('',#1157,10.);
#198=VECTOR('',#1160,10.);
#199=VECTOR('',#1161,10.);
#200=VECTOR('',#1162,10.);
#201=VECTOR('',#1165,10.);
#202=VECTOR('',#1166,10.);
#203=VECTOR('',#1169,10.);
#204=VECTOR('',#1172,10.);
#205=VECTOR('',#1173,10.);
#206=VECTOR('',#1176,10.);
#207=VECTOR('',#1179,10.);
#208=VECTOR('',#1188,1.55000000000001);
#209=VECTOR('',#1191,1.55000000000001);
#210=VECTOR('',#1194,28.);
#211=CONICAL_SURFACE('',#907,37.9908289581767,0.0428309326687274);
#212=CONICAL_SURFACE('',#976,28.1998165791635,0.0428309326687274);
#213=FACE_OUTER_BOUND('',#259,.T.);
#214=FACE_OUTER_BOUND('',#260,.T.);
#215=FACE_OUTER_BOUND('',#261,.T.);
#216=FACE_OUTER_BOUND('',#262,.T.);
#217=FACE_OUTER_BOUND('',#265,.T.);
#218=FACE_OUTER_BOUND('',#266,.T.);
#219=FACE_OUTER_BOUND('',#268,.T.);
#220=FACE_OUTER_BOUND('',#269,.T.);
#221=FACE_OUTER_BOUND('',#271,.T.);
#222=FACE_OUTER_BOUND('',#272,.T.);
#223=FACE_OUTER_BOUND('',#274,.T.);
#224=FACE_OUTER_BOUND('',#275,.T.);
#225=FACE_OUTER_BOUND('',#277,.T.);
#226=FACE_OUTER_BOUND('',#278,.T.);
#227=FACE_OUTER_BOUND('',#279,.T.);
#228=FACE_OUTER_BOUND('',#280,.T.);
#229=FACE_OUTER_BOUND('',#282,.T.);
#230=FACE_OUTER_BOUND('',#283,.T.);
#231=FACE_OUTER_BOUND('',#284,.T.);
#232=FACE_OUTER_BOUND('',#286,.T.);
#233=FACE_OUTER_BOUND('',#287,.T.);
#234=FACE_OUTER_BOUND('',#289,.T.);
#235=FACE_OUTER_BOUND('',#290,.T.);
#236=FACE_OUTER_BOUND('',#292,.T.);
#237=FACE_OUTER_BOUND('',#293,.T.);
#238=FACE_OUTER_BOUND('',#294,.T.);
#239=FACE_OUTER_BOUND('',#295,.T.);
#240=FACE_OUTER_BOUND('',#296,.T.);
#241=FACE_OUTER_BOUND('',#297,.T.);
#242=FACE_OUTER_BOUND('',#298,.T.);
#243=FACE_OUTER_BOUND('',#299,.T.);
#244=FACE_OUTER_BOUND('',#305,.T.);
#245=FACE_OUTER_BOUND('',#307,.T.);
#246=FACE_OUTER_BOUND('',#308,.T.);
#247=FACE_OUTER_BOUND('',#309,.T.);
#248=FACE_OUTER_BOUND('',#311,.T.);
#249=FACE_OUTER_BOUND('',#312,.T.);
#250=FACE_OUTER_BOUND('',#314,.T.);
#251=FACE_OUTER_BOUND('',#315,.T.);
#252=FACE_OUTER_BOUND('',#317,.T.);
#253=FACE_OUTER_BOUND('',#318,.T.);
#254=FACE_OUTER_BOUND('',#321,.T.);
#255=FACE_OUTER_BOUND('',#322,.T.);
#256=FACE_OUTER_BOUND('',#323,.T.);
#257=FACE_OUTER_BOUND('',#324,.T.);
#258=FACE_OUTER_BOUND('',#325,.T.);
#259=EDGE_LOOP('',(#593,#594,#595,#596,#597));
#260=EDGE_LOOP('',(#598,#599,#600,#601,#602,#603,#604,#605,#606,#607,#608,
#609,#610,#611,#612,#613));
#261=EDGE_LOOP('',(#614,#615,#616,#617));
#262=EDGE_LOOP('',(#618,#619,#620,#621,#622,#623,#624,#625,#626,#627));
#263=EDGE_LOOP('',(#628));
#264=EDGE_LOOP('',(#629));
#265=EDGE_LOOP('',(#630,#631,#632,#633));
#266=EDGE_LOOP('',(#634));
#267=EDGE_LOOP('',(#635));
#268=EDGE_LOOP('',(#636,#637,#638,#639));
#269=EDGE_LOOP('',(#640));
#270=EDGE_LOOP('',(#641));
#271=EDGE_LOOP('',(#642,#643,#644,#645));
#272=EDGE_LOOP('',(#646));
#273=EDGE_LOOP('',(#647));
#274=EDGE_LOOP('',(#648,#649,#650,#651));
#275=EDGE_LOOP('',(#652));
#276=EDGE_LOOP('',(#653));
#277=EDGE_LOOP('',(#654,#655,#656,#657));
#278=EDGE_LOOP('',(#658,#659,#660,#661));
#279=EDGE_LOOP('',(#662,#663,#664,#665));
#280=EDGE_LOOP('',(#666,#667,#668,#669,#670));
#281=EDGE_LOOP('',(#671));
#282=EDGE_LOOP('',(#672,#673,#674,#675));
#283=EDGE_LOOP('',(#676,#677,#678,#679));
#284=EDGE_LOOP('',(#680,#681,#682,#683,#684));
#285=EDGE_LOOP('',(#685));
#286=EDGE_LOOP('',(#686,#687,#688,#689,#690,#691));
#287=EDGE_LOOP('',(#692,#693,#694,#695,#696));
#288=EDGE_LOOP('',(#697));
#289=EDGE_LOOP('',(#698,#699,#700,#701,#702,#703));
#290=EDGE_LOOP('',(#704,#705,#706,#707,#708));
#291=EDGE_LOOP('',(#709));
#292=EDGE_LOOP('',(#710,#711,#712,#713));
#293=EDGE_LOOP('',(#714,#715,#716,#717));
#294=EDGE_LOOP('',(#718,#719,#720,#721));
#295=EDGE_LOOP('',(#722,#723,#724,#725));
#296=EDGE_LOOP('',(#726,#727,#728,#729));
#297=EDGE_LOOP('',(#730,#731,#732,#733));
#298=EDGE_LOOP('',(#734,#735,#736,#737));
#299=EDGE_LOOP('',(#738,#739,#740,#741,#742,#743,#744,#745,#746,#747,#748,
#749,#750,#751,#752,#753,#754,#755,#756,#757));
#300=EDGE_LOOP('',(#758));
#301=EDGE_LOOP('',(#759));
#302=EDGE_LOOP('',(#760));
#303=EDGE_LOOP('',(#761));
#304=EDGE_LOOP('',(#762));
#305=EDGE_LOOP('',(#763,#764,#765,#766,#767));
#306=EDGE_LOOP('',(#768));
#307=EDGE_LOOP('',(#769,#770,#771,#772));
#308=EDGE_LOOP('',(#773,#774,#775,#776));
#309=EDGE_LOOP('',(#777,#778,#779,#780,#781));
#310=EDGE_LOOP('',(#782));
#311=EDGE_LOOP('',(#783,#784,#785,#786,#787,#788));
#312=EDGE_LOOP('',(#789,#790,#791,#792,#793));
#313=EDGE_LOOP('',(#794));
#314=EDGE_LOOP('',(#795,#796,#797,#798,#799,#800));
#315=EDGE_LOOP('',(#801,#802,#803,#804,#805));
#316=EDGE_LOOP('',(#806));
#317=EDGE_LOOP('',(#807,#808,#809,#810));
#318=EDGE_LOOP('',(#811,#812,#813,#814,#815,#816,#817,#818,#819,#820));
#319=EDGE_LOOP('',(#821));
#320=EDGE_LOOP('',(#822));
#321=EDGE_LOOP('',(#823,#824,#825,#826));
#322=EDGE_LOOP('',(#827,#828,#829,#830));
#323=EDGE_LOOP('',(#831,#832,#833,#834));
#324=EDGE_LOOP('',(#835,#836,#837,#838));
#325=EDGE_LOOP('',(#839));
#326=EDGE_LOOP('',(#840));
#327=CIRCLE('',#904,37.1110145105616);
#328=CIRCLE('',#905,37.1110145105616);
#329=CIRCLE('',#906,38.1100974063793);
#330=CIRCLE('',#908,36.5091794603448);
#331=CIRCLE('',#909,38.0091794603448);
#332=CIRCLE('',#910,37.1110145105616);
#333=CIRCLE('',#911,38.0091794603448);
#334=CIRCLE('',#913,38.1100974063793);
#335=CIRCLE('',#915,1.55000000000001);
#336=CIRCLE('',#916,1.55000000000001);
#337=CIRCLE('',#918,3.1);
#338=CIRCLE('',#919,3.1);
#339=CIRCLE('',#921,1.55000000000001);
#340=CIRCLE('',#923,3.1);
#341=CIRCLE('',#924,3.1);
#342=CIRCLE('',#926,1.55000000000001);
#343=CIRCLE('',#928,3.1);
#344=CIRCLE('',#929,3.1);
#345=CIRCLE('',#931,1.55000000000001);
#346=CIRCLE('',#933,3.1);
#347=CIRCLE('',#934,3.1);
#348=CIRCLE('',#936,1.55000000000001);
#349=CIRCLE('',#938,1.64999999999999);
#350=CIRCLE('',#939,1.64999999999999);
#351=CIRCLE('',#941,1.64999999999999);
#352=CIRCLE('',#942,1.64999999999999);
#353=CIRCLE('',#955,1.64999999999999);
#354=CIRCLE('',#956,1.64999999999999);
#355=CIRCLE('',#958,1.64999999999999);
#356=CIRCLE('',#959,1.64999999999999);
#357=CIRCLE('',#962,28.2001835892069);
#358=CIRCLE('',#971,1.55000000000001);
#359=CIRCLE('',#972,1.55000000000001);
#360=CIRCLE('',#977,26.7001835892069);
#361=B_SPLINE_CURVE_WITH_KNOTS('',3,(#1203,#1204,#1205,#1206,#1207,#1208,
#1209,#1210,#1211,#1212),.UNSPECIFIED.,.F.,.F.,(4,2,2,2,4),(-0.278262684322114,
-0.22155757081225,-0.134143549938936,0.,0.000829405879464073),
 .UNSPECIFIED.);
#362=B_SPLINE_CURVE_WITH_KNOTS('',3,(#1218,#1219,#1220,#1221,#1222,#1223,
#1224,#1225,#1226,#1227,#1228,#1229),.UNSPECIFIED.,.F.,.F.,(4,2,2,2,2,4),
(-0.230040468245192,-0.229335933533863,-0.135789868780644,-0.0620993009333139,
-0.00862475459431778,-0.00620860914647125),.UNSPECIFIED.);
#363=B_SPLINE_CURVE_WITH_KNOTS('',3,(#1236,#1237,#1238,#1239),
 .UNSPECIFIED.,.F.,.F.,(4,4),(2.25329206972285,2.34915246891293),
 .UNSPECIFIED.);
#364=B_SPLINE_CURVE_WITH_KNOTS('',3,(#1241,#1242,#1243,#1244),
 .UNSPECIFIED.,.F.,.F.,(4,4),(-2.25329206972285,-0.250361222070771),
 .UNSPECIFIED.);
#365=B_SPLINE_CURVE_WITH_KNOTS('',3,(#1248,#1249,#1250,#1251),
 .UNSPECIFIED.,.F.,.F.,(4,4),(-2.25329206972285,-0.250361222070771),
 .UNSPECIFIED.);
#366=B_SPLINE_CURVE_WITH_KNOTS('',3,(#1253,#1254,#1255,#1256),
 .UNSPECIFIED.,.F.,.F.,(4,4),(2.25329206972285,2.34915246891338),
 .UNSPECIFIED.);
#367=B_SPLINE_CURVE_WITH_KNOTS('',3,(#1260,#1261,#1262,#1263),
 .UNSPECIFIED.,.F.,.F.,(4,4),(1.64604811798709,1.74190851718965),
 .UNSPECIFIED.);
#368=B_SPLINE_CURVE_WITH_KNOTS('',3,(#1265,#1266,#1267,#1268),
 .UNSPECIFIED.,.F.,.F.,(4,4),(-3.74483936508098,-1.74190851718965),
 .UNSPECIFIED.);
#369=B_SPLINE_CURVE_WITH_KNOTS('',3,(#1272,#1273,#1274,#1275),
 .UNSPECIFIED.,.F.,.F.,(4,4),(-3.74483936508098,-1.74190851718965),
 .UNSPECIFIED.);
#370=B_SPLINE_CURVE_WITH_KNOTS('',3,(#1276,#1277,#1278,#1279),
 .UNSPECIFIED.,.F.,.F.,(4,4),(1.64604811798709,1.74190851718965),
 .UNSPECIFIED.);
#371=B_SPLINE_CURVE_WITH_KNOTS('',3,(#1282,#1283,#1284,#1285,#1286,#1287,
#1288,#1289,#1290,#1291,#1292,#1293),.UNSPECIFIED.,.F.,.F.,(4,2,2,2,2,4),
(-0.230040476203711,-0.229335941503877,-0.135789854523599,-0.0620992961248581,
-0.00862475506932283,-0.00620862309336963),.UNSPECIFIED.);
#372=B_SPLINE_CURVE_WITH_KNOTS('',3,(#1296,#1297,#1298,#1299,#1300,#1301,
#1302,#1303,#1304,#1305),.UNSPECIFIED.,.F.,.F.,(4,2,2,2,4),(-0.278262681144371,
-0.221557546082331,-0.134143517995187,0.,0.000829405886683318),
 .UNSPECIFIED.);
#373=B_SPLINE_CURVE_WITH_KNOTS('',3,(#1308,#1309,#1310,#1311),
 .UNSPECIFIED.,.F.,.F.,(4,4),(0.,0.00621678568181364),.UNSPECIFIED.);
#374=B_SPLINE_CURVE_WITH_KNOTS('',3,(#1326,#1327,#1328,#1329),
 .UNSPECIFIED.,.F.,.F.,(4,4),(0.220880337146796,0.227095653405747),
 .UNSPECIFIED.);
#375=B_SPLINE_CURVE_WITH_KNOTS('',3,(#1429,#1430,#1431,#1432,#1433,#1434,
#1435,#1436,#1437,#1438,#1439,#1440,#1441,#1442,#1443,#1444,#1445,#1446,
#1447,#1448,#1449,#1450,#1451,#1452,#1453,#1454,#1455,#1456,#1457,#1458,
#1459),.UNSPECIFIED.,.F.,.F.,(4,3,3,3,3,3,3,3,3,3,4),(-0.231233806651052,
-0.20521247752795,-0.178585378821617,-0.164460019762032,-0.13787664037243,
-0.111148690952262,-0.0977021868678457,-0.0709203996716499,-0.0442948344518722,
-0.0183819081626511,0.),.UNSPECIFIED.);
#376=B_SPLINE_CURVE_WITH_KNOTS('',3,(#1460,#1461,#1462,#1463),
 .UNSPECIFIED.,.F.,.F.,(4,4),(0.239641273226319,2.24257172072119),
 .UNSPECIFIED.);
#377=B_SPLINE_CURVE_WITH_KNOTS('',3,(#1483,#1484,#1485,#1486),
 .UNSPECIFIED.,.F.,.F.,(4,4),(1.75262886619266,3.75555931392665),
 .UNSPECIFIED.);
#378=B_SPLINE_CURVE_WITH_KNOTS('',3,(#1487,#1488,#1489,#1490,#1491,#1492,
#1493,#1494,#1495,#1496,#1497,#1498,#1499,#1500,#1501,#1502,#1503,#1504,
#1505,#1506,#1507,#1508,#1509,#1510,#1511,#1512,#1513,#1514,#1515,#1516,
#1517),.UNSPECIFIED.,.F.,.F.,(4,3,3,3,3,3,3,3,3,3,4),(-0.231240324271993,
-0.205268808234886,-0.178674373784986,-0.164598326999359,-0.138041120432721,
-0.111307740900345,-0.0979308062633949,-0.0711311457586747,-0.0444696396464959,
-0.0185029730659621,0.),.UNSPECIFIED.);
#379=B_SPLINE_CURVE_WITH_KNOTS('',3,(#1551,#1552,#1553,#1554,#1555,#1556,
#1557,#1558,#1559,#1560,#1561,#1562,#1563,#1564,#1565,#1566,#1567,#1568,
#1569,#1570,#1571,#1572,#1573,#1574,#1575,#1576,#1577,#1578,#1579,#1580,
#1581),.UNSPECIFIED.,.F.,.F.,(4,3,3,3,3,3,3,3,3,3,4),(-0.231233806651052,
-0.205212477527948,-0.178585378821615,-0.164460019762032,-0.137876640372429,
-0.111148690952267,-0.0977021868678457,-0.0709203996716505,-0.0442948344518732,
-0.0183819081626506,0.),.UNSPECIFIED.);
#380=B_SPLINE_CURVE_WITH_KNOTS('',3,(#1593,#1594,#1595,#1596,#1597,#1598,
#1599,#1600,#1601,#1602,#1603,#1604,#1605,#1606,#1607,#1608,#1609,#1610,
#1611,#1612,#1613,#1614,#1615,#1616,#1617,#1618,#1619,#1620,#1621,#1622,
#1623),.UNSPECIFIED.,.F.,.F.,(4,3,3,3,3,3,3,3,3,3,4),(-0.231240324271993,
-0.205268808234884,-0.178674373784985,-0.164598326999359,-0.138041120432717,
-0.111307740900338,-0.0979308062633949,-0.071131145758676,-0.0444696396465107,
-0.01850297306597,0.),.UNSPECIFIED.);
#381=B_SPLINE_CURVE_WITH_KNOTS('',3,(#1665,#1666,#1667,#1668),
 .UNSPECIFIED.,.F.,.F.,(4,4),(0.,0.00621678568181398),.UNSPECIFIED.);
#382=B_SPLINE_CURVE_WITH_KNOTS('',3,(#1669,#1670,#1671,#1672),
 .UNSPECIFIED.,.F.,.F.,(4,4),(0.239641273226319,2.24257172072119),
 .UNSPECIFIED.);
#383=B_SPLINE_CURVE_WITH_KNOTS('',3,(#1692,#1693,#1694,#1695),
 .UNSPECIFIED.,.F.,.F.,(4,4),(1.75262886619266,3.75555931392665),
 .UNSPECIFIED.);
#384=B_SPLINE_CURVE_WITH_KNOTS('',3,(#1696,#1697,#1698,#1699),
 .UNSPECIFIED.,.F.,.F.,(4,4),(0.2208803371468,0.227095653405747),
 .UNSPECIFIED.);
#385=VERTEX_POINT('',#1201);
#386=VERTEX_POINT('',#1202);
#387=VERTEX_POINT('',#1213);
#388=VERTEX_POINT('',#1215);
#389=VERTEX_POINT('',#1217);
#390=VERTEX_POINT('',#1232);
#391=VERTEX_POINT('',#1235);
#392=VERTEX_POINT('',#1240);
#393=VERTEX_POINT('',#1245);
#394=VERTEX_POINT('',#1247);
#395=VERTEX_POINT('',#1252);
#396=VERTEX_POINT('',#1257);
#397=VERTEX_POINT('',#1259);
#398=VERTEX_POINT('',#1264);
#399=VERTEX_POINT('',#1269);
#400=VERTEX_POINT('',#1271);
#401=VERTEX_POINT('',#1281);
#402=VERTEX_POINT('',#1294);
#403=VERTEX_POINT('',#1307);
#404=VERTEX_POINT('',#1312);
#405=VERTEX_POINT('',#1314);
#406=VERTEX_POINT('',#1316);
#407=VERTEX_POINT('',#1318);
#408=VERTEX_POINT('',#1320);
#409=VERTEX_POINT('',#1322);
#410=VERTEX_POINT('',#1324);
#411=VERTEX_POINT('',#1330);
#412=VERTEX_POINT('',#1332);
#413=VERTEX_POINT('',#1335);
#414=VERTEX_POINT('',#1337);
#415=VERTEX_POINT('',#1341);
#416=VERTEX_POINT('',#1344);
#417=VERTEX_POINT('',#1346);
#418=VERTEX_POINT('',#1350);
#419=VERTEX_POINT('',#1353);
#420=VERTEX_POINT('',#1355);
#421=VERTEX_POINT('',#1359);
#422=VERTEX_POINT('',#1362);
#423=VERTEX_POINT('',#1364);
#424=VERTEX_POINT('',#1368);
#425=VERTEX_POINT('',#1371);
#426=VERTEX_POINT('',#1373);
#427=VERTEX_POINT('',#1377);
#428=VERTEX_POINT('',#1379);
#429=VERTEX_POINT('',#1383);
#430=VERTEX_POINT('',#1384);
#431=VERTEX_POINT('',#1386);
#432=VERTEX_POINT('',#1388);
#433=VERTEX_POINT('',#1393);
#434=VERTEX_POINT('',#1397);
#435=VERTEX_POINT('',#1398);
#436=VERTEX_POINT('',#1400);
#437=VERTEX_POINT('',#1402);
#438=VERTEX_POINT('',#1409);
#439=VERTEX_POINT('',#1428);
#440=VERTEX_POINT('',#1482);
#441=VERTEX_POINT('',#1529);
#442=VERTEX_POINT('',#1531);
#443=VERTEX_POINT('',#1535);
#444=VERTEX_POINT('',#1537);
#445=VERTEX_POINT('',#1541);
#446=VERTEX_POINT('',#1542);
#447=VERTEX_POINT('',#1544);
#448=VERTEX_POINT('',#1546);
#449=VERTEX_POINT('',#1550);
#450=VERTEX_POINT('',#1582);
#451=VERTEX_POINT('',#1584);
#452=VERTEX_POINT('',#1586);
#453=VERTEX_POINT('',#1588);
#454=VERTEX_POINT('',#1591);
#455=VERTEX_POINT('',#1624);
#456=VERTEX_POINT('',#1627);
#457=VERTEX_POINT('',#1629);
#458=VERTEX_POINT('',#1633);
#459=VERTEX_POINT('',#1635);
#460=VERTEX_POINT('',#1639);
#461=VERTEX_POINT('',#1641);
#462=VERTEX_POINT('',#1645);
#463=VERTEX_POINT('',#1664);
#464=VERTEX_POINT('',#1691);
#465=VERTEX_POINT('',#1701);
#466=VERTEX_POINT('',#1708);
#467=VERTEX_POINT('',#1710);
#468=VERTEX_POINT('',#1718);
#469=EDGE_CURVE('',#385,#386,#361,.T.);
#470=EDGE_CURVE('',#386,#387,#327,.T.);
#471=EDGE_CURVE('',#387,#388,#328,.T.);
#472=EDGE_CURVE('',#388,#389,#362,.T.);
#473=EDGE_CURVE('',#389,#385,#329,.T.);
#474=EDGE_CURVE('',#390,#390,#330,.F.);
#475=EDGE_CURVE('',#390,#387,#79,.T.);
#476=EDGE_CURVE('',#391,#386,#363,.T.);
#477=EDGE_CURVE('',#391,#392,#364,.T.);
#478=EDGE_CURVE('',#393,#392,#331,.F.);
#479=EDGE_CURVE('',#394,#393,#365,.T.);
#480=EDGE_CURVE('',#394,#395,#366,.T.);
#481=EDGE_CURVE('',#396,#395,#332,.T.);
#482=EDGE_CURVE('',#396,#397,#367,.T.);
#483=EDGE_CURVE('',#398,#397,#368,.T.);
#484=EDGE_CURVE('',#399,#398,#333,.F.);
#485=EDGE_CURVE('',#399,#400,#369,.T.);
#486=EDGE_CURVE('',#388,#400,#370,.T.);
#487=EDGE_CURVE('',#395,#401,#371,.T.);
#488=EDGE_CURVE('',#401,#402,#334,.T.);
#489=EDGE_CURVE('',#402,#396,#372,.T.);
#490=EDGE_CURVE('',#403,#401,#373,.T.);
#491=EDGE_CURVE('',#403,#404,#80,.T.);
#492=EDGE_CURVE('',#404,#405,#81,.T.);
#493=EDGE_CURVE('',#405,#406,#82,.T.);
#494=EDGE_CURVE('',#406,#407,#83,.T.);
#495=EDGE_CURVE('',#407,#408,#84,.T.);
#496=EDGE_CURVE('',#408,#409,#85,.T.);
#497=EDGE_CURVE('',#409,#410,#86,.T.);
#498=EDGE_CURVE('',#402,#410,#374,.T.);
#499=EDGE_CURVE('',#411,#411,#335,.T.);
#500=EDGE_CURVE('',#412,#412,#336,.T.);
#501=EDGE_CURVE('',#413,#413,#337,.T.);
#502=EDGE_CURVE('',#413,#414,#87,.T.);
#503=EDGE_CURVE('',#414,#414,#338,.T.);
#504=EDGE_CURVE('',#415,#415,#339,.T.);
#505=EDGE_CURVE('',#416,#416,#340,.T.);
#506=EDGE_CURVE('',#416,#417,#88,.T.);
#507=EDGE_CURVE('',#417,#417,#341,.T.);
#508=EDGE_CURVE('',#418,#418,#342,.T.);
#509=EDGE_CURVE('',#419,#419,#343,.T.);
#510=EDGE_CURVE('',#419,#420,#89,.T.);
#511=EDGE_CURVE('',#420,#420,#344,.T.);
#512=EDGE_CURVE('',#421,#421,#345,.T.);
#513=EDGE_CURVE('',#422,#422,#346,.T.);
#514=EDGE_CURVE('',#422,#423,#90,.T.);
#515=EDGE_CURVE('',#423,#423,#347,.T.);
#516=EDGE_CURVE('',#424,#424,#348,.T.);
#517=EDGE_CURVE('',#425,#425,#349,.T.);
#518=EDGE_CURVE('',#425,#426,#91,.T.);
#519=EDGE_CURVE('',#426,#426,#350,.T.);
#520=EDGE_CURVE('',#427,#427,#351,.T.);
#521=EDGE_CURVE('',#427,#428,#92,.T.);
#522=EDGE_CURVE('',#428,#428,#352,.T.);
#523=EDGE_CURVE('',#429,#430,#93,.T.);
#524=EDGE_CURVE('',#430,#431,#94,.T.);
#525=EDGE_CURVE('',#431,#432,#95,.T.);
#526=EDGE_CURVE('',#432,#429,#96,.T.);
#527=EDGE_CURVE('',#408,#431,#97,.T.);
#528=EDGE_CURVE('',#407,#433,#98,.T.);
#529=EDGE_CURVE('',#432,#433,#99,.F.);
#530=EDGE_CURVE('',#434,#435,#100,.T.);
#531=EDGE_CURVE('',#435,#436,#101,.T.);
#532=EDGE_CURVE('',#436,#437,#102,.T.);
#533=EDGE_CURVE('',#437,#434,#103,.T.);
#534=EDGE_CURVE('',#437,#405,#104,.T.);
#535=EDGE_CURVE('',#434,#404,#105,.T.);
#536=EDGE_CURVE('',#438,#436,#106,.F.);
#537=EDGE_CURVE('',#438,#406,#107,.T.);
#538=EDGE_CURVE('',#393,#439,#375,.F.);
#539=EDGE_CURVE('',#439,#403,#376,.T.);
#540=EDGE_CURVE('',#435,#439,#108,.T.);
#541=EDGE_CURVE('',#410,#440,#377,.T.);
#542=EDGE_CURVE('',#440,#398,#378,.F.);
#543=EDGE_CURVE('',#440,#429,#109,.T.);
#544=EDGE_CURVE('',#409,#430,#110,.T.);
#545=EDGE_CURVE('',#433,#438,#111,.F.);
#546=EDGE_CURVE('',#411,#424,#112,.T.);
#547=EDGE_CURVE('',#412,#421,#113,.T.);
#548=EDGE_CURVE('',#441,#441,#353,.T.);
#549=EDGE_CURVE('',#441,#442,#114,.T.);
#550=EDGE_CURVE('',#442,#442,#354,.T.);
#551=EDGE_CURVE('',#443,#443,#355,.T.);
#552=EDGE_CURVE('',#443,#444,#115,.T.);
#553=EDGE_CURVE('',#444,#444,#356,.T.);
#554=EDGE_CURVE('',#445,#446,#116,.T.);
#555=EDGE_CURVE('',#447,#445,#117,.T.);
#556=EDGE_CURVE('',#448,#447,#118,.T.);
#557=EDGE_CURVE('',#446,#448,#119,.T.);
#558=EDGE_CURVE('',#392,#449,#379,.F.);
#559=EDGE_CURVE('',#450,#449,#120,.T.);
#560=EDGE_CURVE('',#450,#451,#121,.T.);
#561=EDGE_CURVE('',#452,#451,#122,.F.);
#562=EDGE_CURVE('',#453,#452,#123,.F.);
#563=EDGE_CURVE('',#447,#453,#124,.F.);
#564=EDGE_CURVE('',#454,#445,#125,.T.);
#565=EDGE_CURVE('',#454,#399,#380,.F.);
#566=EDGE_CURVE('',#455,#455,#357,.F.);
#567=EDGE_CURVE('',#456,#453,#126,.T.);
#568=EDGE_CURVE('',#456,#457,#127,.T.);
#569=EDGE_CURVE('',#457,#448,#128,.T.);
#570=EDGE_CURVE('',#458,#450,#129,.T.);
#571=EDGE_CURVE('',#459,#458,#130,.T.);
#572=EDGE_CURVE('',#451,#459,#131,.T.);
#573=EDGE_CURVE('',#458,#460,#132,.T.);
#574=EDGE_CURVE('',#460,#461,#133,.T.);
#575=EDGE_CURVE('',#459,#461,#134,.T.);
#576=EDGE_CURVE('',#461,#462,#135,.T.);
#577=EDGE_CURVE('',#452,#462,#136,.T.);
#578=EDGE_CURVE('',#463,#385,#381,.T.);
#579=EDGE_CURVE('',#449,#463,#382,.T.);
#580=EDGE_CURVE('',#463,#460,#137,.T.);
#581=EDGE_CURVE('',#464,#454,#383,.T.);
#582=EDGE_CURVE('',#389,#464,#384,.T.);
#583=EDGE_CURVE('',#465,#446,#138,.T.);
#584=EDGE_CURVE('',#465,#464,#139,.T.);
#585=EDGE_CURVE('',#462,#456,#140,.T.);
#586=EDGE_CURVE('',#457,#465,#141,.T.);
#587=EDGE_CURVE('',#466,#466,#358,.T.);
#588=EDGE_CURVE('',#467,#467,#359,.T.);
#589=EDGE_CURVE('',#467,#415,#142,.T.);
#590=EDGE_CURVE('',#466,#418,#143,.T.);
#591=EDGE_CURVE('',#455,#468,#144,.T.);
#592=EDGE_CURVE('',#468,#468,#360,.F.);
#593=ORIENTED_EDGE('',*,*,#469,.T.);
#594=ORIENTED_EDGE('',*,*,#470,.T.);
#595=ORIENTED_EDGE('',*,*,#471,.T.);
#596=ORIENTED_EDGE('',*,*,#472,.T.);
#597=ORIENTED_EDGE('',*,*,#473,.T.);
#598=ORIENTED_EDGE('',*,*,#474,.F.);
#599=ORIENTED_EDGE('',*,*,#475,.T.);
#600=ORIENTED_EDGE('',*,*,#470,.F.);
#601=ORIENTED_EDGE('',*,*,#476,.F.);
#602=ORIENTED_EDGE('',*,*,#477,.T.);
#603=ORIENTED_EDGE('',*,*,#478,.F.);
#604=ORIENTED_EDGE('',*,*,#479,.F.);
#605=ORIENTED_EDGE('',*,*,#480,.T.);
#606=ORIENTED_EDGE('',*,*,#481,.F.);
#607=ORIENTED_EDGE('',*,*,#482,.T.);
#608=ORIENTED_EDGE('',*,*,#483,.F.);
#609=ORIENTED_EDGE('',*,*,#484,.F.);
#610=ORIENTED_EDGE('',*,*,#485,.T.);
#611=ORIENTED_EDGE('',*,*,#486,.F.);
#612=ORIENTED_EDGE('',*,*,#471,.F.);
#613=ORIENTED_EDGE('',*,*,#475,.F.);
#614=ORIENTED_EDGE('',*,*,#487,.T.);
#615=ORIENTED_EDGE('',*,*,#488,.T.);
#616=ORIENTED_EDGE('',*,*,#489,.T.);
#617=ORIENTED_EDGE('',*,*,#481,.T.);
#618=ORIENTED_EDGE('',*,*,#488,.F.);
#619=ORIENTED_EDGE('',*,*,#490,.F.);
#620=ORIENTED_EDGE('',*,*,#491,.T.);
#621=ORIENTED_EDGE('',*,*,#492,.T.);
#622=ORIENTED_EDGE('',*,*,#493,.T.);
#623=ORIENTED_EDGE('',*,*,#494,.T.);
#624=ORIENTED_EDGE('',*,*,#495,.T.);
#625=ORIENTED_EDGE('',*,*,#496,.T.);
#626=ORIENTED_EDGE('',*,*,#497,.T.);
#627=ORIENTED_EDGE('',*,*,#498,.F.);
#628=ORIENTED_EDGE('',*,*,#499,.T.);
#629=ORIENTED_EDGE('',*,*,#500,.T.);
#630=ORIENTED_EDGE('',*,*,#501,.F.);
#631=ORIENTED_EDGE('',*,*,#502,.T.);
#632=ORIENTED_EDGE('',*,*,#503,.F.);
#633=ORIENTED_EDGE('',*,*,#502,.F.);
#634=ORIENTED_EDGE('',*,*,#503,.T.);
#635=ORIENTED_EDGE('',*,*,#504,.F.);
#636=ORIENTED_EDGE('',*,*,#505,.F.);
#637=ORIENTED_EDGE('',*,*,#506,.T.);
#638=ORIENTED_EDGE('',*,*,#507,.F.);
#639=ORIENTED_EDGE('',*,*,#506,.F.);
#640=ORIENTED_EDGE('',*,*,#507,.T.);
#641=ORIENTED_EDGE('',*,*,#508,.F.);
#642=ORIENTED_EDGE('',*,*,#509,.F.);
#643=ORIENTED_EDGE('',*,*,#510,.T.);
#644=ORIENTED_EDGE('',*,*,#511,.T.);
#645=ORIENTED_EDGE('',*,*,#510,.F.);
#646=ORIENTED_EDGE('',*,*,#511,.F.);
#647=ORIENTED_EDGE('',*,*,#512,.F.);
#648=ORIENTED_EDGE('',*,*,#513,.F.);
#649=ORIENTED_EDGE('',*,*,#514,.T.);
#650=ORIENTED_EDGE('',*,*,#515,.T.);
#651=ORIENTED_EDGE('',*,*,#514,.F.);
#652=ORIENTED_EDGE('',*,*,#515,.F.);
#653=ORIENTED_EDGE('',*,*,#516,.F.);
#654=ORIENTED_EDGE('',*,*,#517,.F.);
#655=ORIENTED_EDGE('',*,*,#518,.T.);
#656=ORIENTED_EDGE('',*,*,#519,.F.);
#657=ORIENTED_EDGE('',*,*,#518,.F.);
#658=ORIENTED_EDGE('',*,*,#520,.F.);
#659=ORIENTED_EDGE('',*,*,#521,.T.);
#660=ORIENTED_EDGE('',*,*,#522,.F.);
#661=ORIENTED_EDGE('',*,*,#521,.F.);
#662=ORIENTED_EDGE('',*,*,#523,.T.);
#663=ORIENTED_EDGE('',*,*,#524,.T.);
#664=ORIENTED_EDGE('',*,*,#525,.T.);
#665=ORIENTED_EDGE('',*,*,#526,.T.);
#666=ORIENTED_EDGE('',*,*,#525,.F.);
#667=ORIENTED_EDGE('',*,*,#527,.F.);
#668=ORIENTED_EDGE('',*,*,#495,.F.);
#669=ORIENTED_EDGE('',*,*,#528,.T.);
#670=ORIENTED_EDGE('',*,*,#529,.F.);
#671=ORIENTED_EDGE('',*,*,#522,.T.);
#672=ORIENTED_EDGE('',*,*,#530,.T.);
#673=ORIENTED_EDGE('',*,*,#531,.T.);
#674=ORIENTED_EDGE('',*,*,#532,.T.);
#675=ORIENTED_EDGE('',*,*,#533,.T.);
#676=ORIENTED_EDGE('',*,*,#533,.F.);
#677=ORIENTED_EDGE('',*,*,#534,.T.);
#678=ORIENTED_EDGE('',*,*,#492,.F.);
#679=ORIENTED_EDGE('',*,*,#535,.F.);
#680=ORIENTED_EDGE('',*,*,#532,.F.);
#681=ORIENTED_EDGE('',*,*,#536,.F.);
#682=ORIENTED_EDGE('',*,*,#537,.T.);
#683=ORIENTED_EDGE('',*,*,#493,.F.);
#684=ORIENTED_EDGE('',*,*,#534,.F.);
#685=ORIENTED_EDGE('',*,*,#517,.T.);
#686=ORIENTED_EDGE('',*,*,#538,.T.);
#687=ORIENTED_EDGE('',*,*,#539,.T.);
#688=ORIENTED_EDGE('',*,*,#490,.T.);
#689=ORIENTED_EDGE('',*,*,#487,.F.);
#690=ORIENTED_EDGE('',*,*,#480,.F.);
#691=ORIENTED_EDGE('',*,*,#479,.T.);
#692=ORIENTED_EDGE('',*,*,#530,.F.);
#693=ORIENTED_EDGE('',*,*,#535,.T.);
#694=ORIENTED_EDGE('',*,*,#491,.F.);
#695=ORIENTED_EDGE('',*,*,#539,.F.);
#696=ORIENTED_EDGE('',*,*,#540,.F.);
#697=ORIENTED_EDGE('',*,*,#519,.T.);
#698=ORIENTED_EDGE('',*,*,#498,.T.);
#699=ORIENTED_EDGE('',*,*,#541,.T.);
#700=ORIENTED_EDGE('',*,*,#542,.T.);
#701=ORIENTED_EDGE('',*,*,#483,.T.);
#702=ORIENTED_EDGE('',*,*,#482,.F.);
#703=ORIENTED_EDGE('',*,*,#489,.F.);
#704=ORIENTED_EDGE('',*,*,#523,.F.);
#705=ORIENTED_EDGE('',*,*,#543,.F.);
#706=ORIENTED_EDGE('',*,*,#541,.F.);
#707=ORIENTED_EDGE('',*,*,#497,.F.);
#708=ORIENTED_EDGE('',*,*,#544,.T.);
#709=ORIENTED_EDGE('',*,*,#520,.T.);
#710=ORIENTED_EDGE('',*,*,#545,.F.);
#711=ORIENTED_EDGE('',*,*,#528,.F.);
#712=ORIENTED_EDGE('',*,*,#494,.F.);
#713=ORIENTED_EDGE('',*,*,#537,.F.);
#714=ORIENTED_EDGE('',*,*,#524,.F.);
#715=ORIENTED_EDGE('',*,*,#544,.F.);
#716=ORIENTED_EDGE('',*,*,#496,.F.);
#717=ORIENTED_EDGE('',*,*,#527,.T.);
#718=ORIENTED_EDGE('',*,*,#499,.F.);
#719=ORIENTED_EDGE('',*,*,#546,.T.);
#720=ORIENTED_EDGE('',*,*,#516,.T.);
#721=ORIENTED_EDGE('',*,*,#546,.F.);
#722=ORIENTED_EDGE('',*,*,#500,.F.);
#723=ORIENTED_EDGE('',*,*,#547,.T.);
#724=ORIENTED_EDGE('',*,*,#512,.T.);
#725=ORIENTED_EDGE('',*,*,#547,.F.);
#726=ORIENTED_EDGE('',*,*,#548,.T.);
#727=ORIENTED_EDGE('',*,*,#549,.T.);
#728=ORIENTED_EDGE('',*,*,#550,.T.);
#729=ORIENTED_EDGE('',*,*,#549,.F.);
#730=ORIENTED_EDGE('',*,*,#551,.T.);
#731=ORIENTED_EDGE('',*,*,#552,.T.);
#732=ORIENTED_EDGE('',*,*,#553,.T.);
#733=ORIENTED_EDGE('',*,*,#552,.F.);
#734=ORIENTED_EDGE('',*,*,#554,.F.);
#735=ORIENTED_EDGE('',*,*,#555,.F.);
#736=ORIENTED_EDGE('',*,*,#556,.F.);
#737=ORIENTED_EDGE('',*,*,#557,.F.);
#738=ORIENTED_EDGE('',*,*,#558,.T.);
#739=ORIENTED_EDGE('',*,*,#559,.F.);
#740=ORIENTED_EDGE('',*,*,#560,.T.);
#741=ORIENTED_EDGE('',*,*,#561,.F.);
#742=ORIENTED_EDGE('',*,*,#562,.F.);
#743=ORIENTED_EDGE('',*,*,#563,.F.);
#744=ORIENTED_EDGE('',*,*,#555,.T.);
#745=ORIENTED_EDGE('',*,*,#564,.F.);
#746=ORIENTED_EDGE('',*,*,#565,.T.);
#747=ORIENTED_EDGE('',*,*,#484,.T.);
#748=ORIENTED_EDGE('',*,*,#542,.F.);
#749=ORIENTED_EDGE('',*,*,#543,.T.);
#750=ORIENTED_EDGE('',*,*,#526,.F.);
#751=ORIENTED_EDGE('',*,*,#529,.T.);
#752=ORIENTED_EDGE('',*,*,#545,.T.);
#753=ORIENTED_EDGE('',*,*,#536,.T.);
#754=ORIENTED_EDGE('',*,*,#531,.F.);
#755=ORIENTED_EDGE('',*,*,#540,.T.);
#756=ORIENTED_EDGE('',*,*,#538,.F.);
#757=ORIENTED_EDGE('',*,*,#478,.T.);
#758=ORIENTED_EDGE('',*,*,#509,.T.);
#759=ORIENTED_EDGE('',*,*,#513,.T.);
#760=ORIENTED_EDGE('',*,*,#566,.F.);
#761=ORIENTED_EDGE('',*,*,#505,.T.);
#762=ORIENTED_EDGE('',*,*,#501,.T.);
#763=ORIENTED_EDGE('',*,*,#556,.T.);
#764=ORIENTED_EDGE('',*,*,#563,.T.);
#765=ORIENTED_EDGE('',*,*,#567,.F.);
#766=ORIENTED_EDGE('',*,*,#568,.T.);
#767=ORIENTED_EDGE('',*,*,#569,.T.);
#768=ORIENTED_EDGE('',*,*,#553,.F.);
#769=ORIENTED_EDGE('',*,*,#570,.F.);
#770=ORIENTED_EDGE('',*,*,#571,.F.);
#771=ORIENTED_EDGE('',*,*,#572,.F.);
#772=ORIENTED_EDGE('',*,*,#560,.F.);
#773=ORIENTED_EDGE('',*,*,#571,.T.);
#774=ORIENTED_EDGE('',*,*,#573,.T.);
#775=ORIENTED_EDGE('',*,*,#574,.T.);
#776=ORIENTED_EDGE('',*,*,#575,.F.);
#777=ORIENTED_EDGE('',*,*,#572,.T.);
#778=ORIENTED_EDGE('',*,*,#575,.T.);
#779=ORIENTED_EDGE('',*,*,#576,.T.);
#780=ORIENTED_EDGE('',*,*,#577,.F.);
#781=ORIENTED_EDGE('',*,*,#561,.T.);
#782=ORIENTED_EDGE('',*,*,#548,.F.);
#783=ORIENTED_EDGE('',*,*,#558,.F.);
#784=ORIENTED_EDGE('',*,*,#477,.F.);
#785=ORIENTED_EDGE('',*,*,#476,.T.);
#786=ORIENTED_EDGE('',*,*,#469,.F.);
#787=ORIENTED_EDGE('',*,*,#578,.F.);
#788=ORIENTED_EDGE('',*,*,#579,.F.);
#789=ORIENTED_EDGE('',*,*,#570,.T.);
#790=ORIENTED_EDGE('',*,*,#559,.T.);
#791=ORIENTED_EDGE('',*,*,#579,.T.);
#792=ORIENTED_EDGE('',*,*,#580,.T.);
#793=ORIENTED_EDGE('',*,*,#573,.F.);
#794=ORIENTED_EDGE('',*,*,#550,.F.);
#795=ORIENTED_EDGE('',*,*,#485,.F.);
#796=ORIENTED_EDGE('',*,*,#565,.F.);
#797=ORIENTED_EDGE('',*,*,#581,.F.);
#798=ORIENTED_EDGE('',*,*,#582,.F.);
#799=ORIENTED_EDGE('',*,*,#472,.F.);
#800=ORIENTED_EDGE('',*,*,#486,.T.);
#801=ORIENTED_EDGE('',*,*,#554,.T.);
#802=ORIENTED_EDGE('',*,*,#583,.F.);
#803=ORIENTED_EDGE('',*,*,#584,.T.);
#804=ORIENTED_EDGE('',*,*,#581,.T.);
#805=ORIENTED_EDGE('',*,*,#564,.T.);
#806=ORIENTED_EDGE('',*,*,#551,.F.);
#807=ORIENTED_EDGE('',*,*,#562,.T.);
#808=ORIENTED_EDGE('',*,*,#577,.T.);
#809=ORIENTED_EDGE('',*,*,#585,.T.);
#810=ORIENTED_EDGE('',*,*,#567,.T.);
#811=ORIENTED_EDGE('',*,*,#473,.F.);
#812=ORIENTED_EDGE('',*,*,#582,.T.);
#813=ORIENTED_EDGE('',*,*,#584,.F.);
#814=ORIENTED_EDGE('',*,*,#586,.F.);
#815=ORIENTED_EDGE('',*,*,#568,.F.);
#816=ORIENTED_EDGE('',*,*,#585,.F.);
#817=ORIENTED_EDGE('',*,*,#576,.F.);
#818=ORIENTED_EDGE('',*,*,#574,.F.);
#819=ORIENTED_EDGE('',*,*,#580,.F.);
#820=ORIENTED_EDGE('',*,*,#578,.T.);
#821=ORIENTED_EDGE('',*,*,#587,.F.);
#822=ORIENTED_EDGE('',*,*,#588,.F.);
#823=ORIENTED_EDGE('',*,*,#557,.T.);
#824=ORIENTED_EDGE('',*,*,#569,.F.);
#825=ORIENTED_EDGE('',*,*,#586,.T.);
#826=ORIENTED_EDGE('',*,*,#583,.T.);
#827=ORIENTED_EDGE('',*,*,#588,.T.);
#828=ORIENTED_EDGE('',*,*,#589,.T.);
#829=ORIENTED_EDGE('',*,*,#504,.T.);
#830=ORIENTED_EDGE('',*,*,#589,.F.);
#831=ORIENTED_EDGE('',*,*,#587,.T.);
#832=ORIENTED_EDGE('',*,*,#590,.T.);
#833=ORIENTED_EDGE('',*,*,#508,.T.);
#834=ORIENTED_EDGE('',*,*,#590,.F.);
#835=ORIENTED_EDGE('',*,*,#566,.T.);
#836=ORIENTED_EDGE('',*,*,#591,.T.);
#837=ORIENTED_EDGE('',*,*,#592,.T.);
#838=ORIENTED_EDGE('',*,*,#591,.F.);
#839=ORIENTED_EDGE('',*,*,#474,.T.);
#840=ORIENTED_EDGE('',*,*,#592,.F.);
#841=TOROIDAL_SURFACE('',#903,38.1100974063793,1.);
#842=TOROIDAL_SURFACE('',#912,38.1100974063793,1.);
#843=ADVANCED_FACE('',(#213),#841,.F.);
#844=ADVANCED_FACE('',(#214),#211,.T.);
#845=ADVANCED_FACE('',(#215),#842,.F.);
#846=ADVANCED_FACE('',(#216,#31,#32),#53,.T.);
#847=ADVANCED_FACE('',(#217),#19,.F.);
#848=ADVANCED_FACE('',(#218,#33),#54,.F.);
#849=ADVANCED_FACE('',(#219),#20,.F.);
#850=ADVANCED_FACE('',(#220,#34),#55,.F.);
#851=ADVANCED_FACE('',(#221),#21,.F.);
#852=ADVANCED_FACE('',(#222,#35),#56,.T.);
#853=ADVANCED_FACE('',(#223),#22,.F.);
#854=ADVANCED_FACE('',(#224,#36),#57,.T.);
#855=ADVANCED_FACE('',(#225),#23,.F.);
#856=ADVANCED_FACE('',(#226),#24,.F.);
#857=ADVANCED_FACE('',(#227),#58,.T.);
#858=ADVANCED_FACE('',(#228,#37),#59,.F.);
#859=ADVANCED_FACE('',(#229),#60,.T.);
#860=ADVANCED_FACE('',(#230),#61,.F.);
#861=ADVANCED_FACE('',(#231,#38),#62,.F.);
#862=ADVANCED_FACE('',(#232),#15,.T.);
#863=ADVANCED_FACE('',(#233,#39),#63,.T.);
#864=ADVANCED_FACE('',(#234),#16,.T.);
#865=ADVANCED_FACE('',(#235,#40),#64,.T.);
#866=ADVANCED_FACE('',(#236),#65,.F.);
#867=ADVANCED_FACE('',(#237),#66,.F.);
#868=ADVANCED_FACE('',(#238),#25,.F.);
#869=ADVANCED_FACE('',(#239),#26,.F.);
#870=ADVANCED_FACE('',(#240),#27,.F.);
#871=ADVANCED_FACE('',(#241),#28,.F.);
#872=ADVANCED_FACE('',(#242),#67,.F.);
#873=ADVANCED_FACE('',(#243,#41,#42,#43,#44,#45),#68,.F.);
#874=ADVANCED_FACE('',(#244,#46),#69,.T.);
#875=ADVANCED_FACE('',(#245),#70,.F.);
#876=ADVANCED_FACE('',(#246),#71,.T.);
#877=ADVANCED_FACE('',(#247,#47),#72,.T.);
#878=ADVANCED_FACE('',(#248),#17,.F.);
#879=ADVANCED_FACE('',(#249,#48),#73,.F.);
#880=ADVANCED_FACE('',(#250),#18,.F.);
#881=ADVANCED_FACE('',(#251,#49),#74,.F.);
#882=ADVANCED_FACE('',(#252),#75,.T.);
#883=ADVANCED_FACE('',(#253,#50,#51),#76,.F.);
#884=ADVANCED_FACE('',(#254),#77,.T.);
#885=ADVANCED_FACE('',(#255),#29,.F.);
#886=ADVANCED_FACE('',(#256),#30,.F.);
#887=ADVANCED_FACE('',(#257),#212,.F.);
#888=ADVANCED_FACE('',(#258,#52),#78,.T.);
#889=CLOSED_SHELL('',(#843,#844,#845,#846,#847,#848,#849,#850,#851,#852,
#853,#854,#855,#856,#857,#858,#859,#860,#861,#862,#863,#864,#865,#866,#867,
#868,#869,#870,#871,#872,#873,#874,#875,#876,#877,#878,#879,#880,#881,#882,
#883,#884,#885,#886,#887,#888));
#890=DERIVED_UNIT_ELEMENT(#892,1.);
#891=DERIVED_UNIT_ELEMENT(#1727,-3.);
#892=(
MASS_UNIT()
NAMED_UNIT(*)
SI_UNIT(.KILO.,.GRAM.)
);
#893=DERIVED_UNIT((#890,#891));
#894=MEASURE_REPRESENTATION_ITEM('density measure',
POSITIVE_RATIO_MEASURE(7850.),#893);
#895=PROPERTY_DEFINITION_REPRESENTATION(#900,#897);
#896=PROPERTY_DEFINITION_REPRESENTATION(#901,#898);
#897=REPRESENTATION('material name',(#899),#1724);
#898=REPRESENTATION('density',(#894),#1724);
#899=DESCRIPTIVE_REPRESENTATION_ITEM('\X\C7elik','\X\C7elik');
#900=PROPERTY_DEFINITION('material property','material name',#1734);
#901=PROPERTY_DEFINITION('material property','density of part',#1734);
#902=AXIS2_PLACEMENT_3D('',#1199,#979,#980);
#903=AXIS2_PLACEMENT_3D('',#1200,#981,#982);
#904=AXIS2_PLACEMENT_3D('',#1214,#983,#984);
#905=AXIS2_PLACEMENT_3D('',#1216,#985,#986);
#906=AXIS2_PLACEMENT_3D('',#1230,#987,#988);
#907=AXIS2_PLACEMENT_3D('',#1231,#989,#990);
#908=AXIS2_PLACEMENT_3D('',#1233,#991,#992);
#909=AXIS2_PLACEMENT_3D('',#1246,#994,#995);
#910=AXIS2_PLACEMENT_3D('',#1258,#996,#997);
#911=AXIS2_PLACEMENT_3D('',#1270,#998,#999);
#912=AXIS2_PLACEMENT_3D('',#1280,#1000,#1001);
#913=AXIS2_PLACEMENT_3D('',#1295,#1002,#1003);
#914=AXIS2_PLACEMENT_3D('',#1306,#1004,#1005);
#915=AXIS2_PLACEMENT_3D('',#1331,#1013,#1014);
#916=AXIS2_PLACEMENT_3D('',#1333,#1015,#1016);
#917=AXIS2_PLACEMENT_3D('',#1334,#1017,#1018);
#918=AXIS2_PLACEMENT_3D('',#1336,#1019,#1020);
#919=AXIS2_PLACEMENT_3D('',#1339,#1022,#1023);
#920=AXIS2_PLACEMENT_3D('',#1340,#1024,#1025);
#921=AXIS2_PLACEMENT_3D('',#1342,#1026,#1027);
#922=AXIS2_PLACEMENT_3D('',#1343,#1028,#1029);
#923=AXIS2_PLACEMENT_3D('',#1345,#1030,#1031);
#924=AXIS2_PLACEMENT_3D('',#1348,#1033,#1034);
#925=AXIS2_PLACEMENT_3D('',#1349,#1035,#1036);
#926=AXIS2_PLACEMENT_3D('',#1351,#1037,#1038);
#927=AXIS2_PLACEMENT_3D('',#1352,#1039,#1040);
#928=AXIS2_PLACEMENT_3D('',#1354,#1041,#1042);
#929=AXIS2_PLACEMENT_3D('',#1357,#1044,#1045);
#930=AXIS2_PLACEMENT_3D('',#1358,#1046,#1047);
#931=AXIS2_PLACEMENT_3D('',#1360,#1048,#1049);
#932=AXIS2_PLACEMENT_3D('',#1361,#1050,#1051);
#933=AXIS2_PLACEMENT_3D('',#1363,#1052,#1053);
#934=AXIS2_PLACEMENT_3D('',#1366,#1055,#1056);
#935=AXIS2_PLACEMENT_3D('',#1367,#1057,#1058);
#936=AXIS2_PLACEMENT_3D('',#1369,#1059,#1060);
#937=AXIS2_PLACEMENT_3D('',#1370,#1061,#1062);
#938=AXIS2_PLACEMENT_3D('',#1372,#1063,#1064);
#939=AXIS2_PLACEMENT_3D('',#1375,#1066,#1067);
#940=AXIS2_PLACEMENT_3D('',#1376,#1068,#1069);
#941=AXIS2_PLACEMENT_3D('',#1378,#1070,#1071);
#942=AXIS2_PLACEMENT_3D('',#1381,#1073,#1074);
#943=AXIS2_PLACEMENT_3D('',#1382,#1075,#1076);
#944=AXIS2_PLACEMENT_3D('',#1391,#1081,#1082);
#945=AXIS2_PLACEMENT_3D('',#1396,#1086,#1087);
#946=AXIS2_PLACEMENT_3D('',#1405,#1092,#1093);
#947=AXIS2_PLACEMENT_3D('',#1408,#1096,#1097);
#948=AXIS2_PLACEMENT_3D('',#1464,#1100,#1101);
#949=AXIS2_PLACEMENT_3D('',#1518,#1103,#1104);
#950=AXIS2_PLACEMENT_3D('',#1521,#1107,#1108);
#951=AXIS2_PLACEMENT_3D('',#1523,#1110,#1111);
#952=AXIS2_PLACEMENT_3D('',#1524,#1112,#1113);
#953=AXIS2_PLACEMENT_3D('',#1526,#1115,#1116);
#954=AXIS2_PLACEMENT_3D('',#1528,#1118,#1119);
#955=AXIS2_PLACEMENT_3D('',#1530,#1120,#1121);
#956=AXIS2_PLACEMENT_3D('',#1533,#1123,#1124);
#957=AXIS2_PLACEMENT_3D('',#1534,#1125,#1126);
#958=AXIS2_PLACEMENT_3D('',#1536,#1127,#1128);
#959=AXIS2_PLACEMENT_3D('',#1539,#1130,#1131);
#960=AXIS2_PLACEMENT_3D('',#1540,#1132,#1133);
#961=AXIS2_PLACEMENT_3D('',#1549,#1138,#1139);
#962=AXIS2_PLACEMENT_3D('',#1625,#1146,#1147);
#963=AXIS2_PLACEMENT_3D('',#1626,#1148,#1149);
#964=AXIS2_PLACEMENT_3D('',#1632,#1153,#1154);
#965=AXIS2_PLACEMENT_3D('',#1638,#1158,#1159);
#966=AXIS2_PLACEMENT_3D('',#1644,#1163,#1164);
#967=AXIS2_PLACEMENT_3D('',#1673,#1167,#1168);
#968=AXIS2_PLACEMENT_3D('',#1700,#1170,#1171);
#969=AXIS2_PLACEMENT_3D('',#1704,#1174,#1175);
#970=AXIS2_PLACEMENT_3D('',#1706,#1177,#1178);
#971=AXIS2_PLACEMENT_3D('',#1709,#1180,#1181);
#972=AXIS2_PLACEMENT_3D('',#1711,#1182,#1183);
#973=AXIS2_PLACEMENT_3D('',#1712,#1184,#1185);
#974=AXIS2_PLACEMENT_3D('',#1713,#1186,#1187);
#975=AXIS2_PLACEMENT_3D('',#1715,#1189,#1190);
#976=AXIS2_PLACEMENT_3D('',#1717,#1192,#1193);
#977=AXIS2_PLACEMENT_3D('',#1720,#1195,#1196);
#978=AXIS2_PLACEMENT_3D('',#1721,#1197,#1198);
#979=DIRECTION('axis',(0.,0.,1.));
#980=DIRECTION('refdir',(1.,0.,0.));
#981=DIRECTION('center_axis',(0.,0.,-1.));
#982=DIRECTION('ref_axis',(1.,-2.6932100967937E-8,0.));
#983=DIRECTION('center_axis',(0.,0.,-1.));
#984=DIRECTION('ref_axis',(1.,-2.68870115225902E-8,0.));
#985=DIRECTION('center_axis',(0.,0.,-1.));
#986=DIRECTION('ref_axis',(1.,-2.68870115225902E-8,0.));
#987=DIRECTION('center_axis',(0.,0.,1.));
#988=DIRECTION('ref_axis',(1.,-2.68870114215904E-8,0.));
#989=DIRECTION('center_axis',(0.,0.,-1.));
#990=DIRECTION('ref_axis',(-1.,0.,0.));
#991=DIRECTION('center_axis',(0.,0.,-1.));
#992=DIRECTION('ref_axis',(-1.,0.,0.));
#993=DIRECTION('',(0.0428178383921859,-5.24367287333992E-18,-0.99908289581767));
#994=DIRECTION('center_axis',(0.,0.,1.));
#995=DIRECTION('ref_axis',(-1.,0.,0.));
#996=DIRECTION('center_axis',(0.,0.,-1.));
#997=DIRECTION('ref_axis',(-1.,-2.68870120012505E-8,0.));
#998=DIRECTION('center_axis',(0.,0.,1.));
#999=DIRECTION('ref_axis',(-1.,0.,0.));
#1000=DIRECTION('center_axis',(0.,0.,1.));
#1001=DIRECTION('ref_axis',(-1.,-2.69321002412267E-8,0.));
#1002=DIRECTION('center_axis',(0.,0.,1.));
#1003=DIRECTION('ref_axis',(-1.,-2.68870118997222E-8,0.));
#1004=DIRECTION('center_axis',(0.,0.,1.));
#1005=DIRECTION('ref_axis',(1.,0.,0.));
#1006=DIRECTION('',(-1.,0.,-2.95024316067156E-16));
#1007=DIRECTION('',(0.,-1.,0.));
#1008=DIRECTION('',(1.,0.,0.));
#1009=DIRECTION('',(0.,-1.,0.));
#1010=DIRECTION('',(-1.,0.,0.));
#1011=DIRECTION('',(0.,-1.,0.));
#1012=DIRECTION('',(1.,0.,0.));
#1013=DIRECTION('center_axis',(0.,0.,-1.));
#1014=DIRECTION('ref_axis',(-1.,0.,0.));
#1015=DIRECTION('center_axis',(0.,0.,-1.));
#1016=DIRECTION('ref_axis',(-1.,0.,0.));
#1017=DIRECTION('center_axis',(0.,0.,-1.));
#1018=DIRECTION('ref_axis',(-1.,0.,0.));
#1019=DIRECTION('center_axis',(0.,0.,1.));
#1020=DIRECTION('ref_axis',(-1.,0.,0.));
#1021=DIRECTION('',(0.,0.,1.));
#1022=DIRECTION('center_axis',(0.,0.,-1.));
#1023=DIRECTION('ref_axis',(-1.,0.,0.));
#1024=DIRECTION('center_axis',(0.,0.,1.));
#1025=DIRECTION('ref_axis',(-1.,0.,0.));
#1026=DIRECTION('center_axis',(0.,0.,-1.));
#1027=DIRECTION('ref_axis',(1.,0.,0.));
#1028=DIRECTION('center_axis',(0.,0.,-1.));
#1029=DIRECTION('ref_axis',(-1.,0.,0.));
#1030=DIRECTION('center_axis',(0.,0.,1.));
#1031=DIRECTION('ref_axis',(-1.,0.,0.));
#1032=DIRECTION('',(0.,0.,1.));
#1033=DIRECTION('center_axis',(0.,0.,-1.));
#1034=DIRECTION('ref_axis',(-1.,0.,0.));
#1035=DIRECTION('center_axis',(0.,0.,1.));
#1036=DIRECTION('ref_axis',(-1.,0.,0.));
#1037=DIRECTION('center_axis',(0.,0.,-1.));
#1038=DIRECTION('ref_axis',(1.,0.,0.));
#1039=DIRECTION('center_axis',(0.,0.,1.));
#1040=DIRECTION('ref_axis',(1.,0.,0.));
#1041=DIRECTION('center_axis',(0.,0.,1.));
#1042=DIRECTION('ref_axis',(1.,0.,0.));
#1043=DIRECTION('',(0.,0.,1.));
#1044=DIRECTION('center_axis',(0.,0.,1.));
#1045=DIRECTION('ref_axis',(1.,0.,0.));
#1046=DIRECTION('center_axis',(0.,0.,-1.));
#1047=DIRECTION('ref_axis',(1.,0.,0.));
#1048=DIRECTION('center_axis',(0.,0.,-1.));
#1049=DIRECTION('ref_axis',(-1.,0.,0.));
#1050=DIRECTION('center_axis',(0.,0.,1.));
#1051=DIRECTION('ref_axis',(1.,0.,0.));
#1052=DIRECTION('center_axis',(0.,0.,1.));
#1053=DIRECTION('ref_axis',(1.,0.,0.));
#1054=DIRECTION('',(0.,0.,1.));
#1055=DIRECTION('center_axis',(0.,0.,1.));
#1056=DIRECTION('ref_axis',(1.,0.,0.));
#1057=DIRECTION('center_axis',(0.,0.,-1.));
#1058=DIRECTION('ref_axis',(1.,0.,0.));
#1059=DIRECTION('center_axis',(0.,0.,-1.));
#1060=DIRECTION('ref_axis',(-1.,0.,0.));
#1061=DIRECTION('center_axis',(0.,1.,0.));
#1062=DIRECTION('ref_axis',(-1.,0.,0.));
#1063=DIRECTION('center_axis',(0.,1.,0.));
#1064=DIRECTION('ref_axis',(-1.,0.,0.));
#1065=DIRECTION('',(0.,1.,0.));
#1066=DIRECTION('center_axis',(0.,-1.,0.));
#1067=DIRECTION('ref_axis',(-1.,0.,0.));
#1068=DIRECTION('center_axis',(0.,1.,0.));
#1069=DIRECTION('ref_axis',(-1.,0.,0.));
#1070=DIRECTION('center_axis',(0.,1.,0.));
#1071=DIRECTION('ref_axis',(-1.,0.,0.));
#1072=DIRECTION('',(0.,1.,0.));
#1073=DIRECTION('center_axis',(0.,-1.,0.));
#1074=DIRECTION('ref_axis',(-1.,0.,0.));
#1075=DIRECTION('center_axis',(-0.707106781186547,0.,-0.707106781186548));
#1076=DIRECTION('ref_axis',(-0.707106781186548,0.,0.707106781186547));
#1077=DIRECTION('',(-0.707106781186548,0.,0.707106781186547));
#1078=DIRECTION('',(0.,1.,0.));
#1079=DIRECTION('',(0.707106781186548,0.,-0.707106781186547));
#1080=DIRECTION('',(0.,-1.,0.));
#1081=DIRECTION('center_axis',(0.,-1.,0.));
#1082=DIRECTION('ref_axis',(0.,0.,-1.));
#1083=DIRECTION('',(0.,0.,-1.));
#1084=DIRECTION('',(0.,0.,-1.));
#1085=DIRECTION('',(-1.,0.,0.));
#1086=DIRECTION('center_axis',(-0.707106781186547,0.,-0.707106781186548));
#1087=DIRECTION('ref_axis',(-0.707106781186548,0.,0.707106781186547));
#1088=DIRECTION('',(0.707106781186548,0.,-0.707106781186547));
#1089=DIRECTION('',(0.,-1.,0.));
#1090=DIRECTION('',(-0.707106781186548,0.,0.707106781186547));
#1091=DIRECTION('',(0.,1.,0.));
#1092=DIRECTION('center_axis',(1.,0.,0.));
#1093=DIRECTION('ref_axis',(0.,0.,-1.));
#1094=DIRECTION('',(0.,0.,1.));
#1095=DIRECTION('',(0.,0.,1.));
#1096=DIRECTION('center_axis',(0.,1.,0.));
#1097=DIRECTION('ref_axis',(0.,0.,1.));
#1098=DIRECTION('',(1.,0.,0.));
#1099=DIRECTION('',(0.,0.,1.));
#1100=DIRECTION('center_axis',(0.,1.,0.));
#1101=DIRECTION('ref_axis',(-1.,0.,-2.95024316067156E-16));
#1102=DIRECTION('',(1.,0.,0.));
#1103=DIRECTION('center_axis',(0.,-1.,0.));
#1104=DIRECTION('ref_axis',(1.,0.,0.));
#1105=DIRECTION('',(-1.,0.,0.));
#1106=DIRECTION('',(0.,0.,-1.));
#1107=DIRECTION('center_axis',(1.,0.,0.));
#1108=DIRECTION('ref_axis',(0.,0.,-1.));
#1109=DIRECTION('',(0.,-1.,0.));
#1110=DIRECTION('center_axis',(1.,0.,0.));
#1111=DIRECTION('ref_axis',(0.,0.,-1.));
#1112=DIRECTION('center_axis',(0.,0.,1.));
#1113=DIRECTION('ref_axis',(-1.,0.,0.));
#1114=DIRECTION('',(0.,0.,-1.));
#1115=DIRECTION('center_axis',(0.,0.,-1.));
#1116=DIRECTION('ref_axis',(-1.,0.,0.));
#1117=DIRECTION('',(0.,0.,-1.));
#1118=DIRECTION('center_axis',(0.,-1.,0.));
#1119=DIRECTION('ref_axis',(1.,0.,0.));
#1120=DIRECTION('center_axis',(0.,-1.,0.));
#1121=DIRECTION('ref_axis',(1.,0.,0.));
#1122=DIRECTION('',(0.,1.,0.));
#1123=DIRECTION('center_axis',(0.,1.,0.));
#1124=DIRECTION('ref_axis',(1.,0.,0.));
#1125=DIRECTION('center_axis',(0.,-1.,0.));
#1126=DIRECTION('ref_axis',(1.,0.,0.));
#1127=DIRECTION('center_axis',(0.,-1.,0.));
#1128=DIRECTION('ref_axis',(1.,0.,0.));
#1129=DIRECTION('',(0.,1.,0.));
#1130=DIRECTION('center_axis',(0.,1.,0.));
#1131=DIRECTION('ref_axis',(1.,0.,0.));
#1132=DIRECTION('center_axis',(-0.707106781186547,0.,0.707106781186548));
#1133=DIRECTION('ref_axis',(0.707106781186548,0.,0.707106781186547));
#1134=DIRECTION('',(0.707106781186548,0.,0.707106781186547));
#1135=DIRECTION('',(0.,-1.,0.));
#1136=DIRECTION('',(-0.707106781186548,0.,-0.707106781186547));
#1137=DIRECTION('',(0.,1.,0.));
#1138=DIRECTION('center_axis',(0.,0.,1.));
#1139=DIRECTION('ref_axis',(1.,0.,0.));
#1140=DIRECTION('',(-1.,0.,0.));
#1141=DIRECTION('',(0.,-1.,0.));
#1142=DIRECTION('',(-1.,0.,0.));
#1143=DIRECTION('',(0.,-1.,0.));
#1144=DIRECTION('',(1.,0.,0.));
#1145=DIRECTION('',(1.,0.,0.));
#1146=DIRECTION('center_axis',(0.,0.,1.));
#1147=DIRECTION('ref_axis',(-1.,0.,0.));
#1148=DIRECTION('center_axis',(0.,1.,0.));
#1149=DIRECTION('ref_axis',(0.,0.,-1.));
#1150=DIRECTION('',(0.,0.,-1.));
#1151=DIRECTION('',(1.,0.,0.));
#1152=DIRECTION('',(0.,0.,-1.));
#1153=DIRECTION('center_axis',(-0.707106781186547,0.,0.707106781186548));
#1154=DIRECTION('ref_axis',(0.707106781186548,0.,0.707106781186547));
#1155=DIRECTION('',(-0.707106781186548,0.,-0.707106781186547));
#1156=DIRECTION('',(0.,1.,0.));
#1157=DIRECTION('',(0.707106781186548,0.,0.707106781186547));
#1158=DIRECTION('center_axis',(1.,0.,0.));
#1159=DIRECTION('ref_axis',(0.,0.,-1.));
#1160=DIRECTION('',(0.,0.,1.));
#1161=DIRECTION('',(0.,-1.,0.));
#1162=DIRECTION('',(0.,0.,1.));
#1163=DIRECTION('center_axis',(0.,-1.,0.));
#1164=DIRECTION('ref_axis',(0.,0.,1.));
#1165=DIRECTION('',(-1.,0.,0.));
#1166=DIRECTION('',(0.,0.,1.));
#1167=DIRECTION('center_axis',(0.,-1.,0.));
#1168=DIRECTION('ref_axis',(1.,0.,-2.95024316067156E-16));
#1169=DIRECTION('',(1.,0.,-2.95024316067156E-16));
#1170=DIRECTION('center_axis',(0.,1.,0.));
#1171=DIRECTION('ref_axis',(-1.,0.,0.));
#1172=DIRECTION('',(0.,0.,-1.));
#1173=DIRECTION('',(-1.,0.,0.));
#1174=DIRECTION('center_axis',(1.,0.,0.));
#1175=DIRECTION('ref_axis',(0.,0.,-1.));
#1176=DIRECTION('',(0.,-1.,0.));
#1177=DIRECTION('center_axis',(0.,0.,-1.));
#1178=DIRECTION('ref_axis',(-1.,0.,0.));
#1179=DIRECTION('',(0.,-1.,0.));
#1180=DIRECTION('center_axis',(0.,0.,1.));
#1181=DIRECTION('ref_axis',(1.,0.,0.));
#1182=DIRECTION('center_axis',(0.,0.,1.));
#1183=DIRECTION('ref_axis',(1.,0.,0.));
#1184=DIRECTION('center_axis',(1.,0.,0.));
#1185=DIRECTION('ref_axis',(0.,0.,-1.));
#1186=DIRECTION('center_axis',(0.,0.,-1.));
#1187=DIRECTION('ref_axis',(1.,0.,0.));
#1188=DIRECTION('',(0.,0.,-1.));
#1189=DIRECTION('center_axis',(0.,0.,1.));
#1190=DIRECTION('ref_axis',(1.,0.,0.));
#1191=DIRECTION('',(0.,0.,-1.));
#1192=DIRECTION('center_axis',(0.,0.,-1.));
#1193=DIRECTION('ref_axis',(-1.,0.,0.));
#1194=DIRECTION('',(-0.0428178383921859,5.24367287333992E-18,0.99908289581767));
#1195=DIRECTION('center_axis',(0.,0.,-1.));
#1196=DIRECTION('ref_axis',(-1.,0.,0.));
#1197=DIRECTION('center_axis',(0.,0.,1.));
#1198=DIRECTION('ref_axis',(1.,0.,0.));
#1199=CARTESIAN_POINT('',(0.,0.,0.));
#1200=CARTESIAN_POINT('Origin',(200.,100.,21.));
#1201=CARTESIAN_POINT('',(231.118252748452,122.000769756726,20.));
#1202=CARTESIAN_POINT('',(229.159791891075,122.955041600317,20.9571821616078));
#1203=CARTESIAN_POINT('Ctrl Pts',(231.11825274839,122.000769754229,20.));
#1204=CARTESIAN_POINT('Ctrl Pts',(230.972256257152,122.004388179656,20.0000000006646));
#1205=CARTESIAN_POINT('Ctrl Pts',(230.826880275293,122.020875509948,20.0204077108041));
#1206=CARTESIAN_POINT('Ctrl Pts',(230.470447813326,122.091098893655,20.1054410595794));
#1207=CARTESIAN_POINT('Ctrl Pts',(230.251061279514,122.162720113879,20.1917279500891));
#1208=CARTESIAN_POINT('Ctrl Pts',(229.705285218872,122.429760830724,20.4816716051346));
#1209=CARTESIAN_POINT('Ctrl Pts',(229.406142654446,122.660734447131,20.7119894111178));
#1210=CARTESIAN_POINT('Ctrl Pts',(229.162775532681,122.95146279825,20.9542049050095));
#1211=CARTESIAN_POINT('Ctrl Pts',(229.161282488717,122.953251240454,20.9556934640213));
#1212=CARTESIAN_POINT('Ctrl Pts',(229.159791891083,122.955041600309,20.9571821615814));
#1213=CARTESIAN_POINT('',(237.111014510562,100.,20.9571821616078));
#1214=CARTESIAN_POINT('Origin',(200.,100.,20.9571821616078));
#1215=CARTESIAN_POINT('',(229.15979065462,77.0449568290138,20.9571821616078));
#1216=CARTESIAN_POINT('Origin',(200.,100.,20.9571821616078));
#1217=CARTESIAN_POINT('',(231.118251570782,77.9992285722005,20.));
#1218=CARTESIAN_POINT('Ctrl Pts',(229.159790654626,77.0449568290217,20.9571821616127));
#1219=CARTESIAN_POINT('Ctrl Pts',(229.161281252371,77.0467471888133,20.9556934640422));
#1220=CARTESIAN_POINT('Ctrl Pts',(229.162774296407,77.0485356309086,20.9542049050318));
#1221=CARTESIAN_POINT('Ctrl Pts',(229.362836024026,77.2875309783969,20.7550898946616));
#1222=CARTESIAN_POINT('Ctrl Pts',(229.607299239913,77.4942056013458,20.5567490483637));
#1223=CARTESIAN_POINT('Ctrl Pts',(230.111149085253,77.7807177047038,20.2563877577885));
#1224=CARTESIAN_POINT('Ctrl Pts',(230.341878823796,77.8700712194181,20.1517999296218));
#1225=CARTESIAN_POINT('Ctrl Pts',(230.739713856947,77.9671344468609,20.0352247072964));
#1226=CARTESIAN_POINT('Ctrl Pts',(230.915975546406,77.9923872671935,20.0029253681578));
#1227=CARTESIAN_POINT('Ctrl Pts',(231.102150857285,77.998790801865,20.0000625667022));
#1228=CARTESIAN_POINT('Ctrl Pts',(231.110200890212,77.9990290425639,20.0000000000096));
#1229=CARTESIAN_POINT('Ctrl Pts',(231.118251570766,77.9992285728504,20.));
#1230=CARTESIAN_POINT('Origin',(200.,100.,20.));
#1231=CARTESIAN_POINT('Origin',(200.,100.,0.428178383921859));
#1232=CARTESIAN_POINT('',(236.509179460345,100.,35.));
#1233=CARTESIAN_POINT('Origin',(200.,100.,35.));
#1234=CARTESIAN_POINT('',(237.990828958177,100.,0.428178383921859));
#1235=CARTESIAN_POINT('',(229.210725807305,122.956640032495,19.9999999982845));
#1236=CARTESIAN_POINT('Ctrl Pts',(229.210725824991,122.956640033237,19.9999999996673));
#1237=CARTESIAN_POINT('Ctrl Pts',(229.193752607393,122.956107772785,20.3190610224611));
#1238=CARTESIAN_POINT('Ctrl Pts',(229.176774636744,122.955574962354,20.6381217436338));
#1239=CARTESIAN_POINT('Ctrl Pts',(229.159791891081,122.955041600309,20.9571821616082));
#1240=CARTESIAN_POINT('',(230.268628847971,122.989298182252,-2.77555756156289E-16));
#1241=CARTESIAN_POINT('Ctrl Pts',(229.210725824991,122.956640033238,19.9999999996674));
#1242=CARTESIAN_POINT('Ctrl Pts',(229.565368423999,122.967761214535,13.3334602164357));
#1243=CARTESIAN_POINT('Ctrl Pts',(229.917935985611,122.978642291851,6.6667887545955));
#1244=CARTESIAN_POINT('Ctrl Pts',(230.268628848201,122.989298182262,1.90715889261672E-11));
#1245=CARTESIAN_POINT('',(169.731371152029,122.989298182252,-2.77555756156289E-16));
#1246=CARTESIAN_POINT('Origin',(200.,100.,0.));
#1247=CARTESIAN_POINT('',(170.789274192695,122.956640032495,19.9999999982845));
#1248=CARTESIAN_POINT('Ctrl Pts',(170.789274175009,122.956640033238,19.9999999996674));
#1249=CARTESIAN_POINT('Ctrl Pts',(170.434631576001,122.967761214535,13.3334602164357));
#1250=CARTESIAN_POINT('Ctrl Pts',(170.082064014389,122.978642291851,6.66678875459549));
#1251=CARTESIAN_POINT('Ctrl Pts',(169.731371151799,122.989298182262,1.90669095095908E-11));
#1252=CARTESIAN_POINT('',(170.840208108925,122.955041600317,20.9571821616078));
#1253=CARTESIAN_POINT('Ctrl Pts',(170.789274175009,122.956640033238,19.9999999996673));
#1254=CARTESIAN_POINT('Ctrl Pts',(170.806247392607,122.956107772785,20.3190610224626));
#1255=CARTESIAN_POINT('Ctrl Pts',(170.823225363256,122.955574962354,20.6381217436368));
#1256=CARTESIAN_POINT('Ctrl Pts',(170.840208108919,122.955041600309,20.9571821616128));
#1257=CARTESIAN_POINT('',(170.84020934538,77.0449568290138,20.9571821616078));
#1258=CARTESIAN_POINT('Origin',(200.,100.,20.9571821616078));
#1259=CARTESIAN_POINT('',(170.789275427166,77.0433583967267,19.9999999982845));
#1260=CARTESIAN_POINT('Ctrl Pts',(170.840209345374,77.0449568290217,20.9571821616128));
#1261=CARTESIAN_POINT('Ctrl Pts',(170.823226599048,77.0444234669402,20.6381217436369));
#1262=CARTESIAN_POINT('Ctrl Pts',(170.806248627738,77.0438906564728,20.3190610224627));
#1263=CARTESIAN_POINT('Ctrl Pts',(170.78927540948,77.0433583959842,19.9999999996673));
#1264=CARTESIAN_POINT('',(169.731372346747,77.0107002447351,5.55111512312578E-16));
#1265=CARTESIAN_POINT('Ctrl Pts',(169.731372346516,77.0107002447252,1.90704787031426E-11));
#1266=CARTESIAN_POINT('Ctrl Pts',(170.082065221843,77.0213561358655,6.6667887546319));
#1267=CARTESIAN_POINT('Ctrl Pts',(170.434632796683,77.0322372139262,13.333460216474));
#1268=CARTESIAN_POINT('Ctrl Pts',(170.78927540948,77.0433583959843,19.9999999996673));
#1269=CARTESIAN_POINT('',(230.268627653253,77.0107002447351,5.55111512312578E-16));
#1270=CARTESIAN_POINT('Origin',(200.,100.,0.));
#1271=CARTESIAN_POINT('',(229.210724572834,77.0433583967267,19.9999999982845));
#1272=CARTESIAN_POINT('Ctrl Pts',(230.268627653484,77.0107002447252,1.90671914021556E-11));
#1273=CARTESIAN_POINT('Ctrl Pts',(229.917934778157,77.0213561358655,6.6667887546319));
#1274=CARTESIAN_POINT('Ctrl Pts',(229.565367203317,77.0322372139262,13.333460216474));
#1275=CARTESIAN_POINT('Ctrl Pts',(229.21072459052,77.0433583959842,19.9999999996673));
#1276=CARTESIAN_POINT('Ctrl Pts',(229.159790654626,77.0449568290217,20.9571821616127));
#1277=CARTESIAN_POINT('Ctrl Pts',(229.176773400952,77.0444234669402,20.6381217436369));
#1278=CARTESIAN_POINT('Ctrl Pts',(229.193751372262,77.0438906564728,20.3190610224627));
#1279=CARTESIAN_POINT('Ctrl Pts',(229.21072459052,77.0433583959842,19.9999999996673));
#1280=CARTESIAN_POINT('Origin',(200.,100.,21.));
#1281=CARTESIAN_POINT('',(168.881747251548,122.000769756726,20.));
#1282=CARTESIAN_POINT('Ctrl Pts',(170.840208108919,122.955041600309,20.9571821616127));
#1283=CARTESIAN_POINT('Ctrl Pts',(170.838717511271,122.953251240438,20.9556934640389));
#1284=CARTESIAN_POINT('Ctrl Pts',(170.837224467335,122.951462798267,20.9542049050277));
#1285=CARTESIAN_POINT('Ctrl Pts',(170.63716270216,122.712467379793,20.7550898440668));
#1286=CARTESIAN_POINT('Ctrl Pts',(170.392699423317,122.505792698888,20.5567489461157));
#1287=CARTESIAN_POINT('Ctrl Pts',(169.888849510878,122.219280584336,20.2563876550745));
#1288=CARTESIAN_POINT('Ctrl Pts',(169.65811979371,122.129927085399,20.1517998548672));
#1289=CARTESIAN_POINT('Ctrl Pts',(169.260284797885,122.032863873031,20.0352246736328));
#1290=CARTESIAN_POINT('Ctrl Pts',(169.084023123921,122.00761105639,20.0029253513857));
#1291=CARTESIAN_POINT('Ctrl Pts',(168.897847875303,122.001207523454,20.0000625660584));
#1292=CARTESIAN_POINT('Ctrl Pts',(168.889797887267,122.000969283851,20.0000000000367));
#1293=CARTESIAN_POINT('Ctrl Pts',(168.88174725161,122.000769754229,20.));
#1294=CARTESIAN_POINT('',(168.881748429218,77.9992285722005,20.));
#1295=CARTESIAN_POINT('Origin',(200.,100.,20.));
#1296=CARTESIAN_POINT('Ctrl Pts',(168.881748429234,77.9992285728504,20.));
#1297=CARTESIAN_POINT('Ctrl Pts',(169.027744984213,77.9956101539792,20.0000000001729));
#1298=CARTESIAN_POINT('Ctrl Pts',(169.173121029366,77.9791228188811,20.0204077274905));
#1299=CARTESIAN_POINT('Ctrl Pts',(169.529553573928,77.9088994129108,20.1054411257612));
#1300=CARTESIAN_POINT('Ctrl Pts',(169.748940129979,77.8372781780966,20.1917280439957));
#1301=CARTESIAN_POINT('Ctrl Pts',(170.294716129111,77.5702374626082,20.4816717131384));
#1302=CARTESIAN_POINT('Ctrl Pts',(170.593858623658,77.3392639002711,20.7119894687173));
#1303=CARTESIAN_POINT('Ctrl Pts',(170.837225703593,77.0485356309086,20.9542049050318));
#1304=CARTESIAN_POINT('Ctrl Pts',(170.838718747629,77.0467471888133,20.9556934640422));
#1305=CARTESIAN_POINT('Ctrl Pts',(170.840209345374,77.0449568290217,20.9571821616127));
#1306=CARTESIAN_POINT('Origin',(135.749998083338,99.9999991618097,20.));
#1307=CARTESIAN_POINT('',(168.819621487162,122.,19.9999999989701));
#1308=CARTESIAN_POINT('Ctrl Pts',(168.819621461872,122.,20.0000000016913));
#1309=CARTESIAN_POINT('Ctrl Pts',(168.840344155003,121.999999584229,19.9999999917797));
#1310=CARTESIAN_POINT('Ctrl Pts',(168.861048443339,122.000272205508,20.0000003200724));
#1311=CARTESIAN_POINT('Ctrl Pts',(168.881730312528,122.000814250676,20.0000009284456));
#1312=CARTESIAN_POINT('',(125.,122.,20.));
#1313=CARTESIAN_POINT('',(100.,122.,20.));
#1314=CARTESIAN_POINT('',(125.,105.200001490116,20.));
#1315=CARTESIAN_POINT('',(125.,110.999999580905,20.));
#1316=CARTESIAN_POINT('',(160.000001728535,105.200001490116,20.));
#1317=CARTESIAN_POINT('',(127.874999905936,105.200001490116,20.));
#1318=CARTESIAN_POINT('',(160.000001728535,94.8000014901161,20.));
#1319=CARTESIAN_POINT('',(160.000001728535,100.000000325963,20.));
#1320=CARTESIAN_POINT('',(125.,94.8000014901161,20.));
#1321=CARTESIAN_POINT('',(127.874999905936,94.8000014901161,20.));
#1322=CARTESIAN_POINT('',(125.,77.9999983236194,20.));
#1323=CARTESIAN_POINT('',(125.,110.999999580905,20.));
#1324=CARTESIAN_POINT('',(168.819622804379,77.9999983236194,19.9999999989701));
#1325=CARTESIAN_POINT('',(171.499996166676,77.9999983236194,20.));
#1326=CARTESIAN_POINT('Ctrl Pts',(168.88173149023,77.9991840766056,20.0000009284413));
#1327=CARTESIAN_POINT('Ctrl Pts',(168.861045540397,77.999726227497,20.0000003156293));
#1328=CARTESIAN_POINT('Ctrl Pts',(168.840341298547,77.999998739307,19.9999999917817));
#1329=CARTESIAN_POINT('Ctrl Pts',(168.819622779089,77.9999983236194,20.0000000016913));
#1330=CARTESIAN_POINT('',(145.219376965352,82.9499972060323,20.));
#1331=CARTESIAN_POINT('Origin',(143.669376965352,82.9499972060323,20.));
#1332=CARTESIAN_POINT('',(145.219376965352,117.050001117587,20.));
#1333=CARTESIAN_POINT('Origin',(143.669376965352,117.050001117587,20.));
#1334=CARTESIAN_POINT('Origin',(256.330623034648,82.9499972060323,0.));
#1335=CARTESIAN_POINT('',(259.430623034648,82.9499972060323,0.));
#1336=CARTESIAN_POINT('Origin',(256.330623034648,82.9499972060323,0.));
#1337=CARTESIAN_POINT('',(259.430623034648,82.9499972060323,3.1));
#1338=CARTESIAN_POINT('',(259.430623034648,82.9499972060323,0.));
#1339=CARTESIAN_POINT('Origin',(256.330623034648,82.9499972060323,3.1));
#1340=CARTESIAN_POINT('Origin',(256.330623034648,82.9499972060323,3.1));
#1341=CARTESIAN_POINT('',(254.780623034648,82.9499972060323,3.1));
#1342=CARTESIAN_POINT('Origin',(256.330623034648,82.9499972060323,3.1));
#1343=CARTESIAN_POINT('Origin',(256.330623034648,117.050001117587,0.));
#1344=CARTESIAN_POINT('',(259.430623034648,117.050001117587,0.));
#1345=CARTESIAN_POINT('Origin',(256.330623034648,117.050001117587,0.));
#1346=CARTESIAN_POINT('',(259.430623034648,117.050001117587,3.1));
#1347=CARTESIAN_POINT('',(259.430623034648,117.050001117587,0.));
#1348=CARTESIAN_POINT('Origin',(256.330623034648,117.050001117587,3.1));
#1349=CARTESIAN_POINT('Origin',(256.330623034648,117.050001117587,3.1));
#1350=CARTESIAN_POINT('',(254.780623034648,117.050001117587,3.1));
#1351=CARTESIAN_POINT('Origin',(256.330623034648,117.050001117587,3.1));
#1352=CARTESIAN_POINT('Origin',(143.669376965352,117.050001117587,0.));
#1353=CARTESIAN_POINT('',(140.569376965352,117.050001117587,0.));
#1354=CARTESIAN_POINT('Origin',(143.669376965352,117.050001117587,0.));
#1355=CARTESIAN_POINT('',(140.569376965352,117.050001117587,3.1));
#1356=CARTESIAN_POINT('',(140.569376965352,117.050001117587,0.));
#1357=CARTESIAN_POINT('Origin',(143.669376965352,117.050001117587,3.1));
#1358=CARTESIAN_POINT('Origin',(143.669376965352,117.050001117587,3.1));
#1359=CARTESIAN_POINT('',(145.219376965352,117.050001117587,3.1));
#1360=CARTESIAN_POINT('Origin',(143.669376965352,117.050001117587,3.1));
#1361=CARTESIAN_POINT('Origin',(143.669376965352,82.9499972060323,0.));
#1362=CARTESIAN_POINT('',(140.569376965352,82.9499972060323,0.));
#1363=CARTESIAN_POINT('Origin',(143.669376965352,82.9499972060323,0.));
#1364=CARTESIAN_POINT('',(140.569376965352,82.9499972060323,3.1));
#1365=CARTESIAN_POINT('',(140.569376965352,82.9499972060323,0.));
#1366=CARTESIAN_POINT('Origin',(143.669376965352,82.9499972060323,3.1));
#1367=CARTESIAN_POINT('Origin',(143.669376965352,82.9499972060323,3.1));
#1368=CARTESIAN_POINT('',(145.219376965352,82.9499972060323,3.1));
#1369=CARTESIAN_POINT('Origin',(143.669376965352,82.9499972060323,3.1));
#1370=CARTESIAN_POINT('Origin',(155.885449724108,105.149997206032,12.1000000000003));
#1371=CARTESIAN_POINT('',(157.535449724108,105.200001490116,12.1000000000003));
#1372=CARTESIAN_POINT('Origin',(155.885449724108,105.200001490116,12.1000000000003));
#1373=CARTESIAN_POINT('',(157.535449724108,122.,12.1000000000003));
#1374=CARTESIAN_POINT('',(157.535449724108,105.149997206032,12.1000000000003));
#1375=CARTESIAN_POINT('Origin',(155.885449724108,122.,12.1000000000003));
#1376=CARTESIAN_POINT('Origin',(155.885449724108,105.149997206032,12.1000000000003));
#1377=CARTESIAN_POINT('',(157.535449724108,77.9999983236194,12.1000000000003));
#1378=CARTESIAN_POINT('Origin',(155.885449724108,77.9999983236194,12.1000000000003));
#1379=CARTESIAN_POINT('',(157.535449724108,94.8000014901161,12.1000000000003));
#1380=CARTESIAN_POINT('',(157.535449724108,105.149997206032,12.1000000000003));
#1381=CARTESIAN_POINT('Origin',(155.885449724108,94.8000014901161,12.1000000000003));
#1382=CARTESIAN_POINT('Origin',(131.5,110.999999580905,6.5));
#1383=CARTESIAN_POINT('',(138.,77.9999983236194,0.));
#1384=CARTESIAN_POINT('',(125.,77.9999983236194,13.));
#1385=CARTESIAN_POINT('',(122.75,77.9999983236194,15.25));
#1386=CARTESIAN_POINT('',(125.,94.8000014901161,13.));
#1387=CARTESIAN_POINT('',(125.,110.999999580905,13.));
#1388=CARTESIAN_POINT('',(138.,94.8000014901161,0.));
#1389=CARTESIAN_POINT('',(124.875000543892,94.8000014901161,13.1249994561076));
#1390=CARTESIAN_POINT('',(138.,110.999999580905,0.));
#1391=CARTESIAN_POINT('Origin',(120.000001728535,94.8000014901161,21.4999995529652));
#1392=CARTESIAN_POINT('',(125.,94.8000014901161,15.7499997764826));
#1393=CARTESIAN_POINT('',(160.000001728535,94.8000014901161,0.));
#1394=CARTESIAN_POINT('',(160.000001728535,94.8000014901161,15.0000002235174));
#1395=CARTESIAN_POINT('',(127.874999905936,94.8000014901161,0.));
#1396=CARTESIAN_POINT('Origin',(131.5,110.999999580905,6.5));
#1397=CARTESIAN_POINT('',(125.,122.,13.));
#1398=CARTESIAN_POINT('',(138.,122.,0.));
#1399=CARTESIAN_POINT('',(140.624999041669,122.,-2.62499904166906));
#1400=CARTESIAN_POINT('',(138.,105.200001490116,0.));
#1401=CARTESIAN_POINT('',(138.,110.999999580905,0.));
#1402=CARTESIAN_POINT('',(125.,105.200001490116,13.));
#1403=CARTESIAN_POINT('',(129.000000413507,105.200001490116,8.99999958649278));
#1404=CARTESIAN_POINT('',(125.,110.999999580905,13.));
#1405=CARTESIAN_POINT('Origin',(125.,122.,10.));
#1406=CARTESIAN_POINT('',(125.,105.200001490116,7.5000000372529));
#1407=CARTESIAN_POINT('',(125.,122.,10.));
#1408=CARTESIAN_POINT('Origin',(120.000001728535,105.200001490116,5.00000007450581));
#1409=CARTESIAN_POINT('',(160.000001728535,105.200001490116,0.));
#1410=CARTESIAN_POINT('',(127.874999905936,105.200001490116,0.));
#1411=CARTESIAN_POINT('',(160.000001728535,105.200001490116,15.0000002235174));
#1412=CARTESIAN_POINT('Ctrl Pts',(169.725740450152,122.989469258086,-0.107044595980467));
#1413=CARTESIAN_POINT('Ctrl Pts',(170.095073320891,122.978248882625,6.9144999477244));
#1414=CARTESIAN_POINT('Ctrl Pts',(170.46648452325,122.966778805816,13.9359144691734));
#1415=CARTESIAN_POINT('Ctrl Pts',(170.840208108919,122.955041600309,20.9571821616128));
#1416=CARTESIAN_POINT('Ctrl Pts',(169.262164986924,122.377230421908,-0.0820980148425218));
#1417=CARTESIAN_POINT('Ctrl Pts',(169.630810128109,122.372468418295,6.93958976070426));
#1418=CARTESIAN_POINT('Ctrl Pts',(170.001846002077,122.367308767678,13.9611385905284));
#1419=CARTESIAN_POINT('Ctrl Pts',(170.375032116379,122.362370533958,20.9825544076644));
#1420=CARTESIAN_POINT('Ctrl Pts',(168.503799505657,122.,-0.041287774630678));
#1421=CARTESIAN_POINT('Ctrl Pts',(168.876895491595,122.000116397322,6.98033545985955));
#1422=CARTESIAN_POINT('Ctrl Pts',(169.252455626855,121.99988284022,14.0018214451893));
#1423=CARTESIAN_POINT('Ctrl Pts',(169.630379512354,122.,21.0231702377919));
#1424=CARTESIAN_POINT('Ctrl Pts',(167.736560133488,122.,-2.13370987545147E-15));
#1425=CARTESIAN_POINT('Ctrl Pts',(168.114413459575,122.,7.02154454370486));
#1426=CARTESIAN_POINT('Ctrl Pts',(168.49468398607,122.,14.0429590651539));
#1427=CARTESIAN_POINT('Ctrl Pts',(168.877647282423,122.,21.0642267575932));
#1428=CARTESIAN_POINT('',(167.736560133488,122.,0.));
#1429=CARTESIAN_POINT('Ctrl Pts',(167.736560133488,122.,-2.13717932240343E-15));
#1430=CARTESIAN_POINT('Ctrl Pts',(167.823300510468,122.,-2.08806720857294E-15));
#1431=CARTESIAN_POINT('Ctrl Pts',(167.909780090922,122.004789322962,6.02764716003194E-6));
#1432=CARTESIAN_POINT('Ctrl Pts',(167.995707512074,122.014142237928,1.5075762781841E-5));
#1433=CARTESIAN_POINT('Ctrl Pts',(168.083635300611,122.023712886253,2.43345161156326E-5));
#1434=CARTESIAN_POINT('Ctrl Pts',(168.170985730338,122.038062272429,3.67125232790887E-5));
#1435=CARTESIAN_POINT('Ctrl Pts',(168.257442387848,122.057002826331,4.92162506406935E-5));
#1436=CARTESIAN_POINT('Ctrl Pts',(168.303306616012,122.067050564825,5.58493292390699E-5));
#1437=CARTESIAN_POINT('Ctrl Pts',(168.348919175958,122.078391226955,6.25256097163227E-5));
#1438=CARTESIAN_POINT('Ctrl Pts',(168.394231143091,122.091002494384,6.88891512083956E-5));
#1439=CARTESIAN_POINT('Ctrl Pts',(168.479506512595,122.114736411889,8.08650901583839E-5));
#1440=CARTESIAN_POINT('Ctrl Pts',(168.563420167864,122.142884521124,9.15644759391039E-5));
#1441=CARTESIAN_POINT('Ctrl Pts',(168.645661791189,122.175243475667,9.91324201108021E-5));
#1442=CARTESIAN_POINT('Ctrl Pts',(168.728350674204,122.207778409908,0.000106741521499729));
#1443=CARTESIAN_POINT('Ctrl Pts',(168.809350133474,122.244570487309,0.00011113962017378));
#1444=CARTESIAN_POINT('Ctrl Pts',(168.8883275372,122.285462280576,0.000111369279430971));
#1445=CARTESIAN_POINT('Ctrl Pts',(168.92806010198,122.306034441071,0.000111484818191215));
#1446=CARTESIAN_POINT('Ctrl Pts',(168.967280540321,122.32764496716,0.000110564168302385));
#1447=CARTESIAN_POINT('Ctrl Pts',(169.005943822306,122.35027803723,0.00010862950874));
#1448=CARTESIAN_POINT('Ctrl Pts',(169.082950588072,122.395356970938,0.000104776191894871));
#1449=CARTESIAN_POINT('Ctrl Pts',(169.157413809693,122.444293502941,9.66716456845004E-5));
#1450=CARTESIAN_POINT('Ctrl Pts',(169.229021155594,122.496894210501,8.57359865156608E-5));
#1451=CARTESIAN_POINT('Ctrl Pts',(169.300210805655,122.549188090649,7.48641166031645E-5));
#1452=CARTESIAN_POINT('Ctrl Pts',(169.368578588257,122.605103992043,6.11516696855779E-5));
#1453=CARTESIAN_POINT('Ctrl Pts',(169.43379244154,122.664496301747,4.73486723909892E-5));
#1454=CARTESIAN_POINT('Ctrl Pts',(169.497260832135,122.722298963618,3.39151152622448E-5));
#1455=CARTESIAN_POINT('Ctrl Pts',(169.55774245355,122.78339495419,2.03641366049918E-5));
#1456=CARTESIAN_POINT('Ctrl Pts',(169.614897395375,122.847684783196,1.10502485155019E-5));
#1457=CARTESIAN_POINT('Ctrl Pts',(169.655441519182,122.893290197242,4.44323572245314E-6));
#1458=CARTESIAN_POINT('Ctrl Pts',(169.694310956341,122.940503500452,4.53698424489381E-9));
#1459=CARTESIAN_POINT('Ctrl Pts',(169.731371151799,122.989298182262,1.90613635986381E-11));
#1460=CARTESIAN_POINT('Ctrl Pts',(167.736560133488,122.,-2.13370987545147E-15));
#1461=CARTESIAN_POINT('Ctrl Pts',(168.095322833139,122.,6.66678867776637));
#1462=CARTESIAN_POINT('Ctrl Pts',(168.456264650681,122.,13.3334601398384));
#1463=CARTESIAN_POINT('Ctrl Pts',(168.819621461799,122.,20.0000000003525));
#1464=CARTESIAN_POINT('Origin',(171.499996166676,122.,10.));
#1465=CARTESIAN_POINT('',(153.624997125007,122.,0.));
#1466=CARTESIAN_POINT('Ctrl Pts',(170.840209345374,77.0449568290217,20.9571821616128));
#1467=CARTESIAN_POINT('Ctrl Pts',(170.466485745125,77.0332196227116,13.9359144692161));
#1468=CARTESIAN_POINT('Ctrl Pts',(170.095074528813,77.0217495451179,6.91449994776486));
#1469=CARTESIAN_POINT('Ctrl Pts',(169.725741644665,77.0105291688897,-0.107044595980464));
#1470=CARTESIAN_POINT('Ctrl Pts',(170.375033348721,77.6376278350791,20.9825544089646));
#1471=CARTESIAN_POINT('Ctrl Pts',(170.001847219309,77.6326896011532,13.9611385918664));
#1472=CARTESIAN_POINT('Ctrl Pts',(169.630811330918,77.627529950343,6.93958976203418));
#1473=CARTESIAN_POINT('Ctrl Pts',(169.262166175857,77.6227679465281,-0.0820980135579216));
#1474=CARTESIAN_POINT('Ctrl Pts',(169.630380787178,77.9999983236194,21.0231702384971));
#1475=CARTESIAN_POINT('Ctrl Pts',(169.252456885988,78.0001154833936,14.0018214459353));
#1476=CARTESIAN_POINT('Ctrl Pts',(168.876896735743,77.9998819263025,6.98033546060087));
#1477=CARTESIAN_POINT('Ctrl Pts',(168.503800735395,77.9999983236194,-0.0412877739316838));
#1478=CARTESIAN_POINT('Ctrl Pts',(168.877648602096,77.9999983236194,21.0642267575932));
#1479=CARTESIAN_POINT('Ctrl Pts',(168.494685289507,77.9999983236194,14.0429590651966));
#1480=CARTESIAN_POINT('Ctrl Pts',(168.114414747485,77.9999983236194,7.02154454374532));
#1481=CARTESIAN_POINT('Ctrl Pts',(167.736561406487,77.9999983236194,3.72965547335014E-16));
#1482=CARTESIAN_POINT('',(167.736561406487,77.9999983236194,0.));
#1483=CARTESIAN_POINT('Ctrl Pts',(168.819622779016,77.9999983236194,20.0000000003525));
#1484=CARTESIAN_POINT('Ctrl Pts',(168.45626595255,77.9999983236194,13.3334601398767));
#1485=CARTESIAN_POINT('Ctrl Pts',(168.095324120295,77.9999983236194,6.66678867780274));
#1486=CARTESIAN_POINT('Ctrl Pts',(167.736561406487,77.9999983236194,3.72965547335014E-16));
#1487=CARTESIAN_POINT('Ctrl Pts',(169.731372346516,77.0107002447252,1.90638616004435E-11));
#1488=CARTESIAN_POINT('Ctrl Pts',(169.679011750974,77.0796399330239,6.40222344406167E-9));
#1489=CARTESIAN_POINT('Ctrl Pts',(169.623000364047,77.1454781573347,8.69148646193664E-6));
#1490=CARTESIAN_POINT('Ctrl Pts',(169.563694629206,77.2081216393739,2.01748130315739E-5));
#1491=CARTESIAN_POINT('Ctrl Pts',(169.502966465495,77.2722676050704,3.19335634752015E-5));
#1492=CARTESIAN_POINT('Ctrl Pts',(169.438783395177,77.3330642684453,4.66606035491547E-5));
#1493=CARTESIAN_POINT('Ctrl Pts',(169.371487094093,77.3903756011119,6.02505540875618E-5));
#1494=CARTESIAN_POINT('Ctrl Pts',(169.335868142153,77.420709654708,6.7443516959299E-5));
#1495=CARTESIAN_POINT('Ctrl Pts',(169.299376416358,77.4500666715357,7.43515062553148E-5));
#1496=CARTESIAN_POINT('Ctrl Pts',(169.262059055363,77.4784217746067,8.05554409981715E-5));
#1497=CARTESIAN_POINT('Ctrl Pts',(169.191652578349,77.5319192047405,9.22603734283991E-5));
#1498=CARTESIAN_POINT('Ctrl Pts',(169.118556391298,77.58166485885,0.000101382091041637));
#1499=CARTESIAN_POINT('Ctrl Pts',(169.043121248755,77.6275376699077,0.000106464391728962));
#1500=CARTESIAN_POINT('Ctrl Pts',(168.967185690901,77.6737147881653,0.000111580406955601));
#1501=CARTESIAN_POINT('Ctrl Pts',(168.888879240736,77.7159679643187,0.000112646384515535));
#1502=CARTESIAN_POINT('Ctrl Pts',(168.808530255409,77.7541304648698,0.000109761142555995));
#1503=CARTESIAN_POINT('Ctrl Pts',(168.768324971091,77.7732263399287,0.000108317415882462));
#1504=CARTESIAN_POINT('Ctrl Pts',(168.727607886743,77.7912972612676,0.00010590500307749));
#1505=CARTESIAN_POINT('Ctrl Pts',(168.686418368351,77.8083177606451,0.00010263178139492));
#1506=CARTESIAN_POINT('Ctrl Pts',(168.603898333736,77.8424170230931,9.60741333066781E-5));
#1507=CARTESIAN_POINT('Ctrl Pts',(168.519840819599,77.8721554402511,8.62080822698486E-5));
#1508=CARTESIAN_POINT('Ctrl Pts',(168.434590545835,77.897403840768,7.46140987408078E-5));
#1509=CARTESIAN_POINT('Ctrl Pts',(168.349779744048,77.9225220837617,6.30798831238012E-5));
#1510=CARTESIAN_POINT('Ctrl Pts',(168.263787598253,77.9431968338444,4.98812571906478E-5));
#1511=CARTESIAN_POINT('Ctrl Pts',(168.176932766799,77.9592541204832,3.76926121039567E-5));
#1512=CARTESIAN_POINT('Ctrl Pts',(168.092341504784,77.9748929297306,2.58216217066814E-5));
#1513=CARTESIAN_POINT('Ctrl Pts',(168.00693115896,77.9861519746059,1.49505257772119E-5));
#1514=CARTESIAN_POINT('Ctrl Pts',(167.920988378229,77.9928225799951,7.96758804127995E-6));
#1515=CARTESIAN_POINT('Ctrl Pts',(167.859748443864,77.997575828991,2.99178152223686E-6));
#1516=CARTESIAN_POINT('Ctrl Pts',(167.798237983373,77.9999983236194,-5.63278324249921E-16));
#1517=CARTESIAN_POINT('Ctrl Pts',(167.736561406487,77.9999983236194,-2.91433543964104E-16));
#1518=CARTESIAN_POINT('Origin',(100.,77.9999983236194,10.));
#1519=CARTESIAN_POINT('',(117.874999041669,77.9999983236194,0.));
#1520=CARTESIAN_POINT('',(125.,77.9999983236194,10.));
#1521=CARTESIAN_POINT('Origin',(160.000001728535,100.000001490116,13.2499998137355));
#1522=CARTESIAN_POINT('',(160.000001728535,100.000000325963,0.));
#1523=CARTESIAN_POINT('Origin',(125.,122.,10.));
#1524=CARTESIAN_POINT('Origin',(143.669376965352,82.9499972060323,26.5830579066335));
#1525=CARTESIAN_POINT('',(145.219376965352,82.9499972060323,26.5830579066335));
#1526=CARTESIAN_POINT('Origin',(143.669376965352,117.050001117587,26.5830579066335));
#1527=CARTESIAN_POINT('',(145.219376965352,117.050001117587,26.5830579066335));
#1528=CARTESIAN_POINT('Origin',(244.114550275892,105.149997206032,12.1000000000003));
#1529=CARTESIAN_POINT('',(242.464550275892,105.200001490116,12.1000000000003));
#1530=CARTESIAN_POINT('Origin',(244.114550275892,105.200001490116,12.1000000000003));
#1531=CARTESIAN_POINT('',(242.464550275892,122.,12.1000000000003));
#1532=CARTESIAN_POINT('',(242.464550275892,105.149997206032,12.1000000000003));
#1533=CARTESIAN_POINT('Origin',(244.114550275892,122.,12.1000000000003));
#1534=CARTESIAN_POINT('Origin',(244.114550275892,105.149997206032,12.1000000000003));
#1535=CARTESIAN_POINT('',(242.464550275892,77.9999983236194,12.1000000000003));
#1536=CARTESIAN_POINT('Origin',(244.114550275892,77.9999983236194,12.1000000000003));
#1537=CARTESIAN_POINT('',(242.464550275892,94.8000014901161,12.1000000000003));
#1538=CARTESIAN_POINT('',(242.464550275892,105.149997206032,12.1000000000003));
#1539=CARTESIAN_POINT('Origin',(244.114550275892,94.8000014901161,12.1000000000003));
#1540=CARTESIAN_POINT('Origin',(268.5,110.999999580905,6.5));
#1541=CARTESIAN_POINT('',(262.,77.9999983236194,0.));
#1542=CARTESIAN_POINT('',(275.,77.9999983236194,13.));
#1543=CARTESIAN_POINT('',(277.25,77.9999983236194,15.25));
#1544=CARTESIAN_POINT('',(262.,94.8000014901161,0.));
#1545=CARTESIAN_POINT('',(262.,110.999999580905,0.));
#1546=CARTESIAN_POINT('',(275.,94.8000014901161,13.));
#1547=CARTESIAN_POINT('',(275.124999456108,94.8000014901161,13.1249994561076));
#1548=CARTESIAN_POINT('',(275.,110.999999580905,13.));
#1549=CARTESIAN_POINT('Origin',(264.250001916662,99.9999991618097,0.));
#1550=CARTESIAN_POINT('',(232.263439866512,122.,0.));
#1551=CARTESIAN_POINT('Ctrl Pts',(232.263439866512,122.,2.58126853225349E-15));
#1552=CARTESIAN_POINT('Ctrl Pts',(232.176699489532,122.,2.63712152445287E-15));
#1553=CARTESIAN_POINT('Ctrl Pts',(232.090219909078,122.004789322962,6.02764716443066E-6));
#1554=CARTESIAN_POINT('Ctrl Pts',(232.004292487926,122.014142237928,1.50757627864068E-5));
#1555=CARTESIAN_POINT('Ctrl Pts',(231.916364699389,122.023712886253,2.43345161203692E-5));
#1556=CARTESIAN_POINT('Ctrl Pts',(231.829014269662,122.038062272429,3.67125232836338E-5));
#1557=CARTESIAN_POINT('Ctrl Pts',(231.742557612152,122.057002826331,4.92162506453286E-5));
#1558=CARTESIAN_POINT('Ctrl Pts',(231.696693383988,122.067050564825,5.58493292437515E-5));
#1559=CARTESIAN_POINT('Ctrl Pts',(231.651080824042,122.078391226955,6.25256097210673E-5));
#1560=CARTESIAN_POINT('Ctrl Pts',(231.605768856909,122.091002494384,6.88891512131418E-5));
#1561=CARTESIAN_POINT('Ctrl Pts',(231.520493487405,122.114736411889,8.08650901631353E-5));
#1562=CARTESIAN_POINT('Ctrl Pts',(231.436579832136,122.142884521124,9.15644759428081E-5));
#1563=CARTESIAN_POINT('Ctrl Pts',(231.354338208811,122.175243475667,9.91324201147573E-5));
#1564=CARTESIAN_POINT('Ctrl Pts',(231.271649325797,122.207778409908,0.000106741521503935));
#1565=CARTESIAN_POINT('Ctrl Pts',(231.190649866526,122.244570487309,0.000111139620178154));
#1566=CARTESIAN_POINT('Ctrl Pts',(231.1116724628,122.285462280575,0.000111369279435433));
#1567=CARTESIAN_POINT('Ctrl Pts',(231.07193989802,122.306034441071,0.00011148481819572));
#1568=CARTESIAN_POINT('Ctrl Pts',(231.032719459679,122.32764496716,0.00011056416830718));
#1569=CARTESIAN_POINT('Ctrl Pts',(230.994056177695,122.35027803723,0.000108629508744795));
#1570=CARTESIAN_POINT('Ctrl Pts',(230.917049411928,122.395356970938,0.000104776191899666));
#1571=CARTESIAN_POINT('Ctrl Pts',(230.842586190307,122.444293502941,9.66716456882298E-5));
#1572=CARTESIAN_POINT('Ctrl Pts',(230.770978844406,122.496894210501,8.57359865195605E-5));
#1573=CARTESIAN_POINT('Ctrl Pts',(230.699789194345,122.549188090649,7.48641166072334E-5));
#1574=CARTESIAN_POINT('Ctrl Pts',(230.631421411743,122.605103992043,6.11516696897479E-5));
#1575=CARTESIAN_POINT('Ctrl Pts',(230.56620755846,122.664496301747,4.73486723950693E-5));
#1576=CARTESIAN_POINT('Ctrl Pts',(230.502739167866,122.722298963618,3.39151152662364E-5));
#1577=CARTESIAN_POINT('Ctrl Pts',(230.44225754645,122.78339495419,2.03641366097848E-5));
#1578=CARTESIAN_POINT('Ctrl Pts',(230.385102604625,122.847684783196,1.10502485200868E-5));
#1579=CARTESIAN_POINT('Ctrl Pts',(230.344558480818,122.893290197242,4.44323572689088E-6));
#1580=CARTESIAN_POINT('Ctrl Pts',(230.30568904366,122.940503500452,4.5369889248371E-9));
#1581=CARTESIAN_POINT('Ctrl Pts',(230.268628848201,122.989298182262,1.90660265353415E-11));
#1582=CARTESIAN_POINT('',(262.,122.,0.));
#1583=CARTESIAN_POINT('',(246.375002874993,122.,0.));
#1584=CARTESIAN_POINT('',(262.,105.200001490116,0.));
#1585=CARTESIAN_POINT('',(262.,110.999999580905,0.));
#1586=CARTESIAN_POINT('',(239.999998271465,105.200001490116,0.));
#1587=CARTESIAN_POINT('',(272.125000094064,105.200001490116,0.));
#1588=CARTESIAN_POINT('',(239.999998271465,94.8000014901161,0.));
#1589=CARTESIAN_POINT('',(239.999998271465,100.000000325963,0.));
#1590=CARTESIAN_POINT('',(272.125000094064,94.8000014901161,0.));
#1591=CARTESIAN_POINT('',(232.263438593513,77.9999983236194,0.));
#1592=CARTESIAN_POINT('',(282.125000958331,77.9999983236194,0.));
#1593=CARTESIAN_POINT('Ctrl Pts',(230.268627653484,77.0107002447252,1.90603088867647E-11));
#1594=CARTESIAN_POINT('Ctrl Pts',(230.320988249026,77.0796399330239,6.40221988077611E-9));
#1595=CARTESIAN_POINT('Ctrl Pts',(230.376999635953,77.1454781573347,8.69148645595512E-6));
#1596=CARTESIAN_POINT('Ctrl Pts',(230.436305370794,77.2081216393739,2.01748130254191E-5));
#1597=CARTESIAN_POINT('Ctrl Pts',(230.497033534505,77.2722676050704,3.19335634688675E-5));
#1598=CARTESIAN_POINT('Ctrl Pts',(230.561216604823,77.3330642684453,4.66606035464116E-5));
#1599=CARTESIAN_POINT('Ctrl Pts',(230.628512905907,77.3903756011119,6.02505540916592E-5));
#1600=CARTESIAN_POINT('Ctrl Pts',(230.664131857847,77.420709654708,6.74435169670166E-5));
#1601=CARTESIAN_POINT('Ctrl Pts',(230.700623583642,77.4500666715357,7.43515062517326E-5));
#1602=CARTESIAN_POINT('Ctrl Pts',(230.737940944637,77.4784217746066,8.05554409945876E-5));
#1603=CARTESIAN_POINT('Ctrl Pts',(230.808347421651,77.5319192047405,9.22603734248147E-5));
#1604=CARTESIAN_POINT('Ctrl Pts',(230.881443608702,77.58166485885,0.000101382091025772));
#1605=CARTESIAN_POINT('Ctrl Pts',(230.956878751245,77.6275376699077,0.000106464391712774));
#1606=CARTESIAN_POINT('Ctrl Pts',(231.032814309099,77.6737147881653,0.000111580406939087));
#1607=CARTESIAN_POINT('Ctrl Pts',(231.111120759264,77.7159679643187,0.000112646384514519));
#1608=CARTESIAN_POINT('Ctrl Pts',(231.191469744591,77.7541304648698,0.000109761142555558));
#1609=CARTESIAN_POINT('Ctrl Pts',(231.231675028909,77.7732263399287,0.000108317415882316));
#1610=CARTESIAN_POINT('Ctrl Pts',(231.272392113257,77.7912972612676,0.000105905003073921));
#1611=CARTESIAN_POINT('Ctrl Pts',(231.313581631649,77.8083177606451,0.000102631781391353));
#1612=CARTESIAN_POINT('Ctrl Pts',(231.396101666264,77.8424170230931,9.60741333031124E-5));
#1613=CARTESIAN_POINT('Ctrl Pts',(231.480159180401,77.8721554402511,8.62080822619545E-5));
#1614=CARTESIAN_POINT('Ctrl Pts',(231.565409454165,77.897403840768,7.46140987329946E-5));
#1615=CARTESIAN_POINT('Ctrl Pts',(231.650220255951,77.9225220837617,6.30798831160737E-5));
#1616=CARTESIAN_POINT('Ctrl Pts',(231.736212401747,77.9431968338444,4.98812571975751E-5));
#1617=CARTESIAN_POINT('Ctrl Pts',(231.823067233201,77.9592541204832,3.76926121139765E-5));
#1618=CARTESIAN_POINT('Ctrl Pts',(231.907658495216,77.9748929297306,2.5821621719704E-5));
#1619=CARTESIAN_POINT('Ctrl Pts',(231.99306884104,77.9861519746058,1.49505257663709E-5));
#1620=CARTESIAN_POINT('Ctrl Pts',(232.079011621771,77.9928225799951,7.96758802995567E-6));
#1621=CARTESIAN_POINT('Ctrl Pts',(232.140251556136,77.997575828991,2.99178151056739E-6));
#1622=CARTESIAN_POINT('Ctrl Pts',(232.201762016627,77.9999983236194,-4.07846712497147E-15));
#1623=CARTESIAN_POINT('Ctrl Pts',(232.263438593513,77.9999983236194,-3.80251385934116E-15));
#1624=CARTESIAN_POINT('',(228.200183589207,100.,0.));
#1625=CARTESIAN_POINT('Origin',(200.,100.,0.));
#1626=CARTESIAN_POINT('Origin',(279.999998271465,94.8000014901161,21.4999995529652));
#1627=CARTESIAN_POINT('',(239.999998271465,94.8000014901161,20.));
#1628=CARTESIAN_POINT('',(239.999998271465,94.8000014901161,15.0000002235174));
#1629=CARTESIAN_POINT('',(275.,94.8000014901161,20.));
#1630=CARTESIAN_POINT('',(272.125000094064,94.8000014901161,20.));
#1631=CARTESIAN_POINT('',(275.,94.8000014901161,15.7499997764826));
#1632=CARTESIAN_POINT('Origin',(268.5,110.999999580905,6.5));
#1633=CARTESIAN_POINT('',(275.,122.,13.));
#1634=CARTESIAN_POINT('',(259.375000958331,122.,-2.62499904166906));
#1635=CARTESIAN_POINT('',(275.,105.200001490116,13.));
#1636=CARTESIAN_POINT('',(275.,110.999999580905,13.));
#1637=CARTESIAN_POINT('',(270.999999586493,105.200001490116,8.99999958649278));
#1638=CARTESIAN_POINT('Origin',(275.,122.,10.));
#1639=CARTESIAN_POINT('',(275.,122.,20.));
#1640=CARTESIAN_POINT('',(275.,122.,10.));
#1641=CARTESIAN_POINT('',(275.,105.200001490116,20.));
#1642=CARTESIAN_POINT('',(275.,110.999999580905,20.));
#1643=CARTESIAN_POINT('',(275.,105.200001490116,7.5000000372529));
#1644=CARTESIAN_POINT('Origin',(279.999998271465,105.200001490116,5.00000007450581));
#1645=CARTESIAN_POINT('',(239.999998271465,105.200001490116,20.));
#1646=CARTESIAN_POINT('',(272.125000094064,105.200001490116,20.));
#1647=CARTESIAN_POINT('',(239.999998271465,105.200001490116,15.0000002235174));
#1648=CARTESIAN_POINT('Ctrl Pts',(230.274259549848,122.989469258086,-0.107044595980462));
#1649=CARTESIAN_POINT('Ctrl Pts',(229.904926679109,122.978248882625,6.91449994772287));
#1650=CARTESIAN_POINT('Ctrl Pts',(229.53351547675,122.966778805816,13.9359144691704));
#1651=CARTESIAN_POINT('Ctrl Pts',(229.159791891081,122.955041600309,20.9571821616082));
#1652=CARTESIAN_POINT('Ctrl Pts',(230.737835013076,122.377230421908,-0.0820980148425172));
#1653=CARTESIAN_POINT('Ctrl Pts',(230.369189871891,122.372468418295,6.93958976070275));
#1654=CARTESIAN_POINT('Ctrl Pts',(229.998153997923,122.367308767678,13.9611385905254));
#1655=CARTESIAN_POINT('Ctrl Pts',(229.624967883621,122.362370533958,20.9825544076599));
#1656=CARTESIAN_POINT('Ctrl Pts',(231.496200494343,122.,-0.0412877746306735));
#1657=CARTESIAN_POINT('Ctrl Pts',(231.123104508405,122.000116397322,6.98033545985803));
#1658=CARTESIAN_POINT('Ctrl Pts',(230.747544373145,121.99988284022,14.0018214451862));
#1659=CARTESIAN_POINT('Ctrl Pts',(230.369620487647,122.,21.0231702377873));
#1660=CARTESIAN_POINT('Ctrl Pts',(232.263439866512,122.,2.30718222304915E-15));
#1661=CARTESIAN_POINT('Ctrl Pts',(231.885586540425,122.,7.02154454370334));
#1662=CARTESIAN_POINT('Ctrl Pts',(231.50531601393,122.,14.0429590651508));
#1663=CARTESIAN_POINT('Ctrl Pts',(231.122352717577,122.,21.0642267575886));
#1664=CARTESIAN_POINT('',(231.180378512838,122.,19.9999999989701));
#1665=CARTESIAN_POINT('Ctrl Pts',(231.180378538128,122.,20.0000000016913));
#1666=CARTESIAN_POINT('Ctrl Pts',(231.159655844997,121.999999584229,19.9999999917797));
#1667=CARTESIAN_POINT('Ctrl Pts',(231.138951556661,122.000272205508,20.0000003200724));
#1668=CARTESIAN_POINT('Ctrl Pts',(231.118269687472,122.000814250676,20.0000009284456));
#1669=CARTESIAN_POINT('Ctrl Pts',(232.263439866512,122.,2.30718222304915E-15));
#1670=CARTESIAN_POINT('Ctrl Pts',(231.904677166861,122.,6.66678867776637));
#1671=CARTESIAN_POINT('Ctrl Pts',(231.543735349319,122.,13.3334601398384));
#1672=CARTESIAN_POINT('Ctrl Pts',(231.180378538201,122.,20.0000000003525));
#1673=CARTESIAN_POINT('Origin',(228.500003833324,122.,10.));
#1674=CARTESIAN_POINT('',(300.,122.,20.));
#1675=CARTESIAN_POINT('Ctrl Pts',(229.159790654626,77.0449568290217,20.9571821616127));
#1676=CARTESIAN_POINT('Ctrl Pts',(229.533514254875,77.0332196227116,13.9359144692161));
#1677=CARTESIAN_POINT('Ctrl Pts',(229.904925471187,77.0217495451179,6.91449994776486));
#1678=CARTESIAN_POINT('Ctrl Pts',(230.274258355335,77.0105291688897,-0.107044595980468));
#1679=CARTESIAN_POINT('Ctrl Pts',(229.624966651279,77.6376278350791,20.9825544089646));
#1680=CARTESIAN_POINT('Ctrl Pts',(229.998152780691,77.6326896011532,13.9611385918664));
#1681=CARTESIAN_POINT('Ctrl Pts',(230.369188669082,77.627529950343,6.93958976203418));
#1682=CARTESIAN_POINT('Ctrl Pts',(230.737833824143,77.6227679465281,-0.082098013557925));
#1683=CARTESIAN_POINT('Ctrl Pts',(230.369619212822,77.9999983236194,21.0231702384971));
#1684=CARTESIAN_POINT('Ctrl Pts',(230.747543114012,78.0001154833936,14.0018214459353));
#1685=CARTESIAN_POINT('Ctrl Pts',(231.123103264257,77.9998819263025,6.98033546060087));
#1686=CARTESIAN_POINT('Ctrl Pts',(231.496199264605,77.9999983236194,-0.0412877739316872));
#1687=CARTESIAN_POINT('Ctrl Pts',(231.122351397904,77.9999983236194,21.0642267575932));
#1688=CARTESIAN_POINT('Ctrl Pts',(231.505314710493,77.9999983236194,14.0429590651966));
#1689=CARTESIAN_POINT('Ctrl Pts',(231.885585252515,77.9999983236194,7.02154454374532));
#1690=CARTESIAN_POINT('Ctrl Pts',(232.263438593513,77.9999983236194,-2.92300905702092E-15));
#1691=CARTESIAN_POINT('',(231.180377195621,77.9999983236194,19.9999999989701));
#1692=CARTESIAN_POINT('Ctrl Pts',(231.180377220984,77.9999983236194,20.0000000003525));
#1693=CARTESIAN_POINT('Ctrl Pts',(231.54373404745,77.9999983236194,13.3334601398767));
#1694=CARTESIAN_POINT('Ctrl Pts',(231.904675879705,77.9999983236194,6.66678867780274));
#1695=CARTESIAN_POINT('Ctrl Pts',(232.263438593513,77.9999983236194,-2.92300905702092E-15));
#1696=CARTESIAN_POINT('Ctrl Pts',(231.11826850977,77.9991840766056,20.0000009284413));
#1697=CARTESIAN_POINT('Ctrl Pts',(231.138954459602,77.999726227497,20.0000003156293));
#1698=CARTESIAN_POINT('Ctrl Pts',(231.159658701452,77.999998739307,19.9999999917817));
#1699=CARTESIAN_POINT('Ctrl Pts',(231.180377220911,77.9999983236194,20.0000000016913));
#1700=CARTESIAN_POINT('Origin',(300.,77.9999983236194,10.));
#1701=CARTESIAN_POINT('',(275.,77.9999983236194,20.));
#1702=CARTESIAN_POINT('',(275.,77.9999983236194,10.));
#1703=CARTESIAN_POINT('',(228.500003833324,77.9999983236194,20.));
#1704=CARTESIAN_POINT('Origin',(239.999998271465,100.000001490116,13.2499998137355));
#1705=CARTESIAN_POINT('',(239.999998271465,100.000000325963,20.));
#1706=CARTESIAN_POINT('Origin',(264.250001916662,99.9999991618097,20.));
#1707=CARTESIAN_POINT('',(275.,110.999999580905,20.));
#1708=CARTESIAN_POINT('',(254.780623034648,117.050001117587,20.));
#1709=CARTESIAN_POINT('Origin',(256.330623034648,117.050001117587,20.));
#1710=CARTESIAN_POINT('',(254.780623034648,82.9499972060323,20.));
#1711=CARTESIAN_POINT('Origin',(256.330623034648,82.9499972060323,20.));
#1712=CARTESIAN_POINT('Origin',(275.,122.,10.));
#1713=CARTESIAN_POINT('Origin',(256.330623034648,82.9499972060323,26.5830579066335));
#1714=CARTESIAN_POINT('',(254.780623034648,82.9499972060323,26.5830579066335));
#1715=CARTESIAN_POINT('Origin',(256.330623034648,117.050001117587,26.5830579066335));
#1716=CARTESIAN_POINT('',(254.780623034648,117.050001117587,26.5830579066335));
#1717=CARTESIAN_POINT('Origin',(200.,100.,0.00856356767843719));
#1718=CARTESIAN_POINT('',(226.700183589207,100.,35.));
#1719=CARTESIAN_POINT('',(228.199816579164,100.,0.00856356767843719));
#1720=CARTESIAN_POINT('Origin',(200.,100.,35.));
#1721=CARTESIAN_POINT('Origin',(200.,100.,35.));
#1722=UNCERTAINTY_MEASURE_WITH_UNIT(LENGTH_MEASURE(0.01),#1726,
'DISTANCE_ACCURACY_VALUE',
'Maximum model space distance between geometric entities at asserted c
onnectivities');
#1723=UNCERTAINTY_MEASURE_WITH_UNIT(LENGTH_MEASURE(0.01),#1726,
'DISTANCE_ACCURACY_VALUE',
'Maximum model space distance between geometric entities at asserted c
onnectivities');
#1724=(
GEOMETRIC_REPRESENTATION_CONTEXT(3)
GLOBAL_UNCERTAINTY_ASSIGNED_CONTEXT((#1722))
GLOBAL_UNIT_ASSIGNED_CONTEXT((#1726,#1728,#1729))
REPRESENTATION_CONTEXT('','3D')
);
#1725=(
GEOMETRIC_REPRESENTATION_CONTEXT(3)
GLOBAL_UNCERTAINTY_ASSIGNED_CONTEXT((#1723))
GLOBAL_UNIT_ASSIGNED_CONTEXT((#1726,#1728,#1729))
REPRESENTATION_CONTEXT('','3D')
);
#1726=(
LENGTH_UNIT()
NAMED_UNIT(*)
SI_UNIT(.MILLI.,.METRE.)
);
#1727=(
LENGTH_UNIT()
NAMED_UNIT(*)
SI_UNIT($,.METRE.)
);
#1728=(
NAMED_UNIT(*)
PLANE_ANGLE_UNIT()
SI_UNIT($,.RADIAN.)
);
#1729=(
NAMED_UNIT(*)
SI_UNIT($,.STERADIAN.)
SOLID_ANGLE_UNIT()
);
#1730=SHAPE_DEFINITION_REPRESENTATION(#1731,#1732);
#1731=PRODUCT_DEFINITION_SHAPE('',$,#1734);
#1732=SHAPE_REPRESENTATION('',(#902),#1724);
#1733=PRODUCT_DEFINITION_CONTEXT('part definition',#1738,'design');
#1734=PRODUCT_DEFINITION('2026-07-10-18-46-10-536','PD (1) (1)',#1735,#1733);
#1735=PRODUCT_DEFINITION_FORMATION('',$,#1740);
#1736=PRODUCT_RELATED_PRODUCT_CATEGORY('PD (1) (1)','PD (1) (1)',(#1740));
#1737=APPLICATION_PROTOCOL_DEFINITION('international standard',
'automotive_design',2009,#1738);
#1738=APPLICATION_CONTEXT(
'Core Data for Automotive Mechanical Design Process');
#1739=PRODUCT_CONTEXT('part definition',#1738,'mechanical');
#1740=PRODUCT('2026-07-10-18-46-10-536','PD (1) (1)',$,(#1739));
#1741=PRESENTATION_STYLE_ASSIGNMENT((#1743));
#1742=PRESENTATION_STYLE_ASSIGNMENT((#1744));
#1743=SURFACE_STYLE_USAGE(.BOTH.,#1745);
#1744=SURFACE_STYLE_USAGE(.BOTH.,#1746);
#1745=SURFACE_SIDE_STYLE('',(#1747));
#1746=SURFACE_SIDE_STYLE('',(#1748));
#1747=SURFACE_STYLE_FILL_AREA(#1749);
#1748=SURFACE_STYLE_FILL_AREA(#1750);
#1749=FILL_AREA_STYLE('\X\C7elik - Saten',(#1751));
#1750=FILL_AREA_STYLE('Opaque(45,45,45)',(#1752));
#1751=FILL_AREA_STYLE_COLOUR('\X\C7elik - Saten',#1753);
#1752=FILL_AREA_STYLE_COLOUR('Opaque(45,45,45)',#1754);
#1753=COLOUR_RGB('\X\C7elik - Saten',0.627450980392157,0.627450980392157,
0.627450980392157);
#1754=COLOUR_RGB('Opaque(45,45,45)',0.176470588235294,0.176470588235294,
0.176470588235294);
ENDSEC;
END-ISO-10303-21;
