ISO-10303-21;
HEADER;
/* Generated by software containing ST-Developer
 * from STEP Tools, Inc. (www.steptools.com) 
 */

FILE_DESCRIPTION(
/* description */ (''),
/* implementation_level */ '2;1');

FILE_NAME(
/* name */ 'ThumbScrewKnob.step',
/* time_stamp */ '2026-07-09T16:39:12+03:00',
/* author */ (''),
/* organization */ (''),
/* preprocessor_version */ 'ST-DEVELOPER v20.1',
/* originating_system */ 'Autodesk Translation Framework v15.8.0.0',
/* authorisation */ '');

FILE_SCHEMA (('AUTOMOTIVE_DESIGN { 1 0 10303 214 3 1 1 }'));
ENDSEC;

DATA;
#10=MECHANICAL_DESIGN_GEOMETRIC_PRESENTATION_REPRESENTATION('',(#13),#504);
#11=SHAPE_REPRESENTATION_RELATIONSHIP('SRR','None',#511,#12);
#12=ADVANCED_BREP_SHAPE_REPRESENTATION('',(#14),#503);
#13=STYLED_ITEM('',(#521),#14);
#14=MANIFOLD_SOLID_BREP('G\X\F6vde1',#288);
#15=FACE_BOUND('',#69,.T.);
#16=CYLINDRICAL_SURFACE('',#304,18.);
#17=CIRCLE('',#303,18.);
#18=CIRCLE('',#305,18.);
#19=CIRCLE('',#306,18.);
#20=CIRCLE('',#307,18.);
#21=CIRCLE('',#308,18.);
#22=CIRCLE('',#309,18.);
#23=CIRCLE('',#310,18.);
#24=CIRCLE('',#311,18.);
#25=PLANE('',#302);
#26=PLANE('',#312);
#27=PLANE('',#313);
#28=PLANE('',#314);
#29=PLANE('',#315);
#30=PLANE('',#316);
#31=PLANE('',#317);
#32=PLANE('',#318);
#33=PLANE('',#319);
#34=PLANE('',#320);
#35=PLANE('',#321);
#36=PLANE('',#322);
#37=FACE_OUTER_BOUND('',#53,.T.);
#38=FACE_OUTER_BOUND('',#54,.T.);
#39=FACE_OUTER_BOUND('',#55,.T.);
#40=FACE_OUTER_BOUND('',#56,.T.);
#41=FACE_OUTER_BOUND('',#57,.T.);
#42=FACE_OUTER_BOUND('',#58,.T.);
#43=FACE_OUTER_BOUND('',#59,.T.);
#44=FACE_OUTER_BOUND('',#60,.T.);
#45=FACE_OUTER_BOUND('',#61,.T.);
#46=FACE_OUTER_BOUND('',#62,.T.);
#47=FACE_OUTER_BOUND('',#63,.T.);
#48=FACE_OUTER_BOUND('',#64,.T.);
#49=FACE_OUTER_BOUND('',#65,.T.);
#50=FACE_OUTER_BOUND('',#66,.T.);
#51=FACE_OUTER_BOUND('',#67,.T.);
#52=FACE_OUTER_BOUND('',#68,.T.);
#53=EDGE_LOOP('',(#191,#192,#193,#194));
#54=EDGE_LOOP('',(#195,#196));
#55=EDGE_LOOP('',(#197,#198,#199,#200,#201,#202,#203,#204,#205,#206,#207,
#208,#209,#210,#211,#212));
#56=EDGE_LOOP('',(#213,#214,#215,#216));
#57=EDGE_LOOP('',(#217,#218));
#58=EDGE_LOOP('',(#219,#220,#221,#222));
#59=EDGE_LOOP('',(#223,#224,#225));
#60=EDGE_LOOP('',(#226,#227,#228,#229,#230,#231));
#61=EDGE_LOOP('',(#232,#233,#234,#235,#236,#237));
#62=EDGE_LOOP('',(#238,#239,#240,#241));
#63=EDGE_LOOP('',(#242,#243,#244,#245));
#64=EDGE_LOOP('',(#246,#247,#248,#249));
#65=EDGE_LOOP('',(#250,#251,#252,#253));
#66=EDGE_LOOP('',(#254,#255,#256,#257));
#67=EDGE_LOOP('',(#258,#259,#260,#261));
#68=EDGE_LOOP('',(#262));
#69=EDGE_LOOP('',(#263,#264,#265,#266,#267,#268));
#70=LINE('',#405,#95);
#71=LINE('',#410,#96);
#72=LINE('',#417,#97);
#73=LINE('',#421,#98);
#74=LINE('',#426,#99);
#75=LINE('',#430,#100);
#76=LINE('',#434,#101);
#77=LINE('',#465,#102);
#78=LINE('',#467,#103);
#79=LINE('',#469,#104);
#80=LINE('',#471,#105);
#81=LINE('',#473,#106);
#82=LINE('',#474,#107);
#83=LINE('',#478,#108);
#84=LINE('',#480,#109);
#85=LINE('',#481,#110);
#86=LINE('',#484,#111);
#87=LINE('',#485,#112);
#88=LINE('',#488,#113);
#89=LINE('',#489,#114);
#90=LINE('',#492,#115);
#91=LINE('',#493,#116);
#92=LINE('',#496,#117);
#93=LINE('',#497,#118);
#94=LINE('',#499,#119);
#95=VECTOR('',#325,10.);
#96=VECTOR('',#326,10.);
#97=VECTOR('',#335,20.);
#98=VECTOR('',#338,10.);
#99=VECTOR('',#343,10.);
#100=VECTOR('',#346,10.);
#101=VECTOR('',#349,10.);
#102=VECTOR('',#358,10.);
#103=VECTOR('',#359,10.);
#104=VECTOR('',#360,10.);
#105=VECTOR('',#361,10.);
#106=VECTOR('',#362,10.);
#107=VECTOR('',#363,10.);
#108=VECTOR('',#368,10.);
#109=VECTOR('',#369,10.);
#110=VECTOR('',#370,10.);
#111=VECTOR('',#373,10.);
#112=VECTOR('',#374,10.);
#113=VECTOR('',#377,10.);
#114=VECTOR('',#378,10.);
#115=VECTOR('',#381,10.);
#116=VECTOR('',#382,10.);
#117=VECTOR('',#385,10.);
#118=VECTOR('',#386,10.);
#119=VECTOR('',#389,10.);
#120=(
BOUNDED_CURVE()
B_SPLINE_CURVE(2,(#401,#402,#403),.UNSPECIFIED.,.F.,.F.)
B_SPLINE_CURVE_WITH_KNOTS((3,3),(0.0752683098590094,2.83601978848995),
 .UNSPECIFIED.)
CURVE()
GEOMETRIC_REPRESENTATION_ITEM()
RATIONAL_B_SPLINE_CURVE((1.10074210992262,2.89925789007738,1.10074210992262))
REPRESENTATION_ITEM('')
);
#121=(
BOUNDED_CURVE()
B_SPLINE_CURVE(2,(#407,#408,#409),.UNSPECIFIED.,.F.,.F.)
B_SPLINE_CURVE_WITH_KNOTS((3,3),(0.0752683098590094,2.83601978848995),
 .UNSPECIFIED.)
CURVE()
GEOMETRIC_REPRESENTATION_ITEM()
RATIONAL_B_SPLINE_CURVE((1.10074210992262,2.89925789007738,1.10074210992262))
REPRESENTATION_ITEM('')
);
#122=(
BOUNDED_CURVE()
B_SPLINE_CURVE(2,(#442,#443,#444),.UNSPECIFIED.,.F.,.F.)
B_SPLINE_CURVE_WITH_KNOTS((3,3),(0.0752683098590094,2.83601978848995),
 .UNSPECIFIED.)
CURVE()
GEOMETRIC_REPRESENTATION_ITEM()
RATIONAL_B_SPLINE_CURVE((1.10074210992262,2.89925789007738,1.10074210992262))
REPRESENTATION_ITEM('')
);
#123=(
BOUNDED_CURVE()
B_SPLINE_CURVE(2,(#445,#446,#447),.UNSPECIFIED.,.F.,.F.)
B_SPLINE_CURVE_WITH_KNOTS((3,3),(0.0752683098590094,2.83601978848995),
 .UNSPECIFIED.)
CURVE()
GEOMETRIC_REPRESENTATION_ITEM()
RATIONAL_B_SPLINE_CURVE((1.10074210992262,2.89925789007738,1.10074210992262))
REPRESENTATION_ITEM('')
);
#124=(
BOUNDED_CURVE()
B_SPLINE_CURVE(2,(#455,#456,#457),.UNSPECIFIED.,.F.,.F.)
B_SPLINE_CURVE_WITH_KNOTS((3,3),(0.0752683098590094,2.83601978848995),
 .UNSPECIFIED.)
CURVE()
GEOMETRIC_REPRESENTATION_ITEM()
RATIONAL_B_SPLINE_CURVE((1.10074210992262,2.89925789007738,1.10074210992262))
REPRESENTATION_ITEM('')
);
#125=(
BOUNDED_CURVE()
B_SPLINE_CURVE(2,(#458,#459,#460),.UNSPECIFIED.,.F.,.F.)
B_SPLINE_CURVE_WITH_KNOTS((3,3),(0.0752683098590094,2.83601978848995),
 .UNSPECIFIED.)
CURVE()
GEOMETRIC_REPRESENTATION_ITEM()
RATIONAL_B_SPLINE_CURVE((1.10074210992262,2.89925789007738,1.10074210992262))
REPRESENTATION_ITEM('')
);
#126=VERTEX_POINT('',#399);
#127=VERTEX_POINT('',#400);
#128=VERTEX_POINT('',#404);
#129=VERTEX_POINT('',#406);
#130=VERTEX_POINT('',#414);
#131=VERTEX_POINT('',#416);
#132=VERTEX_POINT('',#418);
#133=VERTEX_POINT('',#420);
#134=VERTEX_POINT('',#423);
#135=VERTEX_POINT('',#425);
#136=VERTEX_POINT('',#427);
#137=VERTEX_POINT('',#429);
#138=VERTEX_POINT('',#431);
#139=VERTEX_POINT('',#433);
#140=VERTEX_POINT('',#463);
#141=VERTEX_POINT('',#464);
#142=VERTEX_POINT('',#466);
#143=VERTEX_POINT('',#468);
#144=VERTEX_POINT('',#470);
#145=VERTEX_POINT('',#472);
#146=VERTEX_POINT('',#477);
#147=VERTEX_POINT('',#479);
#148=VERTEX_POINT('',#483);
#149=VERTEX_POINT('',#487);
#150=VERTEX_POINT('',#491);
#151=VERTEX_POINT('',#495);
#152=EDGE_CURVE('',#126,#127,#120,.T.);
#153=EDGE_CURVE('',#128,#127,#70,.T.);
#154=EDGE_CURVE('',#129,#128,#121,.T.);
#155=EDGE_CURVE('',#126,#129,#71,.T.);
#156=EDGE_CURVE('',#129,#128,#17,.T.);
#157=EDGE_CURVE('',#130,#130,#18,.T.);
#158=EDGE_CURVE('',#130,#131,#72,.T.);
#159=EDGE_CURVE('',#131,#132,#19,.T.);
#160=EDGE_CURVE('',#132,#133,#73,.T.);
#161=EDGE_CURVE('',#126,#133,#20,.F.);
#162=EDGE_CURVE('',#134,#127,#21,.F.);
#163=EDGE_CURVE('',#134,#135,#74,.T.);
#164=EDGE_CURVE('',#135,#136,#22,.T.);
#165=EDGE_CURVE('',#136,#137,#75,.T.);
#166=EDGE_CURVE('',#138,#137,#23,.F.);
#167=EDGE_CURVE('',#138,#139,#76,.T.);
#168=EDGE_CURVE('',#139,#131,#24,.T.);
#169=EDGE_CURVE('',#134,#137,#122,.T.);
#170=EDGE_CURVE('',#135,#136,#123,.T.);
#171=EDGE_CURVE('',#138,#133,#124,.T.);
#172=EDGE_CURVE('',#139,#132,#125,.T.);
#173=EDGE_CURVE('',#140,#141,#77,.T.);
#174=EDGE_CURVE('',#141,#142,#78,.T.);
#175=EDGE_CURVE('',#142,#143,#79,.T.);
#176=EDGE_CURVE('',#143,#144,#80,.T.);
#177=EDGE_CURVE('',#144,#145,#81,.T.);
#178=EDGE_CURVE('',#145,#140,#82,.T.);
#179=EDGE_CURVE('',#140,#146,#83,.T.);
#180=EDGE_CURVE('',#147,#146,#84,.T.);
#181=EDGE_CURVE('',#141,#147,#85,.T.);
#182=EDGE_CURVE('',#148,#147,#86,.T.);
#183=EDGE_CURVE('',#142,#148,#87,.T.);
#184=EDGE_CURVE('',#149,#148,#88,.T.);
#185=EDGE_CURVE('',#143,#149,#89,.T.);
#186=EDGE_CURVE('',#150,#149,#90,.T.);
#187=EDGE_CURVE('',#144,#150,#91,.T.);
#188=EDGE_CURVE('',#151,#150,#92,.T.);
#189=EDGE_CURVE('',#145,#151,#93,.T.);
#190=EDGE_CURVE('',#146,#151,#94,.T.);
#191=ORIENTED_EDGE('',*,*,#152,.T.);
#192=ORIENTED_EDGE('',*,*,#153,.F.);
#193=ORIENTED_EDGE('',*,*,#154,.F.);
#194=ORIENTED_EDGE('',*,*,#155,.F.);
#195=ORIENTED_EDGE('',*,*,#154,.T.);
#196=ORIENTED_EDGE('',*,*,#156,.F.);
#197=ORIENTED_EDGE('',*,*,#157,.F.);
#198=ORIENTED_EDGE('',*,*,#158,.T.);
#199=ORIENTED_EDGE('',*,*,#159,.T.);
#200=ORIENTED_EDGE('',*,*,#160,.T.);
#201=ORIENTED_EDGE('',*,*,#161,.F.);
#202=ORIENTED_EDGE('',*,*,#155,.T.);
#203=ORIENTED_EDGE('',*,*,#156,.T.);
#204=ORIENTED_EDGE('',*,*,#153,.T.);
#205=ORIENTED_EDGE('',*,*,#162,.F.);
#206=ORIENTED_EDGE('',*,*,#163,.T.);
#207=ORIENTED_EDGE('',*,*,#164,.T.);
#208=ORIENTED_EDGE('',*,*,#165,.T.);
#209=ORIENTED_EDGE('',*,*,#166,.F.);
#210=ORIENTED_EDGE('',*,*,#167,.T.);
#211=ORIENTED_EDGE('',*,*,#168,.T.);
#212=ORIENTED_EDGE('',*,*,#158,.F.);
#213=ORIENTED_EDGE('',*,*,#169,.T.);
#214=ORIENTED_EDGE('',*,*,#165,.F.);
#215=ORIENTED_EDGE('',*,*,#170,.F.);
#216=ORIENTED_EDGE('',*,*,#163,.F.);
#217=ORIENTED_EDGE('',*,*,#170,.T.);
#218=ORIENTED_EDGE('',*,*,#164,.F.);
#219=ORIENTED_EDGE('',*,*,#171,.T.);
#220=ORIENTED_EDGE('',*,*,#160,.F.);
#221=ORIENTED_EDGE('',*,*,#172,.F.);
#222=ORIENTED_EDGE('',*,*,#167,.F.);
#223=ORIENTED_EDGE('',*,*,#172,.T.);
#224=ORIENTED_EDGE('',*,*,#159,.F.);
#225=ORIENTED_EDGE('',*,*,#168,.F.);
#226=ORIENTED_EDGE('',*,*,#173,.T.);
#227=ORIENTED_EDGE('',*,*,#174,.T.);
#228=ORIENTED_EDGE('',*,*,#175,.T.);
#229=ORIENTED_EDGE('',*,*,#176,.T.);
#230=ORIENTED_EDGE('',*,*,#177,.T.);
#231=ORIENTED_EDGE('',*,*,#178,.T.);
#232=ORIENTED_EDGE('',*,*,#166,.T.);
#233=ORIENTED_EDGE('',*,*,#169,.F.);
#234=ORIENTED_EDGE('',*,*,#162,.T.);
#235=ORIENTED_EDGE('',*,*,#152,.F.);
#236=ORIENTED_EDGE('',*,*,#161,.T.);
#237=ORIENTED_EDGE('',*,*,#171,.F.);
#238=ORIENTED_EDGE('',*,*,#173,.F.);
#239=ORIENTED_EDGE('',*,*,#179,.T.);
#240=ORIENTED_EDGE('',*,*,#180,.F.);
#241=ORIENTED_EDGE('',*,*,#181,.F.);
#242=ORIENTED_EDGE('',*,*,#174,.F.);
#243=ORIENTED_EDGE('',*,*,#181,.T.);
#244=ORIENTED_EDGE('',*,*,#182,.F.);
#245=ORIENTED_EDGE('',*,*,#183,.F.);
#246=ORIENTED_EDGE('',*,*,#175,.F.);
#247=ORIENTED_EDGE('',*,*,#183,.T.);
#248=ORIENTED_EDGE('',*,*,#184,.F.);
#249=ORIENTED_EDGE('',*,*,#185,.F.);
#250=ORIENTED_EDGE('',*,*,#176,.F.);
#251=ORIENTED_EDGE('',*,*,#185,.T.);
#252=ORIENTED_EDGE('',*,*,#186,.F.);
#253=ORIENTED_EDGE('',*,*,#187,.F.);
#254=ORIENTED_EDGE('',*,*,#177,.F.);
#255=ORIENTED_EDGE('',*,*,#187,.T.);
#256=ORIENTED_EDGE('',*,*,#188,.F.);
#257=ORIENTED_EDGE('',*,*,#189,.F.);
#258=ORIENTED_EDGE('',*,*,#178,.F.);
#259=ORIENTED_EDGE('',*,*,#189,.T.);
#260=ORIENTED_EDGE('',*,*,#190,.F.);
#261=ORIENTED_EDGE('',*,*,#179,.F.);
#262=ORIENTED_EDGE('',*,*,#157,.T.);
#263=ORIENTED_EDGE('',*,*,#190,.T.);
#264=ORIENTED_EDGE('',*,*,#188,.T.);
#265=ORIENTED_EDGE('',*,*,#186,.T.);
#266=ORIENTED_EDGE('',*,*,#184,.T.);
#267=ORIENTED_EDGE('',*,*,#182,.T.);
#268=ORIENTED_EDGE('',*,*,#180,.T.);
#269=(
BOUNDED_SURFACE()
B_SPLINE_SURFACE(2,1,((#393,#394),(#395,#396),(#397,#398)),
 .UNSPECIFIED.,.F.,.F.,.F.)
B_SPLINE_SURFACE_WITH_KNOTS((3,3),(2,2),(0.0752683098590094,2.83601978848995),
(0.,0.6),.UNSPECIFIED.)
GEOMETRIC_REPRESENTATION_ITEM()
RATIONAL_B_SPLINE_SURFACE(((1.10074210992262,1.10074210992262),(2.89925789007738,
2.89925789007738),(1.10074210992262,1.10074210992262)))
REPRESENTATION_ITEM('')
SURFACE()
);
#270=(
BOUNDED_SURFACE()
B_SPLINE_SURFACE(2,1,((#436,#437),(#438,#439),(#440,#441)),
 .UNSPECIFIED.,.F.,.F.,.F.)
B_SPLINE_SURFACE_WITH_KNOTS((3,3),(2,2),(0.0752683098590094,2.83601978848995),
(0.,0.6),.UNSPECIFIED.)
GEOMETRIC_REPRESENTATION_ITEM()
RATIONAL_B_SPLINE_SURFACE(((1.10074210992262,1.10074210992262),(2.89925789007738,
2.89925789007738),(1.10074210992262,1.10074210992262)))
REPRESENTATION_ITEM('')
SURFACE()
);
#271=(
BOUNDED_SURFACE()
B_SPLINE_SURFACE(2,1,((#449,#450),(#451,#452),(#453,#454)),
 .UNSPECIFIED.,.F.,.F.,.F.)
B_SPLINE_SURFACE_WITH_KNOTS((3,3),(2,2),(0.0752683098590094,2.83601978848995),
(0.,0.6),.UNSPECIFIED.)
GEOMETRIC_REPRESENTATION_ITEM()
RATIONAL_B_SPLINE_SURFACE(((1.10074210992262,1.10074210992262),(2.89925789007738,
2.89925789007738),(1.10074210992262,1.10074210992262)))
REPRESENTATION_ITEM('')
SURFACE()
);
#272=ADVANCED_FACE('',(#37),#269,.T.);
#273=ADVANCED_FACE('',(#38),#25,.F.);
#274=ADVANCED_FACE('',(#39),#16,.T.);
#275=ADVANCED_FACE('',(#40),#270,.T.);
#276=ADVANCED_FACE('',(#41),#26,.F.);
#277=ADVANCED_FACE('',(#42),#271,.T.);
#278=ADVANCED_FACE('',(#43),#27,.F.);
#279=ADVANCED_FACE('',(#44),#28,.F.);
#280=ADVANCED_FACE('',(#45),#29,.T.);
#281=ADVANCED_FACE('',(#46),#30,.T.);
#282=ADVANCED_FACE('',(#47),#31,.T.);
#283=ADVANCED_FACE('',(#48),#32,.T.);
#284=ADVANCED_FACE('',(#49),#33,.T.);
#285=ADVANCED_FACE('',(#50),#34,.T.);
#286=ADVANCED_FACE('',(#51),#35,.T.);
#287=ADVANCED_FACE('',(#52,#15),#36,.F.);
#288=CLOSED_SHELL('',(#272,#273,#274,#275,#276,#277,#278,#279,#280,#281,
#282,#283,#284,#285,#286,#287));
#289=DERIVED_UNIT_ELEMENT(#291,1.);
#290=DERIVED_UNIT_ELEMENT(#506,-3.);
#291=(
MASS_UNIT()
NAMED_UNIT(*)
SI_UNIT(.KILO.,.GRAM.)
);
#292=DERIVED_UNIT((#289,#290));
#293=MEASURE_REPRESENTATION_ITEM('density measure',
POSITIVE_RATIO_MEASURE(7850.),#292);
#294=PROPERTY_DEFINITION_REPRESENTATION(#299,#296);
#295=PROPERTY_DEFINITION_REPRESENTATION(#300,#297);
#296=REPRESENTATION('material name',(#298),#503);
#297=REPRESENTATION('density',(#293),#503);
#298=DESCRIPTIVE_REPRESENTATION_ITEM('\X\C7elik','\X\C7elik');
#299=PROPERTY_DEFINITION('material property','material name',#513);
#300=PROPERTY_DEFINITION('material property','density of part',#513);
#301=AXIS2_PLACEMENT_3D('',#392,#323,#324);
#302=AXIS2_PLACEMENT_3D('',#411,#327,#328);
#303=AXIS2_PLACEMENT_3D('',#412,#329,#330);
#304=AXIS2_PLACEMENT_3D('',#413,#331,#332);
#305=AXIS2_PLACEMENT_3D('',#415,#333,#334);
#306=AXIS2_PLACEMENT_3D('',#419,#336,#337);
#307=AXIS2_PLACEMENT_3D('',#422,#339,#340);
#308=AXIS2_PLACEMENT_3D('',#424,#341,#342);
#309=AXIS2_PLACEMENT_3D('',#428,#344,#345);
#310=AXIS2_PLACEMENT_3D('',#432,#347,#348);
#311=AXIS2_PLACEMENT_3D('',#435,#350,#351);
#312=AXIS2_PLACEMENT_3D('',#448,#352,#353);
#313=AXIS2_PLACEMENT_3D('',#461,#354,#355);
#314=AXIS2_PLACEMENT_3D('',#462,#356,#357);
#315=AXIS2_PLACEMENT_3D('',#475,#364,#365);
#316=AXIS2_PLACEMENT_3D('',#476,#366,#367);
#317=AXIS2_PLACEMENT_3D('',#482,#371,#372);
#318=AXIS2_PLACEMENT_3D('',#486,#375,#376);
#319=AXIS2_PLACEMENT_3D('',#490,#379,#380);
#320=AXIS2_PLACEMENT_3D('',#494,#383,#384);
#321=AXIS2_PLACEMENT_3D('',#498,#387,#388);
#322=AXIS2_PLACEMENT_3D('',#500,#390,#391);
#323=DIRECTION('axis',(0.,0.,1.));
#324=DIRECTION('refdir',(1.,0.,0.));
#325=DIRECTION('',(2.18158824338843E-14,-0.320612990585688,-0.947210277746025));
#326=DIRECTION('',(-2.18158824338843E-14,0.320612990585688,0.947210277746025));
#327=DIRECTION('center_axis',(2.16493489801905E-14,-0.320612990585688,-0.947210277746025));
#328=DIRECTION('ref_axis',(-0.5,0.820308163253768,-0.277658994630517));
#329=DIRECTION('center_axis',(-2.16493489801905E-14,0.320612990585688,0.947210277746025));
#330=DIRECTION('ref_axis',(1.,3.93571140334916E-14,1.68120291926324E-15));
#331=DIRECTION('center_axis',(-1.4210854715202E-14,0.320612990585676,0.947210277746029));
#332=DIRECTION('ref_axis',(1.,3.93571140334916E-14,1.68120291926324E-15));
#333=DIRECTION('center_axis',(-1.24359553515002E-14,0.320612990585676,0.947210277746029));
#334=DIRECTION('ref_axis',(1.,3.93571140334916E-14,1.68120291926324E-15));
#335=DIRECTION('',(1.4210854715202E-14,-0.320612990585676,-0.947210277746029));
#336=DIRECTION('center_axis',(1.57772181044202E-30,0.320612990585676,0.947210277746029));
#337=DIRECTION('ref_axis',(1.,3.93571140334916E-14,1.68120291926324E-15));
#338=DIRECTION('',(0.,-0.320612990585676,-0.947210277746029));
#339=DIRECTION('center_axis',(1.78686565543689E-30,0.320612990585676,0.947210277746029));
#340=DIRECTION('ref_axis',(1.,3.93571140334916E-14,1.68120291926324E-15));
#341=DIRECTION('center_axis',(1.78686565543689E-30,0.320612990585676,0.947210277746029));
#342=DIRECTION('ref_axis',(1.,3.93571140334916E-14,1.68120291926324E-15));
#343=DIRECTION('',(-2.1538326677728E-14,0.320612990585664,0.947210277746033));
#344=DIRECTION('center_axis',(-2.17048601314218E-14,0.320612990585665,0.947210277746033));
#345=DIRECTION('ref_axis',(1.,3.93571140334916E-14,1.68120291926324E-15));
#346=DIRECTION('',(2.1538326677728E-14,-0.320612990585664,-0.947210277746033));
#347=DIRECTION('center_axis',(1.78686565543689E-30,0.320612990585676,0.947210277746029));
#348=DIRECTION('ref_axis',(1.,3.93571140334916E-14,1.68120291926324E-15));
#349=DIRECTION('',(0.,0.320612990585676,0.947210277746029));
#350=DIRECTION('center_axis',(1.57772181044202E-30,0.320612990585676,0.947210277746029));
#351=DIRECTION('ref_axis',(1.,3.93571140334916E-14,1.68120291926324E-15));
#352=DIRECTION('center_axis',(2.17048601314218E-14,-0.320612990585665,-0.947210277746033));
#353=DIRECTION('ref_axis',(-0.5,-0.820308163253782,0.277658994630476));
#354=DIRECTION('center_axis',(-1.57772181044202E-30,-0.320612990585676,
-0.947210277746029));
#355=DIRECTION('ref_axis',(1.,-5.05838107958065E-31,-1.49443431427476E-30));
#356=DIRECTION('center_axis',(-1.78686565543689E-30,-0.320612990585676,
-0.947210277746029));
#357=DIRECTION('ref_axis',(1.,-5.72892341564457E-31,-1.69253751378122E-30));
#358=DIRECTION('',(0.866025403784457,-0.473605138872981,0.160306495292838));
#359=DIRECTION('',(0.86602540378442,0.473605138873048,-0.160306495292838));
#360=DIRECTION('',(-3.67404474192194E-14,0.947210277746029,-0.320612990585676));
#361=DIRECTION('',(-0.866025403784457,0.473605138872981,-0.160306495292838));
#362=DIRECTION('',(-0.86602540378442,-0.473605138873048,0.160306495292838));
#363=DIRECTION('',(3.67404474192194E-14,-0.947210277746029,0.320612990585676));
#364=DIRECTION('center_axis',(-1.78686565543689E-30,-0.320612990585676,
-0.947210277746029));
#365=DIRECTION('ref_axis',(1.,-5.72892341564457E-31,-1.69253751378122E-30));
#366=DIRECTION('center_axis',(0.499999999999969,0.820308163253794,-0.277658994630496));
#367=DIRECTION('ref_axis',(-0.866025403784457,0.473605138872981,-0.160306495292838));
#368=DIRECTION('',(-1.4210854715202E-14,0.320612990585676,0.947210277746029));
#369=DIRECTION('',(-0.866025403784456,0.473605138872981,-0.160306495292838));
#370=DIRECTION('',(-1.4210854715202E-14,0.320612990585676,0.947210277746029));
#371=DIRECTION('center_axis',(-0.500000000000032,0.820308163253755,-0.277658994630498));
#372=DIRECTION('ref_axis',(-0.86602540378442,-0.473605138873048,0.160306495292838));
#373=DIRECTION('',(-0.86602540378442,-0.473605138873048,0.160306495292838));
#374=DIRECTION('',(-1.4210854715202E-14,0.320612990585676,0.947210277746029));
#375=DIRECTION('center_axis',(-1.,-3.93571140334916E-14,-1.68120291926324E-15));
#376=DIRECTION('ref_axis',(3.67404474192194E-14,-0.947210277746029,0.320612990585676));
#377=DIRECTION('',(3.67404474192194E-14,-0.947210277746029,0.320612990585676));
#378=DIRECTION('',(-1.4210854715202E-14,0.320612990585676,0.947210277746029));
#379=DIRECTION('center_axis',(-0.499999999999969,-0.820308163253795,0.277658994630496));
#380=DIRECTION('ref_axis',(0.866025403784457,-0.473605138872981,0.160306495292838));
#381=DIRECTION('',(0.866025403784457,-0.473605138872981,0.160306495292838));
#382=DIRECTION('',(-1.4210854715202E-14,0.320612990585676,0.947210277746029));
#383=DIRECTION('center_axis',(0.500000000000032,-0.820308163253755,0.277658994630497));
#384=DIRECTION('ref_axis',(0.86602540378442,0.473605138873048,-0.160306495292838));
#385=DIRECTION('',(0.86602540378442,0.473605138873048,-0.160306495292838));
#386=DIRECTION('',(-1.4210854715202E-14,0.320612990585676,0.947210277746029));
#387=DIRECTION('center_axis',(1.,3.93571140334916E-14,1.68120291926324E-15));
#388=DIRECTION('ref_axis',(-3.67404474192194E-14,0.947210277746029,-0.320612990585676));
#389=DIRECTION('',(-3.67404474192194E-14,0.947210277746029,-0.320612990585676));
#390=DIRECTION('center_axis',(1.24359553515002E-14,-0.320612990585676,-0.947210277746029));
#391=DIRECTION('ref_axis',(1.,3.87880582405066E-14,1.18329135783152E-30));
#392=CARTESIAN_POINT('',(0.,0.,0.));
#393=CARTESIAN_POINT('Ctrl Pts',(-156.440602604407,-85.0826287518329,-92.6344795971404));
#394=CARTESIAN_POINT('Ctrl Pts',(-156.440602604407,-83.1589508083188,-86.9512179306643));
#395=CARTESIAN_POINT('Ctrl Pts',(-143.618457820744,-93.062464308666,-89.9334542785104));
#396=CARTESIAN_POINT('Ctrl Pts',(-143.618457820744,-91.1387863651518,-84.2501926120343));
#397=CARTESIAN_POINT('Ctrl Pts',(-144.503273652048,-78.554436493789,-94.8441507674639));
#398=CARTESIAN_POINT('Ctrl Pts',(-144.503273652048,-76.6307585502749,-89.1608891009878));
#399=CARTESIAN_POINT('',(-156.440602604407,-85.0826287518329,-92.6344795971404));
#400=CARTESIAN_POINT('',(-144.503273652048,-78.5544364937891,-94.8441507674639));
#401=CARTESIAN_POINT('Ctrl Pts',(-156.440602604407,-85.0826287518329,-92.6344795971404));
#402=CARTESIAN_POINT('Ctrl Pts',(-143.618457820744,-93.0624643086659,-89.9334542785104));
#403=CARTESIAN_POINT('Ctrl Pts',(-144.503273652048,-78.554436493789,-94.8441507674639));
#404=CARTESIAN_POINT('',(-144.503273652048,-76.6307585502749,-89.1608891009878));
#405=CARTESIAN_POINT('',(-144.503273652048,-78.554436493789,-94.8441507674639));
#406=CARTESIAN_POINT('',(-156.440602604407,-83.1589508083188,-86.9512179306642));
#407=CARTESIAN_POINT('Ctrl Pts',(-156.440602604407,-83.1589508083188,-86.9512179306643));
#408=CARTESIAN_POINT('Ctrl Pts',(-143.618457820744,-91.1387863651518,-84.2501926120343));
#409=CARTESIAN_POINT('Ctrl Pts',(-144.503273652048,-76.6307585502749,-89.1608891009878));
#410=CARTESIAN_POINT('',(-156.440602604407,-85.0826287518329,-92.6344795971404));
#411=CARTESIAN_POINT('Origin',(-147.045197974486,-85.5168205222244,-86.1531230639301));
#412=CARTESIAN_POINT('Origin',(-158.786083591849,-66.2545318907201,-92.6730480571079));
#413=CARTESIAN_POINT('Origin',(-158.786083591849,-66.5751448813059,-93.6202583348543));
#414=CARTESIAN_POINT('',(-176.78608359185,-63.3690149754499,-84.148155557394));
#415=CARTESIAN_POINT('Origin',(-158.78608359185,-63.3690149754492,-84.148155557394));
#416=CARTESIAN_POINT('',(-176.786083591849,-66.2545318907208,-92.6730480571078));
#417=CARTESIAN_POINT('',(-176.786083591849,-66.5751448813066,-93.6202583348543));
#418=CARTESIAN_POINT('',(-175.414374519093,-72.7827241487641,-90.4633768867846));
#419=CARTESIAN_POINT('Origin',(-158.786083591849,-66.2545318907202,-92.673048057108));
#420=CARTESIAN_POINT('',(-175.414374519093,-74.7064020922782,-96.1466385532608));
#421=CARTESIAN_POINT('',(-175.414374519093,-74.7064020922782,-96.1466385532608));
#422=CARTESIAN_POINT('Origin',(-158.786083591849,-68.1782098342343,-98.3563097235845));
#423=CARTESIAN_POINT('',(-144.503273652048,-57.8019831746793,-101.868468679704));
#424=CARTESIAN_POINT('Origin',(-158.786083591849,-68.1782098342343,-98.3563097235845));
#425=CARTESIAN_POINT('',(-144.503273652048,-55.8783052311653,-96.1852070132279));
#426=CARTESIAN_POINT('',(-144.503273652048,-57.8019831746793,-101.868468679704));
#427=CARTESIAN_POINT('',(-156.440602604407,-49.3501129731215,-98.3948781835518));
#428=CARTESIAN_POINT('Origin',(-158.786083591849,-66.2545318907202,-92.6730480571079));
#429=CARTESIAN_POINT('',(-156.440602604407,-51.2737909166355,-104.078139850028));
#430=CARTESIAN_POINT('',(-156.440602604407,-51.2737909166355,-104.078139850028));
#431=CARTESIAN_POINT('',(-175.414374519093,-61.6500175761905,-100.565980893908));
#432=CARTESIAN_POINT('Origin',(-158.786083591849,-68.1782098342343,-98.3563097235845));
#433=CARTESIAN_POINT('',(-175.414374519093,-59.7263396326765,-94.882719227432));
#434=CARTESIAN_POINT('',(-175.414374519093,-61.6500175761905,-100.565980893908));
#435=CARTESIAN_POINT('Origin',(-158.786083591849,-66.2545318907202,-92.673048057108));
#436=CARTESIAN_POINT('Ctrl Pts',(-144.503273652048,-57.8019831746793,-101.868468679704));
#437=CARTESIAN_POINT('Ctrl Pts',(-144.503273652048,-55.8783052311653,-96.1852070132279));
#438=CARTESIAN_POINT('Ctrl Pts',(-143.618457820744,-43.2939553598022,-106.779165168657));
#439=CARTESIAN_POINT('Ctrl Pts',(-143.618457820744,-41.3702774162882,-101.095903502181));
#440=CARTESIAN_POINT('Ctrl Pts',(-156.440602604407,-51.2737909166355,-104.078139850028));
#441=CARTESIAN_POINT('Ctrl Pts',(-156.440602604407,-49.3501129731215,-98.3948781835518));
#442=CARTESIAN_POINT('Ctrl Pts',(-144.503273652048,-57.8019831746793,-101.868468679704));
#443=CARTESIAN_POINT('Ctrl Pts',(-143.618457820744,-43.2939553598022,-106.779165168657));
#444=CARTESIAN_POINT('Ctrl Pts',(-156.440602604407,-51.2737909166356,-104.078139850028));
#445=CARTESIAN_POINT('Ctrl Pts',(-144.503273652048,-55.8783052311653,-96.1852070132279));
#446=CARTESIAN_POINT('Ctrl Pts',(-143.618457820744,-41.3702774162882,-101.095903502181));
#447=CARTESIAN_POINT('Ctrl Pts',(-156.440602604407,-49.3501129731216,-98.3948781835518));
#448=CARTESIAN_POINT('Origin',(-147.045197974486,-46.9922432592158,-99.1929730502854));
#449=CARTESIAN_POINT('Ctrl Pts',(-175.414374519093,-61.6500175761905,-100.565980893908));
#450=CARTESIAN_POINT('Ctrl Pts',(-175.414374519093,-59.7263396326765,-94.882719227432));
#451=CARTESIAN_POINT('Ctrl Pts',(-189.12133513406,-68.1782098342343,-98.3563097235845));
#452=CARTESIAN_POINT('Ctrl Pts',(-189.12133513406,-66.2545318907203,-92.6730480571083));
#453=CARTESIAN_POINT('Ctrl Pts',(-175.414374519093,-74.7064020922782,-96.1466385532608));
#454=CARTESIAN_POINT('Ctrl Pts',(-175.414374519093,-72.7827241487641,-90.4633768867846));
#455=CARTESIAN_POINT('Ctrl Pts',(-175.414374519093,-61.6500175761905,-100.565980893908));
#456=CARTESIAN_POINT('Ctrl Pts',(-189.12133513406,-68.1782098342343,-98.3563097235845));
#457=CARTESIAN_POINT('Ctrl Pts',(-175.414374519093,-74.7064020922782,-96.1466385532608));
#458=CARTESIAN_POINT('Ctrl Pts',(-175.414374519093,-59.7263396326765,-94.882719227432));
#459=CARTESIAN_POINT('Ctrl Pts',(-189.12133513406,-66.2545318907203,-92.6730480571083));
#460=CARTESIAN_POINT('Ctrl Pts',(-175.414374519093,-72.7827241487641,-90.4633768867846));
#461=CARTESIAN_POINT('Origin',(-182.267854826576,-66.2545318907203,-92.6730480571083));
#462=CARTESIAN_POINT('Origin',(-158.786083591852,-66.5751448813004,-93.6202583348562));
#463=CARTESIAN_POINT('',(-168.339996238199,-71.7897351132304,-91.8552169198536));
#464=CARTESIAN_POINT('',(-158.770415740278,-77.0230717808026,-90.0838301864613));
#465=CARTESIAN_POINT('',(-158.770415740278,-77.0230717808026,-90.0838301864613));
#466=CARTESIAN_POINT('',(-149.200835242357,-71.7897351132297,-91.8552169198536));
#467=CARTESIAN_POINT('',(-149.200835242357,-71.7897351132297,-91.8552169198536));
#468=CARTESIAN_POINT('',(-149.200835242357,-61.3230617780844,-95.3979903866381));
#469=CARTESIAN_POINT('',(-149.200835242357,-61.3230617780844,-95.3979903866381));
#470=CARTESIAN_POINT('',(-158.770415740278,-56.0897251105122,-97.1693771200304));
#471=CARTESIAN_POINT('',(-158.770415740278,-56.0897251105122,-97.1693771200304));
#472=CARTESIAN_POINT('',(-168.339996238199,-61.3230617780852,-95.3979903866381));
#473=CARTESIAN_POINT('',(-168.339996238199,-61.3230617780852,-95.3979903866381));
#474=CARTESIAN_POINT('',(-168.339996238199,-71.7897351132304,-91.8552169198536));
#475=CARTESIAN_POINT('Origin',(-158.786083591852,-68.1782098342288,-98.3563097235863));
#476=CARTESIAN_POINT('Origin',(-158.770415740278,-77.0230717808026,-90.0838301864613));
#477=CARTESIAN_POINT('',(-168.339996238199,-68.5836052073736,-82.3831141423933));
#478=CARTESIAN_POINT('',(-168.339996238199,-71.7897351132304,-91.8552169198536));
#479=CARTESIAN_POINT('',(-158.770415740278,-73.8169418749459,-80.611727409001));
#480=CARTESIAN_POINT('',(-158.770415740278,-73.8169418749459,-80.611727409001));
#481=CARTESIAN_POINT('',(-158.770415740278,-77.0230717808026,-90.0838301864613));
#482=CARTESIAN_POINT('Origin',(-149.200835242357,-71.7897351132297,-91.8552169198536));
#483=CARTESIAN_POINT('',(-149.200835242357,-68.5836052073729,-82.3831141423933));
#484=CARTESIAN_POINT('',(-149.200835242357,-68.5836052073729,-82.3831141423933));
#485=CARTESIAN_POINT('',(-149.200835242357,-71.7897351132297,-91.8552169198536));
#486=CARTESIAN_POINT('Origin',(-149.200835242357,-61.3230617780844,-95.3979903866381));
#487=CARTESIAN_POINT('',(-149.200835242357,-58.1169318722277,-85.9258876091778));
#488=CARTESIAN_POINT('',(-149.200835242357,-58.1169318722277,-85.9258876091778));
#489=CARTESIAN_POINT('',(-149.200835242357,-61.3230617780844,-95.3979903866381));
#490=CARTESIAN_POINT('Origin',(-158.770415740278,-56.0897251105122,-97.1693771200304));
#491=CARTESIAN_POINT('',(-158.770415740279,-52.8835952046554,-87.6972743425701));
#492=CARTESIAN_POINT('',(-158.770415740279,-52.8835952046554,-87.6972743425701));
#493=CARTESIAN_POINT('',(-158.770415740278,-56.0897251105122,-97.1693771200304));
#494=CARTESIAN_POINT('Origin',(-168.339996238199,-61.3230617780852,-95.3979903866381));
#495=CARTESIAN_POINT('',(-168.3399962382,-58.1169318722284,-85.9258876091778));
#496=CARTESIAN_POINT('',(-168.3399962382,-58.1169318722284,-85.9258876091778));
#497=CARTESIAN_POINT('',(-168.339996238199,-61.3230617780852,-95.3979903866381));
#498=CARTESIAN_POINT('Origin',(-168.339996238199,-71.7897351132304,-91.8552169198536));
#499=CARTESIAN_POINT('',(-168.339996238199,-68.5836052073737,-82.3831141423933));
#500=CARTESIAN_POINT('Origin',(-158.78608359185,-63.3690149754492,-84.148155557394));
#501=UNCERTAINTY_MEASURE_WITH_UNIT(LENGTH_MEASURE(0.01),#505,
'DISTANCE_ACCURACY_VALUE',
'Maximum model space distance between geometric entities at asserted c
onnectivities');
#502=UNCERTAINTY_MEASURE_WITH_UNIT(LENGTH_MEASURE(0.01),#505,
'DISTANCE_ACCURACY_VALUE',
'Maximum model space distance between geometric entities at asserted c
onnectivities');
#503=(
GEOMETRIC_REPRESENTATION_CONTEXT(3)
GLOBAL_UNCERTAINTY_ASSIGNED_CONTEXT((#501))
GLOBAL_UNIT_ASSIGNED_CONTEXT((#505,#507,#508))
REPRESENTATION_CONTEXT('','3D')
);
#504=(
GEOMETRIC_REPRESENTATION_CONTEXT(3)
GLOBAL_UNCERTAINTY_ASSIGNED_CONTEXT((#502))
GLOBAL_UNIT_ASSIGNED_CONTEXT((#505,#507,#508))
REPRESENTATION_CONTEXT('','3D')
);
#505=(
LENGTH_UNIT()
NAMED_UNIT(*)
SI_UNIT(.MILLI.,.METRE.)
);
#506=(
LENGTH_UNIT()
NAMED_UNIT(*)
SI_UNIT($,.METRE.)
);
#507=(
NAMED_UNIT(*)
PLANE_ANGLE_UNIT()
SI_UNIT($,.RADIAN.)
);
#508=(
NAMED_UNIT(*)
SI_UNIT($,.STERADIAN.)
SOLID_ANGLE_UNIT()
);
#509=SHAPE_DEFINITION_REPRESENTATION(#510,#511);
#510=PRODUCT_DEFINITION_SHAPE('',$,#513);
#511=SHAPE_REPRESENTATION('',(#301),#503);
#512=PRODUCT_DEFINITION_CONTEXT('part definition',#517,'design');
#513=PRODUCT_DEFINITION('2026-07-09-16-39-11-834','ThumbScrewKnob',#514,
#512);
#514=PRODUCT_DEFINITION_FORMATION('',$,#519);
#515=PRODUCT_RELATED_PRODUCT_CATEGORY('ThumbScrewKnob','ThumbScrewKnob',
(#519));
#516=APPLICATION_PROTOCOL_DEFINITION('international standard',
'automotive_design',2009,#517);
#517=APPLICATION_CONTEXT(
'Core Data for Automotive Mechanical Design Process');
#518=PRODUCT_CONTEXT('part definition',#517,'mechanical');
#519=PRODUCT('2026-07-09-16-39-11-834','ThumbScrewKnob',$,(#518));
#520=PRESENTATION_STYLE_ASSIGNMENT((#522));
#521=PRESENTATION_STYLE_ASSIGNMENT((#523));
#522=SURFACE_STYLE_USAGE(.BOTH.,#524);
#523=SURFACE_STYLE_USAGE(.BOTH.,#525);
#524=SURFACE_SIDE_STYLE('',(#526));
#525=SURFACE_SIDE_STYLE('',(#527));
#526=SURFACE_STYLE_FILL_AREA(#528);
#527=SURFACE_STYLE_FILL_AREA(#529);
#528=FILL_AREA_STYLE('\X\C7elik - Saten',(#530));
#529=FILL_AREA_STYLE('Opaque(28,28,28)',(#531));
#530=FILL_AREA_STYLE_COLOUR('\X\C7elik - Saten',#532);
#531=FILL_AREA_STYLE_COLOUR('Opaque(28,28,28)',#533);
#532=COLOUR_RGB('\X\C7elik - Saten',0.627450980392157,0.627450980392157,
0.627450980392157);
#533=COLOUR_RGB('Opaque(28,28,28)',0.109803921568627,0.109803921568627,
0.109803921568627);
ENDSEC;
END-ISO-10303-21;
