ISO-10303-21;
HEADER;
/* Generated by software containing ST-Developer
 * from STEP Tools, Inc. (www.steptools.com) 
 */

FILE_DESCRIPTION(
/* description */ (''),
/* implementation_level */ '2;1');

FILE_NAME(
/* name */ 'BeltTensioner.step',
/* time_stamp */ '2026-06-24T14:52:32+03:00',
/* author */ (''),
/* organization */ (''),
/* preprocessor_version */ 'ST-DEVELOPER v20.1',
/* originating_system */ 'Autodesk Translation Framework v15.8.0.0',
/* authorisation */ '');

FILE_SCHEMA (('AUTOMOTIVE_DESIGN { 1 0 10303 214 3 1 1 }'));
ENDSEC;

DATA;
#10=MECHANICAL_DESIGN_GEOMETRIC_PRESENTATION_REPRESENTATION('',(#13),#871);
#11=SHAPE_REPRESENTATION_RELATIONSHIP('SRR','None',#878,#12);
#12=ADVANCED_BREP_SHAPE_REPRESENTATION('',(#14),#870);
#13=STYLED_ITEM('',(#888),#14);
#14=MANIFOLD_SOLID_BREP('G\X\F6vde1',#524);
#15=FACE_BOUND('',#70,.T.);
#16=FACE_BOUND('',#77,.T.);
#17=FACE_BOUND('',#87,.T.);
#18=FACE_BOUND('',#91,.T.);
#19=PLANE('',#544);
#20=PLANE('',#545);
#21=PLANE('',#548);
#22=PLANE('',#549);
#23=PLANE('',#550);
#24=PLANE('',#551);
#25=PLANE('',#552);
#26=PLANE('',#553);
#27=PLANE('',#559);
#28=PLANE('',#562);
#29=PLANE('',#563);
#30=PLANE('',#564);
#31=PLANE('',#565);
#32=PLANE('',#566);
#33=PLANE('',#567);
#34=PLANE('',#572);
#35=PLANE('',#573);
#36=PLANE('',#574);
#37=PLANE('',#575);
#38=PLANE('',#577);
#39=FACE_OUTER_BOUND('',#66,.T.);
#40=FACE_OUTER_BOUND('',#67,.T.);
#41=FACE_OUTER_BOUND('',#68,.T.);
#42=FACE_OUTER_BOUND('',#69,.T.);
#43=FACE_OUTER_BOUND('',#71,.T.);
#44=FACE_OUTER_BOUND('',#72,.T.);
#45=FACE_OUTER_BOUND('',#73,.T.);
#46=FACE_OUTER_BOUND('',#74,.T.);
#47=FACE_OUTER_BOUND('',#75,.T.);
#48=FACE_OUTER_BOUND('',#76,.T.);
#49=FACE_OUTER_BOUND('',#78,.T.);
#50=FACE_OUTER_BOUND('',#79,.T.);
#51=FACE_OUTER_BOUND('',#80,.T.);
#52=FACE_OUTER_BOUND('',#81,.T.);
#53=FACE_OUTER_BOUND('',#82,.T.);
#54=FACE_OUTER_BOUND('',#83,.T.);
#55=FACE_OUTER_BOUND('',#84,.T.);
#56=FACE_OUTER_BOUND('',#85,.T.);
#57=FACE_OUTER_BOUND('',#86,.T.);
#58=FACE_OUTER_BOUND('',#88,.T.);
#59=FACE_OUTER_BOUND('',#89,.T.);
#60=FACE_OUTER_BOUND('',#90,.T.);
#61=FACE_OUTER_BOUND('',#92,.T.);
#62=FACE_OUTER_BOUND('',#93,.T.);
#63=FACE_OUTER_BOUND('',#94,.T.);
#64=FACE_OUTER_BOUND('',#95,.T.);
#65=FACE_OUTER_BOUND('',#96,.T.);
#66=EDGE_LOOP('',(#346,#347,#348,#349));
#67=EDGE_LOOP('',(#350,#351,#352,#353));
#68=EDGE_LOOP('',(#354,#355,#356,#357));
#69=EDGE_LOOP('',(#358,#359,#360,#361,#362,#363,#364,#365));
#70=EDGE_LOOP('',(#366));
#71=EDGE_LOOP('',(#367,#368,#369,#370));
#72=EDGE_LOOP('',(#371,#372,#373));
#73=EDGE_LOOP('',(#374,#375,#376,#377));
#74=EDGE_LOOP('',(#378,#379,#380,#381));
#75=EDGE_LOOP('',(#382,#383,#384,#385));
#76=EDGE_LOOP('',(#386,#387,#388,#389,#390,#391,#392,#393,#394,#395,#396,
#397,#398,#399));
#77=EDGE_LOOP('',(#400,#401,#402,#403));
#78=EDGE_LOOP('',(#404,#405,#406,#407));
#79=EDGE_LOOP('',(#408,#409,#410,#411));
#80=EDGE_LOOP('',(#412,#413,#414,#415));
#81=EDGE_LOOP('',(#416,#417,#418,#419));
#82=EDGE_LOOP('',(#420,#421,#422,#423,#424,#425));
#83=EDGE_LOOP('',(#426,#427,#428,#429));
#84=EDGE_LOOP('',(#430,#431,#432,#433));
#85=EDGE_LOOP('',(#434,#435,#436,#437,#438,#439));
#86=EDGE_LOOP('',(#440,#441,#442,#443));
#87=EDGE_LOOP('',(#444,#445,#446,#447));
#88=EDGE_LOOP('',(#448,#449,#450,#451));
#89=EDGE_LOOP('',(#452,#453,#454,#455));
#90=EDGE_LOOP('',(#456,#457,#458,#459,#460,#461,#462,#463,#464,#465,#466,
#467));
#91=EDGE_LOOP('',(#468));
#92=EDGE_LOOP('',(#469,#470,#471,#472,#473));
#93=EDGE_LOOP('',(#474,#475,#476,#477));
#94=EDGE_LOOP('',(#478,#479,#480,#481));
#95=EDGE_LOOP('',(#482,#483,#484,#485));
#96=EDGE_LOOP('',(#486,#487,#488,#489));
#97=LINE('',#726,#155);
#98=LINE('',#733,#156);
#99=LINE('',#736,#157);
#100=LINE('',#739,#158);
#101=LINE('',#741,#159);
#102=LINE('',#742,#160);
#103=LINE('',#745,#161);
#104=LINE('',#747,#162);
#105=LINE('',#751,#163);
#106=LINE('',#754,#164);
#107=LINE('',#758,#165);
#108=LINE('',#760,#166);
#109=LINE('',#762,#167);
#110=LINE('',#763,#168);
#111=LINE('',#766,#169);
#112=LINE('',#767,#170);
#113=LINE('',#771,#171);
#114=LINE('',#773,#172);
#115=LINE('',#775,#173);
#116=LINE('',#776,#174);
#117=LINE('',#780,#175);
#118=LINE('',#781,#176);
#119=LINE('',#782,#177);
#120=LINE('',#785,#178);
#121=LINE('',#786,#179);
#122=LINE('',#789,#180);
#123=LINE('',#790,#181);
#124=LINE('',#792,#182);
#125=LINE('',#794,#183);
#126=LINE('',#797,#184);
#127=LINE('',#799,#185);
#128=LINE('',#801,#186);
#129=LINE('',#802,#187);
#130=LINE('',#805,#188);
#131=LINE('',#809,#189);
#132=LINE('',#813,#190);
#133=LINE('',#816,#191);
#134=LINE('',#819,#192);
#135=LINE('',#820,#193);
#136=LINE('',#824,#194);
#137=LINE('',#826,#195);
#138=LINE('',#828,#196);
#139=LINE('',#830,#197);
#140=LINE('',#831,#198);
#141=LINE('',#834,#199);
#142=LINE('',#840,#200);
#143=LINE('',#842,#201);
#144=LINE('',#843,#202);
#145=LINE('',#846,#203);
#146=LINE('',#850,#204);
#147=LINE('',#853,#205);
#148=LINE('',#854,#206);
#149=LINE('',#856,#207);
#150=LINE('',#858,#208);
#151=LINE('',#861,#209);
#152=LINE('',#862,#210);
#153=LINE('',#864,#211);
#154=LINE('',#866,#212);
#155=VECTOR('',#585,3.1);
#156=VECTOR('',#592,10.);
#157=VECTOR('',#595,10.);
#158=VECTOR('',#598,10.);
#159=VECTOR('',#599,10.);
#160=VECTOR('',#600,10.);
#161=VECTOR('',#603,10.);
#162=VECTOR('',#604,10.);
#163=VECTOR('',#607,10.);
#164=VECTOR('',#610,10.);
#165=VECTOR('',#613,10.);
#166=VECTOR('',#614,10.);
#167=VECTOR('',#615,10.);
#168=VECTOR('',#616,10.);
#169=VECTOR('',#619,10.);
#170=VECTOR('',#620,10.);
#171=VECTOR('',#623,10.);
#172=VECTOR('',#624,10.);
#173=VECTOR('',#625,10.);
#174=VECTOR('',#626,10.);
#175=VECTOR('',#629,10.);
#176=VECTOR('',#630,10.);
#177=VECTOR('',#631,10.);
#178=VECTOR('',#634,10.);
#179=VECTOR('',#635,10.);
#180=VECTOR('',#638,10.);
#181=VECTOR('',#639,10.);
#182=VECTOR('',#640,10.);
#183=VECTOR('',#641,10.);
#184=VECTOR('',#644,10.);
#185=VECTOR('',#645,10.);
#186=VECTOR('',#646,10.);
#187=VECTOR('',#647,10.);
#188=VECTOR('',#648,10.);
#189=VECTOR('',#651,10.);
#190=VECTOR('',#656,10.);
#191=VECTOR('',#659,10.);
#192=VECTOR('',#662,10.);
#193=VECTOR('',#663,10.);
#194=VECTOR('',#668,10.);
#195=VECTOR('',#671,10.);
#196=VECTOR('',#674,10.);
#197=VECTOR('',#677,10.);
#198=VECTOR('',#678,10.);
#199=VECTOR('',#683,10.);
#200=VECTOR('',#688,10.);
#201=VECTOR('',#689,10.);
#202=VECTOR('',#690,10.);
#203=VECTOR('',#691,10.);
#204=VECTOR('',#694,10.);
#205=VECTOR('',#699,10.);
#206=VECTOR('',#700,10.);
#207=VECTOR('',#703,10.);
#208=VECTOR('',#706,10.);
#209=VECTOR('',#711,10.);
#210=VECTOR('',#712,10.);
#211=VECTOR('',#715,10.);
#212=VECTOR('',#718,10.);
#213=CIRCLE('',#539,3.1);
#214=CIRCLE('',#540,3.1);
#215=CIRCLE('',#542,1.5);
#216=CIRCLE('',#543,1.5);
#217=CIRCLE('',#546,3.);
#218=CIRCLE('',#547,3.);
#219=CIRCLE('',#554,15.);
#220=CIRCLE('',#555,2.55);
#221=CIRCLE('',#556,2.55);
#222=CIRCLE('',#558,3.);
#223=CIRCLE('',#561,3.);
#224=CIRCLE('',#568,15.);
#225=CIRCLE('',#569,2.55);
#226=CIRCLE('',#570,2.55);
#227=VERTEX_POINT('',#723);
#228=VERTEX_POINT('',#725);
#229=VERTEX_POINT('',#729);
#230=VERTEX_POINT('',#730);
#231=VERTEX_POINT('',#732);
#232=VERTEX_POINT('',#734);
#233=VERTEX_POINT('',#738);
#234=VERTEX_POINT('',#740);
#235=VERTEX_POINT('',#744);
#236=VERTEX_POINT('',#746);
#237=VERTEX_POINT('',#748);
#238=VERTEX_POINT('',#750);
#239=VERTEX_POINT('',#752);
#240=VERTEX_POINT('',#756);
#241=VERTEX_POINT('',#757);
#242=VERTEX_POINT('',#759);
#243=VERTEX_POINT('',#761);
#244=VERTEX_POINT('',#765);
#245=VERTEX_POINT('',#769);
#246=VERTEX_POINT('',#770);
#247=VERTEX_POINT('',#772);
#248=VERTEX_POINT('',#774);
#249=VERTEX_POINT('',#778);
#250=VERTEX_POINT('',#779);
#251=VERTEX_POINT('',#784);
#252=VERTEX_POINT('',#788);
#253=VERTEX_POINT('',#791);
#254=VERTEX_POINT('',#793);
#255=VERTEX_POINT('',#795);
#256=VERTEX_POINT('',#798);
#257=VERTEX_POINT('',#800);
#258=VERTEX_POINT('',#803);
#259=VERTEX_POINT('',#804);
#260=VERTEX_POINT('',#806);
#261=VERTEX_POINT('',#808);
#262=VERTEX_POINT('',#812);
#263=VERTEX_POINT('',#814);
#264=VERTEX_POINT('',#818);
#265=VERTEX_POINT('',#822);
#266=VERTEX_POINT('',#836);
#267=VERTEX_POINT('',#837);
#268=VERTEX_POINT('',#839);
#269=VERTEX_POINT('',#841);
#270=VERTEX_POINT('',#844);
#271=VERTEX_POINT('',#845);
#272=VERTEX_POINT('',#847);
#273=VERTEX_POINT('',#849);
#274=EDGE_CURVE('',#227,#227,#213,.T.);
#275=EDGE_CURVE('',#227,#228,#97,.T.);
#276=EDGE_CURVE('',#228,#228,#214,.T.);
#277=EDGE_CURVE('',#229,#230,#215,.T.);
#278=EDGE_CURVE('',#229,#231,#98,.T.);
#279=EDGE_CURVE('',#232,#231,#216,.T.);
#280=EDGE_CURVE('',#232,#230,#99,.T.);
#281=EDGE_CURVE('',#230,#233,#100,.T.);
#282=EDGE_CURVE('',#234,#233,#101,.T.);
#283=EDGE_CURVE('',#229,#234,#102,.T.);
#284=EDGE_CURVE('',#235,#232,#103,.T.);
#285=EDGE_CURVE('',#236,#235,#104,.T.);
#286=EDGE_CURVE('',#237,#236,#217,.T.);
#287=EDGE_CURVE('',#237,#238,#105,.F.);
#288=EDGE_CURVE('',#239,#238,#218,.T.);
#289=EDGE_CURVE('',#233,#239,#106,.T.);
#290=EDGE_CURVE('',#240,#241,#107,.T.);
#291=EDGE_CURVE('',#242,#241,#108,.T.);
#292=EDGE_CURVE('',#243,#242,#109,.T.);
#293=EDGE_CURVE('',#240,#243,#110,.T.);
#294=EDGE_CURVE('',#243,#244,#111,.T.);
#295=EDGE_CURVE('',#244,#242,#112,.T.);
#296=EDGE_CURVE('',#245,#246,#113,.T.);
#297=EDGE_CURVE('',#247,#245,#114,.T.);
#298=EDGE_CURVE('',#248,#247,#115,.T.);
#299=EDGE_CURVE('',#246,#248,#116,.T.);
#300=EDGE_CURVE('',#249,#250,#117,.T.);
#301=EDGE_CURVE('',#246,#250,#118,.T.);
#302=EDGE_CURVE('',#249,#248,#119,.T.);
#303=EDGE_CURVE('',#249,#251,#120,.T.);
#304=EDGE_CURVE('',#251,#247,#121,.T.);
#305=EDGE_CURVE('',#234,#252,#122,.T.);
#306=EDGE_CURVE('',#252,#244,#123,.T.);
#307=EDGE_CURVE('',#241,#253,#124,.T.);
#308=EDGE_CURVE('',#254,#253,#125,.T.);
#309=EDGE_CURVE('',#255,#254,#219,.T.);
#310=EDGE_CURVE('',#255,#249,#126,.T.);
#311=EDGE_CURVE('',#251,#256,#127,.T.);
#312=EDGE_CURVE('',#256,#257,#128,.T.);
#313=EDGE_CURVE('',#257,#231,#129,.T.);
#314=EDGE_CURVE('',#258,#259,#130,.T.);
#315=EDGE_CURVE('',#259,#260,#220,.T.);
#316=EDGE_CURVE('',#260,#261,#131,.T.);
#317=EDGE_CURVE('',#261,#258,#221,.T.);
#318=EDGE_CURVE('',#236,#262,#132,.T.);
#319=EDGE_CURVE('',#262,#263,#222,.T.);
#320=EDGE_CURVE('',#263,#237,#133,.T.);
#321=EDGE_CURVE('',#264,#263,#134,.T.);
#322=EDGE_CURVE('',#238,#264,#135,.T.);
#323=EDGE_CURVE('',#264,#265,#223,.T.);
#324=EDGE_CURVE('',#265,#239,#136,.T.);
#325=EDGE_CURVE('',#252,#239,#137,.T.);
#326=EDGE_CURVE('',#265,#240,#138,.T.);
#327=EDGE_CURVE('',#256,#236,#139,.T.);
#328=EDGE_CURVE('',#257,#235,#140,.T.);
#329=EDGE_CURVE('',#262,#245,#141,.T.);
#330=EDGE_CURVE('',#266,#267,#224,.T.);
#331=EDGE_CURVE('',#266,#268,#142,.T.);
#332=EDGE_CURVE('',#268,#269,#143,.T.);
#333=EDGE_CURVE('',#267,#269,#144,.T.);
#334=EDGE_CURVE('',#270,#271,#145,.T.);
#335=EDGE_CURVE('',#271,#272,#225,.T.);
#336=EDGE_CURVE('',#272,#273,#146,.T.);
#337=EDGE_CURVE('',#273,#270,#226,.T.);
#338=EDGE_CURVE('',#267,#255,#147,.T.);
#339=EDGE_CURVE('',#254,#266,#148,.T.);
#340=EDGE_CURVE('',#253,#268,#149,.T.);
#341=EDGE_CURVE('',#269,#250,#150,.T.);
#342=EDGE_CURVE('',#272,#261,#151,.T.);
#343=EDGE_CURVE('',#273,#260,#152,.T.);
#344=EDGE_CURVE('',#270,#259,#153,.T.);
#345=EDGE_CURVE('',#271,#258,#154,.T.);
#346=ORIENTED_EDGE('',*,*,#274,.F.);
#347=ORIENTED_EDGE('',*,*,#275,.T.);
#348=ORIENTED_EDGE('',*,*,#276,.F.);
#349=ORIENTED_EDGE('',*,*,#275,.F.);
#350=ORIENTED_EDGE('',*,*,#277,.F.);
#351=ORIENTED_EDGE('',*,*,#278,.T.);
#352=ORIENTED_EDGE('',*,*,#279,.F.);
#353=ORIENTED_EDGE('',*,*,#280,.T.);
#354=ORIENTED_EDGE('',*,*,#277,.T.);
#355=ORIENTED_EDGE('',*,*,#281,.T.);
#356=ORIENTED_EDGE('',*,*,#282,.F.);
#357=ORIENTED_EDGE('',*,*,#283,.F.);
#358=ORIENTED_EDGE('',*,*,#280,.F.);
#359=ORIENTED_EDGE('',*,*,#284,.F.);
#360=ORIENTED_EDGE('',*,*,#285,.F.);
#361=ORIENTED_EDGE('',*,*,#286,.F.);
#362=ORIENTED_EDGE('',*,*,#287,.T.);
#363=ORIENTED_EDGE('',*,*,#288,.F.);
#364=ORIENTED_EDGE('',*,*,#289,.F.);
#365=ORIENTED_EDGE('',*,*,#281,.F.);
#366=ORIENTED_EDGE('',*,*,#274,.T.);
#367=ORIENTED_EDGE('',*,*,#290,.T.);
#368=ORIENTED_EDGE('',*,*,#291,.F.);
#369=ORIENTED_EDGE('',*,*,#292,.F.);
#370=ORIENTED_EDGE('',*,*,#293,.F.);
#371=ORIENTED_EDGE('',*,*,#294,.F.);
#372=ORIENTED_EDGE('',*,*,#292,.T.);
#373=ORIENTED_EDGE('',*,*,#295,.F.);
#374=ORIENTED_EDGE('',*,*,#296,.F.);
#375=ORIENTED_EDGE('',*,*,#297,.F.);
#376=ORIENTED_EDGE('',*,*,#298,.F.);
#377=ORIENTED_EDGE('',*,*,#299,.F.);
#378=ORIENTED_EDGE('',*,*,#300,.T.);
#379=ORIENTED_EDGE('',*,*,#301,.F.);
#380=ORIENTED_EDGE('',*,*,#299,.T.);
#381=ORIENTED_EDGE('',*,*,#302,.F.);
#382=ORIENTED_EDGE('',*,*,#303,.F.);
#383=ORIENTED_EDGE('',*,*,#302,.T.);
#384=ORIENTED_EDGE('',*,*,#298,.T.);
#385=ORIENTED_EDGE('',*,*,#304,.F.);
#386=ORIENTED_EDGE('',*,*,#278,.F.);
#387=ORIENTED_EDGE('',*,*,#283,.T.);
#388=ORIENTED_EDGE('',*,*,#305,.T.);
#389=ORIENTED_EDGE('',*,*,#306,.T.);
#390=ORIENTED_EDGE('',*,*,#295,.T.);
#391=ORIENTED_EDGE('',*,*,#291,.T.);
#392=ORIENTED_EDGE('',*,*,#307,.T.);
#393=ORIENTED_EDGE('',*,*,#308,.F.);
#394=ORIENTED_EDGE('',*,*,#309,.F.);
#395=ORIENTED_EDGE('',*,*,#310,.T.);
#396=ORIENTED_EDGE('',*,*,#303,.T.);
#397=ORIENTED_EDGE('',*,*,#311,.T.);
#398=ORIENTED_EDGE('',*,*,#312,.T.);
#399=ORIENTED_EDGE('',*,*,#313,.T.);
#400=ORIENTED_EDGE('',*,*,#314,.T.);
#401=ORIENTED_EDGE('',*,*,#315,.T.);
#402=ORIENTED_EDGE('',*,*,#316,.T.);
#403=ORIENTED_EDGE('',*,*,#317,.T.);
#404=ORIENTED_EDGE('',*,*,#286,.T.);
#405=ORIENTED_EDGE('',*,*,#318,.T.);
#406=ORIENTED_EDGE('',*,*,#319,.T.);
#407=ORIENTED_EDGE('',*,*,#320,.T.);
#408=ORIENTED_EDGE('',*,*,#320,.F.);
#409=ORIENTED_EDGE('',*,*,#321,.F.);
#410=ORIENTED_EDGE('',*,*,#322,.F.);
#411=ORIENTED_EDGE('',*,*,#287,.F.);
#412=ORIENTED_EDGE('',*,*,#288,.T.);
#413=ORIENTED_EDGE('',*,*,#322,.T.);
#414=ORIENTED_EDGE('',*,*,#323,.T.);
#415=ORIENTED_EDGE('',*,*,#324,.T.);
#416=ORIENTED_EDGE('',*,*,#282,.T.);
#417=ORIENTED_EDGE('',*,*,#289,.T.);
#418=ORIENTED_EDGE('',*,*,#325,.F.);
#419=ORIENTED_EDGE('',*,*,#305,.F.);
#420=ORIENTED_EDGE('',*,*,#294,.T.);
#421=ORIENTED_EDGE('',*,*,#306,.F.);
#422=ORIENTED_EDGE('',*,*,#325,.T.);
#423=ORIENTED_EDGE('',*,*,#324,.F.);
#424=ORIENTED_EDGE('',*,*,#326,.T.);
#425=ORIENTED_EDGE('',*,*,#293,.T.);
#426=ORIENTED_EDGE('',*,*,#327,.T.);
#427=ORIENTED_EDGE('',*,*,#285,.T.);
#428=ORIENTED_EDGE('',*,*,#328,.F.);
#429=ORIENTED_EDGE('',*,*,#312,.F.);
#430=ORIENTED_EDGE('',*,*,#279,.T.);
#431=ORIENTED_EDGE('',*,*,#313,.F.);
#432=ORIENTED_EDGE('',*,*,#328,.T.);
#433=ORIENTED_EDGE('',*,*,#284,.T.);
#434=ORIENTED_EDGE('',*,*,#297,.T.);
#435=ORIENTED_EDGE('',*,*,#329,.F.);
#436=ORIENTED_EDGE('',*,*,#318,.F.);
#437=ORIENTED_EDGE('',*,*,#327,.F.);
#438=ORIENTED_EDGE('',*,*,#311,.F.);
#439=ORIENTED_EDGE('',*,*,#304,.T.);
#440=ORIENTED_EDGE('',*,*,#330,.F.);
#441=ORIENTED_EDGE('',*,*,#331,.T.);
#442=ORIENTED_EDGE('',*,*,#332,.T.);
#443=ORIENTED_EDGE('',*,*,#333,.F.);
#444=ORIENTED_EDGE('',*,*,#334,.T.);
#445=ORIENTED_EDGE('',*,*,#335,.T.);
#446=ORIENTED_EDGE('',*,*,#336,.T.);
#447=ORIENTED_EDGE('',*,*,#337,.T.);
#448=ORIENTED_EDGE('',*,*,#330,.T.);
#449=ORIENTED_EDGE('',*,*,#338,.T.);
#450=ORIENTED_EDGE('',*,*,#309,.T.);
#451=ORIENTED_EDGE('',*,*,#339,.T.);
#452=ORIENTED_EDGE('',*,*,#339,.F.);
#453=ORIENTED_EDGE('',*,*,#308,.T.);
#454=ORIENTED_EDGE('',*,*,#340,.T.);
#455=ORIENTED_EDGE('',*,*,#331,.F.);
#456=ORIENTED_EDGE('',*,*,#340,.F.);
#457=ORIENTED_EDGE('',*,*,#307,.F.);
#458=ORIENTED_EDGE('',*,*,#290,.F.);
#459=ORIENTED_EDGE('',*,*,#326,.F.);
#460=ORIENTED_EDGE('',*,*,#323,.F.);
#461=ORIENTED_EDGE('',*,*,#321,.T.);
#462=ORIENTED_EDGE('',*,*,#319,.F.);
#463=ORIENTED_EDGE('',*,*,#329,.T.);
#464=ORIENTED_EDGE('',*,*,#296,.T.);
#465=ORIENTED_EDGE('',*,*,#301,.T.);
#466=ORIENTED_EDGE('',*,*,#341,.F.);
#467=ORIENTED_EDGE('',*,*,#332,.F.);
#468=ORIENTED_EDGE('',*,*,#276,.T.);
#469=ORIENTED_EDGE('',*,*,#338,.F.);
#470=ORIENTED_EDGE('',*,*,#333,.T.);
#471=ORIENTED_EDGE('',*,*,#341,.T.);
#472=ORIENTED_EDGE('',*,*,#300,.F.);
#473=ORIENTED_EDGE('',*,*,#310,.F.);
#474=ORIENTED_EDGE('',*,*,#336,.F.);
#475=ORIENTED_EDGE('',*,*,#342,.T.);
#476=ORIENTED_EDGE('',*,*,#316,.F.);
#477=ORIENTED_EDGE('',*,*,#343,.F.);
#478=ORIENTED_EDGE('',*,*,#337,.F.);
#479=ORIENTED_EDGE('',*,*,#343,.T.);
#480=ORIENTED_EDGE('',*,*,#315,.F.);
#481=ORIENTED_EDGE('',*,*,#344,.F.);
#482=ORIENTED_EDGE('',*,*,#334,.F.);
#483=ORIENTED_EDGE('',*,*,#344,.T.);
#484=ORIENTED_EDGE('',*,*,#314,.F.);
#485=ORIENTED_EDGE('',*,*,#345,.F.);
#486=ORIENTED_EDGE('',*,*,#335,.F.);
#487=ORIENTED_EDGE('',*,*,#345,.T.);
#488=ORIENTED_EDGE('',*,*,#317,.F.);
#489=ORIENTED_EDGE('',*,*,#342,.F.);
#490=CYLINDRICAL_SURFACE('',#538,3.1);
#491=CYLINDRICAL_SURFACE('',#541,1.5);
#492=CYLINDRICAL_SURFACE('',#557,3.);
#493=CYLINDRICAL_SURFACE('',#560,3.);
#494=CYLINDRICAL_SURFACE('',#571,15.);
#495=CYLINDRICAL_SURFACE('',#576,2.55);
#496=CYLINDRICAL_SURFACE('',#578,2.55);
#497=ADVANCED_FACE('',(#39),#490,.F.);
#498=ADVANCED_FACE('',(#40),#491,.F.);
#499=ADVANCED_FACE('',(#41),#19,.F.);
#500=ADVANCED_FACE('',(#42,#15),#20,.T.);
#501=ADVANCED_FACE('',(#43),#21,.T.);
#502=ADVANCED_FACE('',(#44),#22,.T.);
#503=ADVANCED_FACE('',(#45),#23,.T.);
#504=ADVANCED_FACE('',(#46),#24,.T.);
#505=ADVANCED_FACE('',(#47),#25,.T.);
#506=ADVANCED_FACE('',(#48,#16),#26,.F.);
#507=ADVANCED_FACE('',(#49),#492,.T.);
#508=ADVANCED_FACE('',(#50),#27,.T.);
#509=ADVANCED_FACE('',(#51),#493,.T.);
#510=ADVANCED_FACE('',(#52),#28,.T.);
#511=ADVANCED_FACE('',(#53),#29,.T.);
#512=ADVANCED_FACE('',(#54),#30,.T.);
#513=ADVANCED_FACE('',(#55),#31,.T.);
#514=ADVANCED_FACE('',(#56),#32,.F.);
#515=ADVANCED_FACE('',(#57,#17),#33,.F.);
#516=ADVANCED_FACE('',(#58),#494,.T.);
#517=ADVANCED_FACE('',(#59),#34,.F.);
#518=ADVANCED_FACE('',(#60,#18),#35,.F.);
#519=ADVANCED_FACE('',(#61),#36,.F.);
#520=ADVANCED_FACE('',(#62),#37,.F.);
#521=ADVANCED_FACE('',(#63),#495,.F.);
#522=ADVANCED_FACE('',(#64),#38,.F.);
#523=ADVANCED_FACE('',(#65),#496,.F.);
#524=CLOSED_SHELL('',(#497,#498,#499,#500,#501,#502,#503,#504,#505,#506,
#507,#508,#509,#510,#511,#512,#513,#514,#515,#516,#517,#518,#519,#520,#521,
#522,#523));
#525=DERIVED_UNIT_ELEMENT(#527,1.);
#526=DERIVED_UNIT_ELEMENT(#873,-3.);
#527=(
MASS_UNIT()
NAMED_UNIT(*)
SI_UNIT(.KILO.,.GRAM.)
);
#528=DERIVED_UNIT((#525,#526));
#529=MEASURE_REPRESENTATION_ITEM('density measure',
POSITIVE_RATIO_MEASURE(7850.),#528);
#530=PROPERTY_DEFINITION_REPRESENTATION(#535,#532);
#531=PROPERTY_DEFINITION_REPRESENTATION(#536,#533);
#532=REPRESENTATION('material name',(#534),#870);
#533=REPRESENTATION('density',(#529),#870);
#534=DESCRIPTIVE_REPRESENTATION_ITEM('\X\C7elik','\X\C7elik');
#535=PROPERTY_DEFINITION('material property','material name',#880);
#536=PROPERTY_DEFINITION('material property','density of part',#880);
#537=AXIS2_PLACEMENT_3D('',#721,#579,#580);
#538=AXIS2_PLACEMENT_3D('',#722,#581,#582);
#539=AXIS2_PLACEMENT_3D('',#724,#583,#584);
#540=AXIS2_PLACEMENT_3D('',#727,#586,#587);
#541=AXIS2_PLACEMENT_3D('',#728,#588,#589);
#542=AXIS2_PLACEMENT_3D('',#731,#590,#591);
#543=AXIS2_PLACEMENT_3D('',#735,#593,#594);
#544=AXIS2_PLACEMENT_3D('',#737,#596,#597);
#545=AXIS2_PLACEMENT_3D('',#743,#601,#602);
#546=AXIS2_PLACEMENT_3D('',#749,#605,#606);
#547=AXIS2_PLACEMENT_3D('',#753,#608,#609);
#548=AXIS2_PLACEMENT_3D('',#755,#611,#612);
#549=AXIS2_PLACEMENT_3D('',#764,#617,#618);
#550=AXIS2_PLACEMENT_3D('',#768,#621,#622);
#551=AXIS2_PLACEMENT_3D('',#777,#627,#628);
#552=AXIS2_PLACEMENT_3D('',#783,#632,#633);
#553=AXIS2_PLACEMENT_3D('',#787,#636,#637);
#554=AXIS2_PLACEMENT_3D('',#796,#642,#643);
#555=AXIS2_PLACEMENT_3D('',#807,#649,#650);
#556=AXIS2_PLACEMENT_3D('',#810,#652,#653);
#557=AXIS2_PLACEMENT_3D('',#811,#654,#655);
#558=AXIS2_PLACEMENT_3D('',#815,#657,#658);
#559=AXIS2_PLACEMENT_3D('',#817,#660,#661);
#560=AXIS2_PLACEMENT_3D('',#821,#664,#665);
#561=AXIS2_PLACEMENT_3D('',#823,#666,#667);
#562=AXIS2_PLACEMENT_3D('',#825,#669,#670);
#563=AXIS2_PLACEMENT_3D('',#827,#672,#673);
#564=AXIS2_PLACEMENT_3D('',#829,#675,#676);
#565=AXIS2_PLACEMENT_3D('',#832,#679,#680);
#566=AXIS2_PLACEMENT_3D('',#833,#681,#682);
#567=AXIS2_PLACEMENT_3D('',#835,#684,#685);
#568=AXIS2_PLACEMENT_3D('',#838,#686,#687);
#569=AXIS2_PLACEMENT_3D('',#848,#692,#693);
#570=AXIS2_PLACEMENT_3D('',#851,#695,#696);
#571=AXIS2_PLACEMENT_3D('',#852,#697,#698);
#572=AXIS2_PLACEMENT_3D('',#855,#701,#702);
#573=AXIS2_PLACEMENT_3D('',#857,#704,#705);
#574=AXIS2_PLACEMENT_3D('',#859,#707,#708);
#575=AXIS2_PLACEMENT_3D('',#860,#709,#710);
#576=AXIS2_PLACEMENT_3D('',#863,#713,#714);
#577=AXIS2_PLACEMENT_3D('',#865,#716,#717);
#578=AXIS2_PLACEMENT_3D('',#867,#719,#720);
#579=DIRECTION('axis',(0.,0.,1.));
#580=DIRECTION('refdir',(1.,0.,0.));
#581=DIRECTION('center_axis',(0.,0.,-1.));
#582=DIRECTION('ref_axis',(-1.,0.,0.));
#583=DIRECTION('center_axis',(0.,0.,-1.));
#584=DIRECTION('ref_axis',(-1.,0.,0.));
#585=DIRECTION('',(0.,0.,-1.));
#586=DIRECTION('center_axis',(0.,0.,1.));
#587=DIRECTION('ref_axis',(-1.,0.,0.));
#588=DIRECTION('center_axis',(-1.,0.,0.));
#589=DIRECTION('ref_axis',(0.,-0.707106781186549,-0.707106781186546));
#590=DIRECTION('center_axis',(1.,1.22464679914735E-16,-2.22044604925031E-16));
#591=DIRECTION('ref_axis',(0.,-0.707106781186549,-0.707106781186546));
#592=DIRECTION('',(1.,0.,0.));
#593=DIRECTION('center_axis',(-1.,-1.22464679914735E-16,2.22044604925031E-16));
#594=DIRECTION('ref_axis',(0.,-0.707106781186549,-0.707106781186546));
#595=DIRECTION('',(-1.,0.,0.));
#596=DIRECTION('center_axis',(-1.,-1.22464679914735E-16,2.22044604925031E-16));
#597=DIRECTION('ref_axis',(2.22044604925031E-16,0.,1.));
#598=DIRECTION('',(-1.22464679914735E-16,1.,3.1720657846433E-16));
#599=DIRECTION('',(-2.45886764806337E-16,0.682318244926163,-0.731055273314461));
#600=DIRECTION('',(2.22044604925031E-16,0.,1.));
#601=DIRECTION('center_axis',(0.,0.,1.));
#602=DIRECTION('ref_axis',(1.,0.,0.));
#603=DIRECTION('',(1.22464679914735E-16,-1.,-3.1720657846433E-16));
#604=DIRECTION('',(-1.,-1.22464679914735E-16,2.22044604925031E-16));
#605=DIRECTION('center_axis',(0.,0.,-1.));
#606=DIRECTION('ref_axis',(0.707106781186547,0.707106781186548,0.));
#607=DIRECTION('',(1.,0.,0.));
#608=DIRECTION('center_axis',(0.,0.,-1.));
#609=DIRECTION('ref_axis',(-0.707106781186547,0.707106781186548,0.));
#610=DIRECTION('',(-1.,-1.22464679914735E-16,2.22044604925031E-16));
#611=DIRECTION('center_axis',(-0.554700257073335,0.832050253772437,0.));
#612=DIRECTION('ref_axis',(-0.832050253772437,-0.554700257073335,0.));
#613=DIRECTION('',(-0.832050253772437,-0.554700257073335,0.));
#614=DIRECTION('',(0.,0.,-1.));
#615=DIRECTION('',(-0.832050253772437,-0.554700257073335,0.));
#616=DIRECTION('',(2.22044604925031E-16,1.48029760071857E-16,1.));
#617=DIRECTION('center_axis',(0.,0.,1.));
#618=DIRECTION('ref_axis',(1.,0.,0.));
#619=DIRECTION('',(1.22464679914735E-16,-1.,0.));
#620=DIRECTION('',(-1.,0.,0.));
#621=DIRECTION('center_axis',(0.554700167422524,0.832050313539646,0.));
#622=DIRECTION('ref_axis',(-0.832050313539646,0.554700167422524,0.));
#623=DIRECTION('',(0.832050313539646,-0.554700167422524,0.));
#624=DIRECTION('',(-2.22044604925031E-16,1.48029725514086E-16,-1.));
#625=DIRECTION('',(-0.832050313539646,0.554700167422524,0.));
#626=DIRECTION('',(0.,0.,1.));
#627=DIRECTION('center_axis',(0.,-1.,0.));
#628=DIRECTION('ref_axis',(1.,0.,0.));
#629=DIRECTION('',(0.,0.,-1.));
#630=DIRECTION('',(-1.,0.,0.));
#631=DIRECTION('',(1.,0.,0.));
#632=DIRECTION('center_axis',(0.,0.,1.));
#633=DIRECTION('ref_axis',(1.,0.,0.));
#634=DIRECTION('',(-1.,0.,0.));
#635=DIRECTION('',(-1.22464679914735E-16,1.,0.));
#636=DIRECTION('center_axis',(0.,-1.,0.));
#637=DIRECTION('ref_axis',(0.,0.,1.));
#638=DIRECTION('',(-1.,0.,9.08324459183157E-17));
#639=DIRECTION('',(0.,0.,-1.));
#640=DIRECTION('',(-1.,0.,0.));
#641=DIRECTION('',(0.,0.,-1.));
#642=DIRECTION('center_axis',(0.,-1.,0.));
#643=DIRECTION('ref_axis',(-0.707106781186547,0.,0.707106781186547));
#644=DIRECTION('',(0.,0.,-1.));
#645=DIRECTION('',(0.,0.,1.));
#646=DIRECTION('',(-1.,0.,9.08324459183157E-17));
#647=DIRECTION('',(-2.22044604925031E-16,0.,-1.));
#648=DIRECTION('',(-2.27738068167324E-16,0.,-1.));
#649=DIRECTION('center_axis',(0.,-1.,0.));
#650=DIRECTION('ref_axis',(1.,0.,0.));
#651=DIRECTION('',(0.,0.,1.));
#652=DIRECTION('center_axis',(0.,-1.,0.));
#653=DIRECTION('ref_axis',(1.,0.,0.));
#654=DIRECTION('center_axis',(0.,0.,1.));
#655=DIRECTION('ref_axis',(0.707106781186547,0.707106781186548,0.));
#656=DIRECTION('',(0.,0.,-1.));
#657=DIRECTION('center_axis',(0.,0.,1.));
#658=DIRECTION('ref_axis',(0.707106781186547,0.707106781186548,0.));
#659=DIRECTION('',(0.,0.,1.));
#660=DIRECTION('center_axis',(0.,1.,0.));
#661=DIRECTION('ref_axis',(-1.,0.,0.));
#662=DIRECTION('',(1.,0.,0.));
#663=DIRECTION('',(0.,0.,-1.));
#664=DIRECTION('center_axis',(0.,0.,1.));
#665=DIRECTION('ref_axis',(-0.707106781186547,0.707106781186548,0.));
#666=DIRECTION('center_axis',(0.,0.,1.));
#667=DIRECTION('ref_axis',(-0.707106781186547,0.707106781186548,0.));
#668=DIRECTION('',(0.,0.,1.));
#669=DIRECTION('center_axis',(6.19766350813358E-17,0.731055273314461,0.682318244926163));
#670=DIRECTION('ref_axis',(-2.45886764806337E-16,0.682318244926163,-0.731055273314461));
#671=DIRECTION('',(-2.45886764806337E-16,0.682318244926163,-0.731055273314461));
#672=DIRECTION('center_axis',(-1.,-1.22464679914735E-16,2.22044604925031E-16));
#673=DIRECTION('ref_axis',(-2.22044604925031E-16,0.,-1.));
#674=DIRECTION('',(0.,-1.,0.));
#675=DIRECTION('center_axis',(6.19766350813358E-17,0.731055273314461,0.682318244926163));
#676=DIRECTION('ref_axis',(-2.45886764806337E-16,0.682318244926163,-0.731055273314461));
#677=DIRECTION('',(-2.45886764806337E-16,0.682318244926163,-0.731055273314461));
#678=DIRECTION('',(-2.45886764806337E-16,0.682318244926163,-0.731055273314461));
#679=DIRECTION('center_axis',(-1.,-1.22464679914735E-16,2.22044604925031E-16));
#680=DIRECTION('ref_axis',(-2.22044604925031E-16,0.,-1.));
#681=DIRECTION('center_axis',(-1.,-1.22464679914735E-16,2.22044604925031E-16));
#682=DIRECTION('ref_axis',(2.22044604925031E-16,0.,1.));
#683=DIRECTION('',(0.,-1.,0.));
#684=DIRECTION('center_axis',(0.,1.,0.));
#685=DIRECTION('ref_axis',(0.,0.,-1.));
#686=DIRECTION('center_axis',(0.,1.,0.));
#687=DIRECTION('ref_axis',(0.707106781186547,0.,0.707106781186547));
#688=DIRECTION('',(0.,0.,-1.));
#689=DIRECTION('',(1.,0.,0.));
#690=DIRECTION('',(0.,0.,-1.));
#691=DIRECTION('',(2.27738068167324E-16,0.,1.));
#692=DIRECTION('center_axis',(0.,1.,0.));
#693=DIRECTION('ref_axis',(1.,0.,0.));
#694=DIRECTION('',(0.,0.,-1.));
#695=DIRECTION('center_axis',(0.,1.,0.));
#696=DIRECTION('ref_axis',(1.,0.,0.));
#697=DIRECTION('center_axis',(0.,-1.,0.));
#698=DIRECTION('ref_axis',(-0.707106781186547,0.,0.707106781186547));
#699=DIRECTION('',(0.,1.,0.));
#700=DIRECTION('',(0.,-1.,0.));
#701=DIRECTION('center_axis',(1.,0.,0.));
#702=DIRECTION('ref_axis',(0.,0.,-1.));
#703=DIRECTION('',(0.,-1.,0.));
#704=DIRECTION('center_axis',(0.,0.,1.));
#705=DIRECTION('ref_axis',(1.,0.,0.));
#706=DIRECTION('',(0.,1.,0.));
#707=DIRECTION('center_axis',(-1.,0.,0.));
#708=DIRECTION('ref_axis',(0.,0.,1.));
#709=DIRECTION('center_axis',(1.,0.,0.));
#710=DIRECTION('ref_axis',(0.,0.,-1.));
#711=DIRECTION('',(0.,1.,0.));
#712=DIRECTION('',(0.,1.,0.));
#713=DIRECTION('center_axis',(0.,1.,0.));
#714=DIRECTION('ref_axis',(1.,0.,0.));
#715=DIRECTION('',(0.,1.,0.));
#716=DIRECTION('center_axis',(-1.,0.,2.27738068167324E-16));
#717=DIRECTION('ref_axis',(2.27738068167324E-16,0.,1.));
#718=DIRECTION('',(0.,1.,0.));
#719=DIRECTION('center_axis',(0.,1.,0.));
#720=DIRECTION('ref_axis',(1.,0.,0.));
#721=CARTESIAN_POINT('',(0.,0.,0.));
#722=CARTESIAN_POINT('Origin',(-23.5000003501773,1.50000002235174,26.1));
#723=CARTESIAN_POINT('',(-20.4000003501773,1.50000002235174,26.1));
#724=CARTESIAN_POINT('Origin',(-23.5000003501773,1.50000002235174,26.1));
#725=CARTESIAN_POINT('',(-20.4000003501773,1.50000002235174,22.1));
#726=CARTESIAN_POINT('',(-20.4000003501773,1.50000002235174,26.1));
#727=CARTESIAN_POINT('Origin',(-23.5000003501773,1.50000002235174,22.1));
#728=CARTESIAN_POINT('Origin',(-23.5000589091387,-2.5,27.6));
#729=CARTESIAN_POINT('',(-29.0000003501773,-4.,27.6));
#730=CARTESIAN_POINT('',(-29.0000003501773,-2.5,26.0999998882413));
#731=CARTESIAN_POINT('Origin',(-29.0000003501773,-2.5,27.6));
#732=CARTESIAN_POINT('',(-18.0000003501773,-4.,27.6));
#733=CARTESIAN_POINT('',(-23.5000589091387,-4.,27.6));
#734=CARTESIAN_POINT('',(-18.0000003501773,-2.5,26.0999998882413));
#735=CARTESIAN_POINT('Origin',(-18.0000003501773,-2.5,27.6));
#736=CARTESIAN_POINT('',(-23.5000589091387,-2.5,26.1));
#737=CARTESIAN_POINT('Origin',(-29.0000003501773,-0.500000059604645,29.8499999441206));
#738=CARTESIAN_POINT('',(-29.0000003501773,2.99999994039536,26.0999998882413));
#739=CARTESIAN_POINT('',(-29.0000003501773,-4.00000005960464,26.0999998882413));
#740=CARTESIAN_POINT('',(-29.0000003501773,-4.00000005960465,33.6));
#741=CARTESIAN_POINT('',(-29.0000003501773,-4.00000005960465,33.6));
#742=CARTESIAN_POINT('',(-29.0000003501773,-4.,43.4749999720603));
#743=CARTESIAN_POINT('Origin',(-23.5000003501773,-0.500000059604644,26.1));
#744=CARTESIAN_POINT('',(-18.0000003501773,2.99999994039536,26.0999998882413));
#745=CARTESIAN_POINT('',(-18.0000003501773,-4.00000005960464,26.0999998882413));
#746=CARTESIAN_POINT('',(-16.0000003501773,2.99999994039536,26.0999998882413));
#747=CARTESIAN_POINT('',(-16.0000003501773,2.99999994039536,26.0999998882413));
#748=CARTESIAN_POINT('',(-19.0000002384186,5.99999994039536,26.1));
#749=CARTESIAN_POINT('Origin',(-19.0000002384186,2.99999994039536,26.1));
#750=CARTESIAN_POINT('',(-28.000000461936,5.99999994039536,26.1));
#751=CARTESIAN_POINT('',(-19.7500002942979,5.99999994039536,26.1));
#752=CARTESIAN_POINT('',(-31.0000003501773,2.99999994039536,26.0999998882413));
#753=CARTESIAN_POINT('Origin',(-28.000000461936,2.99999994039536,26.1));
#754=CARTESIAN_POINT('',(-29.0000003501773,2.99999994039536,26.0999998882413));
#755=CARTESIAN_POINT('Origin',(-31.000000461936,1.,22.1));
#756=CARTESIAN_POINT('',(-31.000000461936,1.,22.1));
#757=CARTESIAN_POINT('',(-38.4999991394579,-3.99999991059303,22.1));
#758=CARTESIAN_POINT('',(-31.000000461936,1.,22.1));
#759=CARTESIAN_POINT('',(-38.4999991394579,-3.99999991059303,26.1));
#760=CARTESIAN_POINT('',(-38.4999992735684,-4.,39.6));
#761=CARTESIAN_POINT('',(-31.000000461936,1.,26.1));
#762=CARTESIAN_POINT('',(-31.000000461936,1.,26.1));
#763=CARTESIAN_POINT('',(-31.0000003501773,1.00000007450581,25.9749999720603));
#764=CARTESIAN_POINT('Origin',(-34.749999800697,-1.49999995529652,26.1));
#765=CARTESIAN_POINT('',(-31.000000461936,-3.99999991059303,26.1));
#766=CARTESIAN_POINT('',(-31.0000003501773,-1.00000000745058,26.1));
#767=CARTESIAN_POINT('',(-29.1250586343985,-4.,26.1));
#768=CARTESIAN_POINT('Origin',(-8.4999998100102,-3.99999991059303,22.1));
#769=CARTESIAN_POINT('',(-16.0000002384186,1.,22.1));
#770=CARTESIAN_POINT('',(-8.49999981001019,-3.99999991059303,22.1));
#771=CARTESIAN_POINT('',(-16.0000002384186,1.,22.1));
#772=CARTESIAN_POINT('',(-16.0000002384186,1.,26.1));
#773=CARTESIAN_POINT('',(-16.0000003501773,1.00000007450581,25.9749999720603));
#774=CARTESIAN_POINT('',(-8.49999981001019,-3.99999991059303,26.1));
#775=CARTESIAN_POINT('',(-16.0000002384186,1.,26.1));
#776=CARTESIAN_POINT('',(-8.49999981001019,-3.99999991059303,22.1));
#777=CARTESIAN_POINT('Origin',(-16.0000002384186,-3.99999991059303,22.1));
#778=CARTESIAN_POINT('',(-8.50011746810002,-3.99999991059303,26.1));
#779=CARTESIAN_POINT('',(-8.50011746810002,-4.,22.1));
#780=CARTESIAN_POINT('',(-8.50011746810002,-4.,57.1));
#781=CARTESIAN_POINT('',(-8.49999981001019,-3.99999991059303,22.1));
#782=CARTESIAN_POINT('',(-8.49999981001019,-3.99999991059303,26.1));
#783=CARTESIAN_POINT('Origin',(-12.2500000242144,-1.49999995529652,26.1));
#784=CARTESIAN_POINT('',(-16.0000002384186,-3.99999991059303,26.1));
#785=CARTESIAN_POINT('',(-17.8750587461572,-4.,26.1));
#786=CARTESIAN_POINT('',(-16.0000003501773,-1.00000000745058,26.1));
#787=CARTESIAN_POINT('Origin',(-23.5001174681,-4.,57.1));
#788=CARTESIAN_POINT('',(-31.0000003501773,-4.00000005960465,33.6));
#789=CARTESIAN_POINT('',(-26.2500589091387,-4.,33.5999999361379));
#790=CARTESIAN_POINT('',(-31.000000461936,-4.,39.6));
#791=CARTESIAN_POINT('',(-38.5001174681,-4.,22.1));
#792=CARTESIAN_POINT('',(-43.4083662217422,-4.,22.1));
#793=CARTESIAN_POINT('',(-38.5001174681,-4.,82.1));
#794=CARTESIAN_POINT('',(-38.5001174681,-4.,57.1));
#795=CARTESIAN_POINT('',(-8.50011746810002,-4.,82.1));
#796=CARTESIAN_POINT('Origin',(-23.5001174681,-4.,82.1));
#797=CARTESIAN_POINT('',(-8.50011746810002,-4.,57.1));
#798=CARTESIAN_POINT('',(-16.0000003501773,-4.00000005960465,33.6));
#799=CARTESIAN_POINT('',(-16.0000002384186,-4.,39.6));
#800=CARTESIAN_POINT('',(-18.0000003501773,-4.00000005960465,33.6));
#801=CARTESIAN_POINT('',(-19.7500589091387,-4.,33.5999999361379));
#802=CARTESIAN_POINT('',(-18.0000003501773,-4.,43.4749999720603));
#803=CARTESIAN_POINT('',(-26.0499988824129,-4.,79.5));
#804=CARTESIAN_POINT('',(-26.050000372529,-4.,60.000001013279));
#805=CARTESIAN_POINT('',(-26.0499988824129,-4.,58.5500005066395));
#806=CARTESIAN_POINT('',(-20.950000372529,-4.,60.000001013279));
#807=CARTESIAN_POINT('Origin',(-23.500000372529,-4.,60.0000010281801));
#808=CARTESIAN_POINT('',(-20.9499988824129,-4.,79.5));
#809=CARTESIAN_POINT('',(-20.9499988824129,-4.,68.3));
#810=CARTESIAN_POINT('Origin',(-23.4999988824129,-4.,79.5));
#811=CARTESIAN_POINT('Origin',(-19.0000002384186,2.99999994039536,22.1));
#812=CARTESIAN_POINT('',(-16.0000002384186,2.99999994039536,22.1));
#813=CARTESIAN_POINT('',(-16.0000002384186,2.99999994039536,22.1));
#814=CARTESIAN_POINT('',(-19.0000002384186,5.99999994039536,22.1));
#815=CARTESIAN_POINT('Origin',(-19.0000002384186,2.99999994039536,22.1));
#816=CARTESIAN_POINT('',(-19.0000002384186,5.99999994039536,22.1));
#817=CARTESIAN_POINT('Origin',(-16.0000002384186,5.99999994039536,22.1));
#818=CARTESIAN_POINT('',(-28.000000461936,5.99999994039536,22.1));
#819=CARTESIAN_POINT('',(-19.7500002942979,5.99999994039536,22.1));
#820=CARTESIAN_POINT('',(-28.000000461936,5.99999994039536,22.1));
#821=CARTESIAN_POINT('Origin',(-28.000000461936,2.99999994039536,22.1));
#822=CARTESIAN_POINT('',(-31.000000461936,2.99999994039536,22.1));
#823=CARTESIAN_POINT('Origin',(-28.000000461936,2.99999994039536,22.1));
#824=CARTESIAN_POINT('',(-31.000000461936,2.99999994039536,22.1));
#825=CARTESIAN_POINT('Origin',(-29.0000003501773,-4.00000005960465,33.6));
#826=CARTESIAN_POINT('',(-31.0000003501773,-4.00000005960465,33.6));
#827=CARTESIAN_POINT('Origin',(-31.0000003501773,-0.500000059604646,29.8499999441206));
#828=CARTESIAN_POINT('',(-31.000000461936,2.99999994039536,22.1));
#829=CARTESIAN_POINT('Origin',(-16.0000003501773,-4.00000005960465,33.6));
#830=CARTESIAN_POINT('',(-16.0000003501773,-4.00000005960465,33.6));
#831=CARTESIAN_POINT('',(-18.0000003501773,-4.00000005960465,33.6));
#832=CARTESIAN_POINT('Origin',(-18.0000003501773,-0.500000059604646,29.8499999441206));
#833=CARTESIAN_POINT('Origin',(-16.0000003501773,-0.500000059604645,29.8499999441206));
#834=CARTESIAN_POINT('',(-16.0000002384186,2.99999994039536,22.1));
#835=CARTESIAN_POINT('Origin',(-23.5001174681,-8.,57.1));
#836=CARTESIAN_POINT('',(-38.5001174681,-8.,82.1));
#837=CARTESIAN_POINT('',(-8.50011746810002,-8.,82.1));
#838=CARTESIAN_POINT('Origin',(-23.5001174681,-8.,82.1));
#839=CARTESIAN_POINT('',(-38.5001174681,-8.,22.1));
#840=CARTESIAN_POINT('',(-38.5001174681,-8.,57.1));
#841=CARTESIAN_POINT('',(-8.50011746810002,-8.,22.1));
#842=CARTESIAN_POINT('',(-43.4083662217422,-8.,22.1));
#843=CARTESIAN_POINT('',(-8.50011746810002,-8.,57.1));
#844=CARTESIAN_POINT('',(-26.050000372529,-8.,60.000001013279));
#845=CARTESIAN_POINT('',(-26.0499988824129,-8.,79.5));
#846=CARTESIAN_POINT('',(-26.0499988824129,-8.,58.5500005066395));
#847=CARTESIAN_POINT('',(-20.9499988824129,-8.,79.5));
#848=CARTESIAN_POINT('Origin',(-23.4999988824129,-8.,79.5));
#849=CARTESIAN_POINT('',(-20.950000372529,-8.,60.000001013279));
#850=CARTESIAN_POINT('',(-20.9499988824129,-8.,68.3));
#851=CARTESIAN_POINT('Origin',(-23.500000372529,-8.,60.0000010281801));
#852=CARTESIAN_POINT('Origin',(-23.5001174681,-6.,82.1));
#853=CARTESIAN_POINT('',(-8.50011746810002,-6.,82.1));
#854=CARTESIAN_POINT('',(-38.5001174681,-6.,82.1));
#855=CARTESIAN_POINT('Origin',(-38.5001174681,-6.,57.1));
#856=CARTESIAN_POINT('',(-38.5001174681,-81.3483798409978,22.1));
#857=CARTESIAN_POINT('Origin',(-63.3166149753844,-156.696759681996,22.1));
#858=CARTESIAN_POINT('',(-8.50011746810002,-81.3483798409978,22.1));
#859=CARTESIAN_POINT('Origin',(-8.50011746810002,-6.,57.1));
#860=CARTESIAN_POINT('Origin',(-20.9499988824129,-16.5,79.5));
#861=CARTESIAN_POINT('',(-20.9499988824129,-16.5,79.5));
#862=CARTESIAN_POINT('',(-20.950000372529,-16.5,60.000001013279));
#863=CARTESIAN_POINT('Origin',(-23.500000372529,-16.5,60.0000010281801));
#864=CARTESIAN_POINT('',(-26.050000372529,-16.5,60.000001013279));
#865=CARTESIAN_POINT('Origin',(-26.0499988824129,-16.5,60.000001013279));
#866=CARTESIAN_POINT('',(-26.0499988824129,-16.5,79.5));
#867=CARTESIAN_POINT('Origin',(-23.4999988824129,-16.5,79.5));
#868=UNCERTAINTY_MEASURE_WITH_UNIT(LENGTH_MEASURE(0.01),#872,
'DISTANCE_ACCURACY_VALUE',
'Maximum model space distance between geometric entities at asserted c
onnectivities');
#869=UNCERTAINTY_MEASURE_WITH_UNIT(LENGTH_MEASURE(0.01),#872,
'DISTANCE_ACCURACY_VALUE',
'Maximum model space distance between geometric entities at asserted c
onnectivities');
#870=(
GEOMETRIC_REPRESENTATION_CONTEXT(3)
GLOBAL_UNCERTAINTY_ASSIGNED_CONTEXT((#868))
GLOBAL_UNIT_ASSIGNED_CONTEXT((#872,#874,#875))
REPRESENTATION_CONTEXT('','3D')
);
#871=(
GEOMETRIC_REPRESENTATION_CONTEXT(3)
GLOBAL_UNCERTAINTY_ASSIGNED_CONTEXT((#869))
GLOBAL_UNIT_ASSIGNED_CONTEXT((#872,#874,#875))
REPRESENTATION_CONTEXT('','3D')
);
#872=(
LENGTH_UNIT()
NAMED_UNIT(*)
SI_UNIT(.MILLI.,.METRE.)
);
#873=(
LENGTH_UNIT()
NAMED_UNIT(*)
SI_UNIT($,.METRE.)
);
#874=(
NAMED_UNIT(*)
PLANE_ANGLE_UNIT()
SI_UNIT($,.RADIAN.)
);
#875=(
NAMED_UNIT(*)
SI_UNIT($,.STERADIAN.)
SOLID_ANGLE_UNIT()
);
#876=SHAPE_DEFINITION_REPRESENTATION(#877,#878);
#877=PRODUCT_DEFINITION_SHAPE('',$,#880);
#878=SHAPE_REPRESENTATION('',(#537),#870);
#879=PRODUCT_DEFINITION_CONTEXT('part definition',#884,'design');
#880=PRODUCT_DEFINITION('2026-06-24-14-52-32-115','BeltTensioner',#881,
#879);
#881=PRODUCT_DEFINITION_FORMATION('',$,#886);
#882=PRODUCT_RELATED_PRODUCT_CATEGORY('BeltTensioner','BeltTensioner',(#886));
#883=APPLICATION_PROTOCOL_DEFINITION('international standard',
'automotive_design',2009,#884);
#884=APPLICATION_CONTEXT(
'Core Data for Automotive Mechanical Design Process');
#885=PRODUCT_CONTEXT('part definition',#884,'mechanical');
#886=PRODUCT('2026-06-24-14-52-32-115','BeltTensioner',$,(#885));
#887=PRESENTATION_STYLE_ASSIGNMENT((#889));
#888=PRESENTATION_STYLE_ASSIGNMENT((#890));
#889=SURFACE_STYLE_USAGE(.BOTH.,#891);
#890=SURFACE_STYLE_USAGE(.BOTH.,#892);
#891=SURFACE_SIDE_STYLE('',(#893));
#892=SURFACE_SIDE_STYLE('',(#894));
#893=SURFACE_STYLE_FILL_AREA(#895);
#894=SURFACE_STYLE_FILL_AREA(#896);
#895=FILL_AREA_STYLE('\X\C7elik - Saten',(#897));
#896=FILL_AREA_STYLE('Opaque(45,45,45)',(#898));
#897=FILL_AREA_STYLE_COLOUR('\X\C7elik - Saten',#899);
#898=FILL_AREA_STYLE_COLOUR('Opaque(45,45,45)',#900);
#899=COLOUR_RGB('\X\C7elik - Saten',0.627450980392157,0.627450980392157,
0.627450980392157);
#900=COLOUR_RGB('Opaque(45,45,45)',0.176470588235294,0.176470588235294,
0.176470588235294);
ENDSEC;
END-ISO-10303-21;
