ISO-10303-21;
HEADER;
/* Generated by software containing ST-Developer
 * from STEP Tools, Inc. (www.steptools.com) 
 */

FILE_DESCRIPTION(
/* description */ (''),
/* implementation_level */ '2;1');

FILE_NAME(
/* name */ 'EncoderCoupler.step',
/* time_stamp */ '2026-06-24T14:53:39+03:00',
/* author */ (''),
/* organization */ (''),
/* preprocessor_version */ 'ST-DEVELOPER v20.1',
/* originating_system */ 'Autodesk Translation Framework v15.8.0.0',
/* authorisation */ '');

FILE_SCHEMA (('AUTOMOTIVE_DESIGN { 1 0 10303 214 3 1 1 }'));
ENDSEC;

DATA;
#10=MECHANICAL_DESIGN_GEOMETRIC_PRESENTATION_REPRESENTATION('',(#13),#640);
#11=SHAPE_REPRESENTATION_RELATIONSHIP('SRR','None',#647,#12);
#12=ADVANCED_BREP_SHAPE_REPRESENTATION('',(#14),#639);
#13=STYLED_ITEM('',(#657),#14);
#14=MANIFOLD_SOLID_BREP('EncoderCoupler',#281);
#15=TOROIDAL_SURFACE('',#313,13.5,2.5);
#16=TOROIDAL_SURFACE('',#320,16.5,2.5);
#17=LINE('',#460,#26);
#18=LINE('',#472,#27);
#19=LINE('',#512,#28);
#20=LINE('',#560,#29);
#21=LINE('',#602,#30);
#22=LINE('',#618,#31);
#23=LINE('',#626,#32);
#24=LINE('',#631,#33);
#25=LINE('',#634,#34);
#26=VECTOR('',#341,3.5);
#27=VECTOR('',#356,3.5);
#28=VECTOR('',#359,2.80000000000001);
#29=VECTOR('',#362,2.80000000000001);
#30=VECTOR('',#367,5.);
#31=VECTOR('',#388,14.);
#32=VECTOR('',#399,14.);
#33=VECTOR('',#406,3.05);
#34=VECTOR('',#409,5.05);
#35=B_SPLINE_CURVE_WITH_KNOTS('',3,(#423,#424,#425,#426,#427,#428,#429,
#430,#431,#432),.UNSPECIFIED.,.F.,.F.,(4,2,2,2,4),(0.,0.132307216392337,
0.264614432784674,0.396910958688685,0.529207484592696),.UNSPECIFIED.);
#36=B_SPLINE_CURVE_WITH_KNOTS('',3,(#433,#434,#435,#436,#437,#438,#439,
#440,#441,#442,#443,#444,#445,#446,#447,#448,#449,#450,#451,#452,#453,#454,
#455,#456,#457,#458),.UNSPECIFIED.,.F.,.F.,(4,2,2,2,2,2,2,2,2,2,2,2,4),
(0.529207484592696,0.661504010496707,0.793800536400718,0.926107752793055,
1.05841496918539,1.19072218557773,1.32302940197007,1.45532592787408,1.58762245377809,
1.7199189796821,1.85221550558611,1.98452272197845,2.11682993837078),
 .UNSPECIFIED.);
#37=B_SPLINE_CURVE_WITH_KNOTS('',3,(#474,#475,#476,#477,#478,#479,#480,
#481,#482,#483,#484,#485,#486,#487,#488,#489,#490,#491,#492,#493,#494,#495,
#496,#497,#498,#499),.UNSPECIFIED.,.F.,.F.,(4,2,2,2,2,2,2,2,2,2,2,2,4),
(0.,0.13245889393602,0.26491778787204,0.397371849443444,0.529825911014849,
0.662248779155882,0.794671647296915,0.927126512785743,1.05958137827457,
1.1920362437634,1.32449110925223,1.45691397739326,1.58933684553429),
 .UNSPECIFIED.);
#38=B_SPLINE_CURVE_WITH_KNOTS('',3,(#500,#501,#502,#503,#504,#505,#506,
#507,#508,#509),.UNSPECIFIED.,.F.,.F.,(4,2,2,2,4),(1.58933684553429,1.7217909071057,
1.8542449686771,1.98670386261312,2.11916275654914),.UNSPECIFIED.);
#39=B_SPLINE_CURVE_WITH_KNOTS('',3,(#514,#515,#516,#517,#518,#519,#520,
#521,#522,#523,#524,#525),.UNSPECIFIED.,.F.,.F.,(4,2,2,2,2,4),(1.28332596335489,
1.3873106851298,1.4912954069047,1.60044032398696,1.65501278252808,1.70958524106921),
 .UNSPECIFIED.);
#40=B_SPLINE_CURVE_WITH_KNOTS('',3,(#526,#527,#528,#529,#530,#531,#532,
#533,#534,#535,#536,#537,#538,#539,#540,#541,#542,#543,#544,#545,#546,#547,
#548,#549,#550,#551,#552,#553,#554,#555,#556,#557),.UNSPECIFIED.,.F.,.F.,
(4,2,2,2,2,2,2,2,2,2,2,2,2,2,2,4),(0.,0.0545724585411264,0.109144917082253,
0.218289834164506,0.322274555939413,0.42625927771432,0.530760495351384,
0.635261712988448,0.745027166761526,0.799909893648066,0.854792620534605,
0.909675347421144,0.964558074307684,1.07432352808076,1.17882474571783,1.28332596335489),
 .UNSPECIFIED.);
#41=B_SPLINE_CURVE_WITH_KNOTS('',3,(#562,#563,#564,#565,#566,#567,#568,
#569,#570,#571),.UNSPECIFIED.,.F.,.F.,(4,2,2,2,4),(1.20098623806968,1.30091214389144,
1.40083804971321,1.50107651690306,1.6013149840929),.UNSPECIFIED.);
#42=B_SPLINE_CURVE_WITH_KNOTS('',3,(#572,#573,#574,#575,#576,#577,#578,
#579,#580,#581,#582,#583,#584,#585,#586,#587,#588,#589,#590,#591,#592,#593,
#594,#595,#596,#597),.UNSPECIFIED.,.F.,.F.,(4,2,2,2,2,2,2,2,2,2,2,2,4),
(0.,0.100238467189845,0.20047693437969,0.300402840201458,0.400328746023226,
0.500254651844994,0.600180557666762,0.700419024856607,0.800657492046451,
0.900895959236296,1.00113442642614,1.10106033224791,1.20098623806968),
 .UNSPECIFIED.);
#43=CYLINDRICAL_SURFACE('',#298,3.5);
#44=CYLINDRICAL_SURFACE('',#305,3.5);
#45=CYLINDRICAL_SURFACE('',#306,2.60000000000001);
#46=CYLINDRICAL_SURFACE('',#307,2.60000000000001);
#47=CYLINDRICAL_SURFACE('',#308,5.);
#48=CYLINDRICAL_SURFACE('',#318,16.);
#49=CYLINDRICAL_SURFACE('',#324,14.);
#50=CYLINDRICAL_SURFACE('',#327,3.05);
#51=CYLINDRICAL_SURFACE('',#328,5.05);
#52=FACE_BOUND('',#80,.T.);
#53=FACE_BOUND('',#83,.T.);
#54=FACE_BOUND('',#85,.T.);
#55=FACE_BOUND('',#91,.T.);
#56=FACE_BOUND('',#94,.T.);
#57=FACE_BOUND('',#97,.T.);
#58=FACE_BOUND('',#99,.T.);
#59=FACE_BOUND('',#101,.T.);
#60=FACE_BOUND('',#103,.T.);
#61=FACE_BOUND('',#105,.T.);
#62=FACE_OUTER_BOUND('',#79,.T.);
#63=FACE_OUTER_BOUND('',#81,.T.);
#64=FACE_OUTER_BOUND('',#82,.T.);
#65=FACE_OUTER_BOUND('',#84,.T.);
#66=FACE_OUTER_BOUND('',#86,.T.);
#67=FACE_OUTER_BOUND('',#87,.T.);
#68=FACE_OUTER_BOUND('',#88,.T.);
#69=FACE_OUTER_BOUND('',#89,.T.);
#70=FACE_OUTER_BOUND('',#90,.T.);
#71=FACE_OUTER_BOUND('',#92,.T.);
#72=FACE_OUTER_BOUND('',#93,.T.);
#73=FACE_OUTER_BOUND('',#95,.T.);
#74=FACE_OUTER_BOUND('',#96,.T.);
#75=FACE_OUTER_BOUND('',#98,.T.);
#76=FACE_OUTER_BOUND('',#100,.T.);
#77=FACE_OUTER_BOUND('',#102,.T.);
#78=FACE_OUTER_BOUND('',#104,.T.);
#79=EDGE_LOOP('',(#186));
#80=EDGE_LOOP('',(#187));
#81=EDGE_LOOP('',(#188,#189,#190,#191,#192));
#82=EDGE_LOOP('',(#193));
#83=EDGE_LOOP('',(#194));
#84=EDGE_LOOP('',(#195));
#85=EDGE_LOOP('',(#196));
#86=EDGE_LOOP('',(#197,#198,#199,#200,#201));
#87=EDGE_LOOP('',(#202,#203,#204,#205,#206));
#88=EDGE_LOOP('',(#207,#208,#209,#210,#211));
#89=EDGE_LOOP('',(#212,#213,#214,#215));
#90=EDGE_LOOP('',(#216));
#91=EDGE_LOOP('',(#217));
#92=EDGE_LOOP('',(#218,#219,#220,#221,#222));
#93=EDGE_LOOP('',(#223,#224,#225,#226));
#94=EDGE_LOOP('',(#227,#228));
#95=EDGE_LOOP('',(#229,#230,#231,#232,#233,#234));
#96=EDGE_LOOP('',(#235,#236,#237,#238,#239));
#97=EDGE_LOOP('',(#240,#241));
#98=EDGE_LOOP('',(#242));
#99=EDGE_LOOP('',(#243));
#100=EDGE_LOOP('',(#244,#245,#246,#247));
#101=EDGE_LOOP('',(#248,#249));
#102=EDGE_LOOP('',(#250,#251,#252,#253));
#103=EDGE_LOOP('',(#254,#255));
#104=EDGE_LOOP('',(#256));
#105=EDGE_LOOP('',(#257));
#106=CIRCLE('',#296,14.);
#107=CIRCLE('',#297,3.05);
#108=CIRCLE('',#299,3.5);
#109=CIRCLE('',#301,2.60000000000001);
#110=CIRCLE('',#303,3.5);
#111=CIRCLE('',#304,2.60000000000001);
#112=CIRCLE('',#309,5.);
#113=CIRCLE('',#310,5.);
#114=CIRCLE('',#312,3.05);
#115=CIRCLE('',#314,16.);
#116=CIRCLE('',#315,2.5);
#117=CIRCLE('',#316,15.);
#118=CIRCLE('',#317,15.);
#119=CIRCLE('',#319,16.);
#120=CIRCLE('',#321,14.);
#121=CIRCLE('',#322,14.);
#122=CIRCLE('',#323,2.5);
#123=CIRCLE('',#326,5.05);
#124=CIRCLE('',#329,5.05);
#125=VERTEX_POINT('',#416);
#126=VERTEX_POINT('',#418);
#127=VERTEX_POINT('',#421);
#128=VERTEX_POINT('',#422);
#129=VERTEX_POINT('',#459);
#130=VERTEX_POINT('',#463);
#131=VERTEX_POINT('',#466);
#132=VERTEX_POINT('',#468);
#133=VERTEX_POINT('',#471);
#134=VERTEX_POINT('',#473);
#135=VERTEX_POINT('',#511);
#136=VERTEX_POINT('',#513);
#137=VERTEX_POINT('',#559);
#138=VERTEX_POINT('',#561);
#139=VERTEX_POINT('',#599);
#140=VERTEX_POINT('',#601);
#141=VERTEX_POINT('',#605);
#142=VERTEX_POINT('',#608);
#143=VERTEX_POINT('',#610);
#144=VERTEX_POINT('',#612);
#145=VERTEX_POINT('',#616);
#146=VERTEX_POINT('',#620);
#147=VERTEX_POINT('',#621);
#148=VERTEX_POINT('',#628);
#149=VERTEX_POINT('',#633);
#150=EDGE_CURVE('',#125,#125,#106,.T.);
#151=EDGE_CURVE('',#126,#126,#107,.T.);
#152=EDGE_CURVE('',#127,#128,#35,.T.);
#153=EDGE_CURVE('',#128,#127,#36,.T.);
#154=EDGE_CURVE('',#128,#129,#17,.T.);
#155=EDGE_CURVE('',#129,#129,#108,.T.);
#156=EDGE_CURVE('',#130,#130,#109,.T.);
#157=EDGE_CURVE('',#131,#131,#110,.T.);
#158=EDGE_CURVE('',#132,#132,#111,.T.);
#159=EDGE_CURVE('',#131,#133,#18,.T.);
#160=EDGE_CURVE('',#134,#133,#37,.T.);
#161=EDGE_CURVE('',#133,#134,#38,.T.);
#162=EDGE_CURVE('',#132,#135,#19,.T.);
#163=EDGE_CURVE('',#136,#135,#39,.F.);
#164=EDGE_CURVE('',#135,#136,#40,.F.);
#165=EDGE_CURVE('',#130,#137,#20,.T.);
#166=EDGE_CURVE('',#138,#137,#41,.F.);
#167=EDGE_CURVE('',#137,#138,#42,.F.);
#168=EDGE_CURVE('',#139,#139,#112,.T.);
#169=EDGE_CURVE('',#139,#140,#21,.T.);
#170=EDGE_CURVE('',#140,#140,#113,.T.);
#171=EDGE_CURVE('',#141,#141,#114,.T.);
#172=EDGE_CURVE('',#142,#142,#115,.T.);
#173=EDGE_CURVE('',#142,#143,#116,.T.);
#174=EDGE_CURVE('',#143,#144,#117,.T.);
#175=EDGE_CURVE('',#144,#143,#118,.T.);
#176=EDGE_CURVE('',#145,#145,#119,.F.);
#177=EDGE_CURVE('',#145,#142,#22,.T.);
#178=EDGE_CURVE('',#146,#147,#120,.T.);
#179=EDGE_CURVE('',#147,#146,#121,.T.);
#180=EDGE_CURVE('',#146,#144,#122,.T.);
#181=EDGE_CURVE('',#147,#125,#23,.T.);
#182=EDGE_CURVE('',#148,#148,#123,.T.);
#183=EDGE_CURVE('',#126,#141,#24,.T.);
#184=EDGE_CURVE('',#148,#149,#25,.T.);
#185=EDGE_CURVE('',#149,#149,#124,.T.);
#186=ORIENTED_EDGE('',*,*,#150,.F.);
#187=ORIENTED_EDGE('',*,*,#151,.F.);
#188=ORIENTED_EDGE('',*,*,#152,.F.);
#189=ORIENTED_EDGE('',*,*,#153,.F.);
#190=ORIENTED_EDGE('',*,*,#154,.T.);
#191=ORIENTED_EDGE('',*,*,#155,.T.);
#192=ORIENTED_EDGE('',*,*,#154,.F.);
#193=ORIENTED_EDGE('',*,*,#155,.F.);
#194=ORIENTED_EDGE('',*,*,#156,.F.);
#195=ORIENTED_EDGE('',*,*,#157,.F.);
#196=ORIENTED_EDGE('',*,*,#158,.F.);
#197=ORIENTED_EDGE('',*,*,#157,.T.);
#198=ORIENTED_EDGE('',*,*,#159,.T.);
#199=ORIENTED_EDGE('',*,*,#160,.F.);
#200=ORIENTED_EDGE('',*,*,#161,.F.);
#201=ORIENTED_EDGE('',*,*,#159,.F.);
#202=ORIENTED_EDGE('',*,*,#158,.T.);
#203=ORIENTED_EDGE('',*,*,#162,.T.);
#204=ORIENTED_EDGE('',*,*,#163,.F.);
#205=ORIENTED_EDGE('',*,*,#164,.F.);
#206=ORIENTED_EDGE('',*,*,#162,.F.);
#207=ORIENTED_EDGE('',*,*,#156,.T.);
#208=ORIENTED_EDGE('',*,*,#165,.T.);
#209=ORIENTED_EDGE('',*,*,#166,.F.);
#210=ORIENTED_EDGE('',*,*,#167,.F.);
#211=ORIENTED_EDGE('',*,*,#165,.F.);
#212=ORIENTED_EDGE('',*,*,#168,.F.);
#213=ORIENTED_EDGE('',*,*,#169,.T.);
#214=ORIENTED_EDGE('',*,*,#170,.T.);
#215=ORIENTED_EDGE('',*,*,#169,.F.);
#216=ORIENTED_EDGE('',*,*,#170,.F.);
#217=ORIENTED_EDGE('',*,*,#171,.F.);
#218=ORIENTED_EDGE('',*,*,#172,.T.);
#219=ORIENTED_EDGE('',*,*,#173,.T.);
#220=ORIENTED_EDGE('',*,*,#174,.T.);
#221=ORIENTED_EDGE('',*,*,#175,.T.);
#222=ORIENTED_EDGE('',*,*,#173,.F.);
#223=ORIENTED_EDGE('',*,*,#176,.F.);
#224=ORIENTED_EDGE('',*,*,#177,.T.);
#225=ORIENTED_EDGE('',*,*,#172,.F.);
#226=ORIENTED_EDGE('',*,*,#177,.F.);
#227=ORIENTED_EDGE('',*,*,#152,.T.);
#228=ORIENTED_EDGE('',*,*,#153,.T.);
#229=ORIENTED_EDGE('',*,*,#178,.T.);
#230=ORIENTED_EDGE('',*,*,#179,.T.);
#231=ORIENTED_EDGE('',*,*,#180,.T.);
#232=ORIENTED_EDGE('',*,*,#174,.F.);
#233=ORIENTED_EDGE('',*,*,#175,.F.);
#234=ORIENTED_EDGE('',*,*,#180,.F.);
#235=ORIENTED_EDGE('',*,*,#178,.F.);
#236=ORIENTED_EDGE('',*,*,#179,.F.);
#237=ORIENTED_EDGE('',*,*,#181,.T.);
#238=ORIENTED_EDGE('',*,*,#150,.T.);
#239=ORIENTED_EDGE('',*,*,#181,.F.);
#240=ORIENTED_EDGE('',*,*,#160,.T.);
#241=ORIENTED_EDGE('',*,*,#161,.T.);
#242=ORIENTED_EDGE('',*,*,#182,.F.);
#243=ORIENTED_EDGE('',*,*,#168,.T.);
#244=ORIENTED_EDGE('',*,*,#151,.T.);
#245=ORIENTED_EDGE('',*,*,#183,.T.);
#246=ORIENTED_EDGE('',*,*,#171,.T.);
#247=ORIENTED_EDGE('',*,*,#183,.F.);
#248=ORIENTED_EDGE('',*,*,#163,.T.);
#249=ORIENTED_EDGE('',*,*,#164,.T.);
#250=ORIENTED_EDGE('',*,*,#182,.T.);
#251=ORIENTED_EDGE('',*,*,#184,.T.);
#252=ORIENTED_EDGE('',*,*,#185,.F.);
#253=ORIENTED_EDGE('',*,*,#184,.F.);
#254=ORIENTED_EDGE('',*,*,#166,.T.);
#255=ORIENTED_EDGE('',*,*,#167,.T.);
#256=ORIENTED_EDGE('',*,*,#176,.T.);
#257=ORIENTED_EDGE('',*,*,#185,.T.);
#258=PLANE('',#295);
#259=PLANE('',#300);
#260=PLANE('',#302);
#261=PLANE('',#311);
#262=PLANE('',#325);
#263=PLANE('',#330);
#264=ADVANCED_FACE('',(#62,#52),#258,.T.);
#265=ADVANCED_FACE('',(#63),#43,.F.);
#266=ADVANCED_FACE('',(#64,#53),#259,.F.);
#267=ADVANCED_FACE('',(#65,#54),#260,.F.);
#268=ADVANCED_FACE('',(#66),#44,.F.);
#269=ADVANCED_FACE('',(#67),#45,.F.);
#270=ADVANCED_FACE('',(#68),#46,.F.);
#271=ADVANCED_FACE('',(#69),#47,.F.);
#272=ADVANCED_FACE('',(#70,#55),#261,.F.);
#273=ADVANCED_FACE('',(#71),#15,.T.);
#274=ADVANCED_FACE('',(#72,#56),#48,.T.);
#275=ADVANCED_FACE('',(#73),#16,.F.);
#276=ADVANCED_FACE('',(#74,#57),#49,.T.);
#277=ADVANCED_FACE('',(#75,#58),#262,.F.);
#278=ADVANCED_FACE('',(#76,#59),#50,.F.);
#279=ADVANCED_FACE('',(#77,#60),#51,.F.);
#280=ADVANCED_FACE('',(#78,#61),#263,.T.);
#281=CLOSED_SHELL('',(#264,#265,#266,#267,#268,#269,#270,#271,#272,#273,
#274,#275,#276,#277,#278,#279,#280));
#282=DERIVED_UNIT_ELEMENT(#284,1.);
#283=DERIVED_UNIT_ELEMENT(#642,-3.);
#284=(
MASS_UNIT()
NAMED_UNIT(*)
SI_UNIT(.KILO.,.GRAM.)
);
#285=DERIVED_UNIT((#282,#283));
#286=MEASURE_REPRESENTATION_ITEM('density measure',
POSITIVE_RATIO_MEASURE(7850.),#285);
#287=PROPERTY_DEFINITION_REPRESENTATION(#292,#289);
#288=PROPERTY_DEFINITION_REPRESENTATION(#293,#290);
#289=REPRESENTATION('material name',(#291),#639);
#290=REPRESENTATION('density',(#286),#639);
#291=DESCRIPTIVE_REPRESENTATION_ITEM('\X\C7elik','\X\C7elik');
#292=PROPERTY_DEFINITION('material property','material name',#649);
#293=PROPERTY_DEFINITION('material property','density of part',#649);
#294=AXIS2_PLACEMENT_3D('',#414,#331,#332);
#295=AXIS2_PLACEMENT_3D('',#415,#333,#334);
#296=AXIS2_PLACEMENT_3D('',#417,#335,#336);
#297=AXIS2_PLACEMENT_3D('',#419,#337,#338);
#298=AXIS2_PLACEMENT_3D('',#420,#339,#340);
#299=AXIS2_PLACEMENT_3D('',#461,#342,#343);
#300=AXIS2_PLACEMENT_3D('',#462,#344,#345);
#301=AXIS2_PLACEMENT_3D('',#464,#346,#347);
#302=AXIS2_PLACEMENT_3D('',#465,#348,#349);
#303=AXIS2_PLACEMENT_3D('',#467,#350,#351);
#304=AXIS2_PLACEMENT_3D('',#469,#352,#353);
#305=AXIS2_PLACEMENT_3D('',#470,#354,#355);
#306=AXIS2_PLACEMENT_3D('',#510,#357,#358);
#307=AXIS2_PLACEMENT_3D('',#558,#360,#361);
#308=AXIS2_PLACEMENT_3D('',#598,#363,#364);
#309=AXIS2_PLACEMENT_3D('',#600,#365,#366);
#310=AXIS2_PLACEMENT_3D('',#603,#368,#369);
#311=AXIS2_PLACEMENT_3D('',#604,#370,#371);
#312=AXIS2_PLACEMENT_3D('',#606,#372,#373);
#313=AXIS2_PLACEMENT_3D('',#607,#374,#375);
#314=AXIS2_PLACEMENT_3D('',#609,#376,#377);
#315=AXIS2_PLACEMENT_3D('',#611,#378,#379);
#316=AXIS2_PLACEMENT_3D('',#613,#380,#381);
#317=AXIS2_PLACEMENT_3D('',#614,#382,#383);
#318=AXIS2_PLACEMENT_3D('',#615,#384,#385);
#319=AXIS2_PLACEMENT_3D('',#617,#386,#387);
#320=AXIS2_PLACEMENT_3D('',#619,#389,#390);
#321=AXIS2_PLACEMENT_3D('',#622,#391,#392);
#322=AXIS2_PLACEMENT_3D('',#623,#393,#394);
#323=AXIS2_PLACEMENT_3D('',#624,#395,#396);
#324=AXIS2_PLACEMENT_3D('',#625,#397,#398);
#325=AXIS2_PLACEMENT_3D('',#627,#400,#401);
#326=AXIS2_PLACEMENT_3D('',#629,#402,#403);
#327=AXIS2_PLACEMENT_3D('',#630,#404,#405);
#328=AXIS2_PLACEMENT_3D('',#632,#407,#408);
#329=AXIS2_PLACEMENT_3D('',#635,#410,#411);
#330=AXIS2_PLACEMENT_3D('',#636,#412,#413);
#331=DIRECTION('axis',(0.,0.,1.));
#332=DIRECTION('refdir',(1.,0.,0.));
#333=DIRECTION('center_axis',(-5.55111512312546E-17,-1.,-2.22044604925031E-16));
#334=DIRECTION('ref_axis',(5.55111512312547E-17,2.22044604925031E-16,-1.));
#335=DIRECTION('center_axis',(5.55111512312546E-17,1.,2.22044604925031E-16));
#336=DIRECTION('ref_axis',(-5.55111512312547E-17,-2.22044604925031E-16,
1.));
#337=DIRECTION('center_axis',(-5.55111512312546E-17,-1.,-2.22044604925031E-16));
#338=DIRECTION('ref_axis',(-5.55111512312578E-17,-2.22044604925031E-16,
1.));
#339=DIRECTION('center_axis',(-1.,0.,0.));
#340=DIRECTION('ref_axis',(0.,-1.,0.));
#341=DIRECTION('',(-1.,0.,0.));
#342=DIRECTION('center_axis',(-1.,0.,0.));
#343=DIRECTION('ref_axis',(0.,-1.,0.));
#344=DIRECTION('center_axis',(-1.,0.,0.));
#345=DIRECTION('ref_axis',(0.,-1.,0.));
#346=DIRECTION('center_axis',(1.,0.,0.));
#347=DIRECTION('ref_axis',(0.,1.,0.));
#348=DIRECTION('center_axis',(-1.,0.,0.));
#349=DIRECTION('ref_axis',(0.,-1.,0.));
#350=DIRECTION('center_axis',(-1.,0.,0.));
#351=DIRECTION('ref_axis',(0.,-1.,0.));
#352=DIRECTION('center_axis',(1.,0.,0.));
#353=DIRECTION('ref_axis',(0.,1.,0.));
#354=DIRECTION('center_axis',(1.,0.,0.));
#355=DIRECTION('ref_axis',(0.,-1.,0.));
#356=DIRECTION('',(1.,0.,0.));
#357=DIRECTION('center_axis',(-1.,0.,0.));
#358=DIRECTION('ref_axis',(0.,1.,0.));
#359=DIRECTION('',(-1.,0.,0.));
#360=DIRECTION('center_axis',(-1.,0.,0.));
#361=DIRECTION('ref_axis',(0.,1.,0.));
#362=DIRECTION('',(-1.,0.,0.));
#363=DIRECTION('center_axis',(0.,-1.,-2.368475785867E-16));
#364=DIRECTION('ref_axis',(1.,0.,0.));
#365=DIRECTION('center_axis',(0.,-1.,-2.22044604925031E-16));
#366=DIRECTION('ref_axis',(1.,0.,0.));
#367=DIRECTION('',(0.,-1.,-2.368475785867E-16));
#368=DIRECTION('center_axis',(0.,-1.,-2.368475785867E-16));
#369=DIRECTION('ref_axis',(1.,0.,0.));
#370=DIRECTION('center_axis',(0.,-1.,-2.368475785867E-16));
#371=DIRECTION('ref_axis',(1.,0.,0.));
#372=DIRECTION('center_axis',(0.,1.,2.368475785867E-16));
#373=DIRECTION('ref_axis',(-5.55111512312578E-17,-2.22044604925031E-16,
1.));
#374=DIRECTION('center_axis',(5.55111512312546E-17,1.,2.22044604925031E-16));
#375=DIRECTION('ref_axis',(0.,0.,1.));
#376=DIRECTION('center_axis',(-5.55111512312546E-17,-1.,-2.22044604925031E-16));
#377=DIRECTION('ref_axis',(5.37941308587329E-18,-2.25514051876985E-16,1.));
#378=DIRECTION('center_axis',(-1.,5.55111512312546E-17,0.));
#379=DIRECTION('ref_axis',(0.,0.,-1.));
#380=DIRECTION('center_axis',(5.55111512312546E-17,1.,2.22044604925031E-16));
#381=DIRECTION('ref_axis',(0.,0.,1.));
#382=DIRECTION('center_axis',(5.55111512312546E-17,1.,2.22044604925031E-16));
#383=DIRECTION('ref_axis',(0.,0.,1.));
#384=DIRECTION('center_axis',(5.55111512312546E-17,1.,2.22044604925031E-16));
#385=DIRECTION('ref_axis',(-5.55111512312546E-17,-2.22044604925031E-16,
1.));
#386=DIRECTION('center_axis',(-5.55111512312546E-17,-1.,-2.22044604925031E-16));
#387=DIRECTION('ref_axis',(-5.55111512312546E-17,-2.22044604925031E-16,
1.));
#388=DIRECTION('',(-5.55111512312547E-17,-1.,-2.22044604925031E-16));
#389=DIRECTION('center_axis',(-3.207262927796E-33,1.,0.));
#390=DIRECTION('ref_axis',(0.,0.,-1.));
#391=DIRECTION('center_axis',(-3.207262927796E-33,1.,0.));
#392=DIRECTION('ref_axis',(0.,0.,-1.));
#393=DIRECTION('center_axis',(-3.207262927796E-33,1.,0.));
#394=DIRECTION('ref_axis',(0.,0.,-1.));
#395=DIRECTION('center_axis',(1.,3.207262927796E-33,0.));
#396=DIRECTION('ref_axis',(0.,0.,1.));
#397=DIRECTION('center_axis',(5.55111512312546E-17,1.,2.22044604925031E-16));
#398=DIRECTION('ref_axis',(-5.55111512312547E-17,-2.22044604925031E-16,
1.));
#399=DIRECTION('',(-5.55111512312547E-17,-1.,-2.22044604925031E-16));
#400=DIRECTION('center_axis',(0.,-1.,-2.22044604925031E-16));
#401=DIRECTION('ref_axis',(0.,2.22044604925031E-16,-1.));
#402=DIRECTION('center_axis',(0.,-1.,-2.22044604925031E-16));
#403=DIRECTION('ref_axis',(0.,-2.22044604925031E-16,1.));
#404=DIRECTION('center_axis',(5.55111512312578E-17,1.,2.22044604925031E-16));
#405=DIRECTION('ref_axis',(-5.55111512312578E-17,-2.22044604925031E-16,
1.));
#406=DIRECTION('',(5.55111512312578E-17,1.,2.22044604925031E-16));
#407=DIRECTION('center_axis',(0.,1.,2.22044604925031E-16));
#408=DIRECTION('ref_axis',(0.,-2.22044604925031E-16,1.));
#409=DIRECTION('',(0.,1.,2.22044604925031E-16));
#410=DIRECTION('center_axis',(-5.55111512312546E-17,-1.,-2.22044604925031E-16));
#411=DIRECTION('ref_axis',(0.,-2.22044604925031E-16,1.));
#412=DIRECTION('center_axis',(5.55111512312546E-17,1.,2.22044604925031E-16));
#413=DIRECTION('ref_axis',(-5.55111512312547E-17,-2.22044604925031E-16,
1.));
#414=CARTESIAN_POINT('',(0.,0.,0.));
#415=CARTESIAN_POINT('Origin',(-64.9999973773957,-150.099999403953,50.2));
#416=CARTESIAN_POINT('',(-64.9999973773957,-150.099999403953,36.2));
#417=CARTESIAN_POINT('Origin',(-64.9999973773957,-150.099999403953,50.2));
#418=CARTESIAN_POINT('',(-64.9999973773956,-150.099999403953,47.15));
#419=CARTESIAN_POINT('Origin',(-64.9999973773956,-150.099999403953,50.2));
#420=CARTESIAN_POINT('Origin',(-53.4999973773956,-123.099999403954,50.2));
#421=CARTESIAN_POINT('',(-49.3875023813997,-123.099999403954,53.7));
#422=CARTESIAN_POINT('',(-48.9999973773956,-119.599999403954,50.2));
#423=CARTESIAN_POINT('Ctrl Pts',(-49.3875023813997,-123.099999403954,53.7));
#424=CARTESIAN_POINT('Ctrl Pts',(-49.3875023813997,-122.658975349313,53.7));
#425=CARTESIAN_POINT('Ctrl Pts',(-49.3668743500034,-122.189568656872,53.6115683850508));
#426=CARTESIAN_POINT('Ctrl Pts',(-49.2930962768542,-121.327686715769,53.2539468813864));
#427=CARTESIAN_POINT('Ctrl Pts',(-49.2410905656411,-120.935083114981,52.9848311793328));
#428=CARTESIAN_POINT('Ctrl Pts',(-49.144038191174,-120.315193269336,52.3649413336874));
#429=CARTESIAN_POINT('Ctrl Pts',(-49.0925809604972,-120.046057978937,51.9723271689394));
#430=CARTESIAN_POINT('Ctrl Pts',(-49.0200662932126,-119.688422237649,51.110408253212));
#431=CARTESIAN_POINT('Ctrl Pts',(-48.9999973773956,-119.599999403954,50.64098841968));
#432=CARTESIAN_POINT('Ctrl Pts',(-48.9999973773956,-119.599999403954,50.2));
#433=CARTESIAN_POINT('Ctrl Pts',(-48.9999973773957,-119.599999403954,50.2));
#434=CARTESIAN_POINT('Ctrl Pts',(-48.9999973773957,-119.599999403954,49.75901158032));
#435=CARTESIAN_POINT('Ctrl Pts',(-49.0200662932126,-119.688422237649,49.289591746788));
#436=CARTESIAN_POINT('Ctrl Pts',(-49.0925809604971,-120.046057978937,48.4276728310606));
#437=CARTESIAN_POINT('Ctrl Pts',(-49.144038191174,-120.315193269336,48.0350586663126));
#438=CARTESIAN_POINT('Ctrl Pts',(-49.241090565641,-120.935083114981,47.4151688206672));
#439=CARTESIAN_POINT('Ctrl Pts',(-49.2930962768542,-121.327686715769,47.1460531186136));
#440=CARTESIAN_POINT('Ctrl Pts',(-49.3668743500033,-122.189568656872,46.7884316149492));
#441=CARTESIAN_POINT('Ctrl Pts',(-49.3875023813997,-122.658975349313,46.7));
#442=CARTESIAN_POINT('Ctrl Pts',(-49.3875023813997,-123.541023458595,46.7));
#443=CARTESIAN_POINT('Ctrl Pts',(-49.3668743500033,-124.010430151036,46.7884316149492));
#444=CARTESIAN_POINT('Ctrl Pts',(-49.2930962768542,-124.872312092139,47.1460531186136));
#445=CARTESIAN_POINT('Ctrl Pts',(-49.241090565641,-125.264915692927,47.4151688206672));
#446=CARTESIAN_POINT('Ctrl Pts',(-49.144038191174,-125.884805538572,48.0350586663126));
#447=CARTESIAN_POINT('Ctrl Pts',(-49.0925809604971,-126.153940828971,48.4276728310606));
#448=CARTESIAN_POINT('Ctrl Pts',(-49.0200662932126,-126.511576570259,49.289591746788));
#449=CARTESIAN_POINT('Ctrl Pts',(-48.9999973773956,-126.599999403954,49.75901158032));
#450=CARTESIAN_POINT('Ctrl Pts',(-48.9999973773956,-126.599999403954,50.64098841968));
#451=CARTESIAN_POINT('Ctrl Pts',(-49.0200662932126,-126.511576570259,51.110408253212));
#452=CARTESIAN_POINT('Ctrl Pts',(-49.0925809604972,-126.153940828971,51.9723271689394));
#453=CARTESIAN_POINT('Ctrl Pts',(-49.144038191174,-125.884805538572,52.3649413336874));
#454=CARTESIAN_POINT('Ctrl Pts',(-49.2410905656411,-125.264915692927,52.9848311793328));
#455=CARTESIAN_POINT('Ctrl Pts',(-49.2930962768542,-124.872312092139,53.2539468813864));
#456=CARTESIAN_POINT('Ctrl Pts',(-49.3668743500034,-124.010430151036,53.6115683850508));
#457=CARTESIAN_POINT('Ctrl Pts',(-49.3875023813997,-123.541023458595,53.7));
#458=CARTESIAN_POINT('Ctrl Pts',(-49.3875023813997,-123.099999403954,53.7));
#459=CARTESIAN_POINT('',(-56.4999973773956,-119.599999403954,50.2));
#460=CARTESIAN_POINT('',(-53.4999973773956,-119.599999403954,50.2));
#461=CARTESIAN_POINT('Origin',(-56.4999973773956,-123.099999403954,50.2));
#462=CARTESIAN_POINT('Origin',(-56.4999973773956,-123.099999403954,50.2));
#463=CARTESIAN_POINT('',(-56.4999973773956,-125.699999403954,50.2));
#464=CARTESIAN_POINT('Origin',(-56.4999973773956,-123.099999403954,50.2));
#465=CARTESIAN_POINT('Origin',(-58.4999973773956,-143.099999403954,50.1833658734512));
#466=CARTESIAN_POINT('',(-58.4999973773956,-139.599999403954,50.1833658734512));
#467=CARTESIAN_POINT('Origin',(-58.4999973773956,-143.099999403954,50.1833658734512));
#468=CARTESIAN_POINT('',(-58.4999973773956,-145.699999403954,50.1833658734512));
#469=CARTESIAN_POINT('Origin',(-58.4999973773956,-143.099999403954,50.1833658734512));
#470=CARTESIAN_POINT('Origin',(-55.4999973773956,-143.099999403954,50.1833658734512));
#471=CARTESIAN_POINT('',(-51.0000072593336,-139.599999403954,50.1833658734512));
#472=CARTESIAN_POINT('',(-55.4999973773956,-139.599999403954,50.1833658734512));
#473=CARTESIAN_POINT('',(-51.4488614685505,-143.099999403954,46.6833658734512));
#474=CARTESIAN_POINT('Ctrl Pts',(-51.4488614685505,-143.099999403954,46.6833658734512));
#475=CARTESIAN_POINT('Ctrl Pts',(-51.4488614685505,-143.541529050407,46.6833658734512));
#476=CARTESIAN_POINT('Ctrl Pts',(-51.4249254961814,-144.011126992116,46.7719919845743));
#477=CARTESIAN_POINT('Ctrl Pts',(-51.339571204896,-144.872827910633,47.1297277993875));
#478=CARTESIAN_POINT('Ctrl Pts',(-51.279502243946,-145.265103939752,47.398741312445));
#479=CARTESIAN_POINT('Ctrl Pts',(-51.1674894309896,-145.884484236728,48.0180848714418));
#480=CARTESIAN_POINT('Ctrl Pts',(-51.1081021260225,-146.153563756304,48.4103938103204));
#481=CARTESIAN_POINT('Ctrl Pts',(-51.02406679878,-146.511372504503,49.2722023718036));
#482=CARTESIAN_POINT('Ctrl Pts',(-51.0005318444818,-146.599999403954,49.7418526465233));
#483=CARTESIAN_POINT('Ctrl Pts',(-50.9994827977273,-146.599999403954,50.6247751223511));
#484=CARTESIAN_POINT('Ctrl Pts',(-51.0218917983088,-146.511409876472,51.0943771262583));
#485=CARTESIAN_POINT('Ctrl Pts',(-51.1038378492482,-146.153663644151,51.9561595612108));
#486=CARTESIAN_POINT('Ctrl Pts',(-51.1622607577533,-145.884607318994,52.3484872355812));
#487=CARTESIAN_POINT('Ctrl Pts',(-51.2727394252413,-145.265209497251,52.9679214397222));
#488=CARTESIAN_POINT('Ctrl Pts',(-51.332131440469,-144.872885328018,53.2369758818425));
#489=CARTESIAN_POINT('Ctrl Pts',(-51.4165704679564,-144.011123681271,53.5947453653518));
#490=CARTESIAN_POINT('Ctrl Pts',(-51.4402716356383,-143.54151562225,53.6833658734512));
#491=CARTESIAN_POINT('Ctrl Pts',(-51.4402716356383,-142.658483185658,53.6833658734512));
#492=CARTESIAN_POINT('Ctrl Pts',(-51.4165704679564,-142.188875126637,53.5947453653518));
#493=CARTESIAN_POINT('Ctrl Pts',(-51.332131440469,-141.32711347989,53.2369758818425));
#494=CARTESIAN_POINT('Ctrl Pts',(-51.2727394252413,-140.934789310657,52.9679214397222));
#495=CARTESIAN_POINT('Ctrl Pts',(-51.1622607577533,-140.315391488914,52.3484872355812));
#496=CARTESIAN_POINT('Ctrl Pts',(-51.1038378492482,-140.046335163757,51.9561595612108));
#497=CARTESIAN_POINT('Ctrl Pts',(-51.0218917983088,-139.688588931436,51.0943771262583));
#498=CARTESIAN_POINT('Ctrl Pts',(-50.9994827977273,-139.599999403954,50.6247751223511));
#499=CARTESIAN_POINT('Ctrl Pts',(-51.0000072593336,-139.599999403954,50.1833658734512));
#500=CARTESIAN_POINT('Ctrl Pts',(-51.0000072593336,-139.599999403954,50.1833658734512));
#501=CARTESIAN_POINT('Ctrl Pts',(-51.0005318444817,-139.599999403954,49.7418526465233));
#502=CARTESIAN_POINT('Ctrl Pts',(-51.02406679878,-139.688626303405,49.2722023718036));
#503=CARTESIAN_POINT('Ctrl Pts',(-51.1081021260225,-140.046435051604,48.4103938103204));
#504=CARTESIAN_POINT('Ctrl Pts',(-51.1674894309896,-140.31551457118,48.0180848714418));
#505=CARTESIAN_POINT('Ctrl Pts',(-51.279502243946,-140.934894868156,47.398741312445));
#506=CARTESIAN_POINT('Ctrl Pts',(-51.339571204896,-141.327170897275,47.1297277993875));
#507=CARTESIAN_POINT('Ctrl Pts',(-51.4249254961814,-142.188871815792,46.7719919845743));
#508=CARTESIAN_POINT('Ctrl Pts',(-51.4488614685505,-142.658469757501,46.6833658734512));
#509=CARTESIAN_POINT('Ctrl Pts',(-51.4488614685505,-143.099999403954,46.6833658734512));
#510=CARTESIAN_POINT('Origin',(-55.4999973773956,-143.099999403954,50.1833658734512));
#511=CARTESIAN_POINT('',(-61.9500427374323,-145.699999403954,50.1833658734512));
#512=CARTESIAN_POINT('',(-55.4999973773956,-145.699999403954,50.1833658734512));
#513=CARTESIAN_POINT('',(-63.378664356734,-143.099999403954,52.7833658734512));
#514=CARTESIAN_POINT('Ctrl Pts',(-61.9500427374323,-145.699999403954,50.1833658734512));
#515=CARTESIAN_POINT('Ctrl Pts',(-61.94815236036,-145.699999403954,50.529976457782));
#516=CARTESIAN_POINT('Ctrl Pts',(-62.0094248243475,-145.62666640452,50.8874884115872));
#517=CARTESIAN_POINT('Ctrl Pts',(-62.2317770615468,-145.354414654926,51.5240544522716));
#518=CARTESIAN_POINT('Ctrl Pts',(-62.3916727593968,-145.156241490641,51.8038400353031));
#519=CARTESIAN_POINT('Ctrl Pts',(-62.7226375771598,-144.711977158618,52.2485931166358));
#520=CARTESIAN_POINT('Ctrl Pts',(-62.9215791169509,-144.431342108419,52.4422246856096));
#521=CARTESIAN_POINT('Ctrl Pts',(-63.1690793140821,-143.963574333866,52.6416106176464));
#522=CARTESIAN_POINT('Ctrl Pts',(-63.2424454855018,-143.799723919953,52.6934893019407));
#523=CARTESIAN_POINT('Ctrl Pts',(-63.3474969681851,-143.45896275594,52.7643307451372));
#524=CARTESIAN_POINT('Ctrl Pts',(-63.378664356734,-143.281907599091,52.7833658734512));
#525=CARTESIAN_POINT('Ctrl Pts',(-63.378664356734,-143.099999403954,52.7833658734512));
#526=CARTESIAN_POINT('Ctrl Pts',(-63.378664356734,-143.099999403954,52.7833658734512));
#527=CARTESIAN_POINT('Ctrl Pts',(-63.378664356734,-142.918091208817,52.7833658734512));
#528=CARTESIAN_POINT('Ctrl Pts',(-63.3474969681851,-142.741036051968,52.7643307451372));
#529=CARTESIAN_POINT('Ctrl Pts',(-63.2424454855018,-142.400274887955,52.6934893019407));
#530=CARTESIAN_POINT('Ctrl Pts',(-63.1690793140821,-142.236424474042,52.6416106176464));
#531=CARTESIAN_POINT('Ctrl Pts',(-62.9215791169509,-141.768656699489,52.4422246856096));
#532=CARTESIAN_POINT('Ctrl Pts',(-62.7226375771598,-141.48802164929,52.2485931166358));
#533=CARTESIAN_POINT('Ctrl Pts',(-62.3916727593968,-141.043757317267,51.8038400353031));
#534=CARTESIAN_POINT('Ctrl Pts',(-62.2317770615468,-140.845584152982,51.5240544522716));
#535=CARTESIAN_POINT('Ctrl Pts',(-62.0094248243475,-140.573332403388,50.8874884115872));
#536=CARTESIAN_POINT('Ctrl Pts',(-61.94815236036,-140.499999403954,50.529976457782));
#537=CARTESIAN_POINT('Ctrl Pts',(-61.9519425040757,-140.499999403954,49.8350336618512));
#538=CARTESIAN_POINT('Ctrl Pts',(-62.0176946359546,-140.573995992538,49.4766639759357));
#539=CARTESIAN_POINT('Ctrl Pts',(-62.2492131329424,-140.84731886903,48.8396581189721));
#540=CARTESIAN_POINT('Ctrl Pts',(-62.4138384731711,-141.045885058296,48.5602820584452));
#541=CARTESIAN_POINT('Ctrl Pts',(-62.7541767595669,-141.490140938157,48.1165254029191));
#542=CARTESIAN_POINT('Ctrl Pts',(-62.9585514880249,-141.770312130503,47.923687717691));
#543=CARTESIAN_POINT('Ctrl Pts',(-63.2142734612382,-142.236707367509,47.7250576070336));
#544=CARTESIAN_POINT('Ctrl Pts',(-63.2903636728286,-142.399945499302,47.67336149145));
#545=CARTESIAN_POINT('Ctrl Pts',(-63.3999777491978,-142.740035952743,47.602558607709));
#546=CARTESIAN_POINT('Ctrl Pts',(-63.4329218055804,-142.917056980999,47.5833658734512));
#547=CARTESIAN_POINT('Ctrl Pts',(-63.4329218055804,-143.282941826909,47.5833658734512));
#548=CARTESIAN_POINT('Ctrl Pts',(-63.3999777491978,-143.459962855165,47.602558607709));
#549=CARTESIAN_POINT('Ctrl Pts',(-63.2903636728286,-143.800053308606,47.67336149145));
#550=CARTESIAN_POINT('Ctrl Pts',(-63.2142734612382,-143.963291440399,47.7250576070336));
#551=CARTESIAN_POINT('Ctrl Pts',(-62.9585514880249,-144.429686677405,47.923687717691));
#552=CARTESIAN_POINT('Ctrl Pts',(-62.7541767595669,-144.709857869751,48.1165254029191));
#553=CARTESIAN_POINT('Ctrl Pts',(-62.4138384731711,-145.154113749612,48.5602820584452));
#554=CARTESIAN_POINT('Ctrl Pts',(-62.2492131329423,-145.352679938878,48.8396581189721));
#555=CARTESIAN_POINT('Ctrl Pts',(-62.0176946359545,-145.62600281537,49.4766639759356));
#556=CARTESIAN_POINT('Ctrl Pts',(-61.9519425040757,-145.699999403954,49.8350336618512));
#557=CARTESIAN_POINT('Ctrl Pts',(-61.9500427374323,-145.699999403954,50.1833658734512));
#558=CARTESIAN_POINT('Origin',(-53.4999973773956,-123.099999403954,50.2));
#559=CARTESIAN_POINT('',(-59.9499973773956,-125.699999403954,50.2));
#560=CARTESIAN_POINT('',(-53.4999973773956,-125.699999403954,50.2));
#561=CARTESIAN_POINT('',(-60.6707364704971,-123.099999403954,52.8));
#562=CARTESIAN_POINT('Ctrl Pts',(-59.9499973773956,-125.699999403954,50.2));
#563=CARTESIAN_POINT('Ctrl Pts',(-59.9499973773956,-125.699999403954,50.5330863527392));
#564=CARTESIAN_POINT('Ctrl Pts',(-59.9859584782308,-125.632145728237,50.884242035145));
#565=CARTESIAN_POINT('Ctrl Pts',(-60.1155477378772,-125.364734915869,51.523225187391));
#566=CARTESIAN_POINT('Ctrl Pts',(-60.2078056412566,-125.165493024296,51.8114616418283));
#567=CARTESIAN_POINT('Ctrl Pts',(-60.3855543201749,-124.710750955365,52.2662037107592));
#568=CARTESIAN_POINT('Ctrl Pts',(-60.4838473189444,-124.422748405746,52.4649278920013));
#569=CARTESIAN_POINT('Ctrl Pts',(-60.6279362886124,-123.784810462976,52.731915090862));
#570=CARTESIAN_POINT('Ctrl Pts',(-60.6707364704971,-123.43412762792,52.8));
#571=CARTESIAN_POINT('Ctrl Pts',(-60.6707364704971,-123.099999403954,52.8));
#572=CARTESIAN_POINT('Ctrl Pts',(-60.6707364704971,-123.099999403954,52.8));
#573=CARTESIAN_POINT('Ctrl Pts',(-60.6707364704971,-122.765871179988,52.8));
#574=CARTESIAN_POINT('Ctrl Pts',(-60.6279362886124,-122.415188344932,52.731915090862));
#575=CARTESIAN_POINT('Ctrl Pts',(-60.4838473189444,-121.777250402162,52.4649278920013));
#576=CARTESIAN_POINT('Ctrl Pts',(-60.3855543201749,-121.489247852543,52.2662037107592));
#577=CARTESIAN_POINT('Ctrl Pts',(-60.2078056412566,-121.034505783612,51.8114616418283));
#578=CARTESIAN_POINT('Ctrl Pts',(-60.1155477378772,-120.835263892039,51.523225187391));
#579=CARTESIAN_POINT('Ctrl Pts',(-59.9859584782308,-120.567853079671,50.884242035145));
#580=CARTESIAN_POINT('Ctrl Pts',(-59.9499973773956,-120.499999403954,50.5330863527392));
#581=CARTESIAN_POINT('Ctrl Pts',(-59.9499973773956,-120.499999403954,49.8669136472608));
#582=CARTESIAN_POINT('Ctrl Pts',(-59.9859584782308,-120.567853079671,49.515757964855));
#583=CARTESIAN_POINT('Ctrl Pts',(-60.1155477378772,-120.835263892039,48.876774812609));
#584=CARTESIAN_POINT('Ctrl Pts',(-60.2078056412566,-121.034505783612,48.5885383581717));
#585=CARTESIAN_POINT('Ctrl Pts',(-60.3855543201749,-121.489247852543,48.1337962892409));
#586=CARTESIAN_POINT('Ctrl Pts',(-60.4838473189444,-121.777250402162,47.9350721079987));
#587=CARTESIAN_POINT('Ctrl Pts',(-60.6279362886124,-122.415188344932,47.6680849091381));
#588=CARTESIAN_POINT('Ctrl Pts',(-60.6707364704971,-122.765871179988,47.6));
#589=CARTESIAN_POINT('Ctrl Pts',(-60.6707364704971,-123.43412762792,47.6));
#590=CARTESIAN_POINT('Ctrl Pts',(-60.6279362886124,-123.784810462976,47.6680849091381));
#591=CARTESIAN_POINT('Ctrl Pts',(-60.4838473189444,-124.422748405746,47.9350721079987));
#592=CARTESIAN_POINT('Ctrl Pts',(-60.3855543201749,-124.710750955365,48.1337962892409));
#593=CARTESIAN_POINT('Ctrl Pts',(-60.2078056412566,-125.165493024296,48.5885383581717));
#594=CARTESIAN_POINT('Ctrl Pts',(-60.1155477378772,-125.364734915869,48.876774812609));
#595=CARTESIAN_POINT('Ctrl Pts',(-59.9859584782308,-125.632145728237,49.515757964855));
#596=CARTESIAN_POINT('Ctrl Pts',(-59.9499973773956,-125.699999403954,49.8669136472608));
#597=CARTESIAN_POINT('Ctrl Pts',(-59.9499973773956,-125.699999403954,50.2));
#598=CARTESIAN_POINT('Origin',(-64.9999973773956,12.0000005960464,50.2));
#599=CARTESIAN_POINT('',(-69.9999973773956,-133.999999403954,50.1999999999999));
#600=CARTESIAN_POINT('Origin',(-64.9999973773956,-133.999999403954,50.1999999999999));
#601=CARTESIAN_POINT('',(-69.9999973773956,-137.999999403953,50.1999999999999));
#602=CARTESIAN_POINT('',(-69.9999973773956,12.0000005960464,50.2));
#603=CARTESIAN_POINT('Origin',(-64.9999973773956,-137.999999403953,50.1999999999999));
#604=CARTESIAN_POINT('Origin',(-64.9999973773956,-137.999999403953,50.1999999999999));
#605=CARTESIAN_POINT('',(-64.9999973773956,-137.999999403953,47.15));
#606=CARTESIAN_POINT('Origin',(-64.9999973773956,-137.999999403953,50.2));
#607=CARTESIAN_POINT('Origin',(-64.9999973773957,-132.449489146737,50.2));
#608=CARTESIAN_POINT('',(-64.9999973773957,-132.449489146737,34.2));
#609=CARTESIAN_POINT('Origin',(-64.9999973773957,-132.449489146737,50.2));
#610=CARTESIAN_POINT('',(-64.9999973773957,-134.449489146737,35.2));
#611=CARTESIAN_POINT('Origin',(-64.9999973773957,-132.449489146737,36.7));
#612=CARTESIAN_POINT('',(-64.9999973773957,-134.449489146737,65.2));
#613=CARTESIAN_POINT('Origin',(-64.9999973773957,-134.449489146737,50.2));
#614=CARTESIAN_POINT('Origin',(-64.9999973773957,-134.449489146737,50.2));
#615=CARTESIAN_POINT('Origin',(-64.9999973773957,-130.599999403953,50.2));
#616=CARTESIAN_POINT('',(-64.9999973773957,-113.099999403953,34.2));
#617=CARTESIAN_POINT('Origin',(-64.9999973773957,-113.099999403953,50.2));
#618=CARTESIAN_POINT('',(-64.9999973773957,-130.599999403953,34.2));
#619=CARTESIAN_POINT('Origin',(-64.9999973773957,-136.449489146737,50.2));
#620=CARTESIAN_POINT('',(-64.9999973773957,-136.449489146737,64.2));
#621=CARTESIAN_POINT('',(-64.9999973773957,-136.449489146737,36.2));
#622=CARTESIAN_POINT('Origin',(-64.9999973773957,-136.449489146737,50.2));
#623=CARTESIAN_POINT('Origin',(-64.9999973773957,-136.449489146737,50.2));
#624=CARTESIAN_POINT('Origin',(-64.9999973773957,-136.449489146737,66.7));
#625=CARTESIAN_POINT('Origin',(-64.9999973773957,-130.599999403953,50.2));
#626=CARTESIAN_POINT('',(-64.9999973773957,-130.599999403953,36.2));
#627=CARTESIAN_POINT('Origin',(-64.9999973773956,-133.999999403954,50.2));
#628=CARTESIAN_POINT('',(-64.9999973773956,-133.999999403954,45.15));
#629=CARTESIAN_POINT('Origin',(-64.9999973773956,-133.999999403954,50.2));
#630=CARTESIAN_POINT('Origin',(-64.9999973773956,-128.599999403953,50.2));
#631=CARTESIAN_POINT('',(-64.9999973773956,-128.599999403953,47.15));
#632=CARTESIAN_POINT('Origin',(-64.9999973773956,-115.999999403954,50.2));
#633=CARTESIAN_POINT('',(-64.9999973773956,-113.099999403953,45.15));
#634=CARTESIAN_POINT('',(-64.9999973773956,-115.999999403954,45.15));
#635=CARTESIAN_POINT('Origin',(-64.9999973773956,-113.099999403953,50.2));
#636=CARTESIAN_POINT('Origin',(-64.9999973773957,-113.099999403953,50.2));
#637=UNCERTAINTY_MEASURE_WITH_UNIT(LENGTH_MEASURE(0.01),#641,
'DISTANCE_ACCURACY_VALUE',
'Maximum model space distance between geometric entities at asserted c
onnectivities');
#638=UNCERTAINTY_MEASURE_WITH_UNIT(LENGTH_MEASURE(0.01),#641,
'DISTANCE_ACCURACY_VALUE',
'Maximum model space distance between geometric entities at asserted c
onnectivities');
#639=(
GEOMETRIC_REPRESENTATION_CONTEXT(3)
GLOBAL_UNCERTAINTY_ASSIGNED_CONTEXT((#637))
GLOBAL_UNIT_ASSIGNED_CONTEXT((#641,#643,#644))
REPRESENTATION_CONTEXT('','3D')
);
#640=(
GEOMETRIC_REPRESENTATION_CONTEXT(3)
GLOBAL_UNCERTAINTY_ASSIGNED_CONTEXT((#638))
GLOBAL_UNIT_ASSIGNED_CONTEXT((#641,#643,#644))
REPRESENTATION_CONTEXT('','3D')
);
#641=(
LENGTH_UNIT()
NAMED_UNIT(*)
SI_UNIT(.MILLI.,.METRE.)
);
#642=(
LENGTH_UNIT()
NAMED_UNIT(*)
SI_UNIT($,.METRE.)
);
#643=(
NAMED_UNIT(*)
PLANE_ANGLE_UNIT()
SI_UNIT($,.RADIAN.)
);
#644=(
NAMED_UNIT(*)
SI_UNIT($,.STERADIAN.)
SOLID_ANGLE_UNIT()
);
#645=SHAPE_DEFINITION_REPRESENTATION(#646,#647);
#646=PRODUCT_DEFINITION_SHAPE('',$,#649);
#647=SHAPE_REPRESENTATION('',(#294),#639);
#648=PRODUCT_DEFINITION_CONTEXT('part definition',#653,'design');
#649=PRODUCT_DEFINITION('2026-06-24-14-53-39-271','EncoderCoupler',#650,
#648);
#650=PRODUCT_DEFINITION_FORMATION('',$,#655);
#651=PRODUCT_RELATED_PRODUCT_CATEGORY('EncoderCoupler','EncoderCoupler',
(#655));
#652=APPLICATION_PROTOCOL_DEFINITION('international standard',
'automotive_design',2009,#653);
#653=APPLICATION_CONTEXT(
'Core Data for Automotive Mechanical Design Process');
#654=PRODUCT_CONTEXT('part definition',#653,'mechanical');
#655=PRODUCT('2026-06-24-14-53-39-271','EncoderCoupler',$,(#654));
#656=PRESENTATION_STYLE_ASSIGNMENT((#658));
#657=PRESENTATION_STYLE_ASSIGNMENT((#659));
#658=SURFACE_STYLE_USAGE(.BOTH.,#660);
#659=SURFACE_STYLE_USAGE(.BOTH.,#661);
#660=SURFACE_SIDE_STYLE('',(#662));
#661=SURFACE_SIDE_STYLE('',(#663));
#662=SURFACE_STYLE_FILL_AREA(#664);
#663=SURFACE_STYLE_FILL_AREA(#665);
#664=FILL_AREA_STYLE('\X\C7elik - Saten',(#666));
#665=FILL_AREA_STYLE('ABS (Beyaz)',(#667));
#666=FILL_AREA_STYLE_COLOUR('\X\C7elik - Saten',#668);
#667=FILL_AREA_STYLE_COLOUR('ABS (Beyaz)',#669);
#668=COLOUR_RGB('\X\C7elik - Saten',0.627450980392157,0.627450980392157,
0.627450980392157);
#669=COLOUR_RGB('ABS (Beyaz)',0.,0.,0.);
ENDSEC;
END-ISO-10303-21;
