ISO-10303-21;
HEADER;
/* Generated by software containing ST-Developer
 * from STEP Tools, Inc. (www.steptools.com) 
 */

FILE_DESCRIPTION(
/* description */ (''),
/* implementation_level */ '2;1');

FILE_NAME(
/* name */ 'EncoderBracket.step',
/* time_stamp */ '2026-06-24T14:53:47+03:00',
/* author */ (''),
/* organization */ (''),
/* preprocessor_version */ 'ST-DEVELOPER v20.1',
/* originating_system */ 'Autodesk Translation Framework v15.8.0.0',
/* authorisation */ '');

FILE_SCHEMA (('AUTOMOTIVE_DESIGN { 1 0 10303 214 3 1 1 }'));
ENDSEC;

DATA;
#10=MECHANICAL_DESIGN_GEOMETRIC_PRESENTATION_REPRESENTATION('',(#13),#663);
#11=SHAPE_REPRESENTATION_RELATIONSHIP('SRR','None',#670,#12);
#12=ADVANCED_BREP_SHAPE_REPRESENTATION('',(#14),#662);
#13=STYLED_ITEM('',(#680),#14);
#14=MANIFOLD_SOLID_BREP('EncoderBracket',#392);
#15=FACE_BOUND('',#58,.T.);
#16=FACE_BOUND('',#59,.T.);
#17=FACE_BOUND('',#64,.T.);
#18=FACE_BOUND('',#65,.T.);
#19=FACE_BOUND('',#67,.T.);
#20=FACE_BOUND('',#68,.T.);
#21=FACE_BOUND('',#69,.T.);
#22=FACE_BOUND('',#70,.T.);
#23=FACE_BOUND('',#74,.T.);
#24=FACE_BOUND('',#75,.T.);
#25=FACE_BOUND('',#76,.T.);
#26=FACE_BOUND('',#77,.T.);
#27=PLANE('',#409);
#28=PLANE('',#416);
#29=PLANE('',#417);
#30=PLANE('',#418);
#31=PLANE('',#427);
#32=PLANE('',#428);
#33=PLANE('',#439);
#34=PLANE('',#440);
#35=PLANE('',#441);
#36=PLANE('',#442);
#37=FACE_OUTER_BOUND('',#56,.T.);
#38=FACE_OUTER_BOUND('',#57,.T.);
#39=FACE_OUTER_BOUND('',#60,.T.);
#40=FACE_OUTER_BOUND('',#61,.T.);
#41=FACE_OUTER_BOUND('',#62,.T.);
#42=FACE_OUTER_BOUND('',#63,.T.);
#43=FACE_OUTER_BOUND('',#66,.T.);
#44=FACE_OUTER_BOUND('',#71,.T.);
#45=FACE_OUTER_BOUND('',#72,.T.);
#46=FACE_OUTER_BOUND('',#73,.T.);
#47=FACE_OUTER_BOUND('',#78,.T.);
#48=FACE_OUTER_BOUND('',#79,.T.);
#49=FACE_OUTER_BOUND('',#80,.T.);
#50=FACE_OUTER_BOUND('',#81,.T.);
#51=FACE_OUTER_BOUND('',#82,.T.);
#52=FACE_OUTER_BOUND('',#83,.T.);
#53=FACE_OUTER_BOUND('',#84,.T.);
#54=FACE_OUTER_BOUND('',#85,.T.);
#55=FACE_OUTER_BOUND('',#86,.T.);
#56=EDGE_LOOP('',(#260,#261,#262,#263));
#57=EDGE_LOOP('',(#264,#265,#266,#267));
#58=EDGE_LOOP('',(#268));
#59=EDGE_LOOP('',(#269));
#60=EDGE_LOOP('',(#270,#271,#272,#273));
#61=EDGE_LOOP('',(#274,#275,#276,#277));
#62=EDGE_LOOP('',(#278,#279,#280,#281));
#63=EDGE_LOOP('',(#282,#283,#284,#285));
#64=EDGE_LOOP('',(#286));
#65=EDGE_LOOP('',(#287));
#66=EDGE_LOOP('',(#288,#289,#290,#291,#292,#293));
#67=EDGE_LOOP('',(#294));
#68=EDGE_LOOP('',(#295));
#69=EDGE_LOOP('',(#296));
#70=EDGE_LOOP('',(#297));
#71=EDGE_LOOP('',(#298,#299,#300,#301));
#72=EDGE_LOOP('',(#302,#303,#304,#305));
#73=EDGE_LOOP('',(#306,#307,#308,#309,#310,#311,#312));
#74=EDGE_LOOP('',(#313));
#75=EDGE_LOOP('',(#314));
#76=EDGE_LOOP('',(#315));
#77=EDGE_LOOP('',(#316));
#78=EDGE_LOOP('',(#317,#318,#319,#320));
#79=EDGE_LOOP('',(#321,#322,#323,#324));
#80=EDGE_LOOP('',(#325,#326,#327,#328));
#81=EDGE_LOOP('',(#329,#330,#331,#332));
#82=EDGE_LOOP('',(#333,#334,#335,#336));
#83=EDGE_LOOP('',(#337,#338,#339,#340,#341,#342,#343,#344,#345));
#84=EDGE_LOOP('',(#346,#347,#348,#349,#350,#351,#352,#353,#354,#355));
#85=EDGE_LOOP('',(#356,#357,#358,#359));
#86=EDGE_LOOP('',(#360,#361,#362,#363));
#87=LINE('',#559,#121);
#88=LINE('',#562,#122);
#89=LINE('',#565,#123);
#90=LINE('',#567,#124);
#91=LINE('',#568,#125);
#92=LINE('',#575,#126);
#93=LINE('',#579,#127);
#94=LINE('',#584,#128);
#95=LINE('',#585,#129);
#96=LINE('',#586,#130);
#97=LINE('',#589,#131);
#98=LINE('',#591,#132);
#99=LINE('',#592,#133);
#100=LINE('',#595,#134);
#101=LINE('',#599,#135);
#102=LINE('',#602,#136);
#103=LINE('',#613,#137);
#104=LINE('',#616,#138);
#105=LINE('',#619,#139);
#106=LINE('',#620,#140);
#107=LINE('',#623,#141);
#108=LINE('',#625,#142);
#109=LINE('',#627,#143);
#110=LINE('',#629,#144);
#111=LINE('',#640,#145);
#112=LINE('',#642,#146);
#113=LINE('',#644,#147);
#114=LINE('',#646,#148);
#115=LINE('',#648,#149);
#116=LINE('',#651,#150);
#117=LINE('',#652,#151);
#118=LINE('',#655,#152);
#119=LINE('',#656,#153);
#120=LINE('',#658,#154);
#121=VECTOR('',#449,10.);
#122=VECTOR('',#452,10.);
#123=VECTOR('',#455,10.);
#124=VECTOR('',#456,10.);
#125=VECTOR('',#457,10.);
#126=VECTOR('',#464,2.55);
#127=VECTOR('',#469,2.55);
#128=VECTOR('',#474,10.);
#129=VECTOR('',#475,10.);
#130=VECTOR('',#476,10.);
#131=VECTOR('',#479,10.);
#132=VECTOR('',#480,10.);
#133=VECTOR('',#481,10.);
#134=VECTOR('',#484,10.);
#135=VECTOR('',#487,10.);
#136=VECTOR('',#490,10.);
#137=VECTOR('',#501,10.);
#138=VECTOR('',#504,10.);
#139=VECTOR('',#507,10.);
#140=VECTOR('',#508,10.);
#141=VECTOR('',#511,10.);
#142=VECTOR('',#512,10.);
#143=VECTOR('',#513,10.);
#144=VECTOR('',#514,10.);
#145=VECTOR('',#527,10.);
#146=VECTOR('',#530,2.);
#147=VECTOR('',#533,1.99999999999999);
#148=VECTOR('',#536,1.99999999999999);
#149=VECTOR('',#539,9.99999999999999);
#150=VECTOR('',#542,10.);
#151=VECTOR('',#543,10.);
#152=VECTOR('',#546,10.);
#153=VECTOR('',#547,10.);
#154=VECTOR('',#550,10.);
#155=CIRCLE('',#407,2.);
#156=CIRCLE('',#408,2.);
#157=CIRCLE('',#410,2.55);
#158=CIRCLE('',#411,2.55);
#159=CIRCLE('',#413,2.55);
#160=CIRCLE('',#415,2.55);
#161=CIRCLE('',#419,10.5);
#162=CIRCLE('',#420,10.5);
#163=CIRCLE('',#421,9.99999999999999);
#164=CIRCLE('',#422,1.99999999999999);
#165=CIRCLE('',#423,1.99999999999999);
#166=CIRCLE('',#424,2.);
#167=CIRCLE('',#426,10.5);
#168=CIRCLE('',#429,10.5);
#169=CIRCLE('',#430,9.99999999999999);
#170=CIRCLE('',#431,1.99999999999999);
#171=CIRCLE('',#432,1.99999999999999);
#172=CIRCLE('',#433,2.);
#173=VERTEX_POINT('',#555);
#174=VERTEX_POINT('',#556);
#175=VERTEX_POINT('',#558);
#176=VERTEX_POINT('',#560);
#177=VERTEX_POINT('',#564);
#178=VERTEX_POINT('',#566);
#179=VERTEX_POINT('',#569);
#180=VERTEX_POINT('',#571);
#181=VERTEX_POINT('',#574);
#182=VERTEX_POINT('',#578);
#183=VERTEX_POINT('',#582);
#184=VERTEX_POINT('',#583);
#185=VERTEX_POINT('',#588);
#186=VERTEX_POINT('',#590);
#187=VERTEX_POINT('',#594);
#188=VERTEX_POINT('',#596);
#189=VERTEX_POINT('',#598);
#190=VERTEX_POINT('',#600);
#191=VERTEX_POINT('',#603);
#192=VERTEX_POINT('',#605);
#193=VERTEX_POINT('',#607);
#194=VERTEX_POINT('',#609);
#195=VERTEX_POINT('',#612);
#196=VERTEX_POINT('',#614);
#197=VERTEX_POINT('',#618);
#198=VERTEX_POINT('',#622);
#199=VERTEX_POINT('',#624);
#200=VERTEX_POINT('',#626);
#201=VERTEX_POINT('',#628);
#202=VERTEX_POINT('',#631);
#203=VERTEX_POINT('',#633);
#204=VERTEX_POINT('',#635);
#205=VERTEX_POINT('',#637);
#206=VERTEX_POINT('',#650);
#207=VERTEX_POINT('',#654);
#208=EDGE_CURVE('',#173,#174,#155,.T.);
#209=EDGE_CURVE('',#174,#175,#87,.T.);
#210=EDGE_CURVE('',#175,#176,#156,.T.);
#211=EDGE_CURVE('',#176,#173,#88,.T.);
#212=EDGE_CURVE('',#176,#177,#89,.T.);
#213=EDGE_CURVE('',#177,#178,#90,.T.);
#214=EDGE_CURVE('',#178,#173,#91,.T.);
#215=EDGE_CURVE('',#179,#179,#157,.T.);
#216=EDGE_CURVE('',#180,#180,#158,.T.);
#217=EDGE_CURVE('',#179,#181,#92,.T.);
#218=EDGE_CURVE('',#181,#181,#159,.T.);
#219=EDGE_CURVE('',#180,#182,#93,.T.);
#220=EDGE_CURVE('',#182,#182,#160,.T.);
#221=EDGE_CURVE('',#183,#184,#94,.T.);
#222=EDGE_CURVE('',#183,#178,#95,.T.);
#223=EDGE_CURVE('',#184,#177,#96,.T.);
#224=EDGE_CURVE('',#184,#185,#97,.T.);
#225=EDGE_CURVE('',#186,#185,#98,.T.);
#226=EDGE_CURVE('',#183,#186,#99,.T.);
#227=EDGE_CURVE('',#174,#187,#100,.T.);
#228=EDGE_CURVE('',#188,#187,#161,.T.);
#229=EDGE_CURVE('',#188,#189,#101,.T.);
#230=EDGE_CURVE('',#190,#189,#162,.T.);
#231=EDGE_CURVE('',#190,#175,#102,.T.);
#232=EDGE_CURVE('',#191,#191,#163,.T.);
#233=EDGE_CURVE('',#192,#192,#164,.T.);
#234=EDGE_CURVE('',#193,#193,#165,.T.);
#235=EDGE_CURVE('',#194,#194,#166,.T.);
#236=EDGE_CURVE('',#187,#195,#103,.T.);
#237=EDGE_CURVE('',#195,#196,#167,.T.);
#238=EDGE_CURVE('',#196,#188,#104,.T.);
#239=EDGE_CURVE('',#197,#196,#105,.T.);
#240=EDGE_CURVE('',#189,#197,#106,.T.);
#241=EDGE_CURVE('',#195,#198,#107,.T.);
#242=EDGE_CURVE('',#198,#199,#108,.T.);
#243=EDGE_CURVE('',#199,#200,#109,.T.);
#244=EDGE_CURVE('',#200,#201,#110,.T.);
#245=EDGE_CURVE('',#197,#201,#168,.T.);
#246=EDGE_CURVE('',#202,#202,#169,.T.);
#247=EDGE_CURVE('',#203,#203,#170,.T.);
#248=EDGE_CURVE('',#204,#204,#171,.T.);
#249=EDGE_CURVE('',#205,#205,#172,.T.);
#250=EDGE_CURVE('',#201,#190,#111,.T.);
#251=EDGE_CURVE('',#194,#205,#112,.T.);
#252=EDGE_CURVE('',#193,#204,#113,.T.);
#253=EDGE_CURVE('',#192,#203,#114,.T.);
#254=EDGE_CURVE('',#191,#202,#115,.T.);
#255=EDGE_CURVE('',#200,#206,#116,.T.);
#256=EDGE_CURVE('',#185,#206,#117,.T.);
#257=EDGE_CURVE('',#207,#186,#118,.T.);
#258=EDGE_CURVE('',#199,#207,#119,.T.);
#259=EDGE_CURVE('',#206,#207,#120,.T.);
#260=ORIENTED_EDGE('',*,*,#208,.T.);
#261=ORIENTED_EDGE('',*,*,#209,.T.);
#262=ORIENTED_EDGE('',*,*,#210,.T.);
#263=ORIENTED_EDGE('',*,*,#211,.T.);
#264=ORIENTED_EDGE('',*,*,#211,.F.);
#265=ORIENTED_EDGE('',*,*,#212,.T.);
#266=ORIENTED_EDGE('',*,*,#213,.T.);
#267=ORIENTED_EDGE('',*,*,#214,.T.);
#268=ORIENTED_EDGE('',*,*,#215,.T.);
#269=ORIENTED_EDGE('',*,*,#216,.T.);
#270=ORIENTED_EDGE('',*,*,#215,.F.);
#271=ORIENTED_EDGE('',*,*,#217,.T.);
#272=ORIENTED_EDGE('',*,*,#218,.T.);
#273=ORIENTED_EDGE('',*,*,#217,.F.);
#274=ORIENTED_EDGE('',*,*,#216,.F.);
#275=ORIENTED_EDGE('',*,*,#219,.T.);
#276=ORIENTED_EDGE('',*,*,#220,.T.);
#277=ORIENTED_EDGE('',*,*,#219,.F.);
#278=ORIENTED_EDGE('',*,*,#221,.F.);
#279=ORIENTED_EDGE('',*,*,#222,.T.);
#280=ORIENTED_EDGE('',*,*,#213,.F.);
#281=ORIENTED_EDGE('',*,*,#223,.F.);
#282=ORIENTED_EDGE('',*,*,#221,.T.);
#283=ORIENTED_EDGE('',*,*,#224,.T.);
#284=ORIENTED_EDGE('',*,*,#225,.F.);
#285=ORIENTED_EDGE('',*,*,#226,.F.);
#286=ORIENTED_EDGE('',*,*,#220,.F.);
#287=ORIENTED_EDGE('',*,*,#218,.F.);
#288=ORIENTED_EDGE('',*,*,#209,.F.);
#289=ORIENTED_EDGE('',*,*,#227,.T.);
#290=ORIENTED_EDGE('',*,*,#228,.F.);
#291=ORIENTED_EDGE('',*,*,#229,.T.);
#292=ORIENTED_EDGE('',*,*,#230,.F.);
#293=ORIENTED_EDGE('',*,*,#231,.T.);
#294=ORIENTED_EDGE('',*,*,#232,.T.);
#295=ORIENTED_EDGE('',*,*,#233,.T.);
#296=ORIENTED_EDGE('',*,*,#234,.T.);
#297=ORIENTED_EDGE('',*,*,#235,.T.);
#298=ORIENTED_EDGE('',*,*,#228,.T.);
#299=ORIENTED_EDGE('',*,*,#236,.T.);
#300=ORIENTED_EDGE('',*,*,#237,.T.);
#301=ORIENTED_EDGE('',*,*,#238,.T.);
#302=ORIENTED_EDGE('',*,*,#238,.F.);
#303=ORIENTED_EDGE('',*,*,#239,.F.);
#304=ORIENTED_EDGE('',*,*,#240,.F.);
#305=ORIENTED_EDGE('',*,*,#229,.F.);
#306=ORIENTED_EDGE('',*,*,#237,.F.);
#307=ORIENTED_EDGE('',*,*,#241,.T.);
#308=ORIENTED_EDGE('',*,*,#242,.T.);
#309=ORIENTED_EDGE('',*,*,#243,.T.);
#310=ORIENTED_EDGE('',*,*,#244,.T.);
#311=ORIENTED_EDGE('',*,*,#245,.F.);
#312=ORIENTED_EDGE('',*,*,#239,.T.);
#313=ORIENTED_EDGE('',*,*,#246,.F.);
#314=ORIENTED_EDGE('',*,*,#247,.F.);
#315=ORIENTED_EDGE('',*,*,#248,.F.);
#316=ORIENTED_EDGE('',*,*,#249,.F.);
#317=ORIENTED_EDGE('',*,*,#230,.T.);
#318=ORIENTED_EDGE('',*,*,#240,.T.);
#319=ORIENTED_EDGE('',*,*,#245,.T.);
#320=ORIENTED_EDGE('',*,*,#250,.T.);
#321=ORIENTED_EDGE('',*,*,#235,.F.);
#322=ORIENTED_EDGE('',*,*,#251,.T.);
#323=ORIENTED_EDGE('',*,*,#249,.T.);
#324=ORIENTED_EDGE('',*,*,#251,.F.);
#325=ORIENTED_EDGE('',*,*,#234,.F.);
#326=ORIENTED_EDGE('',*,*,#252,.T.);
#327=ORIENTED_EDGE('',*,*,#248,.T.);
#328=ORIENTED_EDGE('',*,*,#252,.F.);
#329=ORIENTED_EDGE('',*,*,#233,.F.);
#330=ORIENTED_EDGE('',*,*,#253,.T.);
#331=ORIENTED_EDGE('',*,*,#247,.T.);
#332=ORIENTED_EDGE('',*,*,#253,.F.);
#333=ORIENTED_EDGE('',*,*,#232,.F.);
#334=ORIENTED_EDGE('',*,*,#254,.T.);
#335=ORIENTED_EDGE('',*,*,#246,.T.);
#336=ORIENTED_EDGE('',*,*,#254,.F.);
#337=ORIENTED_EDGE('',*,*,#250,.F.);
#338=ORIENTED_EDGE('',*,*,#244,.F.);
#339=ORIENTED_EDGE('',*,*,#255,.T.);
#340=ORIENTED_EDGE('',*,*,#256,.F.);
#341=ORIENTED_EDGE('',*,*,#224,.F.);
#342=ORIENTED_EDGE('',*,*,#223,.T.);
#343=ORIENTED_EDGE('',*,*,#212,.F.);
#344=ORIENTED_EDGE('',*,*,#210,.F.);
#345=ORIENTED_EDGE('',*,*,#231,.F.);
#346=ORIENTED_EDGE('',*,*,#236,.F.);
#347=ORIENTED_EDGE('',*,*,#227,.F.);
#348=ORIENTED_EDGE('',*,*,#208,.F.);
#349=ORIENTED_EDGE('',*,*,#214,.F.);
#350=ORIENTED_EDGE('',*,*,#222,.F.);
#351=ORIENTED_EDGE('',*,*,#226,.T.);
#352=ORIENTED_EDGE('',*,*,#257,.F.);
#353=ORIENTED_EDGE('',*,*,#258,.F.);
#354=ORIENTED_EDGE('',*,*,#242,.F.);
#355=ORIENTED_EDGE('',*,*,#241,.F.);
#356=ORIENTED_EDGE('',*,*,#243,.F.);
#357=ORIENTED_EDGE('',*,*,#258,.T.);
#358=ORIENTED_EDGE('',*,*,#259,.F.);
#359=ORIENTED_EDGE('',*,*,#255,.F.);
#360=ORIENTED_EDGE('',*,*,#225,.T.);
#361=ORIENTED_EDGE('',*,*,#256,.T.);
#362=ORIENTED_EDGE('',*,*,#259,.T.);
#363=ORIENTED_EDGE('',*,*,#257,.T.);
#364=CYLINDRICAL_SURFACE('',#406,2.);
#365=CYLINDRICAL_SURFACE('',#412,2.55);
#366=CYLINDRICAL_SURFACE('',#414,2.55);
#367=CYLINDRICAL_SURFACE('',#425,10.5);
#368=CYLINDRICAL_SURFACE('',#434,10.5);
#369=CYLINDRICAL_SURFACE('',#435,2.);
#370=CYLINDRICAL_SURFACE('',#436,1.99999999999999);
#371=CYLINDRICAL_SURFACE('',#437,1.99999999999999);
#372=CYLINDRICAL_SURFACE('',#438,9.99999999999999);
#373=ADVANCED_FACE('',(#37),#364,.F.);
#374=ADVANCED_FACE('',(#38,#15,#16),#27,.T.);
#375=ADVANCED_FACE('',(#39),#365,.F.);
#376=ADVANCED_FACE('',(#40),#366,.F.);
#377=ADVANCED_FACE('',(#41),#28,.T.);
#378=ADVANCED_FACE('',(#42,#17,#18),#29,.F.);
#379=ADVANCED_FACE('',(#43,#19,#20,#21,#22),#30,.T.);
#380=ADVANCED_FACE('',(#44),#367,.T.);
#381=ADVANCED_FACE('',(#45),#31,.T.);
#382=ADVANCED_FACE('',(#46,#23,#24,#25,#26),#32,.F.);
#383=ADVANCED_FACE('',(#47),#368,.T.);
#384=ADVANCED_FACE('',(#48),#369,.F.);
#385=ADVANCED_FACE('',(#49),#370,.F.);
#386=ADVANCED_FACE('',(#50),#371,.F.);
#387=ADVANCED_FACE('',(#51),#372,.F.);
#388=ADVANCED_FACE('',(#52),#33,.T.);
#389=ADVANCED_FACE('',(#53),#34,.T.);
#390=ADVANCED_FACE('',(#54),#35,.T.);
#391=ADVANCED_FACE('',(#55),#36,.T.);
#392=CLOSED_SHELL('',(#373,#374,#375,#376,#377,#378,#379,#380,#381,#382,
#383,#384,#385,#386,#387,#388,#389,#390,#391));
#393=DERIVED_UNIT_ELEMENT(#395,1.);
#394=DERIVED_UNIT_ELEMENT(#665,-3.);
#395=(
MASS_UNIT()
NAMED_UNIT(*)
SI_UNIT(.KILO.,.GRAM.)
);
#396=DERIVED_UNIT((#393,#394));
#397=MEASURE_REPRESENTATION_ITEM('density measure',
POSITIVE_RATIO_MEASURE(7850.),#396);
#398=PROPERTY_DEFINITION_REPRESENTATION(#403,#400);
#399=PROPERTY_DEFINITION_REPRESENTATION(#404,#401);
#400=REPRESENTATION('material name',(#402),#662);
#401=REPRESENTATION('density',(#397),#662);
#402=DESCRIPTIVE_REPRESENTATION_ITEM('\X\C7elik','\X\C7elik');
#403=PROPERTY_DEFINITION('material property','material name',#672);
#404=PROPERTY_DEFINITION('material property','density of part',#672);
#405=AXIS2_PLACEMENT_3D('',#553,#443,#444);
#406=AXIS2_PLACEMENT_3D('',#554,#445,#446);
#407=AXIS2_PLACEMENT_3D('',#557,#447,#448);
#408=AXIS2_PLACEMENT_3D('',#561,#450,#451);
#409=AXIS2_PLACEMENT_3D('',#563,#453,#454);
#410=AXIS2_PLACEMENT_3D('',#570,#458,#459);
#411=AXIS2_PLACEMENT_3D('',#572,#460,#461);
#412=AXIS2_PLACEMENT_3D('',#573,#462,#463);
#413=AXIS2_PLACEMENT_3D('',#576,#465,#466);
#414=AXIS2_PLACEMENT_3D('',#577,#467,#468);
#415=AXIS2_PLACEMENT_3D('',#580,#470,#471);
#416=AXIS2_PLACEMENT_3D('',#581,#472,#473);
#417=AXIS2_PLACEMENT_3D('',#587,#477,#478);
#418=AXIS2_PLACEMENT_3D('',#593,#482,#483);
#419=AXIS2_PLACEMENT_3D('',#597,#485,#486);
#420=AXIS2_PLACEMENT_3D('',#601,#488,#489);
#421=AXIS2_PLACEMENT_3D('',#604,#491,#492);
#422=AXIS2_PLACEMENT_3D('',#606,#493,#494);
#423=AXIS2_PLACEMENT_3D('',#608,#495,#496);
#424=AXIS2_PLACEMENT_3D('',#610,#497,#498);
#425=AXIS2_PLACEMENT_3D('',#611,#499,#500);
#426=AXIS2_PLACEMENT_3D('',#615,#502,#503);
#427=AXIS2_PLACEMENT_3D('',#617,#505,#506);
#428=AXIS2_PLACEMENT_3D('',#621,#509,#510);
#429=AXIS2_PLACEMENT_3D('',#630,#515,#516);
#430=AXIS2_PLACEMENT_3D('',#632,#517,#518);
#431=AXIS2_PLACEMENT_3D('',#634,#519,#520);
#432=AXIS2_PLACEMENT_3D('',#636,#521,#522);
#433=AXIS2_PLACEMENT_3D('',#638,#523,#524);
#434=AXIS2_PLACEMENT_3D('',#639,#525,#526);
#435=AXIS2_PLACEMENT_3D('',#641,#528,#529);
#436=AXIS2_PLACEMENT_3D('',#643,#531,#532);
#437=AXIS2_PLACEMENT_3D('',#645,#534,#535);
#438=AXIS2_PLACEMENT_3D('',#647,#537,#538);
#439=AXIS2_PLACEMENT_3D('',#649,#540,#541);
#440=AXIS2_PLACEMENT_3D('',#653,#544,#545);
#441=AXIS2_PLACEMENT_3D('',#657,#548,#549);
#442=AXIS2_PLACEMENT_3D('',#659,#551,#552);
#443=DIRECTION('axis',(0.,0.,1.));
#444=DIRECTION('refdir',(1.,0.,0.));
#445=DIRECTION('center_axis',(-1.,2.77555756156196E-17,0.));
#446=DIRECTION('ref_axis',(0.,-0.707106781186552,-0.707106781186543));
#447=DIRECTION('center_axis',(-1.,0.,-2.6205923429519E-46));
#448=DIRECTION('ref_axis',(0.,-0.707106781186552,-0.707106781186543));
#449=DIRECTION('',(1.,-2.77555756156196E-17,0.));
#450=DIRECTION('center_axis',(1.,0.,2.6205923429519E-46));
#451=DIRECTION('ref_axis',(0.,-0.707106781186552,-0.707106781186543));
#452=DIRECTION('',(-1.,2.77555756156196E-17,0.));
#453=DIRECTION('center_axis',(0.,0.,1.));
#454=DIRECTION('ref_axis',(-1.,0.,0.));
#455=DIRECTION('',(0.,1.,0.));
#456=DIRECTION('',(-1.,0.,0.));
#457=DIRECTION('',(0.,-1.,0.));
#458=DIRECTION('center_axis',(0.,0.,-1.));
#459=DIRECTION('ref_axis',(-1.,0.,0.));
#460=DIRECTION('center_axis',(0.,0.,-1.));
#461=DIRECTION('ref_axis',(-1.,0.,0.));
#462=DIRECTION('center_axis',(0.,0.,1.));
#463=DIRECTION('ref_axis',(-1.,0.,0.));
#464=DIRECTION('',(0.,0.,-1.));
#465=DIRECTION('center_axis',(0.,0.,-1.));
#466=DIRECTION('ref_axis',(-1.,0.,0.));
#467=DIRECTION('center_axis',(0.,0.,1.));
#468=DIRECTION('ref_axis',(-1.,0.,0.));
#469=DIRECTION('',(0.,0.,-1.));
#470=DIRECTION('center_axis',(0.,0.,-1.));
#471=DIRECTION('ref_axis',(-1.,0.,0.));
#472=DIRECTION('center_axis',(0.,1.,0.));
#473=DIRECTION('ref_axis',(-1.,0.,0.));
#474=DIRECTION('',(1.,0.,0.));
#475=DIRECTION('',(0.,0.,1.));
#476=DIRECTION('',(0.,0.,1.));
#477=DIRECTION('center_axis',(0.,0.,1.));
#478=DIRECTION('ref_axis',(-1.,0.,0.));
#479=DIRECTION('',(0.,-1.,0.));
#480=DIRECTION('',(1.,-2.77555756156196E-17,0.));
#481=DIRECTION('',(0.,-1.,0.));
#482=DIRECTION('center_axis',(2.77555756156196E-17,1.,9.44167895936398E-30));
#483=DIRECTION('ref_axis',(-1.,2.77555756156196E-17,-1.57895415022715E-58));
#484=DIRECTION('',(-2.6205923429519E-46,-9.44167895936398E-30,1.));
#485=DIRECTION('center_axis',(-2.77555756156196E-17,-1.,-9.44167895936398E-30));
#486=DIRECTION('ref_axis',(-0.707106781186547,0.,0.707106781186547));
#487=DIRECTION('',(1.,-2.77555756156196E-17,1.57895415022715E-58));
#488=DIRECTION('center_axis',(-2.77555756156196E-17,-1.,-9.44167895936398E-30));
#489=DIRECTION('ref_axis',(0.707106781186547,0.,0.707106781186548));
#490=DIRECTION('',(2.6205923429519E-46,9.44167895936398E-30,-1.));
#491=DIRECTION('center_axis',(-2.77555756156196E-17,-1.,-9.44167895936398E-30));
#492=DIRECTION('ref_axis',(-1.,2.77555756156196E-17,-1.57866320603141E-58));
#493=DIRECTION('center_axis',(-2.77555756156196E-17,-1.,-9.44167895936398E-30));
#494=DIRECTION('ref_axis',(-1.,2.77555756156196E-17,-1.57895415022715E-58));
#495=DIRECTION('center_axis',(-2.77555756156196E-17,-1.,-9.44167895936398E-30));
#496=DIRECTION('ref_axis',(-1.,2.77555756156196E-17,-1.57895415022715E-58));
#497=DIRECTION('center_axis',(-2.77555756156196E-17,-1.,-9.44167895936398E-30));
#498=DIRECTION('ref_axis',(-1.,2.77555756156196E-17,-1.57895415022715E-58));
#499=DIRECTION('center_axis',(0.,1.,0.));
#500=DIRECTION('ref_axis',(-0.707106781186547,0.,0.707106781186547));
#501=DIRECTION('',(0.,-1.,0.));
#502=DIRECTION('center_axis',(2.77555756156196E-17,1.,9.44167895936398E-30));
#503=DIRECTION('ref_axis',(-0.707106781186547,0.,0.707106781186547));
#504=DIRECTION('',(0.,1.,0.));
#505=DIRECTION('center_axis',(-1.57895415022715E-58,0.,1.));
#506=DIRECTION('ref_axis',(1.,-2.77555756156196E-17,1.57895415022715E-58));
#507=DIRECTION('',(-1.,2.77555756156196E-17,-1.57895415022715E-58));
#508=DIRECTION('',(0.,-1.,0.));
#509=DIRECTION('center_axis',(2.77555756156196E-17,1.,9.44167895936398E-30));
#510=DIRECTION('ref_axis',(-1.,2.77555756156196E-17,-1.57895415022715E-58));
#511=DIRECTION('',(2.6205923429519E-46,9.44167895936398E-30,-1.));
#512=DIRECTION('',(2.6205923429519E-46,9.44167895936398E-30,-1.));
#513=DIRECTION('',(1.,-2.77555756156196E-17,1.57895415022715E-58));
#514=DIRECTION('',(-2.6205923429519E-46,-9.44167895936398E-30,1.));
#515=DIRECTION('center_axis',(2.77555756156196E-17,1.,9.44167895936398E-30));
#516=DIRECTION('ref_axis',(0.707106781186547,0.,0.707106781186548));
#517=DIRECTION('center_axis',(-2.77555756156196E-17,-1.,-9.44167895936398E-30));
#518=DIRECTION('ref_axis',(-1.,2.77555756156196E-17,-1.57866320603141E-58));
#519=DIRECTION('center_axis',(-2.77555756156196E-17,-1.,-9.44167895936398E-30));
#520=DIRECTION('ref_axis',(-1.,2.77555756156196E-17,-1.57895415022715E-58));
#521=DIRECTION('center_axis',(-2.77555756156196E-17,-1.,-9.44167895936398E-30));
#522=DIRECTION('ref_axis',(-1.,2.77555756156196E-17,-1.57895415022715E-58));
#523=DIRECTION('center_axis',(-2.77555756156196E-17,-1.,-9.44167895936398E-30));
#524=DIRECTION('ref_axis',(-1.,2.77555756156196E-17,-1.57895415022715E-58));
#525=DIRECTION('center_axis',(0.,1.,0.));
#526=DIRECTION('ref_axis',(0.707106781186547,0.,0.707106781186548));
#527=DIRECTION('',(0.,1.,0.));
#528=DIRECTION('center_axis',(0.,1.,0.));
#529=DIRECTION('ref_axis',(-1.,0.,-1.57895415022715E-58));
#530=DIRECTION('',(0.,-1.,0.));
#531=DIRECTION('center_axis',(0.,1.,0.));
#532=DIRECTION('ref_axis',(-1.,0.,-1.57895415022715E-58));
#533=DIRECTION('',(0.,-1.,0.));
#534=DIRECTION('center_axis',(0.,1.,0.));
#535=DIRECTION('ref_axis',(-1.,0.,-1.57895415022715E-58));
#536=DIRECTION('',(0.,-1.,0.));
#537=DIRECTION('center_axis',(0.,1.,0.));
#538=DIRECTION('ref_axis',(-1.,0.,-1.57866320603141E-58));
#539=DIRECTION('',(0.,-1.,0.));
#540=DIRECTION('center_axis',(1.,0.,2.6205923429519E-46));
#541=DIRECTION('ref_axis',(2.6205923429519E-46,9.44167895936398E-30,-1.));
#542=DIRECTION('',(0.,1.,0.));
#543=DIRECTION('',(2.6205923429519E-46,9.44167895936398E-30,-1.));
#544=DIRECTION('center_axis',(-1.,0.,-2.6205923429519E-46));
#545=DIRECTION('ref_axis',(-2.6205923429519E-46,-9.44167895936398E-30,1.));
#546=DIRECTION('',(-2.6205923429519E-46,-9.44167895936398E-30,1.));
#547=DIRECTION('',(0.,1.,0.));
#548=DIRECTION('center_axis',(1.57895415022715E-58,0.,-1.));
#549=DIRECTION('ref_axis',(-1.,2.77555756156196E-17,-1.57895415022715E-58));
#550=DIRECTION('',(-1.,2.77555756156196E-17,-1.57895415022715E-58));
#551=DIRECTION('center_axis',(2.77555756156196E-17,1.,9.44167895936398E-30));
#552=DIRECTION('ref_axis',(-1.,2.77555756156196E-17,-1.57895415022715E-58));
#553=CARTESIAN_POINT('',(0.,0.,0.));
#554=CARTESIAN_POINT('Origin',(-65.0000048636967,-150.899999403953,29.1));
#555=CARTESIAN_POINT('',(-87.000001296401,-150.899999403953,27.1));
#556=CARTESIAN_POINT('',(-86.9999941140412,-152.899999403953,29.1));
#557=CARTESIAN_POINT('Origin',(-87.000001296401,-150.899999403953,29.1));
#558=CARTESIAN_POINT('',(-43.0000006407499,-152.899999403953,29.1));
#559=CARTESIAN_POINT('',(-65.0000048636967,-152.899999403953,29.1));
#560=CARTESIAN_POINT('',(-42.9999990388751,-150.899999403953,27.1));
#561=CARTESIAN_POINT('Origin',(-43.0000006407499,-150.899999403953,29.1));
#562=CARTESIAN_POINT('',(-65.0000048636967,-150.899999403953,27.1));
#563=CARTESIAN_POINT('Origin',(-65.0000001676381,-145.399996582419,27.1));
#564=CARTESIAN_POINT('',(-42.9999990388751,-137.899996582419,27.1));
#565=CARTESIAN_POINT('',(-42.9999990388751,-137.899996582419,27.1));
#566=CARTESIAN_POINT('',(-87.000001296401,-137.899996582419,27.1));
#567=CARTESIAN_POINT('',(-53.9999996032566,-137.899996582419,27.1));
#568=CARTESIAN_POINT('',(-87.000001296401,-137.899996582419,27.1));
#569=CARTESIAN_POINT('',(-51.4499996032566,-145.399996582419,27.1));
#570=CARTESIAN_POINT('Origin',(-53.9999996032566,-145.399996582419,27.1));
#571=CARTESIAN_POINT('',(-73.4500007320195,-145.399996582419,27.1));
#572=CARTESIAN_POINT('Origin',(-76.0000007320195,-145.399996582419,27.1));
#573=CARTESIAN_POINT('Origin',(-53.9999996032566,-145.399996582419,22.1));
#574=CARTESIAN_POINT('',(-51.4499996032566,-145.399996582419,22.1));
#575=CARTESIAN_POINT('',(-51.4499996032566,-145.399996582419,22.1));
#576=CARTESIAN_POINT('Origin',(-53.9999996032566,-145.399996582419,22.1));
#577=CARTESIAN_POINT('Origin',(-76.0000007320195,-145.399996582419,22.1));
#578=CARTESIAN_POINT('',(-73.4500007320195,-145.399996582419,22.1));
#579=CARTESIAN_POINT('',(-73.4500007320195,-145.399996582419,22.1));
#580=CARTESIAN_POINT('Origin',(-76.0000007320195,-145.399996582419,22.1));
#581=CARTESIAN_POINT('Origin',(-42.9999990388751,-137.899996582419,22.1));
#582=CARTESIAN_POINT('',(-87.000001296401,-137.899996582419,22.1));
#583=CARTESIAN_POINT('',(-42.9999990388751,-137.899996582419,22.1));
#584=CARTESIAN_POINT('',(-53.9999996032566,-137.899996582419,22.1));
#585=CARTESIAN_POINT('',(-87.000001296401,-137.899996582419,22.1));
#586=CARTESIAN_POINT('',(-42.9999990388751,-137.899996582419,22.1));
#587=CARTESIAN_POINT('Origin',(-65.0000001676381,-145.399996582419,22.1));
#588=CARTESIAN_POINT('',(-42.9999990388751,-152.899996582419,22.1));
#589=CARTESIAN_POINT('',(-42.9999990388751,-137.899996582419,22.1));
#590=CARTESIAN_POINT('',(-87.000001296401,-152.899996582419,22.1));
#591=CARTESIAN_POINT('',(-65.0000048636967,-152.899999403953,22.1));
#592=CARTESIAN_POINT('',(-87.000001296401,-137.899996582419,22.1));
#593=CARTESIAN_POINT('Origin',(-65.0000095597554,-152.899999403953,47.0000007003546));
#594=CARTESIAN_POINT('',(-86.9999941140412,-152.899999403953,61.5000010728836));
#595=CARTESIAN_POINT('',(-86.9999941140412,-152.899999403953,72.0000010728836));
#596=CARTESIAN_POINT('',(-76.500001296401,-152.899999403953,72.0000010728836));
#597=CARTESIAN_POINT('Origin',(-76.500001296401,-152.899999403953,61.5000010728836));
#598=CARTESIAN_POINT('',(-53.5000006407499,-152.899999403953,72.0000010728836));
#599=CARTESIAN_POINT('',(-43.0000006407499,-152.899999403953,72.0000010728836));
#600=CARTESIAN_POINT('',(-43.0000006407499,-152.899999403953,61.5000010728836));
#601=CARTESIAN_POINT('Origin',(-53.5000006407499,-152.899999403953,61.5000010728836));
#602=CARTESIAN_POINT('',(-43.0000006407499,-152.899999403953,28.3999989271187));
#603=CARTESIAN_POINT('',(-54.9999973773956,-152.899999403953,50.2000000000012));
#604=CARTESIAN_POINT('Origin',(-64.9999973773956,-152.899999403953,50.2000000000012));
#605=CARTESIAN_POINT('',(-50.009616320629,-152.899999403953,57.7000000000012));
#606=CARTESIAN_POINT('Origin',(-52.009616320629,-152.899999403953,57.7000000000012));
#607=CARTESIAN_POINT('',(-75.9903784341622,-152.899999403953,57.7000000000012));
#608=CARTESIAN_POINT('Origin',(-77.9903784341622,-152.899999403953,57.7000000000012));
#609=CARTESIAN_POINT('',(-62.9999973773956,-152.899999403953,35.2000000000012));
#610=CARTESIAN_POINT('Origin',(-64.9999973773956,-152.899999403953,35.2000000000012));
#611=CARTESIAN_POINT('Origin',(-76.500001296401,-157.899999403953,61.5000010728836));
#612=CARTESIAN_POINT('',(-86.9999941140412,-157.899999403953,61.5000010728836));
#613=CARTESIAN_POINT('',(-87.000001296401,-157.899999403953,61.5000010728836));
#614=CARTESIAN_POINT('',(-76.500001296401,-157.899999403953,72.0000010728836));
#615=CARTESIAN_POINT('Origin',(-76.500001296401,-157.899999403953,61.5000010728836));
#616=CARTESIAN_POINT('',(-76.500001296401,-157.899999403953,72.0000010728836));
#617=CARTESIAN_POINT('Origin',(-86.9999941140412,-157.899999403953,72.0000010728836));
#618=CARTESIAN_POINT('',(-53.5000006407499,-157.899999403953,72.0000010728836));
#619=CARTESIAN_POINT('',(-43.0000006407499,-157.899999403953,72.0000010728836));
#620=CARTESIAN_POINT('',(-53.5000006407499,-157.899999403953,72.0000010728836));
#621=CARTESIAN_POINT('Origin',(-65.0000095597554,-157.899999403953,47.0000007003546));
#622=CARTESIAN_POINT('',(-87.000001296401,-157.899999403953,28.3999989271187));
#623=CARTESIAN_POINT('',(-86.9999941140412,-157.899999403953,72.0000010728836));
#624=CARTESIAN_POINT('',(-87.000001296401,-157.899999403953,22.0000003278255));
#625=CARTESIAN_POINT('',(-87.000001296401,-157.899999403953,28.3999989271187));
#626=CARTESIAN_POINT('',(-43.0000006407499,-157.899999403953,22.0000003278255));
#627=CARTESIAN_POINT('',(-87.000001296401,-157.899999403953,22.0000003278255));
#628=CARTESIAN_POINT('',(-43.0000006407499,-157.899999403953,61.5000010728836));
#629=CARTESIAN_POINT('',(-43.0000006407499,-157.899999403953,28.3999989271187));
#630=CARTESIAN_POINT('Origin',(-53.5000006407499,-157.899999403953,61.5000010728836));
#631=CARTESIAN_POINT('',(-54.9999973773956,-157.899999403953,50.2000000000012));
#632=CARTESIAN_POINT('Origin',(-64.9999973773956,-157.899999403953,50.2000000000012));
#633=CARTESIAN_POINT('',(-50.009616320629,-157.899999403953,57.7000000000012));
#634=CARTESIAN_POINT('Origin',(-52.009616320629,-157.899999403953,57.7000000000012));
#635=CARTESIAN_POINT('',(-75.9903784341622,-157.899999403953,57.7000000000012));
#636=CARTESIAN_POINT('Origin',(-77.9903784341622,-157.899999403953,57.7000000000012));
#637=CARTESIAN_POINT('',(-62.9999973773956,-157.899999403953,35.2000000000012));
#638=CARTESIAN_POINT('Origin',(-64.9999973773956,-157.899999403953,35.2000000000012));
#639=CARTESIAN_POINT('Origin',(-53.5000006407499,-157.899999403953,61.5000010728836));
#640=CARTESIAN_POINT('',(-43.0000006407499,-157.899999403953,61.5000010728836));
#641=CARTESIAN_POINT('Origin',(-64.9999973773956,-157.899999403953,35.2000000000012));
#642=CARTESIAN_POINT('',(-62.9999973773956,-157.899999403953,35.2000000000012));
#643=CARTESIAN_POINT('Origin',(-77.9903784341622,-157.899999403953,57.7000000000012));
#644=CARTESIAN_POINT('',(-75.9903784341622,-157.899999403953,57.7000000000012));
#645=CARTESIAN_POINT('Origin',(-52.009616320629,-157.899999403953,57.7000000000012));
#646=CARTESIAN_POINT('',(-50.009616320629,-157.899999403953,57.7000000000012));
#647=CARTESIAN_POINT('Origin',(-64.9999973773956,-157.899999403953,50.2000000000012));
#648=CARTESIAN_POINT('',(-54.9999973773956,-157.899999403953,50.2000000000012));
#649=CARTESIAN_POINT('Origin',(-43.0000006407499,-157.899999403953,72.0000010728836));
#650=CARTESIAN_POINT('',(-43.0000006407499,-152.899999403953,22.0000003278255));
#651=CARTESIAN_POINT('',(-43.0000006407499,-157.899999403953,22.0000003278255));
#652=CARTESIAN_POINT('',(-43.0000006407499,-152.899999403953,28.3999989271187));
#653=CARTESIAN_POINT('Origin',(-87.000001296401,-157.899999403953,22.0000003278255));
#654=CARTESIAN_POINT('',(-87.000001296401,-152.899999403953,22.0000003278255));
#655=CARTESIAN_POINT('',(-87.000001296401,-152.899999403953,28.3999989271187));
#656=CARTESIAN_POINT('',(-87.000001296401,-157.899999403953,22.0000003278255));
#657=CARTESIAN_POINT('Origin',(-43.0000006407499,-157.899999403953,22.0000003278255));
#658=CARTESIAN_POINT('',(-87.000001296401,-152.899999403953,22.0000003278255));
#659=CARTESIAN_POINT('Origin',(-65.0000095597554,-152.899999403953,47.0000007003546));
#660=UNCERTAINTY_MEASURE_WITH_UNIT(LENGTH_MEASURE(0.01),#664,
'DISTANCE_ACCURACY_VALUE',
'Maximum model space distance between geometric entities at asserted c
onnectivities');
#661=UNCERTAINTY_MEASURE_WITH_UNIT(LENGTH_MEASURE(0.01),#664,
'DISTANCE_ACCURACY_VALUE',
'Maximum model space distance between geometric entities at asserted c
onnectivities');
#662=(
GEOMETRIC_REPRESENTATION_CONTEXT(3)
GLOBAL_UNCERTAINTY_ASSIGNED_CONTEXT((#660))
GLOBAL_UNIT_ASSIGNED_CONTEXT((#664,#666,#667))
REPRESENTATION_CONTEXT('','3D')
);
#663=(
GEOMETRIC_REPRESENTATION_CONTEXT(3)
GLOBAL_UNCERTAINTY_ASSIGNED_CONTEXT((#661))
GLOBAL_UNIT_ASSIGNED_CONTEXT((#664,#666,#667))
REPRESENTATION_CONTEXT('','3D')
);
#664=(
LENGTH_UNIT()
NAMED_UNIT(*)
SI_UNIT(.MILLI.,.METRE.)
);
#665=(
LENGTH_UNIT()
NAMED_UNIT(*)
SI_UNIT($,.METRE.)
);
#666=(
NAMED_UNIT(*)
PLANE_ANGLE_UNIT()
SI_UNIT($,.RADIAN.)
);
#667=(
NAMED_UNIT(*)
SI_UNIT($,.STERADIAN.)
SOLID_ANGLE_UNIT()
);
#668=SHAPE_DEFINITION_REPRESENTATION(#669,#670);
#669=PRODUCT_DEFINITION_SHAPE('',$,#672);
#670=SHAPE_REPRESENTATION('',(#405),#662);
#671=PRODUCT_DEFINITION_CONTEXT('part definition',#676,'design');
#672=PRODUCT_DEFINITION('2026-06-24-14-53-47-696','EncoderBracket',#673,
#671);
#673=PRODUCT_DEFINITION_FORMATION('',$,#678);
#674=PRODUCT_RELATED_PRODUCT_CATEGORY('EncoderBracket','EncoderBracket',
(#678));
#675=APPLICATION_PROTOCOL_DEFINITION('international standard',
'automotive_design',2009,#676);
#676=APPLICATION_CONTEXT(
'Core Data for Automotive Mechanical Design Process');
#677=PRODUCT_CONTEXT('part definition',#676,'mechanical');
#678=PRODUCT('2026-06-24-14-53-47-696','EncoderBracket',$,(#677));
#679=PRESENTATION_STYLE_ASSIGNMENT((#681));
#680=PRESENTATION_STYLE_ASSIGNMENT((#682));
#681=SURFACE_STYLE_USAGE(.BOTH.,#683);
#682=SURFACE_STYLE_USAGE(.BOTH.,#684);
#683=SURFACE_SIDE_STYLE('',(#685));
#684=SURFACE_SIDE_STYLE('',(#686));
#685=SURFACE_STYLE_FILL_AREA(#687);
#686=SURFACE_STYLE_FILL_AREA(#688);
#687=FILL_AREA_STYLE('\X\C7elik - Saten',(#689));
#688=FILL_AREA_STYLE('Opaque(28,28,28)',(#690));
#689=FILL_AREA_STYLE_COLOUR('\X\C7elik - Saten',#691);
#690=FILL_AREA_STYLE_COLOUR('Opaque(28,28,28)',#692);
#691=COLOUR_RGB('\X\C7elik - Saten',0.627450980392157,0.627450980392157,
0.627450980392157);
#692=COLOUR_RGB('Opaque(28,28,28)',0.109803921568627,0.109803921568627,
0.109803921568627);
ENDSEC;
END-ISO-10303-21;
