ISO-10303-21;
HEADER;
/* Generated by software containing ST-Developer
 * from STEP Tools, Inc. (www.steptools.com) 
 */

FILE_DESCRIPTION(
/* description */ (''),
/* implementation_level */ '2;1');

FILE_NAME(
/* name */ 'GroundElevationKP000.step',
/* time_stamp */ '2026-06-24T14:52:54+03:00',
/* author */ (''),
/* organization */ (''),
/* preprocessor_version */ 'ST-DEVELOPER v20.1',
/* originating_system */ 'Autodesk Translation Framework v15.8.0.0',
/* authorisation */ '');

FILE_SCHEMA (('AUTOMOTIVE_DESIGN { 1 0 10303 214 3 1 1 }'));
ENDSEC;

DATA;
#10=MECHANICAL_DESIGN_GEOMETRIC_PRESENTATION_REPRESENTATION('',(#13),#261);
#11=SHAPE_REPRESENTATION_RELATIONSHIP('SRR','None',#268,#12);
#12=ADVANCED_BREP_SHAPE_REPRESENTATION('',(#14),#260);
#13=STYLED_ITEM('',(#278),#14);
#14=MANIFOLD_SOLID_BREP('G\X\F6vde1',#153);
#15=FACE_BOUND('',#40,.T.);
#16=FACE_BOUND('',#41,.T.);
#17=FACE_BOUND('',#43,.T.);
#18=FACE_BOUND('',#44,.T.);
#19=PLANE('',#170);
#20=PLANE('',#174);
#21=PLANE('',#175);
#22=PLANE('',#176);
#23=PLANE('',#177);
#24=PLANE('',#178);
#25=FACE_OUTER_BOUND('',#33,.T.);
#26=FACE_OUTER_BOUND('',#34,.T.);
#27=FACE_OUTER_BOUND('',#35,.T.);
#28=FACE_OUTER_BOUND('',#36,.T.);
#29=FACE_OUTER_BOUND('',#37,.T.);
#30=FACE_OUTER_BOUND('',#38,.T.);
#31=FACE_OUTER_BOUND('',#39,.T.);
#32=FACE_OUTER_BOUND('',#42,.T.);
#33=EDGE_LOOP('',(#107,#108,#109,#110));
#34=EDGE_LOOP('',(#111,#112,#113,#114));
#35=EDGE_LOOP('',(#115,#116,#117,#118));
#36=EDGE_LOOP('',(#119,#120,#121,#122));
#37=EDGE_LOOP('',(#123,#124,#125,#126));
#38=EDGE_LOOP('',(#127,#128,#129,#130));
#39=EDGE_LOOP('',(#131,#132,#133,#134));
#40=EDGE_LOOP('',(#135));
#41=EDGE_LOOP('',(#136));
#42=EDGE_LOOP('',(#137,#138,#139,#140));
#43=EDGE_LOOP('',(#141));
#44=EDGE_LOOP('',(#142));
#45=LINE('',#224,#59);
#46=LINE('',#229,#60);
#47=LINE('',#231,#61);
#48=LINE('',#233,#62);
#49=LINE('',#234,#63);
#50=LINE('',#239,#64);
#51=LINE('',#244,#65);
#52=LINE('',#246,#66);
#53=LINE('',#248,#67);
#54=LINE('',#249,#68);
#55=LINE('',#251,#69);
#56=LINE('',#252,#70);
#57=LINE('',#254,#71);
#58=LINE('',#255,#72);
#59=VECTOR('',#185,3.8);
#60=VECTOR('',#190,10.);
#61=VECTOR('',#191,10.);
#62=VECTOR('',#192,10.);
#63=VECTOR('',#193,10.);
#64=VECTOR('',#198,3.8);
#65=VECTOR('',#203,10.);
#66=VECTOR('',#204,10.);
#67=VECTOR('',#205,10.);
#68=VECTOR('',#206,10.);
#69=VECTOR('',#209,10.);
#70=VECTOR('',#210,10.);
#71=VECTOR('',#213,10.);
#72=VECTOR('',#214,10.);
#73=CIRCLE('',#168,3.8);
#74=CIRCLE('',#169,3.8);
#75=CIRCLE('',#172,3.8);
#76=CIRCLE('',#173,3.8);
#77=VERTEX_POINT('',#221);
#78=VERTEX_POINT('',#223);
#79=VERTEX_POINT('',#227);
#80=VERTEX_POINT('',#228);
#81=VERTEX_POINT('',#230);
#82=VERTEX_POINT('',#232);
#83=VERTEX_POINT('',#236);
#84=VERTEX_POINT('',#238);
#85=VERTEX_POINT('',#242);
#86=VERTEX_POINT('',#243);
#87=VERTEX_POINT('',#245);
#88=VERTEX_POINT('',#247);
#89=EDGE_CURVE('',#77,#77,#73,.F.);
#90=EDGE_CURVE('',#77,#78,#45,.T.);
#91=EDGE_CURVE('',#78,#78,#74,.T.);
#92=EDGE_CURVE('',#79,#80,#46,.F.);
#93=EDGE_CURVE('',#79,#81,#47,.T.);
#94=EDGE_CURVE('',#82,#81,#48,.T.);
#95=EDGE_CURVE('',#80,#82,#49,.F.);
#96=EDGE_CURVE('',#83,#83,#75,.F.);
#97=EDGE_CURVE('',#83,#84,#50,.T.);
#98=EDGE_CURVE('',#84,#84,#76,.T.);
#99=EDGE_CURVE('',#85,#86,#51,.F.);
#100=EDGE_CURVE('',#85,#87,#52,.T.);
#101=EDGE_CURVE('',#88,#87,#53,.T.);
#102=EDGE_CURVE('',#86,#88,#54,.F.);
#103=EDGE_CURVE('',#86,#79,#55,.F.);
#104=EDGE_CURVE('',#81,#88,#56,.T.);
#105=EDGE_CURVE('',#80,#85,#57,.F.);
#106=EDGE_CURVE('',#87,#82,#58,.T.);
#107=ORIENTED_EDGE('',*,*,#89,.F.);
#108=ORIENTED_EDGE('',*,*,#90,.T.);
#109=ORIENTED_EDGE('',*,*,#91,.F.);
#110=ORIENTED_EDGE('',*,*,#90,.F.);
#111=ORIENTED_EDGE('',*,*,#92,.F.);
#112=ORIENTED_EDGE('',*,*,#93,.T.);
#113=ORIENTED_EDGE('',*,*,#94,.F.);
#114=ORIENTED_EDGE('',*,*,#95,.F.);
#115=ORIENTED_EDGE('',*,*,#96,.F.);
#116=ORIENTED_EDGE('',*,*,#97,.T.);
#117=ORIENTED_EDGE('',*,*,#98,.F.);
#118=ORIENTED_EDGE('',*,*,#97,.F.);
#119=ORIENTED_EDGE('',*,*,#99,.F.);
#120=ORIENTED_EDGE('',*,*,#100,.T.);
#121=ORIENTED_EDGE('',*,*,#101,.F.);
#122=ORIENTED_EDGE('',*,*,#102,.F.);
#123=ORIENTED_EDGE('',*,*,#103,.F.);
#124=ORIENTED_EDGE('',*,*,#102,.T.);
#125=ORIENTED_EDGE('',*,*,#104,.F.);
#126=ORIENTED_EDGE('',*,*,#93,.F.);
#127=ORIENTED_EDGE('',*,*,#105,.F.);
#128=ORIENTED_EDGE('',*,*,#95,.T.);
#129=ORIENTED_EDGE('',*,*,#106,.F.);
#130=ORIENTED_EDGE('',*,*,#100,.F.);
#131=ORIENTED_EDGE('',*,*,#106,.T.);
#132=ORIENTED_EDGE('',*,*,#94,.T.);
#133=ORIENTED_EDGE('',*,*,#104,.T.);
#134=ORIENTED_EDGE('',*,*,#101,.T.);
#135=ORIENTED_EDGE('',*,*,#89,.T.);
#136=ORIENTED_EDGE('',*,*,#96,.T.);
#137=ORIENTED_EDGE('',*,*,#105,.T.);
#138=ORIENTED_EDGE('',*,*,#99,.T.);
#139=ORIENTED_EDGE('',*,*,#103,.T.);
#140=ORIENTED_EDGE('',*,*,#92,.T.);
#141=ORIENTED_EDGE('',*,*,#91,.T.);
#142=ORIENTED_EDGE('',*,*,#98,.T.);
#143=CYLINDRICAL_SURFACE('',#167,3.8);
#144=CYLINDRICAL_SURFACE('',#171,3.8);
#145=ADVANCED_FACE('',(#25),#143,.F.);
#146=ADVANCED_FACE('',(#26),#19,.T.);
#147=ADVANCED_FACE('',(#27),#144,.F.);
#148=ADVANCED_FACE('',(#28),#20,.T.);
#149=ADVANCED_FACE('',(#29),#21,.T.);
#150=ADVANCED_FACE('',(#30),#22,.T.);
#151=ADVANCED_FACE('',(#31,#15,#16),#23,.T.);
#152=ADVANCED_FACE('',(#32,#17,#18),#24,.F.);
#153=CLOSED_SHELL('',(#145,#146,#147,#148,#149,#150,#151,#152));
#154=DERIVED_UNIT_ELEMENT(#156,1.);
#155=DERIVED_UNIT_ELEMENT(#263,-3.);
#156=(
MASS_UNIT()
NAMED_UNIT(*)
SI_UNIT(.KILO.,.GRAM.)
);
#157=DERIVED_UNIT((#154,#155));
#158=MEASURE_REPRESENTATION_ITEM('density measure',
POSITIVE_RATIO_MEASURE(7850.),#157);
#159=PROPERTY_DEFINITION_REPRESENTATION(#164,#161);
#160=PROPERTY_DEFINITION_REPRESENTATION(#165,#162);
#161=REPRESENTATION('material name',(#163),#260);
#162=REPRESENTATION('density',(#158),#260);
#163=DESCRIPTIVE_REPRESENTATION_ITEM('\X\C7elik','\X\C7elik');
#164=PROPERTY_DEFINITION('material property','material name',#270);
#165=PROPERTY_DEFINITION('material property','density of part',#270);
#166=AXIS2_PLACEMENT_3D('',#219,#179,#180);
#167=AXIS2_PLACEMENT_3D('',#220,#181,#182);
#168=AXIS2_PLACEMENT_3D('',#222,#183,#184);
#169=AXIS2_PLACEMENT_3D('',#225,#186,#187);
#170=AXIS2_PLACEMENT_3D('',#226,#188,#189);
#171=AXIS2_PLACEMENT_3D('',#235,#194,#195);
#172=AXIS2_PLACEMENT_3D('',#237,#196,#197);
#173=AXIS2_PLACEMENT_3D('',#240,#199,#200);
#174=AXIS2_PLACEMENT_3D('',#241,#201,#202);
#175=AXIS2_PLACEMENT_3D('',#250,#207,#208);
#176=AXIS2_PLACEMENT_3D('',#253,#211,#212);
#177=AXIS2_PLACEMENT_3D('',#256,#215,#216);
#178=AXIS2_PLACEMENT_3D('',#257,#217,#218);
#179=DIRECTION('axis',(0.,0.,1.));
#180=DIRECTION('refdir',(1.,0.,0.));
#181=DIRECTION('center_axis',(0.,0.,-1.));
#182=DIRECTION('ref_axis',(1.,-1.22464679914735E-16,0.));
#183=DIRECTION('center_axis',(0.,0.,1.));
#184=DIRECTION('ref_axis',(1.,-1.22464679914735E-16,0.));
#185=DIRECTION('',(0.,0.,-1.));
#186=DIRECTION('center_axis',(0.,0.,1.));
#187=DIRECTION('ref_axis',(1.,-1.22464679914735E-16,0.));
#188=DIRECTION('center_axis',(-1.,1.22464679914735E-16,0.));
#189=DIRECTION('ref_axis',(-1.22464679914735E-16,-1.,0.));
#190=DIRECTION('',(-1.22464679914735E-16,-1.,0.));
#191=DIRECTION('',(0.,0.,1.));
#192=DIRECTION('',(-1.22464679914735E-16,-1.,0.));
#193=DIRECTION('',(0.,0.,-1.));
#194=DIRECTION('center_axis',(0.,0.,-1.));
#195=DIRECTION('ref_axis',(-1.,0.,0.));
#196=DIRECTION('center_axis',(0.,0.,1.));
#197=DIRECTION('ref_axis',(-1.,0.,0.));
#198=DIRECTION('',(0.,0.,-1.));
#199=DIRECTION('center_axis',(0.,0.,1.));
#200=DIRECTION('ref_axis',(-1.,0.,0.));
#201=DIRECTION('center_axis',(1.,0.,0.));
#202=DIRECTION('ref_axis',(0.,1.,0.));
#203=DIRECTION('',(0.,1.,0.));
#204=DIRECTION('',(0.,0.,1.));
#205=DIRECTION('',(0.,1.,0.));
#206=DIRECTION('',(0.,0.,-1.));
#207=DIRECTION('center_axis',(0.,-1.,0.));
#208=DIRECTION('ref_axis',(1.,0.,0.));
#209=DIRECTION('',(1.,0.,0.));
#210=DIRECTION('',(1.,0.,0.));
#211=DIRECTION('center_axis',(0.,1.,0.));
#212=DIRECTION('ref_axis',(-1.,0.,0.));
#213=DIRECTION('',(-1.,0.,0.));
#214=DIRECTION('',(-1.,0.,0.));
#215=DIRECTION('center_axis',(0.,0.,1.));
#216=DIRECTION('ref_axis',(1.,0.,0.));
#217=DIRECTION('center_axis',(0.,0.,1.));
#218=DIRECTION('ref_axis',(1.,0.,0.));
#219=CARTESIAN_POINT('',(0.,0.,0.));
#220=CARTESIAN_POINT('Origin',(-91.1499997764826,10.9999999254942,31.));
#221=CARTESIAN_POINT('',(-94.9499997764826,10.9999999254942,32.));
#222=CARTESIAN_POINT('Origin',(-91.1499997764826,10.9999999254942,32.));
#223=CARTESIAN_POINT('',(-94.9499997764826,10.9999999254942,22.));
#224=CARTESIAN_POINT('',(-94.9499997764826,10.9999999254942,31.));
#225=CARTESIAN_POINT('Origin',(-91.1499997764826,10.9999999254942,22.));
#226=CARTESIAN_POINT('Origin',(-97.3999997764826,19.2499999254942,25.));
#227=CARTESIAN_POINT('',(-97.3999997764826,2.7499999254942,22.));
#228=CARTESIAN_POINT('',(-97.3999997764826,19.2499999254942,22.));
#229=CARTESIAN_POINT('',(-97.3999997764826,15.1249999254942,22.));
#230=CARTESIAN_POINT('',(-97.3999997764826,2.7499999254942,32.));
#231=CARTESIAN_POINT('',(-97.3999997764826,2.7499999254942,25.));
#232=CARTESIAN_POINT('',(-97.3999997764826,19.2499999254942,32.));
#233=CARTESIAN_POINT('',(-97.3999997764826,15.1249999254942,32.));
#234=CARTESIAN_POINT('',(-97.3999997764826,19.2499999254942,25.));
#235=CARTESIAN_POINT('Origin',(-38.7499997764826,10.9999999254942,31.));
#236=CARTESIAN_POINT('',(-34.9499997764826,10.9999999254942,32.));
#237=CARTESIAN_POINT('Origin',(-38.7499997764826,10.9999999254942,32.));
#238=CARTESIAN_POINT('',(-34.9499997764826,10.9999999254942,22.));
#239=CARTESIAN_POINT('',(-34.9499997764826,10.9999999254942,31.));
#240=CARTESIAN_POINT('Origin',(-38.7499997764826,10.9999999254942,22.));
#241=CARTESIAN_POINT('Origin',(-32.4999997764826,2.74999992549419,25.));
#242=CARTESIAN_POINT('',(-32.4999997764826,19.2499999254942,22.));
#243=CARTESIAN_POINT('',(-32.4999997764826,2.7499999254942,22.));
#244=CARTESIAN_POINT('',(-32.4999997764826,6.87499992549419,22.));
#245=CARTESIAN_POINT('',(-32.4999997764826,19.2499999254942,32.));
#246=CARTESIAN_POINT('',(-32.4999997764826,19.2499999254942,25.));
#247=CARTESIAN_POINT('',(-32.4999997764826,2.7499999254942,32.));
#248=CARTESIAN_POINT('',(-32.4999997764826,6.87499992549419,32.));
#249=CARTESIAN_POINT('',(-32.4999997764826,2.74999992549419,25.));
#250=CARTESIAN_POINT('Origin',(-47.9999997764826,2.74999992549419,25.));
#251=CARTESIAN_POINT('',(-43.3749997764826,2.74999992549419,22.));
#252=CARTESIAN_POINT('',(-43.3749997764826,2.74999992549419,32.));
#253=CARTESIAN_POINT('Origin',(-29.4999997764826,19.2499999254942,25.));
#254=CARTESIAN_POINT('',(-34.1249997764826,19.2499999254942,22.));
#255=CARTESIAN_POINT('',(-34.1249997764826,19.2499999254942,32.));
#256=CARTESIAN_POINT('Origin',(-38.7499997764826,10.9999999254942,32.));
#257=CARTESIAN_POINT('Origin',(-38.7499997764826,10.9999999254942,22.));
#258=UNCERTAINTY_MEASURE_WITH_UNIT(LENGTH_MEASURE(0.01),#262,
'DISTANCE_ACCURACY_VALUE',
'Maximum model space distance between geometric entities at asserted c
onnectivities');
#259=UNCERTAINTY_MEASURE_WITH_UNIT(LENGTH_MEASURE(0.01),#262,
'DISTANCE_ACCURACY_VALUE',
'Maximum model space distance between geometric entities at asserted c
onnectivities');
#260=(
GEOMETRIC_REPRESENTATION_CONTEXT(3)
GLOBAL_UNCERTAINTY_ASSIGNED_CONTEXT((#258))
GLOBAL_UNIT_ASSIGNED_CONTEXT((#262,#264,#265))
REPRESENTATION_CONTEXT('','3D')
);
#261=(
GEOMETRIC_REPRESENTATION_CONTEXT(3)
GLOBAL_UNCERTAINTY_ASSIGNED_CONTEXT((#259))
GLOBAL_UNIT_ASSIGNED_CONTEXT((#262,#264,#265))
REPRESENTATION_CONTEXT('','3D')
);
#262=(
LENGTH_UNIT()
NAMED_UNIT(*)
SI_UNIT(.MILLI.,.METRE.)
);
#263=(
LENGTH_UNIT()
NAMED_UNIT(*)
SI_UNIT($,.METRE.)
);
#264=(
NAMED_UNIT(*)
PLANE_ANGLE_UNIT()
SI_UNIT($,.RADIAN.)
);
#265=(
NAMED_UNIT(*)
SI_UNIT($,.STERADIAN.)
SOLID_ANGLE_UNIT()
);
#266=SHAPE_DEFINITION_REPRESENTATION(#267,#268);
#267=PRODUCT_DEFINITION_SHAPE('',$,#270);
#268=SHAPE_REPRESENTATION('',(#166),#260);
#269=PRODUCT_DEFINITION_CONTEXT('part definition',#274,'design');
#270=PRODUCT_DEFINITION('2026-06-24-14-52-54-534',
'GroundElevationKP000',#271,#269);
#271=PRODUCT_DEFINITION_FORMATION('',$,#276);
#272=PRODUCT_RELATED_PRODUCT_CATEGORY('GroundElevationKP000',
'GroundElevationKP000',(#276));
#273=APPLICATION_PROTOCOL_DEFINITION('international standard',
'automotive_design',2009,#274);
#274=APPLICATION_CONTEXT(
'Core Data for Automotive Mechanical Design Process');
#275=PRODUCT_CONTEXT('part definition',#274,'mechanical');
#276=PRODUCT('2026-06-24-14-52-54-534','GroundElevationKP000',$,(#275));
#277=PRESENTATION_STYLE_ASSIGNMENT((#279));
#278=PRESENTATION_STYLE_ASSIGNMENT((#280));
#279=SURFACE_STYLE_USAGE(.BOTH.,#281);
#280=SURFACE_STYLE_USAGE(.BOTH.,#282);
#281=SURFACE_SIDE_STYLE('',(#283));
#282=SURFACE_SIDE_STYLE('',(#284));
#283=SURFACE_STYLE_FILL_AREA(#285);
#284=SURFACE_STYLE_FILL_AREA(#286);
#285=FILL_AREA_STYLE('\X\C7elik - Saten',(#287));
#286=FILL_AREA_STYLE('Opaque(28,28,28)',(#288));
#287=FILL_AREA_STYLE_COLOUR('\X\C7elik - Saten',#289);
#288=FILL_AREA_STYLE_COLOUR('Opaque(28,28,28)',#290);
#289=COLOUR_RGB('\X\C7elik - Saten',0.627450980392157,0.627450980392157,
0.627450980392157);
#290=COLOUR_RGB('Opaque(28,28,28)',0.109803921568627,0.109803921568627,
0.109803921568627);
ENDSEC;
END-ISO-10303-21;
