ISO-10303-21;
HEADER;
/* Generated by software containing ST-Developer
 * from STEP Tools, Inc. (www.steptools.com) 
 */

FILE_DESCRIPTION(
/* description */ (''),
/* implementation_level */ '2;1');

FILE_NAME(
/* name */ 'PaddleShiftArea.step',
/* time_stamp */ '2026-06-24T21:02:30+03:00',
/* author */ (''),
/* organization */ (''),
/* preprocessor_version */ 'ST-DEVELOPER v20.1',
/* originating_system */ 'Autodesk Translation Framework v15.8.0.0',
/* authorisation */ '');

FILE_SCHEMA (('AUTOMOTIVE_DESIGN { 1 0 10303 214 3 1 1 }'));
ENDSEC;

DATA;
#10=MECHANICAL_DESIGN_GEOMETRIC_PRESENTATION_REPRESENTATION('',(#13),#587);
#11=SHAPE_REPRESENTATION_RELATIONSHIP('SRR','None',#594,#12);
#12=ADVANCED_BREP_SHAPE_REPRESENTATION('',(#14),#586);
#13=STYLED_ITEM('',(#603),#14);
#14=MANIFOLD_SOLID_BREP('PaddleShiftArea',#351);
#15=CIRCLE('',#371,5.);
#16=CIRCLE('',#372,5.);
#17=CIRCLE('',#377,5.);
#18=CIRCLE('',#379,5.);
#19=PLANE('',#368);
#20=PLANE('',#369);
#21=PLANE('',#375);
#22=PLANE('',#380);
#23=PLANE('',#381);
#24=PLANE('',#382);
#25=PLANE('',#383);
#26=PLANE('',#384);
#27=PLANE('',#385);
#28=PLANE('',#386);
#29=PLANE('',#387);
#30=PLANE('',#388);
#31=PLANE('',#389);
#32=PLANE('',#390);
#33=FACE_OUTER_BOUND('',#51,.T.);
#34=FACE_OUTER_BOUND('',#52,.T.);
#35=FACE_OUTER_BOUND('',#53,.T.);
#36=FACE_OUTER_BOUND('',#54,.T.);
#37=FACE_OUTER_BOUND('',#55,.T.);
#38=FACE_OUTER_BOUND('',#56,.T.);
#39=FACE_OUTER_BOUND('',#57,.T.);
#40=FACE_OUTER_BOUND('',#58,.T.);
#41=FACE_OUTER_BOUND('',#59,.T.);
#42=FACE_OUTER_BOUND('',#60,.T.);
#43=FACE_OUTER_BOUND('',#61,.T.);
#44=FACE_OUTER_BOUND('',#62,.T.);
#45=FACE_OUTER_BOUND('',#63,.T.);
#46=FACE_OUTER_BOUND('',#64,.T.);
#47=FACE_OUTER_BOUND('',#65,.T.);
#48=FACE_OUTER_BOUND('',#66,.T.);
#49=FACE_OUTER_BOUND('',#67,.T.);
#50=FACE_OUTER_BOUND('',#68,.T.);
#51=EDGE_LOOP('',(#233,#234,#235,#236));
#52=EDGE_LOOP('',(#237,#238,#239,#240));
#53=EDGE_LOOP('',(#241,#242,#243,#244,#245,#246,#247,#248,#249,#250,#251,
#252));
#54=EDGE_LOOP('',(#253,#254,#255,#256));
#55=EDGE_LOOP('',(#257,#258,#259,#260));
#56=EDGE_LOOP('',(#261,#262,#263,#264));
#57=EDGE_LOOP('',(#265,#266,#267,#268));
#58=EDGE_LOOP('',(#269,#270,#271,#272,#273,#274,#275,#276,#277,#278,#279,
#280));
#59=EDGE_LOOP('',(#281,#282,#283,#284,#285,#286,#287,#288,#289,#290,#291,
#292));
#60=EDGE_LOOP('',(#293,#294,#295,#296));
#61=EDGE_LOOP('',(#297,#298,#299,#300));
#62=EDGE_LOOP('',(#301,#302,#303,#304));
#63=EDGE_LOOP('',(#305,#306,#307,#308));
#64=EDGE_LOOP('',(#309,#310,#311,#312));
#65=EDGE_LOOP('',(#313,#314,#315,#316));
#66=EDGE_LOOP('',(#317,#318,#319,#320));
#67=EDGE_LOOP('',(#321,#322,#323,#324));
#68=EDGE_LOOP('',(#325,#326,#327,#328));
#69=LINE('',#491,#109);
#70=LINE('',#494,#110);
#71=LINE('',#497,#111);
#72=LINE('',#499,#112);
#73=LINE('',#500,#113);
#74=LINE('',#503,#114);
#75=LINE('',#505,#115);
#76=LINE('',#507,#116);
#77=LINE('',#509,#117);
#78=LINE('',#511,#118);
#79=LINE('',#515,#119);
#80=LINE('',#519,#120);
#81=LINE('',#525,#121);
#82=LINE('',#526,#122);
#83=LINE('',#529,#123);
#84=LINE('',#530,#124);
#85=LINE('',#534,#125);
#86=LINE('',#537,#126);
#87=LINE('',#540,#127);
#88=LINE('',#542,#128);
#89=LINE('',#544,#129);
#90=LINE('',#546,#130);
#91=LINE('',#548,#131);
#92=LINE('',#549,#132);
#93=LINE('',#552,#133);
#94=LINE('',#554,#134);
#95=LINE('',#555,#135);
#96=LINE('',#557,#136);
#97=LINE('',#559,#137);
#98=LINE('',#560,#138);
#99=LINE('',#563,#139);
#100=LINE('',#564,#140);
#101=LINE('',#567,#141);
#102=LINE('',#568,#142);
#103=LINE('',#571,#143);
#104=LINE('',#574,#144);
#105=LINE('',#576,#145);
#106=LINE('',#577,#146);
#107=LINE('',#580,#147);
#108=LINE('',#582,#148);
#109=VECTOR('',#397,10.);
#110=VECTOR('',#400,10.);
#111=VECTOR('',#403,10.);
#112=VECTOR('',#404,10.);
#113=VECTOR('',#405,10.);
#114=VECTOR('',#408,10.);
#115=VECTOR('',#409,10.);
#116=VECTOR('',#410,10.);
#117=VECTOR('',#411,10.);
#118=VECTOR('',#412,10.);
#119=VECTOR('',#415,10.);
#120=VECTOR('',#418,10.);
#121=VECTOR('',#425,10.);
#122=VECTOR('',#426,10.);
#123=VECTOR('',#429,10.);
#124=VECTOR('',#430,10.);
#125=VECTOR('',#435,10.);
#126=VECTOR('',#438,10.);
#127=VECTOR('',#443,10.);
#128=VECTOR('',#444,10.);
#129=VECTOR('',#445,10.);
#130=VECTOR('',#446,10.);
#131=VECTOR('',#447,10.);
#132=VECTOR('',#448,10.);
#133=VECTOR('',#451,10.);
#134=VECTOR('',#452,10.);
#135=VECTOR('',#453,10.);
#136=VECTOR('',#454,10.);
#137=VECTOR('',#455,10.);
#138=VECTOR('',#456,10.);
#139=VECTOR('',#459,10.);
#140=VECTOR('',#460,10.);
#141=VECTOR('',#463,10.);
#142=VECTOR('',#464,10.);
#143=VECTOR('',#469,10.);
#144=VECTOR('',#472,10.);
#145=VECTOR('',#473,10.);
#146=VECTOR('',#474,10.);
#147=VECTOR('',#479,10.);
#148=VECTOR('',#482,10.);
#149=ELLIPSE('',#366,5.30931026689947,5.);
#150=ELLIPSE('',#367,5.30931026689947,5.);
#151=ELLIPSE('',#370,5.30931026689947,5.);
#152=ELLIPSE('',#374,5.30931026689947,5.);
#153=VERTEX_POINT('',#487);
#154=VERTEX_POINT('',#488);
#155=VERTEX_POINT('',#490);
#156=VERTEX_POINT('',#492);
#157=VERTEX_POINT('',#496);
#158=VERTEX_POINT('',#498);
#159=VERTEX_POINT('',#502);
#160=VERTEX_POINT('',#504);
#161=VERTEX_POINT('',#506);
#162=VERTEX_POINT('',#508);
#163=VERTEX_POINT('',#510);
#164=VERTEX_POINT('',#512);
#165=VERTEX_POINT('',#514);
#166=VERTEX_POINT('',#516);
#167=VERTEX_POINT('',#518);
#168=VERTEX_POINT('',#522);
#169=VERTEX_POINT('',#523);
#170=VERTEX_POINT('',#528);
#171=VERTEX_POINT('',#532);
#172=VERTEX_POINT('',#536);
#173=VERTEX_POINT('',#541);
#174=VERTEX_POINT('',#543);
#175=VERTEX_POINT('',#545);
#176=VERTEX_POINT('',#547);
#177=VERTEX_POINT('',#551);
#178=VERTEX_POINT('',#553);
#179=VERTEX_POINT('',#556);
#180=VERTEX_POINT('',#558);
#181=VERTEX_POINT('',#562);
#182=VERTEX_POINT('',#566);
#183=VERTEX_POINT('',#573);
#184=VERTEX_POINT('',#575);
#185=EDGE_CURVE('',#153,#154,#149,.T.);
#186=EDGE_CURVE('',#154,#155,#69,.T.);
#187=EDGE_CURVE('',#155,#156,#150,.T.);
#188=EDGE_CURVE('',#156,#153,#70,.T.);
#189=EDGE_CURVE('',#154,#157,#71,.T.);
#190=EDGE_CURVE('',#158,#157,#72,.T.);
#191=EDGE_CURVE('',#155,#158,#73,.T.);
#192=EDGE_CURVE('',#153,#159,#74,.T.);
#193=EDGE_CURVE('',#159,#160,#75,.T.);
#194=EDGE_CURVE('',#160,#161,#76,.T.);
#195=EDGE_CURVE('',#161,#162,#77,.T.);
#196=EDGE_CURVE('',#162,#163,#78,.T.);
#197=EDGE_CURVE('',#164,#163,#151,.T.);
#198=EDGE_CURVE('',#164,#165,#79,.T.);
#199=EDGE_CURVE('',#166,#165,#15,.T.);
#200=EDGE_CURVE('',#167,#166,#80,.T.);
#201=EDGE_CURVE('',#157,#167,#16,.T.);
#202=EDGE_CURVE('',#168,#169,#152,.T.);
#203=EDGE_CURVE('',#169,#164,#81,.T.);
#204=EDGE_CURVE('',#163,#168,#82,.T.);
#205=EDGE_CURVE('',#169,#170,#83,.T.);
#206=EDGE_CURVE('',#165,#170,#84,.T.);
#207=EDGE_CURVE('',#170,#171,#17,.T.);
#208=EDGE_CURVE('',#171,#166,#85,.T.);
#209=EDGE_CURVE('',#167,#172,#86,.T.);
#210=EDGE_CURVE('',#172,#158,#18,.T.);
#211=EDGE_CURVE('',#171,#172,#87,.T.);
#212=EDGE_CURVE('',#168,#173,#88,.T.);
#213=EDGE_CURVE('',#174,#173,#89,.T.);
#214=EDGE_CURVE('',#175,#174,#90,.T.);
#215=EDGE_CURVE('',#176,#175,#91,.T.);
#216=EDGE_CURVE('',#176,#156,#92,.T.);
#217=EDGE_CURVE('',#177,#176,#93,.T.);
#218=EDGE_CURVE('',#177,#178,#94,.T.);
#219=EDGE_CURVE('',#173,#178,#95,.T.);
#220=EDGE_CURVE('',#162,#179,#96,.T.);
#221=EDGE_CURVE('',#179,#180,#97,.F.);
#222=EDGE_CURVE('',#159,#180,#98,.F.);
#223=EDGE_CURVE('',#178,#181,#99,.T.);
#224=EDGE_CURVE('',#181,#174,#100,.T.);
#225=EDGE_CURVE('',#182,#175,#101,.T.);
#226=EDGE_CURVE('',#182,#177,#102,.T.);
#227=EDGE_CURVE('',#181,#182,#103,.T.);
#228=EDGE_CURVE('',#180,#183,#104,.T.);
#229=EDGE_CURVE('',#184,#179,#105,.T.);
#230=EDGE_CURVE('',#183,#184,#106,.T.);
#231=EDGE_CURVE('',#183,#160,#107,.F.);
#232=EDGE_CURVE('',#184,#161,#108,.F.);
#233=ORIENTED_EDGE('',*,*,#185,.T.);
#234=ORIENTED_EDGE('',*,*,#186,.T.);
#235=ORIENTED_EDGE('',*,*,#187,.T.);
#236=ORIENTED_EDGE('',*,*,#188,.T.);
#237=ORIENTED_EDGE('',*,*,#186,.F.);
#238=ORIENTED_EDGE('',*,*,#189,.T.);
#239=ORIENTED_EDGE('',*,*,#190,.F.);
#240=ORIENTED_EDGE('',*,*,#191,.F.);
#241=ORIENTED_EDGE('',*,*,#185,.F.);
#242=ORIENTED_EDGE('',*,*,#192,.T.);
#243=ORIENTED_EDGE('',*,*,#193,.T.);
#244=ORIENTED_EDGE('',*,*,#194,.T.);
#245=ORIENTED_EDGE('',*,*,#195,.T.);
#246=ORIENTED_EDGE('',*,*,#196,.T.);
#247=ORIENTED_EDGE('',*,*,#197,.F.);
#248=ORIENTED_EDGE('',*,*,#198,.T.);
#249=ORIENTED_EDGE('',*,*,#199,.F.);
#250=ORIENTED_EDGE('',*,*,#200,.F.);
#251=ORIENTED_EDGE('',*,*,#201,.F.);
#252=ORIENTED_EDGE('',*,*,#189,.F.);
#253=ORIENTED_EDGE('',*,*,#202,.T.);
#254=ORIENTED_EDGE('',*,*,#203,.T.);
#255=ORIENTED_EDGE('',*,*,#197,.T.);
#256=ORIENTED_EDGE('',*,*,#204,.T.);
#257=ORIENTED_EDGE('',*,*,#203,.F.);
#258=ORIENTED_EDGE('',*,*,#205,.T.);
#259=ORIENTED_EDGE('',*,*,#206,.F.);
#260=ORIENTED_EDGE('',*,*,#198,.F.);
#261=ORIENTED_EDGE('',*,*,#207,.T.);
#262=ORIENTED_EDGE('',*,*,#208,.T.);
#263=ORIENTED_EDGE('',*,*,#199,.T.);
#264=ORIENTED_EDGE('',*,*,#206,.T.);
#265=ORIENTED_EDGE('',*,*,#201,.T.);
#266=ORIENTED_EDGE('',*,*,#209,.T.);
#267=ORIENTED_EDGE('',*,*,#210,.T.);
#268=ORIENTED_EDGE('',*,*,#190,.T.);
#269=ORIENTED_EDGE('',*,*,#187,.F.);
#270=ORIENTED_EDGE('',*,*,#191,.T.);
#271=ORIENTED_EDGE('',*,*,#210,.F.);
#272=ORIENTED_EDGE('',*,*,#211,.F.);
#273=ORIENTED_EDGE('',*,*,#207,.F.);
#274=ORIENTED_EDGE('',*,*,#205,.F.);
#275=ORIENTED_EDGE('',*,*,#202,.F.);
#276=ORIENTED_EDGE('',*,*,#212,.T.);
#277=ORIENTED_EDGE('',*,*,#213,.F.);
#278=ORIENTED_EDGE('',*,*,#214,.F.);
#279=ORIENTED_EDGE('',*,*,#215,.F.);
#280=ORIENTED_EDGE('',*,*,#216,.T.);
#281=ORIENTED_EDGE('',*,*,#188,.F.);
#282=ORIENTED_EDGE('',*,*,#216,.F.);
#283=ORIENTED_EDGE('',*,*,#217,.F.);
#284=ORIENTED_EDGE('',*,*,#218,.T.);
#285=ORIENTED_EDGE('',*,*,#219,.F.);
#286=ORIENTED_EDGE('',*,*,#212,.F.);
#287=ORIENTED_EDGE('',*,*,#204,.F.);
#288=ORIENTED_EDGE('',*,*,#196,.F.);
#289=ORIENTED_EDGE('',*,*,#220,.T.);
#290=ORIENTED_EDGE('',*,*,#221,.T.);
#291=ORIENTED_EDGE('',*,*,#222,.F.);
#292=ORIENTED_EDGE('',*,*,#192,.F.);
#293=ORIENTED_EDGE('',*,*,#219,.T.);
#294=ORIENTED_EDGE('',*,*,#223,.T.);
#295=ORIENTED_EDGE('',*,*,#224,.T.);
#296=ORIENTED_EDGE('',*,*,#213,.T.);
#297=ORIENTED_EDGE('',*,*,#217,.T.);
#298=ORIENTED_EDGE('',*,*,#215,.T.);
#299=ORIENTED_EDGE('',*,*,#225,.F.);
#300=ORIENTED_EDGE('',*,*,#226,.T.);
#301=ORIENTED_EDGE('',*,*,#208,.F.);
#302=ORIENTED_EDGE('',*,*,#211,.T.);
#303=ORIENTED_EDGE('',*,*,#209,.F.);
#304=ORIENTED_EDGE('',*,*,#200,.T.);
#305=ORIENTED_EDGE('',*,*,#214,.T.);
#306=ORIENTED_EDGE('',*,*,#224,.F.);
#307=ORIENTED_EDGE('',*,*,#227,.T.);
#308=ORIENTED_EDGE('',*,*,#225,.T.);
#309=ORIENTED_EDGE('',*,*,#228,.F.);
#310=ORIENTED_EDGE('',*,*,#221,.F.);
#311=ORIENTED_EDGE('',*,*,#229,.F.);
#312=ORIENTED_EDGE('',*,*,#230,.F.);
#313=ORIENTED_EDGE('',*,*,#218,.F.);
#314=ORIENTED_EDGE('',*,*,#226,.F.);
#315=ORIENTED_EDGE('',*,*,#227,.F.);
#316=ORIENTED_EDGE('',*,*,#223,.F.);
#317=ORIENTED_EDGE('',*,*,#222,.T.);
#318=ORIENTED_EDGE('',*,*,#228,.T.);
#319=ORIENTED_EDGE('',*,*,#231,.T.);
#320=ORIENTED_EDGE('',*,*,#193,.F.);
#321=ORIENTED_EDGE('',*,*,#220,.F.);
#322=ORIENTED_EDGE('',*,*,#195,.F.);
#323=ORIENTED_EDGE('',*,*,#232,.F.);
#324=ORIENTED_EDGE('',*,*,#229,.T.);
#325=ORIENTED_EDGE('',*,*,#232,.T.);
#326=ORIENTED_EDGE('',*,*,#194,.F.);
#327=ORIENTED_EDGE('',*,*,#231,.F.);
#328=ORIENTED_EDGE('',*,*,#230,.T.);
#329=CYLINDRICAL_SURFACE('',#365,5.);
#330=CYLINDRICAL_SURFACE('',#373,5.);
#331=CYLINDRICAL_SURFACE('',#376,5.);
#332=CYLINDRICAL_SURFACE('',#378,5.);
#333=ADVANCED_FACE('',(#33),#329,.T.);
#334=ADVANCED_FACE('',(#34),#19,.T.);
#335=ADVANCED_FACE('',(#35),#20,.T.);
#336=ADVANCED_FACE('',(#36),#330,.T.);
#337=ADVANCED_FACE('',(#37),#21,.T.);
#338=ADVANCED_FACE('',(#38),#331,.T.);
#339=ADVANCED_FACE('',(#39),#332,.T.);
#340=ADVANCED_FACE('',(#40),#22,.T.);
#341=ADVANCED_FACE('',(#41),#23,.F.);
#342=ADVANCED_FACE('',(#42),#24,.T.);
#343=ADVANCED_FACE('',(#43),#25,.T.);
#344=ADVANCED_FACE('',(#44),#26,.T.);
#345=ADVANCED_FACE('',(#45),#27,.T.);
#346=ADVANCED_FACE('',(#46),#28,.T.);
#347=ADVANCED_FACE('',(#47),#29,.F.);
#348=ADVANCED_FACE('',(#48),#30,.F.);
#349=ADVANCED_FACE('',(#49),#31,.F.);
#350=ADVANCED_FACE('',(#50),#32,.F.);
#351=CLOSED_SHELL('',(#333,#334,#335,#336,#337,#338,#339,#340,#341,#342,
#343,#344,#345,#346,#347,#348,#349,#350));
#352=DERIVED_UNIT_ELEMENT(#354,1.);
#353=DERIVED_UNIT_ELEMENT(#589,-3.);
#354=(
MASS_UNIT()
NAMED_UNIT(*)
SI_UNIT(.KILO.,.GRAM.)
);
#355=DERIVED_UNIT((#352,#353));
#356=MEASURE_REPRESENTATION_ITEM('density measure',
POSITIVE_RATIO_MEASURE(7850.),#355);
#357=PROPERTY_DEFINITION_REPRESENTATION(#362,#359);
#358=PROPERTY_DEFINITION_REPRESENTATION(#363,#360);
#359=REPRESENTATION('material name',(#361),#586);
#360=REPRESENTATION('density',(#356),#586);
#361=DESCRIPTIVE_REPRESENTATION_ITEM('\X\C7elik','\X\C7elik');
#362=PROPERTY_DEFINITION('material property','material name',#596);
#363=PROPERTY_DEFINITION('material property','density of part',#596);
#364=AXIS2_PLACEMENT_3D('',#485,#391,#392);
#365=AXIS2_PLACEMENT_3D('',#486,#393,#394);
#366=AXIS2_PLACEMENT_3D('',#489,#395,#396);
#367=AXIS2_PLACEMENT_3D('',#493,#398,#399);
#368=AXIS2_PLACEMENT_3D('',#495,#401,#402);
#369=AXIS2_PLACEMENT_3D('',#501,#406,#407);
#370=AXIS2_PLACEMENT_3D('',#513,#413,#414);
#371=AXIS2_PLACEMENT_3D('',#517,#416,#417);
#372=AXIS2_PLACEMENT_3D('',#520,#419,#420);
#373=AXIS2_PLACEMENT_3D('',#521,#421,#422);
#374=AXIS2_PLACEMENT_3D('',#524,#423,#424);
#375=AXIS2_PLACEMENT_3D('',#527,#427,#428);
#376=AXIS2_PLACEMENT_3D('',#531,#431,#432);
#377=AXIS2_PLACEMENT_3D('',#533,#433,#434);
#378=AXIS2_PLACEMENT_3D('',#535,#436,#437);
#379=AXIS2_PLACEMENT_3D('',#538,#439,#440);
#380=AXIS2_PLACEMENT_3D('',#539,#441,#442);
#381=AXIS2_PLACEMENT_3D('',#550,#449,#450);
#382=AXIS2_PLACEMENT_3D('',#561,#457,#458);
#383=AXIS2_PLACEMENT_3D('',#565,#461,#462);
#384=AXIS2_PLACEMENT_3D('',#569,#465,#466);
#385=AXIS2_PLACEMENT_3D('',#570,#467,#468);
#386=AXIS2_PLACEMENT_3D('',#572,#470,#471);
#387=AXIS2_PLACEMENT_3D('',#578,#475,#476);
#388=AXIS2_PLACEMENT_3D('',#579,#477,#478);
#389=AXIS2_PLACEMENT_3D('',#581,#480,#481);
#390=AXIS2_PLACEMENT_3D('',#583,#483,#484);
#391=DIRECTION('axis',(0.,0.,1.));
#392=DIRECTION('refdir',(1.,0.,0.));
#393=DIRECTION('center_axis',(0.336336396998156,-4.11893292020546E-17,0.941741911594837));
#394=DIRECTION('ref_axis',(-0.665912091816292,0.707106781186547,0.237825747077247));
#395=DIRECTION('center_axis',(0.,0.,-1.));
#396=DIRECTION('ref_axis',(-1.,3.31573390616155E-16,0.));
#397=DIRECTION('',(-0.336336396998156,4.11893292020546E-17,-0.941741911594838));
#398=DIRECTION('center_axis',(0.,0.,1.));
#399=DIRECTION('ref_axis',(-1.,3.31573390616155E-16,0.));
#400=DIRECTION('',(0.336336396998156,-4.11893292020545E-17,0.941741911594837));
#401=DIRECTION('center_axis',(1.22464679914735E-16,1.,0.));
#402=DIRECTION('ref_axis',(0.,0.,-1.));
#403=DIRECTION('',(1.,-1.22464679914735E-16,0.));
#404=DIRECTION('',(0.,0.,1.));
#405=DIRECTION('',(1.,-1.22464679914735E-16,0.));
#406=DIRECTION('center_axis',(0.,0.,1.));
#407=DIRECTION('ref_axis',(-1.,1.22464679914735E-16,0.));
#408=DIRECTION('',(-1.22464679914735E-16,-1.,0.));
#409=DIRECTION('',(1.,-1.22464679914735E-16,0.));
#410=DIRECTION('',(-1.22464679914735E-16,-1.,0.));
#411=DIRECTION('',(-1.,1.22464679914735E-16,0.));
#412=DIRECTION('',(-1.22464679914735E-16,-1.,0.));
#413=DIRECTION('center_axis',(0.,0.,-1.));
#414=DIRECTION('ref_axis',(-1.,-6.61692985215587E-16,0.));
#415=DIRECTION('',(1.,-1.22464679914735E-16,0.));
#416=DIRECTION('center_axis',(0.,0.,-1.));
#417=DIRECTION('ref_axis',(0.707106781186547,-0.707106781186548,0.));
#418=DIRECTION('',(-1.22464679914735E-16,-1.,0.));
#419=DIRECTION('center_axis',(0.,0.,-1.));
#420=DIRECTION('ref_axis',(0.707106781186548,0.707106781186547,0.));
#421=DIRECTION('center_axis',(-0.336336396998156,4.11893292020546E-17,-0.941741911594837));
#422=DIRECTION('ref_axis',(-0.665912091816292,-0.707106781186547,0.237825747077247));
#423=DIRECTION('center_axis',(0.,0.,1.));
#424=DIRECTION('ref_axis',(-1.,-6.61692985215587E-16,0.));
#425=DIRECTION('',(0.336336396998156,-4.11893292020546E-17,0.941741911594838));
#426=DIRECTION('',(-0.336336396998156,4.11893292020546E-17,-0.941741911594838));
#427=DIRECTION('center_axis',(-1.22464679914735E-16,-1.,0.));
#428=DIRECTION('ref_axis',(0.,0.,1.));
#429=DIRECTION('',(1.,-1.22464679914735E-16,0.));
#430=DIRECTION('',(0.,0.,-1.));
#431=DIRECTION('center_axis',(0.,0.,-1.));
#432=DIRECTION('ref_axis',(0.707106781186547,-0.707106781186548,0.));
#433=DIRECTION('center_axis',(0.,0.,1.));
#434=DIRECTION('ref_axis',(0.707106781186547,-0.707106781186548,0.));
#435=DIRECTION('',(0.,0.,1.));
#436=DIRECTION('center_axis',(0.,0.,1.));
#437=DIRECTION('ref_axis',(0.707106781186548,0.707106781186547,0.));
#438=DIRECTION('',(0.,0.,-1.));
#439=DIRECTION('center_axis',(0.,0.,1.));
#440=DIRECTION('ref_axis',(0.707106781186548,0.707106781186547,0.));
#441=DIRECTION('center_axis',(0.,0.,-1.));
#442=DIRECTION('ref_axis',(1.22464679914735E-16,1.,0.));
#443=DIRECTION('',(1.22464679914735E-16,1.,0.));
#444=DIRECTION('',(1.22464679914735E-16,1.,0.));
#445=DIRECTION('',(-1.,1.22464679914735E-16,0.));
#446=DIRECTION('',(-1.22464679914735E-16,-1.,0.));
#447=DIRECTION('',(1.,-1.22464679914735E-16,0.));
#448=DIRECTION('',(1.22464679914735E-16,1.,0.));
#449=DIRECTION('center_axis',(0.941741911594837,-1.15330121765753E-16,-0.336336396998156));
#450=DIRECTION('ref_axis',(-0.336336396998156,4.11893292020546E-17,-0.941741911594838));
#451=DIRECTION('',(0.336336396998156,-4.11893292020546E-17,0.941741911594838));
#452=DIRECTION('',(-1.22464679914735E-16,-1.,0.));
#453=DIRECTION('',(-0.336336396998156,4.11893292020546E-17,-0.941741911594838));
#454=DIRECTION('',(-0.336336396998156,4.11893292020546E-17,-0.941741911594838));
#455=DIRECTION('',(-1.22464679914735E-16,-1.,0.));
#456=DIRECTION('',(0.336336396998156,-4.11893292020546E-17,0.941741911594838));
#457=DIRECTION('center_axis',(-1.22464679914735E-16,-1.,0.));
#458=DIRECTION('ref_axis',(1.,-1.22464679914735E-16,0.));
#459=DIRECTION('',(1.,-1.22464679914735E-16,0.));
#460=DIRECTION('',(0.,0.,1.));
#461=DIRECTION('center_axis',(1.22464679914735E-16,1.,0.));
#462=DIRECTION('ref_axis',(-1.,1.22464679914735E-16,0.));
#463=DIRECTION('',(0.,0.,1.));
#464=DIRECTION('',(-1.,1.22464679914735E-16,0.));
#465=DIRECTION('center_axis',(1.,-1.22464679914735E-16,0.));
#466=DIRECTION('ref_axis',(0.,0.,1.));
#467=DIRECTION('center_axis',(1.,-1.22464679914735E-16,0.));
#468=DIRECTION('ref_axis',(1.22464679914735E-16,1.,0.));
#469=DIRECTION('',(1.22464679914735E-16,1.,0.));
#470=DIRECTION('center_axis',(0.,0.,1.));
#471=DIRECTION('ref_axis',(-1.,1.22464679914735E-16,0.));
#472=DIRECTION('',(1.,-1.22464679914735E-16,0.));
#473=DIRECTION('',(-1.,1.22464679914735E-16,0.));
#474=DIRECTION('',(-1.22464679914735E-16,-1.,0.));
#475=DIRECTION('center_axis',(0.,0.,1.));
#476=DIRECTION('ref_axis',(-1.,1.22464679914735E-16,0.));
#477=DIRECTION('center_axis',(1.22464679914735E-16,1.,0.));
#478=DIRECTION('ref_axis',(-1.,1.22464679914735E-16,0.));
#479=DIRECTION('',(0.,0.,-1.));
#480=DIRECTION('center_axis',(-1.22464679914735E-16,-1.,0.));
#481=DIRECTION('ref_axis',(1.,-1.22464679914735E-16,0.));
#482=DIRECTION('',(0.,0.,-1.));
#483=DIRECTION('center_axis',(1.,-1.22464679914735E-16,0.));
#484=DIRECTION('ref_axis',(1.22464679914735E-16,1.,0.));
#485=CARTESIAN_POINT('',(0.,0.,0.));
#486=CARTESIAN_POINT('Origin',(45.1549774696038,111.999999627471,6.2482229554722));
#487=CARTESIAN_POINT('',(41.18558757575,111.999999627471,10.));
#488=CARTESIAN_POINT('',(46.4948978426494,116.999999627471,10.));
#489=CARTESIAN_POINT('Origin',(46.4948978426494,111.999999627471,10.));
#490=CARTESIAN_POINT('',(46.1377550600124,116.999999627471,9.00000020861625));
#491=CARTESIAN_POINT('',(45.1549774696038,116.999999627471,6.2482229554722));
#492=CARTESIAN_POINT('',(40.8284447931129,111.999999627471,9.00000020861625));
#493=CARTESIAN_POINT('Origin',(46.1377550600124,111.999999627471,9.00000020861625));
#494=CARTESIAN_POINT('',(40.4462679116296,111.999999627471,7.92990494046298));
#495=CARTESIAN_POINT('Origin',(70.5000014156103,116.999999627471,-4.));
#496=CARTESIAN_POINT('',(69.5000014156103,116.999999627471,10.));
#497=CARTESIAN_POINT('',(70.5000014156103,116.999999627471,10.));
#498=CARTESIAN_POINT('',(69.5000014156103,116.999999627471,9.00000020861625));
#499=CARTESIAN_POINT('',(69.5000014156103,116.999999627471,-4.));
#500=CARTESIAN_POINT('',(70.5000014156103,116.999999627471,9.00000020861625));
#501=CARTESIAN_POINT('Origin',(51.7500014156103,100.499999627471,10.));
#502=CARTESIAN_POINT('',(41.18558757575,109.999999627471,10.));
#503=CARTESIAN_POINT('',(41.18558757575,95.249999627471,10.));
#504=CARTESIAN_POINT('',(69.5000014156103,109.999999627471,10.));
#505=CARTESIAN_POINT('',(61.1250014156103,109.999999627471,10.));
#506=CARTESIAN_POINT('',(69.5000014156103,90.999999627471,10.));
#507=CARTESIAN_POINT('',(69.5000014156103,95.249999627471,10.));
#508=CARTESIAN_POINT('',(41.18558757575,90.999999627471,10.));
#509=CARTESIAN_POINT('',(42.3750014156103,90.999999627471,10.));
#510=CARTESIAN_POINT('',(41.18558757575,88.999999627471,10.));
#511=CARTESIAN_POINT('',(41.18558757575,95.249999627471,10.));
#512=CARTESIAN_POINT('',(46.4948978426494,83.999999627471,10.));
#513=CARTESIAN_POINT('Origin',(46.4948978426494,88.999999627471,10.));
#514=CARTESIAN_POINT('',(69.5000014156103,83.999999627471,10.));
#515=CARTESIAN_POINT('',(70.5000014156103,83.999999627471,10.));
#516=CARTESIAN_POINT('',(74.5000014156103,88.999999627471,10.));
#517=CARTESIAN_POINT('Origin',(69.5000014156103,88.999999627471,10.));
#518=CARTESIAN_POINT('',(74.5000014156103,111.999999627471,10.));
#519=CARTESIAN_POINT('',(74.5000014156103,110.999999627471,10.));
#520=CARTESIAN_POINT('Origin',(69.5000014156103,111.999999627471,10.));
#521=CARTESIAN_POINT('Origin',(43.0339367456219,88.999999627471,0.309308928322873));
#522=CARTESIAN_POINT('',(40.8284447931129,88.999999627471,9.00000020861625));
#523=CARTESIAN_POINT('',(46.1377550600124,83.999999627471,9.00000020861625));
#524=CARTESIAN_POINT('Origin',(46.1377550600124,88.999999627471,9.00000020861625));
#525=CARTESIAN_POINT('',(43.0339367456219,83.999999627471,0.309308928322873));
#526=CARTESIAN_POINT('',(38.3252271876477,88.999999627471,1.99099091331366));
#527=CARTESIAN_POINT('Origin',(33.0000014156103,83.999999627471,-4.));
#528=CARTESIAN_POINT('',(69.5000014156103,83.999999627471,9.00000020861625));
#529=CARTESIAN_POINT('',(42.3750014156103,83.999999627471,9.00000020861625));
#530=CARTESIAN_POINT('',(69.5000014156103,83.999999627471,-4.));
#531=CARTESIAN_POINT('Origin',(69.5000014156103,88.999999627471,-4.));
#532=CARTESIAN_POINT('',(74.5000014156103,88.999999627471,9.00000020861625));
#533=CARTESIAN_POINT('Origin',(69.5000014156103,88.999999627471,9.00000020861625));
#534=CARTESIAN_POINT('',(74.5000014156103,88.999999627471,-4.));
#535=CARTESIAN_POINT('Origin',(69.5000014156103,111.999999627471,-4.));
#536=CARTESIAN_POINT('',(74.5000014156103,111.999999627471,9.00000020861625));
#537=CARTESIAN_POINT('',(74.5000014156103,111.999999627471,-4.));
#538=CARTESIAN_POINT('Origin',(69.5000014156103,111.999999627471,9.00000020861625));
#539=CARTESIAN_POINT('Origin',(70.5000014156103,89.999999627471,9.00000020861625));
#540=CARTESIAN_POINT('',(74.5000014156103,89.999999627471,9.00000020861625));
#541=CARTESIAN_POINT('',(40.8284447931129,89.999999627471,9.00000020861625));
#542=CARTESIAN_POINT('',(40.8284447931129,89.999999627471,9.00000020861625));
#543=CARTESIAN_POINT('',(70.5000014156103,89.999999627471,9.00000020861625));
#544=CARTESIAN_POINT('',(33.0000014156103,89.999999627471,9.00000020861625));
#545=CARTESIAN_POINT('',(70.5000014156103,110.999999627471,9.00000020861625));
#546=CARTESIAN_POINT('',(70.5000014156103,89.999999627471,9.00000020861625));
#547=CARTESIAN_POINT('',(40.8284447931129,110.999999627471,9.00000020861625));
#548=CARTESIAN_POINT('',(70.5000014156103,110.999999627471,9.00000020861625));
#549=CARTESIAN_POINT('',(40.8284447931129,89.999999627471,9.00000020861625));
#550=CARTESIAN_POINT('Origin',(40.8252272249006,89.999999627471,8.99099101762179));
#551=CARTESIAN_POINT('',(36.1855875757499,110.999999627471,-4.));
#552=CARTESIAN_POINT('',(40.4462679116296,110.999999627471,7.92990494046298));
#553=CARTESIAN_POINT('',(36.18558757575,89.999999627471,-4.));
#554=CARTESIAN_POINT('',(36.18558757575,95.249999627471,-4.));
#555=CARTESIAN_POINT('',(38.3252271876477,89.999999627471,1.99099091331366));
#556=CARTESIAN_POINT('',(36.5427304328929,90.999999627471,-3.));
#557=CARTESIAN_POINT('',(38.3252271876477,90.999999627471,1.99099091331366));
#558=CARTESIAN_POINT('',(36.5427304328929,109.999999627471,-3.));
#559=CARTESIAN_POINT('',(36.5427304328928,95.249999627471,-3.));
#560=CARTESIAN_POINT('',(40.4462679116296,109.999999627471,7.92990494046298));
#561=CARTESIAN_POINT('Origin',(33.0000014156103,89.999999627471,-4.));
#562=CARTESIAN_POINT('',(70.5000014156103,89.999999627471,-4.));
#563=CARTESIAN_POINT('',(33.0000014156103,89.999999627471,-4.));
#564=CARTESIAN_POINT('',(70.5000014156103,89.999999627471,-4.));
#565=CARTESIAN_POINT('Origin',(70.5000014156103,110.999999627471,-4.));
#566=CARTESIAN_POINT('',(70.5000014156103,110.999999627471,-4.));
#567=CARTESIAN_POINT('',(70.5000014156103,110.999999627471,-4.));
#568=CARTESIAN_POINT('',(70.5000014156103,110.999999627471,-4.));
#569=CARTESIAN_POINT('Origin',(74.5000014156103,89.999999627471,-4.));
#570=CARTESIAN_POINT('Origin',(70.5000014156103,89.999999627471,-4.));
#571=CARTESIAN_POINT('',(70.5000014156103,89.999999627471,-4.));
#572=CARTESIAN_POINT('Origin',(51.7500014156103,100.499999627471,-3.));
#573=CARTESIAN_POINT('',(69.5000014156103,109.999999627471,-3.));
#574=CARTESIAN_POINT('',(61.1250014156103,109.999999627471,-3.));
#575=CARTESIAN_POINT('',(69.5000014156103,90.999999627471,-3.));
#576=CARTESIAN_POINT('',(34.0000014156103,90.999999627471,-3.));
#577=CARTESIAN_POINT('',(69.5000014156103,95.249999627471,-3.));
#578=CARTESIAN_POINT('Origin',(51.7500014156103,100.499999627471,-4.));
#579=CARTESIAN_POINT('Origin',(70.5000014156103,109.999999627471,-4.));
#580=CARTESIAN_POINT('',(69.5000014156103,109.999999627471,-4.));
#581=CARTESIAN_POINT('Origin',(33.0000014156103,90.999999627471,-4.));
#582=CARTESIAN_POINT('',(69.5000014156103,90.999999627471,-4.));
#583=CARTESIAN_POINT('Origin',(69.5000014156103,89.999999627471,-4.));
#584=UNCERTAINTY_MEASURE_WITH_UNIT(LENGTH_MEASURE(0.01),#588,
'DISTANCE_ACCURACY_VALUE',
'Maximum model space distance between geometric entities at asserted c
onnectivities');
#585=UNCERTAINTY_MEASURE_WITH_UNIT(LENGTH_MEASURE(0.01),#588,
'DISTANCE_ACCURACY_VALUE',
'Maximum model space distance between geometric entities at asserted c
onnectivities');
#586=(
GEOMETRIC_REPRESENTATION_CONTEXT(3)
GLOBAL_UNCERTAINTY_ASSIGNED_CONTEXT((#584))
GLOBAL_UNIT_ASSIGNED_CONTEXT((#588,#590,#591))
REPRESENTATION_CONTEXT('','3D')
);
#587=(
GEOMETRIC_REPRESENTATION_CONTEXT(3)
GLOBAL_UNCERTAINTY_ASSIGNED_CONTEXT((#585))
GLOBAL_UNIT_ASSIGNED_CONTEXT((#588,#590,#591))
REPRESENTATION_CONTEXT('','3D')
);
#588=(
LENGTH_UNIT()
NAMED_UNIT(*)
SI_UNIT(.MILLI.,.METRE.)
);
#589=(
LENGTH_UNIT()
NAMED_UNIT(*)
SI_UNIT($,.METRE.)
);
#590=(
NAMED_UNIT(*)
PLANE_ANGLE_UNIT()
SI_UNIT($,.RADIAN.)
);
#591=(
NAMED_UNIT(*)
SI_UNIT($,.STERADIAN.)
SOLID_ANGLE_UNIT()
);
#592=SHAPE_DEFINITION_REPRESENTATION(#593,#594);
#593=PRODUCT_DEFINITION_SHAPE('',$,#596);
#594=SHAPE_REPRESENTATION('',(#364),#586);
#595=PRODUCT_DEFINITION_CONTEXT('part definition',#600,'design');
#596=PRODUCT_DEFINITION('2026-06-24-21-02-30-606','PaddleShiftArea',#597,
#595);
#597=PRODUCT_DEFINITION_FORMATION('',$,#602);
#598=PRODUCT_RELATED_PRODUCT_CATEGORY('PaddleShiftArea',
'PaddleShiftArea',(#602));
#599=APPLICATION_PROTOCOL_DEFINITION('international standard',
'automotive_design',2009,#600);
#600=APPLICATION_CONTEXT(
'Core Data for Automotive Mechanical Design Process');
#601=PRODUCT_CONTEXT('part definition',#600,'mechanical');
#602=PRODUCT('2026-06-24-21-02-30-606','PaddleShiftArea',$,(#601));
#603=PRESENTATION_STYLE_ASSIGNMENT((#604));
#604=SURFACE_STYLE_USAGE(.BOTH.,#605);
#605=SURFACE_SIDE_STYLE('',(#606));
#606=SURFACE_STYLE_FILL_AREA(#607);
#607=FILL_AREA_STYLE('\X\C7elik - Saten',(#608));
#608=FILL_AREA_STYLE_COLOUR('\X\C7elik - Saten',#609);
#609=COLOUR_RGB('\X\C7elik - Saten',0.627450980392157,0.627450980392157,
0.627450980392157);
ENDSEC;
END-ISO-10303-21;
