ISO-10303-21;
HEADER;
/* Generated by software containing ST-Developer
 * from STEP Tools, Inc. (www.steptools.com) 
 */

FILE_DESCRIPTION(
/* description */ (''),
/* implementation_level */ '2;1');

FILE_NAME(
/* name */ 'WheelCoupler.step',
/* time_stamp */ '2026-06-24T14:54:07+03:00',
/* author */ (''),
/* organization */ (''),
/* preprocessor_version */ 'ST-DEVELOPER v20.1',
/* originating_system */ 'Autodesk Translation Framework v15.8.0.0',
/* authorisation */ '');

FILE_SCHEMA (('AUTOMOTIVE_DESIGN { 1 0 10303 214 3 1 1 }'));
ENDSEC;

DATA;
#10=MECHANICAL_DESIGN_GEOMETRIC_PRESENTATION_REPRESENTATION('',(#13),#1414);
#11=SHAPE_REPRESENTATION_RELATIONSHIP('SRR','None',#1421,#12);
#12=ADVANCED_BREP_SHAPE_REPRESENTATION('',(#14),#1413);
#13=STYLED_ITEM('',(#1431),#14);
#14=MANIFOLD_SOLID_BREP('WheelCoupler',#592);
#15=B_SPLINE_SURFACE_WITH_KNOTS('',3,3,((#1264,#1265,#1266,#1267),(#1268,
#1269,#1270,#1271),(#1272,#1273,#1274,#1275),(#1276,#1277,#1278,#1279),
(#1280,#1281,#1282,#1283)),.UNSPECIFIED.,.F.,.F.,.F.,(4,1,4),(4,4),(-0.66182171509598,
0.334025469272015,1.66182171509601),(-0.00324736746492125,1.3268934628117),
 .UNSPECIFIED.);
#16=B_SPLINE_SURFACE_WITH_KNOTS('',3,3,((#1355,#1356,#1357,#1358),(#1359,
#1360,#1361,#1362),(#1363,#1364,#1365,#1366),(#1367,#1368,#1369,#1370)),
 .UNSPECIFIED.,.F.,.F.,.F.,(4,4),(4,4),(-0.0156691854481722,1.01566918544818),
(0.00322869343431085,1.00651465798072),.UNSPECIFIED.);
#17=(
BOUNDED_CURVE()
B_SPLINE_CURVE(2,(#1225,#1226,#1227),.UNSPECIFIED.,.F.,.F.)
B_SPLINE_CURVE_WITH_KNOTS((3,3),(7.9443295555101,11.6847134018387),
 .UNSPECIFIED.)
CURVE()
GEOMETRIC_REPRESENTATION_ITEM()
RATIONAL_B_SPLINE_CURVE((1.00093524930078,1.00105262987137,1.00107321977934))
REPRESENTATION_ITEM('')
);
#18=(
BOUNDED_CURVE()
B_SPLINE_CURVE(2,(#1230,#1231,#1232),.UNSPECIFIED.,.F.,.F.)
B_SPLINE_CURVE_WITH_KNOTS((3,3),(13.2760685303651,17.0164523782378),
 .UNSPECIFIED.)
CURVE()
GEOMETRIC_REPRESENTATION_ITEM()
RATIONAL_B_SPLINE_CURVE((1.00107321980572,1.00105262989749,1.00093524932419))
REPRESENTATION_ITEM('')
);
#19=(
BOUNDED_CURVE()
B_SPLINE_CURVE(2,(#1345,#1346,#1347),.UNSPECIFIED.,.F.,.F.)
B_SPLINE_CURVE_WITH_KNOTS((3,3),(13.9798116475351,16.8883151897537),
 .UNSPECIFIED.)
CURVE()
GEOMETRIC_REPRESENTATION_ITEM()
RATIONAL_B_SPLINE_CURVE((1.00222579610387,1.00212856315218,1.00189452812561))
REPRESENTATION_ITEM('')
);
#20=(
BOUNDED_CURVE()
B_SPLINE_CURVE(2,(#1351,#1352,#1353),.UNSPECIFIED.,.F.,.F.)
B_SPLINE_CURVE_WITH_KNOTS((3,3),(6.93683299258184,9.8453365261138),
 .UNSPECIFIED.)
CURVE()
GEOMETRIC_REPRESENTATION_ITEM()
RATIONAL_B_SPLINE_CURVE((1.00189452810844,1.00212856313468,1.00222579608769))
REPRESENTATION_ITEM('')
);
#21=CONICAL_SURFACE('',#643,32.1925999843357,0.035120687987253);
#22=CONICAL_SURFACE('',#657,20.3998766664056,0.035120687987253);
#23=PLANE('',#621);
#24=PLANE('',#625);
#25=PLANE('',#629);
#26=PLANE('',#633);
#27=PLANE('',#639);
#28=PLANE('',#645);
#29=PLANE('',#646);
#30=PLANE('',#647);
#31=PLANE('',#648);
#32=PLANE('',#654);
#33=PLANE('',#655);
#34=PLANE('',#659);
#35=PLANE('',#660);
#36=PLANE('',#661);
#37=FACE_BOUND('',#172,.T.);
#38=FACE_BOUND('',#176,.T.);
#39=FACE_BOUND('',#179,.T.);
#40=FACE_BOUND('',#182,.T.);
#41=FACE_BOUND('',#185,.T.);
#42=FACE_BOUND('',#191,.T.);
#43=FACE_BOUND('',#193,.T.);
#44=FACE_BOUND('',#195,.T.);
#45=FACE_BOUND('',#196,.T.);
#46=FACE_BOUND('',#202,.T.);
#47=FACE_BOUND('',#205,.T.);
#48=FACE_BOUND('',#207,.T.);
#49=FACE_BOUND('',#209,.T.);
#50=B_SPLINE_CURVE_WITH_KNOTS('',3,(#816,#817,#818,#819,#820,#821,#822,
#823,#824,#825,#826,#827,#828,#829,#830,#831,#832,#833),.UNSPECIFIED.,.F.,
 .F.,(4,2,2,2,2,2,2,2,4),(0.539381623129819,0.661470441614149,0.793676285880691,
0.92594912704148,1.05822196820227,1.19049480936306,1.32276765052385,1.45497349479039,
1.57706231327472),.UNSPECIFIED.);
#51=B_SPLINE_CURVE_WITH_KNOTS('',3,(#836,#837,#838,#839,#840,#841,#842,
#843,#844,#845,#846,#847),.UNSPECIFIED.,.F.,.F.,(4,2,2,2,2,4),(1.57706231327472,
1.58717933905693,1.71952226910548,1.85186519915403,1.98415456777929,2.11644393640454),
 .UNSPECIFIED.);
#52=B_SPLINE_CURVE_WITH_KNOTS('',3,(#849,#850,#851,#852,#853,#854,#855,
#856,#857,#858),.UNSPECIFIED.,.F.,.F.,(4,2,2,2,4),(0.,0.132289368625254,
0.264578737250507,0.396921667299058,0.529264597347608),.UNSPECIFIED.);
#53=B_SPLINE_CURVE_WITH_KNOTS('',3,(#859,#860,#861,#862),.UNSPECIFIED.,
 .F.,.F.,(4,4),(0.529264597347608,0.539381623129819),.UNSPECIFIED.);
#54=B_SPLINE_CURVE_WITH_KNOTS('',3,(#865,#866,#867,#868,#869,#870,#871,
#872,#873,#874),.UNSPECIFIED.,.F.,.F.,(4,2,2,2,4),(0.,0.13227284116079,
0.26454568232158,0.396751526588121,0.528957370854663),.UNSPECIFIED.);
#55=B_SPLINE_CURVE_WITH_KNOTS('',3,(#875,#876,#877,#878,#879,#880,#881,
#882,#883,#884,#885,#886,#887,#888,#889,#890,#891,#892,#893,#894,#895,#896,
#897,#898,#899,#900),.UNSPECIFIED.,.F.,.F.,(4,2,2,2,2,2,2,2,2,2,2,2,4),
(0.528957370854663,0.661300300903213,0.793643230951763,0.925932599577017,
1.05822196820227,1.19051133682752,1.32280070545278,1.45514363550133,1.58748656554988,
1.71969240981642,1.85189825408296,1.98417109524375,2.11644393640454),
 .UNSPECIFIED.);
#56=B_SPLINE_CURVE_WITH_KNOTS('',3,(#904,#905,#906,#907,#908,#909),
 .UNSPECIFIED.,.F.,.F.,(4,2,4),(5.82410094481031,5.91993600176112,6.05019789616521),
 .UNSPECIFIED.);
#57=B_SPLINE_CURVE_WITH_KNOTS('',3,(#916,#917,#918,#919,#920,#921),
 .UNSPECIFIED.,.F.,.F.,(4,2,4),(0.0311088687667209,0.16137076405922,0.257205820119854),
 .UNSPECIFIED.);
#58=B_SPLINE_CURVE_WITH_KNOTS('',3,(#933,#934,#935,#936,#937,#938,#939,
#940,#941,#942,#943,#944),.UNSPECIFIED.,.F.,.F.,(4,2,2,2,2,4),(0.,0.131502121111688,
0.263004242223376,0.394581107194252,0.526157972165127,0.526197647160778),
 .UNSPECIFIED.);
#59=B_SPLINE_CURVE_WITH_KNOTS('',3,(#945,#946,#947,#948,#949,#950,#951,
#952,#953,#954,#955,#956,#957,#958,#959,#960,#961,#962,#963,#964,#965,#966,
#967,#968,#969,#970),.UNSPECIFIED.,.F.,.F.,(4,2,2,2,2,2,2,2,2,2,2,2,4),
(0.526197647160778,0.657763068848948,0.789368165532768,0.920865324725742,
1.05236248391872,1.1848730629406,1.31738364196249,1.44980538684886,1.58222713173524,
1.7146156342464,1.84700413675756,1.97948971097992,2.11197528520229),
 .UNSPECIFIED.);
#60=B_SPLINE_CURVE_WITH_KNOTS('',3,(#987,#988,#989,#990,#991,#992,#993,
#994,#995,#996),.UNSPECIFIED.,.F.,.F.,(4,2,2,2,4),(0.,0.131497159192974,
0.262994318385949,0.394599415069769,0.526164836757938),.UNSPECIFIED.);
#61=B_SPLINE_CURVE_WITH_KNOTS('',3,(#997,#998,#999,#1000,#1001,#1002,#1003,
#1004,#1005,#1006,#1007,#1008,#1009,#1010,#1011,#1012,#1013,#1014,#1015,
#1016,#1017,#1018,#1019,#1020,#1021,#1022,#1023,#1024),.UNSPECIFIED.,.F.,
 .F.,(4,2,2,2,2,2,2,2,2,2,2,2,2,4),(0.526164836757938,0.526204511753589,
0.657781376724465,0.789358241695341,0.920860362807029,1.05236248391872,
1.18484805814108,1.31733363236345,1.44972213487461,1.58211063738577,1.71453238227214,
1.84695412715852,1.9794647061804,2.11197528520229),.UNSPECIFIED.);
#62=B_SPLINE_CURVE_WITH_KNOTS('',3,(#1035,#1036,#1037,#1038,#1039,#1040,
#1041,#1042,#1043,#1044,#1045,#1046,#1047,#1048,#1049,#1050,#1051,#1052,
#1053,#1054,#1055,#1056,#1057,#1058,#1059,#1060,#1061,#1062),
 .UNSPECIFIED.,.F.,.F.,(4,2,2,2,2,2,2,2,2,2,2,2,2,4),(0.,0.0976480692646137,
0.195296138529227,0.29301451346135,0.390732888393472,0.48849316655052,0.586253444707567,
0.683896568317143,0.781539691926718,0.880086785710418,0.978633879494118,
1.07711123516328,1.17558859083244,1.17563573121551),.UNSPECIFIED.);
#63=B_SPLINE_CURVE_WITH_KNOTS('',3,(#1063,#1064,#1065,#1066,#1067,#1068,
#1069,#1070,#1071,#1072),.UNSPECIFIED.,.F.,.F.,(4,2,2,2,4),(1.17563573121551,
1.27402087607334,1.37245316131424,1.47096671967058,1.56948027802693),
 .UNSPECIFIED.);
#64=B_SPLINE_CURVE_WITH_KNOTS('',3,(#1077,#1078,#1079,#1080),
 .UNSPECIFIED.,.F.,.F.,(4,4),(0.383743458626633,0.393844546811423),
 .UNSPECIFIED.);
#65=B_SPLINE_CURVE_WITH_KNOTS('',3,(#1082,#1083,#1084,#1085,#1086,#1087,
#1088,#1089,#1090,#1091),.UNSPECIFIED.,.F.,.F.,(4,2,2,2,4),(0.,0.0985135583563448,
0.19702711671269,0.29545940195359,0.383743458626633),.UNSPECIFIED.);
#66=B_SPLINE_CURVE_WITH_KNOTS('',3,(#1093,#1094,#1095,#1096,#1097,#1098,
#1099,#1100,#1101,#1102),.UNSPECIFIED.,.F.,.F.,(4,2,2,2,4),(1.18880093341221,
1.27646576456558,1.3741841394977,1.47183220876232,1.56948027802693),
 .UNSPECIFIED.);
#67=B_SPLINE_CURVE_WITH_KNOTS('',3,(#1103,#1104,#1105,#1106,#1107,#1108,
#1109,#1110,#1111,#1112,#1113,#1114,#1115,#1116,#1117,#1118,#1119,#1120,
#1121,#1122,#1123,#1124),.UNSPECIFIED.,.F.,.F.,(4,2,2,2,2,2,2,2,2,2,4),
(0.393844546811423,0.393891687194491,0.492369042863651,0.590846398532812,
0.689393492316512,0.787940586100212,0.885583709709787,0.983226833319362,
1.08098711147641,1.17874738963346,1.18880093341221),.UNSPECIFIED.);
#68=B_SPLINE_CURVE_WITH_KNOTS('',3,(#1129,#1130,#1131,#1132,#1133,#1134,
#1135,#1136,#1137,#1138,#1139,#1140,#1141,#1142,#1143,#1144,#1145,#1146,
#1147,#1148,#1149,#1150,#1151,#1152,#1153,#1154),.UNSPECIFIED.,.F.,.F.,
(4,2,2,2,2,2,2,2,2,2,2,2,4),(0.401281050694081,0.500758698499028,0.600236346303975,
0.700313103754878,0.800389861205781,0.900330303637934,1.00027074607009,
1.09988445530433,1.19949816453857,1.2996914230564,1.39988468157424,1.50033248331187,
1.6007802850495),.UNSPECIFIED.);
#69=B_SPLINE_CURVE_WITH_KNOTS('',3,(#1155,#1156,#1157,#1158,#1159,#1160,
#1161,#1162,#1163,#1164),.UNSPECIFIED.,.F.,.F.,(4,2,2,2,4),(0.,0.100297143932303,
0.200594287864607,0.300937669279344,0.401281050694081),.UNSPECIFIED.);
#70=B_SPLINE_CURVE_WITH_KNOTS('',3,(#1168,#1169,#1170,#1171,#1172,#1173,
#1174,#1175,#1176,#1177),.UNSPECIFIED.,.F.,.F.,(4,2,2,2,4),(1.19949923435542,
1.29984261577016,1.4001859971849,1.5004831411172,1.6007802850495),
 .UNSPECIFIED.);
#71=B_SPLINE_CURVE_WITH_KNOTS('',3,(#1179,#1180,#1181,#1182,#1183,#1184,
#1185,#1186,#1187,#1188,#1189,#1190),.UNSPECIFIED.,.F.,.F.,(4,2,2,2,2,4),
(0.,0.100447801737634,0.200895603475268,0.301088861993103,0.401282120510937,
0.411394885209169),.UNSPECIFIED.);
#72=B_SPLINE_CURVE_WITH_KNOTS('',3,(#1192,#1193,#1194,#1195,#1196,#1197,
#1198,#1199,#1200,#1201,#1202,#1203,#1204,#1205,#1206,#1207,#1208,#1209),
 .UNSPECIFIED.,.F.,.F.,(4,2,2,2,2,2,2,2,4),(0.411394885209169,0.500895829745177,
0.600509538979417,0.70044998141157,0.800390423843722,0.900467181294625,
1.00054393874553,1.10002158655048,1.18938666517734),.UNSPECIFIED.);
#73=B_SPLINE_CURVE_WITH_KNOTS('',3,(#1210,#1211,#1212,#1213),
 .UNSPECIFIED.,.F.,.F.,(4,4),(1.18938666517734,1.19949923435542),
 .UNSPECIFIED.);
#74=B_SPLINE_CURVE_WITH_KNOTS('',3,(#1237,#1238,#1239,#1240,#1241,#1242),
 .UNSPECIFIED.,.F.,.F.,(4,2,4),(1.56563677165064,4.06360152752294,5.61532962357897),
 .UNSPECIFIED.);
#75=B_SPLINE_CURVE_WITH_KNOTS('',3,(#1246,#1247,#1248,#1249,#1250,#1251,
#1252,#1253),.UNSPECIFIED.,.F.,.F.,(4,2,2,4),(1.60902236033418,2.07512604983787,
4.11999268944643,5.36062044083513),.UNSPECIFIED.);
#76=B_SPLINE_CURVE_WITH_KNOTS('',3,(#1257,#1258,#1259,#1260,#1261,#1262),
 .UNSPECIFIED.,.F.,.F.,(4,2,4),(2.51544620597777,4.05538475415917,6.55141769997005),
 .UNSPECIFIED.);
#77=B_SPLINE_CURVE_WITH_KNOTS('',3,(#1284,#1285,#1286,#1287,#1288,#1289,
#1290,#1291),.UNSPECIFIED.,.F.,.F.,(4,2,2,4),(-5.94635640932406,-5.34177790894178,
-2.81066269038615,-1.93412364712156),.UNSPECIFIED.);
#78=B_SPLINE_CURVE_WITH_KNOTS('',3,(#1301,#1302,#1303,#1304,#1305,#1306,
#1307,#1308,#1309,#1310,#1311,#1312,#1313,#1314,#1315,#1316,#1317,#1318,
#1319,#1320,#1321,#1322,#1323,#1324,#1325,#1326,#1327,#1328,#1329,#1330,
#1331),.UNSPECIFIED.,.F.,.F.,(4,3,3,3,3,3,3,3,3,3,4),(0.00637802439321881,
0.053959757420875,0.34496828966053,0.636600256082227,0.812920197244317,
1.10453563605961,1.36199900969052,1.49073069650598,1.56886883932047,1.61633546990682,
1.61946238332144),.UNSPECIFIED.);
#79=B_SPLINE_CURVE_WITH_KNOTS('',3,(#1372,#1373,#1374,#1375,#1376,#1377,
#1378),.UNSPECIFIED.,.F.,.F.,(4,3,4),(-3.09948849851639,-1.56489701632775,
-0.0208121257704112),.UNSPECIFIED.);
#80=B_SPLINE_CURVE_WITH_KNOTS('',3,(#1380,#1381,#1382,#1383,#1384,#1385,
#1386,#1387,#1388,#1389,#1390,#1391,#1392,#1393,#1394,#1395,#1396,#1397,
#1398),.UNSPECIFIED.,.F.,.F.,(4,3,3,3,3,3,4),(-1.43051586831389,-1.19360635009531,
-0.95587887364516,-0.723952388864358,-0.486249154439464,-0.249058681017909,
-0.0173889261592501),.UNSPECIFIED.);
#81=B_SPLINE_CURVE_WITH_KNOTS('',3,(#1399,#1400,#1401,#1402,#1403,#1404,
#1405),.UNSPECIFIED.,.F.,.F.,(4,3,4),(-3.108726653875,-1.56494377111798,
-0.0306699129795629),.UNSPECIFIED.);
#82=LINE('',#814,#105);
#83=LINE('',#834,#106);
#84=LINE('',#925,#107);
#85=LINE('',#972,#108);
#86=LINE('',#979,#109);
#87=LINE('',#1026,#110);
#88=LINE('',#1033,#111);
#89=LINE('',#1075,#112);
#90=LINE('',#1127,#113);
#91=LINE('',#1214,#114);
#92=LINE('',#1221,#115);
#93=LINE('',#1222,#116);
#94=LINE('',#1235,#117);
#95=LINE('',#1243,#118);
#96=LINE('',#1254,#119);
#97=LINE('',#1263,#120);
#98=LINE('',#1299,#121);
#99=LINE('',#1332,#122);
#100=LINE('',#1337,#123);
#101=LINE('',#1348,#124);
#102=LINE('',#1349,#125);
#103=LINE('',#1407,#126);
#104=LINE('',#1409,#127);
#105=VECTOR('',#680,9.45);
#106=VECTOR('',#681,9.45);
#107=VECTOR('',#694,3.5);
#108=VECTOR('',#703,3.5);
#109=VECTOR('',#712,3.5);
#110=VECTOR('',#721,3.5);
#111=VECTOR('',#730,2.79999999999999);
#112=VECTOR('',#733,2.79999999999999);
#113=VECTOR('',#736,2.79999999999999);
#114=VECTOR('',#739,2.79999999999999);
#115=VECTOR('',#748,5.);
#116=VECTOR('',#749,5.);
#117=VECTOR('',#756,10.);
#118=VECTOR('',#757,10.);
#119=VECTOR('',#760,10.);
#120=VECTOR('',#763,10.);
#121=VECTOR('',#770,10.);
#122=VECTOR('',#771,10.);
#123=VECTOR('',#776,9.45);
#124=VECTOR('',#787,20.2);
#125=VECTOR('',#788,20.2);
#126=VECTOR('',#793,10.);
#127=VECTOR('',#796,10.);
#128=CYLINDRICAL_SURFACE('',#612,16.45);
#129=CYLINDRICAL_SURFACE('',#619,3.5);
#130=CYLINDRICAL_SURFACE('',#623,3.5);
#131=CYLINDRICAL_SURFACE('',#627,3.5);
#132=CYLINDRICAL_SURFACE('',#631,3.5);
#133=CYLINDRICAL_SURFACE('',#635,2.59999999999999);
#134=CYLINDRICAL_SURFACE('',#636,2.59999999999999);
#135=CYLINDRICAL_SURFACE('',#637,2.59999999999999);
#136=CYLINDRICAL_SURFACE('',#638,2.59999999999999);
#137=CYLINDRICAL_SURFACE('',#641,5.1);
#138=CYLINDRICAL_SURFACE('',#651,10.76);
#139=FACE_OUTER_BOUND('',#170,.T.);
#140=FACE_OUTER_BOUND('',#171,.T.);
#141=FACE_OUTER_BOUND('',#173,.T.);
#142=FACE_OUTER_BOUND('',#174,.T.);
#143=FACE_OUTER_BOUND('',#175,.T.);
#144=FACE_OUTER_BOUND('',#177,.T.);
#145=FACE_OUTER_BOUND('',#178,.T.);
#146=FACE_OUTER_BOUND('',#180,.T.);
#147=FACE_OUTER_BOUND('',#181,.T.);
#148=FACE_OUTER_BOUND('',#183,.T.);
#149=FACE_OUTER_BOUND('',#184,.T.);
#150=FACE_OUTER_BOUND('',#186,.T.);
#151=FACE_OUTER_BOUND('',#187,.T.);
#152=FACE_OUTER_BOUND('',#188,.T.);
#153=FACE_OUTER_BOUND('',#189,.T.);
#154=FACE_OUTER_BOUND('',#190,.T.);
#155=FACE_OUTER_BOUND('',#192,.T.);
#156=FACE_OUTER_BOUND('',#194,.T.);
#157=FACE_OUTER_BOUND('',#197,.T.);
#158=FACE_OUTER_BOUND('',#198,.T.);
#159=FACE_OUTER_BOUND('',#199,.T.);
#160=FACE_OUTER_BOUND('',#200,.T.);
#161=FACE_OUTER_BOUND('',#201,.T.);
#162=FACE_OUTER_BOUND('',#203,.T.);
#163=FACE_OUTER_BOUND('',#204,.T.);
#164=FACE_OUTER_BOUND('',#206,.T.);
#165=FACE_OUTER_BOUND('',#208,.T.);
#166=FACE_OUTER_BOUND('',#210,.T.);
#167=FACE_OUTER_BOUND('',#211,.T.);
#168=FACE_OUTER_BOUND('',#212,.T.);
#169=FACE_OUTER_BOUND('',#213,.T.);
#170=EDGE_LOOP('',(#387,#388,#389,#390,#391,#392));
#171=EDGE_LOOP('',(#393,#394,#395,#396,#397,#398,#399,#400,#401,#402,#403));
#172=EDGE_LOOP('',(#404,#405));
#173=EDGE_LOOP('',(#406,#407,#408,#409,#410,#411,#412,#413,#414));
#174=EDGE_LOOP('',(#415,#416,#417,#418,#419));
#175=EDGE_LOOP('',(#420));
#176=EDGE_LOOP('',(#421));
#177=EDGE_LOOP('',(#422,#423,#424,#425,#426));
#178=EDGE_LOOP('',(#427));
#179=EDGE_LOOP('',(#428));
#180=EDGE_LOOP('',(#429,#430,#431,#432,#433,#434,#435));
#181=EDGE_LOOP('',(#436));
#182=EDGE_LOOP('',(#437));
#183=EDGE_LOOP('',(#438,#439,#440,#441,#442));
#184=EDGE_LOOP('',(#443));
#185=EDGE_LOOP('',(#444));
#186=EDGE_LOOP('',(#445,#446,#447,#448,#449));
#187=EDGE_LOOP('',(#450,#451,#452,#453,#454,#455,#456));
#188=EDGE_LOOP('',(#457,#458,#459,#460,#461));
#189=EDGE_LOOP('',(#462,#463,#464,#465,#466,#467,#468));
#190=EDGE_LOOP('',(#469));
#191=EDGE_LOOP('',(#470));
#192=EDGE_LOOP('',(#471,#472,#473,#474,#475,#476,#477,#478,#479,#480));
#193=EDGE_LOOP('',(#481,#482));
#194=EDGE_LOOP('',(#483,#484,#485,#486));
#195=EDGE_LOOP('',(#487,#488));
#196=EDGE_LOOP('',(#489,#490));
#197=EDGE_LOOP('',(#491,#492,#493,#494,#495));
#198=EDGE_LOOP('',(#496,#497,#498,#499,#500));
#199=EDGE_LOOP('',(#501,#502,#503,#504,#505));
#200=EDGE_LOOP('',(#506,#507,#508,#509));
#201=EDGE_LOOP('',(#510,#511,#512,#513));
#202=EDGE_LOOP('',(#514,#515,#516,#517,#518));
#203=EDGE_LOOP('',(#519,#520,#521,#522));
#204=EDGE_LOOP('',(#523));
#205=EDGE_LOOP('',(#524));
#206=EDGE_LOOP('',(#525));
#207=EDGE_LOOP('',(#526));
#208=EDGE_LOOP('',(#527,#528,#529,#530,#531,#532,#533,#534,#535,#536,#537,
#538,#539,#540));
#209=EDGE_LOOP('',(#541,#542));
#210=EDGE_LOOP('',(#543,#544,#545,#546));
#211=EDGE_LOOP('',(#547,#548,#549,#550));
#212=EDGE_LOOP('',(#551,#552,#553,#554));
#213=EDGE_LOOP('',(#555,#556,#557,#558));
#214=CIRCLE('',#607,23.6583580051615);
#215=CIRCLE('',#608,23.6583580051615);
#216=CIRCLE('',#609,9.);
#217=CIRCLE('',#610,16.45);
#218=CIRCLE('',#611,16.45);
#219=CIRCLE('',#613,16.45);
#220=CIRCLE('',#615,30.4521688230756);
#221=CIRCLE('',#616,9.);
#222=CIRCLE('',#617,30.4521688230756);
#223=CIRCLE('',#618,30.8611659985748);
#224=CIRCLE('',#620,3.5);
#225=CIRCLE('',#622,2.59999999999999);
#226=CIRCLE('',#624,3.5);
#227=CIRCLE('',#626,2.59999999999999);
#228=CIRCLE('',#628,3.5);
#229=CIRCLE('',#630,2.59999999999999);
#230=CIRCLE('',#632,3.5);
#231=CIRCLE('',#634,2.59999999999999);
#232=CIRCLE('',#640,5.1);
#233=CIRCLE('',#642,5.1);
#234=CIRCLE('',#644,32.2038910683193);
#235=CIRCLE('',#649,20.3966098961837);
#236=CIRCLE('',#650,20.3966098961837);
#237=CIRCLE('',#652,10.76);
#238=CIRCLE('',#653,10.76);
#239=CIRCLE('',#656,19.0930963826702);
#240=CIRCLE('',#658,19.3144477340215);
#241=VERTEX_POINT('',#801);
#242=VERTEX_POINT('',#802);
#243=VERTEX_POINT('',#805);
#244=VERTEX_POINT('',#807);
#245=VERTEX_POINT('',#811);
#246=VERTEX_POINT('',#813);
#247=VERTEX_POINT('',#815);
#248=VERTEX_POINT('',#835);
#249=VERTEX_POINT('',#848);
#250=VERTEX_POINT('',#863);
#251=VERTEX_POINT('',#864);
#252=VERTEX_POINT('',#902);
#253=VERTEX_POINT('',#903);
#254=VERTEX_POINT('',#910);
#255=VERTEX_POINT('',#913);
#256=VERTEX_POINT('',#915);
#257=VERTEX_POINT('',#924);
#258=VERTEX_POINT('',#928);
#259=VERTEX_POINT('',#931);
#260=VERTEX_POINT('',#932);
#261=VERTEX_POINT('',#971);
#262=VERTEX_POINT('',#975);
#263=VERTEX_POINT('',#978);
#264=VERTEX_POINT('',#982);
#265=VERTEX_POINT('',#985);
#266=VERTEX_POINT('',#986);
#267=VERTEX_POINT('',#1025);
#268=VERTEX_POINT('',#1029);
#269=VERTEX_POINT('',#1032);
#270=VERTEX_POINT('',#1034);
#271=VERTEX_POINT('',#1074);
#272=VERTEX_POINT('',#1076);
#273=VERTEX_POINT('',#1081);
#274=VERTEX_POINT('',#1092);
#275=VERTEX_POINT('',#1126);
#276=VERTEX_POINT('',#1128);
#277=VERTEX_POINT('',#1166);
#278=VERTEX_POINT('',#1167);
#279=VERTEX_POINT('',#1178);
#280=VERTEX_POINT('',#1191);
#281=VERTEX_POINT('',#1216);
#282=VERTEX_POINT('',#1219);
#283=VERTEX_POINT('',#1224);
#284=VERTEX_POINT('',#1228);
#285=VERTEX_POINT('',#1234);
#286=VERTEX_POINT('',#1236);
#287=VERTEX_POINT('',#1245);
#288=VERTEX_POINT('',#1256);
#289=VERTEX_POINT('',#1293);
#290=VERTEX_POINT('',#1294);
#291=VERTEX_POINT('',#1296);
#292=VERTEX_POINT('',#1298);
#293=VERTEX_POINT('',#1300);
#294=VERTEX_POINT('',#1334);
#295=VERTEX_POINT('',#1336);
#296=VERTEX_POINT('',#1341);
#297=VERTEX_POINT('',#1344);
#298=VERTEX_POINT('',#1350);
#299=VERTEX_POINT('',#1371);
#300=VERTEX_POINT('',#1379);
#301=EDGE_CURVE('',#241,#242,#214,.T.);
#302=EDGE_CURVE('',#242,#241,#215,.T.);
#303=EDGE_CURVE('',#241,#243,#216,.T.);
#304=EDGE_CURVE('',#243,#244,#217,.T.);
#305=EDGE_CURVE('',#244,#243,#218,.T.);
#306=EDGE_CURVE('',#245,#245,#219,.F.);
#307=EDGE_CURVE('',#245,#246,#82,.T.);
#308=EDGE_CURVE('',#246,#247,#50,.T.);
#309=EDGE_CURVE('',#247,#244,#83,.T.);
#310=EDGE_CURVE('',#247,#248,#51,.T.);
#311=EDGE_CURVE('',#248,#249,#52,.T.);
#312=EDGE_CURVE('',#249,#246,#53,.T.);
#313=EDGE_CURVE('',#250,#251,#54,.T.);
#314=EDGE_CURVE('',#251,#250,#55,.T.);
#315=EDGE_CURVE('',#252,#253,#56,.T.);
#316=EDGE_CURVE('',#252,#254,#220,.F.);
#317=EDGE_CURVE('',#254,#242,#221,.T.);
#318=EDGE_CURVE('',#254,#255,#222,.F.);
#319=EDGE_CURVE('',#256,#255,#57,.T.);
#320=EDGE_CURVE('',#256,#253,#223,.T.);
#321=EDGE_CURVE('',#251,#257,#84,.T.);
#322=EDGE_CURVE('',#257,#257,#224,.T.);
#323=EDGE_CURVE('',#258,#258,#225,.T.);
#324=EDGE_CURVE('',#259,#260,#58,.T.);
#325=EDGE_CURVE('',#260,#259,#59,.T.);
#326=EDGE_CURVE('',#260,#261,#85,.T.);
#327=EDGE_CURVE('',#261,#261,#226,.T.);
#328=EDGE_CURVE('',#262,#262,#227,.T.);
#329=EDGE_CURVE('',#249,#263,#86,.T.);
#330=EDGE_CURVE('',#263,#263,#228,.T.);
#331=EDGE_CURVE('',#264,#264,#229,.T.);
#332=EDGE_CURVE('',#265,#266,#60,.T.);
#333=EDGE_CURVE('',#266,#265,#61,.T.);
#334=EDGE_CURVE('',#266,#267,#87,.T.);
#335=EDGE_CURVE('',#267,#267,#230,.T.);
#336=EDGE_CURVE('',#268,#268,#231,.T.);
#337=EDGE_CURVE('',#268,#269,#88,.T.);
#338=EDGE_CURVE('',#270,#269,#62,.T.);
#339=EDGE_CURVE('',#269,#270,#63,.T.);
#340=EDGE_CURVE('',#262,#271,#89,.T.);
#341=EDGE_CURVE('',#272,#271,#64,.T.);
#342=EDGE_CURVE('',#273,#272,#65,.T.);
#343=EDGE_CURVE('',#274,#273,#66,.T.);
#344=EDGE_CURVE('',#271,#274,#67,.T.);
#345=EDGE_CURVE('',#264,#275,#90,.T.);
#346=EDGE_CURVE('',#276,#275,#68,.F.);
#347=EDGE_CURVE('',#275,#276,#69,.F.);
#348=EDGE_CURVE('',#277,#278,#70,.F.);
#349=EDGE_CURVE('',#279,#277,#71,.F.);
#350=EDGE_CURVE('',#280,#279,#72,.F.);
#351=EDGE_CURVE('',#278,#280,#73,.F.);
#352=EDGE_CURVE('',#278,#258,#91,.T.);
#353=EDGE_CURVE('',#281,#281,#232,.F.);
#354=EDGE_CURVE('',#282,#282,#233,.T.);
#355=EDGE_CURVE('',#282,#279,#92,.T.);
#356=EDGE_CURVE('',#280,#281,#93,.T.);
#357=EDGE_CURVE('',#256,#283,#17,.F.);
#358=EDGE_CURVE('',#283,#284,#234,.F.);
#359=EDGE_CURVE('',#284,#253,#18,.F.);
#360=EDGE_CURVE('',#284,#285,#94,.T.);
#361=EDGE_CURVE('',#285,#286,#74,.F.);
#362=EDGE_CURVE('',#252,#286,#95,.T.);
#363=EDGE_CURVE('',#286,#287,#75,.F.);
#364=EDGE_CURVE('',#255,#287,#96,.F.);
#365=EDGE_CURVE('',#288,#287,#76,.T.);
#366=EDGE_CURVE('',#288,#283,#97,.T.);
#367=EDGE_CURVE('',#285,#288,#77,.T.);
#368=EDGE_CURVE('',#289,#290,#235,.F.);
#369=EDGE_CURVE('',#290,#291,#236,.F.);
#370=EDGE_CURVE('',#291,#292,#98,.F.);
#371=EDGE_CURVE('',#292,#293,#78,.F.);
#372=EDGE_CURVE('',#293,#289,#99,.F.);
#373=EDGE_CURVE('',#294,#294,#237,.F.);
#374=EDGE_CURVE('',#294,#295,#100,.T.);
#375=EDGE_CURVE('',#295,#295,#238,.T.);
#376=EDGE_CURVE('',#296,#296,#239,.T.);
#377=EDGE_CURVE('',#291,#297,#19,.F.);
#378=EDGE_CURVE('',#290,#272,#101,.T.);
#379=EDGE_CURVE('',#274,#296,#102,.T.);
#380=EDGE_CURVE('',#298,#289,#20,.F.);
#381=EDGE_CURVE('',#297,#298,#240,.F.);
#382=EDGE_CURVE('',#292,#299,#79,.T.);
#383=EDGE_CURVE('',#299,#300,#80,.T.);
#384=EDGE_CURVE('',#293,#300,#81,.F.);
#385=EDGE_CURVE('',#300,#298,#103,.F.);
#386=EDGE_CURVE('',#297,#299,#104,.T.);
#387=ORIENTED_EDGE('',*,*,#301,.T.);
#388=ORIENTED_EDGE('',*,*,#302,.T.);
#389=ORIENTED_EDGE('',*,*,#303,.T.);
#390=ORIENTED_EDGE('',*,*,#304,.T.);
#391=ORIENTED_EDGE('',*,*,#305,.T.);
#392=ORIENTED_EDGE('',*,*,#303,.F.);
#393=ORIENTED_EDGE('',*,*,#306,.F.);
#394=ORIENTED_EDGE('',*,*,#307,.T.);
#395=ORIENTED_EDGE('',*,*,#308,.T.);
#396=ORIENTED_EDGE('',*,*,#309,.T.);
#397=ORIENTED_EDGE('',*,*,#304,.F.);
#398=ORIENTED_EDGE('',*,*,#305,.F.);
#399=ORIENTED_EDGE('',*,*,#309,.F.);
#400=ORIENTED_EDGE('',*,*,#310,.T.);
#401=ORIENTED_EDGE('',*,*,#311,.T.);
#402=ORIENTED_EDGE('',*,*,#312,.T.);
#403=ORIENTED_EDGE('',*,*,#307,.F.);
#404=ORIENTED_EDGE('',*,*,#313,.T.);
#405=ORIENTED_EDGE('',*,*,#314,.T.);
#406=ORIENTED_EDGE('',*,*,#315,.F.);
#407=ORIENTED_EDGE('',*,*,#316,.T.);
#408=ORIENTED_EDGE('',*,*,#317,.T.);
#409=ORIENTED_EDGE('',*,*,#301,.F.);
#410=ORIENTED_EDGE('',*,*,#302,.F.);
#411=ORIENTED_EDGE('',*,*,#317,.F.);
#412=ORIENTED_EDGE('',*,*,#318,.T.);
#413=ORIENTED_EDGE('',*,*,#319,.F.);
#414=ORIENTED_EDGE('',*,*,#320,.T.);
#415=ORIENTED_EDGE('',*,*,#313,.F.);
#416=ORIENTED_EDGE('',*,*,#314,.F.);
#417=ORIENTED_EDGE('',*,*,#321,.T.);
#418=ORIENTED_EDGE('',*,*,#322,.T.);
#419=ORIENTED_EDGE('',*,*,#321,.F.);
#420=ORIENTED_EDGE('',*,*,#322,.F.);
#421=ORIENTED_EDGE('',*,*,#323,.F.);
#422=ORIENTED_EDGE('',*,*,#324,.F.);
#423=ORIENTED_EDGE('',*,*,#325,.F.);
#424=ORIENTED_EDGE('',*,*,#326,.T.);
#425=ORIENTED_EDGE('',*,*,#327,.T.);
#426=ORIENTED_EDGE('',*,*,#326,.F.);
#427=ORIENTED_EDGE('',*,*,#327,.F.);
#428=ORIENTED_EDGE('',*,*,#328,.F.);
#429=ORIENTED_EDGE('',*,*,#311,.F.);
#430=ORIENTED_EDGE('',*,*,#310,.F.);
#431=ORIENTED_EDGE('',*,*,#308,.F.);
#432=ORIENTED_EDGE('',*,*,#312,.F.);
#433=ORIENTED_EDGE('',*,*,#329,.T.);
#434=ORIENTED_EDGE('',*,*,#330,.T.);
#435=ORIENTED_EDGE('',*,*,#329,.F.);
#436=ORIENTED_EDGE('',*,*,#330,.F.);
#437=ORIENTED_EDGE('',*,*,#331,.F.);
#438=ORIENTED_EDGE('',*,*,#332,.F.);
#439=ORIENTED_EDGE('',*,*,#333,.F.);
#440=ORIENTED_EDGE('',*,*,#334,.T.);
#441=ORIENTED_EDGE('',*,*,#335,.T.);
#442=ORIENTED_EDGE('',*,*,#334,.F.);
#443=ORIENTED_EDGE('',*,*,#335,.F.);
#444=ORIENTED_EDGE('',*,*,#336,.F.);
#445=ORIENTED_EDGE('',*,*,#336,.T.);
#446=ORIENTED_EDGE('',*,*,#337,.T.);
#447=ORIENTED_EDGE('',*,*,#338,.F.);
#448=ORIENTED_EDGE('',*,*,#339,.F.);
#449=ORIENTED_EDGE('',*,*,#337,.F.);
#450=ORIENTED_EDGE('',*,*,#328,.T.);
#451=ORIENTED_EDGE('',*,*,#340,.T.);
#452=ORIENTED_EDGE('',*,*,#341,.F.);
#453=ORIENTED_EDGE('',*,*,#342,.F.);
#454=ORIENTED_EDGE('',*,*,#343,.F.);
#455=ORIENTED_EDGE('',*,*,#344,.F.);
#456=ORIENTED_EDGE('',*,*,#340,.F.);
#457=ORIENTED_EDGE('',*,*,#331,.T.);
#458=ORIENTED_EDGE('',*,*,#345,.T.);
#459=ORIENTED_EDGE('',*,*,#346,.F.);
#460=ORIENTED_EDGE('',*,*,#347,.F.);
#461=ORIENTED_EDGE('',*,*,#345,.F.);
#462=ORIENTED_EDGE('',*,*,#348,.F.);
#463=ORIENTED_EDGE('',*,*,#349,.F.);
#464=ORIENTED_EDGE('',*,*,#350,.F.);
#465=ORIENTED_EDGE('',*,*,#351,.F.);
#466=ORIENTED_EDGE('',*,*,#352,.T.);
#467=ORIENTED_EDGE('',*,*,#323,.T.);
#468=ORIENTED_EDGE('',*,*,#352,.F.);
#469=ORIENTED_EDGE('',*,*,#306,.T.);
#470=ORIENTED_EDGE('',*,*,#353,.T.);
#471=ORIENTED_EDGE('',*,*,#354,.F.);
#472=ORIENTED_EDGE('',*,*,#355,.T.);
#473=ORIENTED_EDGE('',*,*,#349,.T.);
#474=ORIENTED_EDGE('',*,*,#348,.T.);
#475=ORIENTED_EDGE('',*,*,#351,.T.);
#476=ORIENTED_EDGE('',*,*,#356,.T.);
#477=ORIENTED_EDGE('',*,*,#353,.F.);
#478=ORIENTED_EDGE('',*,*,#356,.F.);
#479=ORIENTED_EDGE('',*,*,#350,.T.);
#480=ORIENTED_EDGE('',*,*,#355,.F.);
#481=ORIENTED_EDGE('',*,*,#346,.T.);
#482=ORIENTED_EDGE('',*,*,#347,.T.);
#483=ORIENTED_EDGE('',*,*,#320,.F.);
#484=ORIENTED_EDGE('',*,*,#357,.T.);
#485=ORIENTED_EDGE('',*,*,#358,.T.);
#486=ORIENTED_EDGE('',*,*,#359,.T.);
#487=ORIENTED_EDGE('',*,*,#324,.T.);
#488=ORIENTED_EDGE('',*,*,#325,.T.);
#489=ORIENTED_EDGE('',*,*,#332,.T.);
#490=ORIENTED_EDGE('',*,*,#333,.T.);
#491=ORIENTED_EDGE('',*,*,#359,.F.);
#492=ORIENTED_EDGE('',*,*,#360,.T.);
#493=ORIENTED_EDGE('',*,*,#361,.T.);
#494=ORIENTED_EDGE('',*,*,#362,.F.);
#495=ORIENTED_EDGE('',*,*,#315,.T.);
#496=ORIENTED_EDGE('',*,*,#362,.T.);
#497=ORIENTED_EDGE('',*,*,#363,.T.);
#498=ORIENTED_EDGE('',*,*,#364,.F.);
#499=ORIENTED_EDGE('',*,*,#318,.F.);
#500=ORIENTED_EDGE('',*,*,#316,.F.);
#501=ORIENTED_EDGE('',*,*,#364,.T.);
#502=ORIENTED_EDGE('',*,*,#365,.F.);
#503=ORIENTED_EDGE('',*,*,#366,.T.);
#504=ORIENTED_EDGE('',*,*,#357,.F.);
#505=ORIENTED_EDGE('',*,*,#319,.T.);
#506=ORIENTED_EDGE('',*,*,#367,.T.);
#507=ORIENTED_EDGE('',*,*,#365,.T.);
#508=ORIENTED_EDGE('',*,*,#363,.F.);
#509=ORIENTED_EDGE('',*,*,#361,.F.);
#510=ORIENTED_EDGE('',*,*,#358,.F.);
#511=ORIENTED_EDGE('',*,*,#366,.F.);
#512=ORIENTED_EDGE('',*,*,#367,.F.);
#513=ORIENTED_EDGE('',*,*,#360,.F.);
#514=ORIENTED_EDGE('',*,*,#368,.T.);
#515=ORIENTED_EDGE('',*,*,#369,.T.);
#516=ORIENTED_EDGE('',*,*,#370,.T.);
#517=ORIENTED_EDGE('',*,*,#371,.T.);
#518=ORIENTED_EDGE('',*,*,#372,.T.);
#519=ORIENTED_EDGE('',*,*,#373,.T.);
#520=ORIENTED_EDGE('',*,*,#374,.T.);
#521=ORIENTED_EDGE('',*,*,#375,.T.);
#522=ORIENTED_EDGE('',*,*,#374,.F.);
#523=ORIENTED_EDGE('',*,*,#375,.F.);
#524=ORIENTED_EDGE('',*,*,#354,.T.);
#525=ORIENTED_EDGE('',*,*,#376,.T.);
#526=ORIENTED_EDGE('',*,*,#373,.F.);
#527=ORIENTED_EDGE('',*,*,#377,.F.);
#528=ORIENTED_EDGE('',*,*,#369,.F.);
#529=ORIENTED_EDGE('',*,*,#378,.T.);
#530=ORIENTED_EDGE('',*,*,#341,.T.);
#531=ORIENTED_EDGE('',*,*,#344,.T.);
#532=ORIENTED_EDGE('',*,*,#379,.T.);
#533=ORIENTED_EDGE('',*,*,#376,.F.);
#534=ORIENTED_EDGE('',*,*,#379,.F.);
#535=ORIENTED_EDGE('',*,*,#343,.T.);
#536=ORIENTED_EDGE('',*,*,#342,.T.);
#537=ORIENTED_EDGE('',*,*,#378,.F.);
#538=ORIENTED_EDGE('',*,*,#368,.F.);
#539=ORIENTED_EDGE('',*,*,#380,.F.);
#540=ORIENTED_EDGE('',*,*,#381,.F.);
#541=ORIENTED_EDGE('',*,*,#338,.T.);
#542=ORIENTED_EDGE('',*,*,#339,.T.);
#543=ORIENTED_EDGE('',*,*,#371,.F.);
#544=ORIENTED_EDGE('',*,*,#382,.T.);
#545=ORIENTED_EDGE('',*,*,#383,.T.);
#546=ORIENTED_EDGE('',*,*,#384,.F.);
#547=ORIENTED_EDGE('',*,*,#380,.T.);
#548=ORIENTED_EDGE('',*,*,#372,.F.);
#549=ORIENTED_EDGE('',*,*,#384,.T.);
#550=ORIENTED_EDGE('',*,*,#385,.T.);
#551=ORIENTED_EDGE('',*,*,#381,.T.);
#552=ORIENTED_EDGE('',*,*,#385,.F.);
#553=ORIENTED_EDGE('',*,*,#383,.F.);
#554=ORIENTED_EDGE('',*,*,#386,.F.);
#555=ORIENTED_EDGE('',*,*,#377,.T.);
#556=ORIENTED_EDGE('',*,*,#386,.T.);
#557=ORIENTED_EDGE('',*,*,#382,.F.);
#558=ORIENTED_EDGE('',*,*,#370,.F.);
#559=TOROIDAL_SURFACE('',#606,25.45,9.);
#560=TOROIDAL_SURFACE('',#614,21.8667160103231,9.);
#561=ADVANCED_FACE('',(#139),#559,.F.);
#562=ADVANCED_FACE('',(#140,#37),#128,.T.);
#563=ADVANCED_FACE('',(#141),#560,.T.);
#564=ADVANCED_FACE('',(#142),#129,.F.);
#565=ADVANCED_FACE('',(#143,#38),#23,.F.);
#566=ADVANCED_FACE('',(#144),#130,.F.);
#567=ADVANCED_FACE('',(#145,#39),#24,.F.);
#568=ADVANCED_FACE('',(#146),#131,.F.);
#569=ADVANCED_FACE('',(#147,#40),#25,.T.);
#570=ADVANCED_FACE('',(#148),#132,.F.);
#571=ADVANCED_FACE('',(#149,#41),#26,.T.);
#572=ADVANCED_FACE('',(#150),#133,.F.);
#573=ADVANCED_FACE('',(#151),#134,.F.);
#574=ADVANCED_FACE('',(#152),#135,.F.);
#575=ADVANCED_FACE('',(#153),#136,.F.);
#576=ADVANCED_FACE('',(#154,#42),#27,.T.);
#577=ADVANCED_FACE('',(#155,#43),#137,.F.);
#578=ADVANCED_FACE('',(#156,#44,#45),#21,.T.);
#579=ADVANCED_FACE('',(#157),#28,.T.);
#580=ADVANCED_FACE('',(#158),#29,.T.);
#581=ADVANCED_FACE('',(#159),#30,.T.);
#582=ADVANCED_FACE('',(#160),#15,.T.);
#583=ADVANCED_FACE('',(#161,#46),#31,.F.);
#584=ADVANCED_FACE('',(#162),#138,.F.);
#585=ADVANCED_FACE('',(#163,#47),#32,.F.);
#586=ADVANCED_FACE('',(#164,#48),#33,.T.);
#587=ADVANCED_FACE('',(#165,#49),#22,.F.);
#588=ADVANCED_FACE('',(#166),#16,.F.);
#589=ADVANCED_FACE('',(#167),#34,.F.);
#590=ADVANCED_FACE('',(#168),#35,.F.);
#591=ADVANCED_FACE('',(#169),#36,.F.);
#592=CLOSED_SHELL('',(#561,#562,#563,#564,#565,#566,#567,#568,#569,#570,
#571,#572,#573,#574,#575,#576,#577,#578,#579,#580,#581,#582,#583,#584,#585,
#586,#587,#588,#589,#590,#591));
#593=DERIVED_UNIT_ELEMENT(#595,1.);
#594=DERIVED_UNIT_ELEMENT(#1416,-3.);
#595=(
MASS_UNIT()
NAMED_UNIT(*)
SI_UNIT(.KILO.,.GRAM.)
);
#596=DERIVED_UNIT((#593,#594));
#597=MEASURE_REPRESENTATION_ITEM('density measure',
POSITIVE_RATIO_MEASURE(7850.),#596);
#598=PROPERTY_DEFINITION_REPRESENTATION(#603,#600);
#599=PROPERTY_DEFINITION_REPRESENTATION(#604,#601);
#600=REPRESENTATION('material name',(#602),#1413);
#601=REPRESENTATION('density',(#597),#1413);
#602=DESCRIPTIVE_REPRESENTATION_ITEM('\X\C7elik','\X\C7elik');
#603=PROPERTY_DEFINITION('material property','material name',#1423);
#604=PROPERTY_DEFINITION('material property','density of part',#1423);
#605=AXIS2_PLACEMENT_3D('',#799,#662,#663);
#606=AXIS2_PLACEMENT_3D('',#800,#664,#665);
#607=AXIS2_PLACEMENT_3D('',#803,#666,#667);
#608=AXIS2_PLACEMENT_3D('',#804,#668,#669);
#609=AXIS2_PLACEMENT_3D('',#806,#670,#671);
#610=AXIS2_PLACEMENT_3D('',#808,#672,#673);
#611=AXIS2_PLACEMENT_3D('',#809,#674,#675);
#612=AXIS2_PLACEMENT_3D('',#810,#676,#677);
#613=AXIS2_PLACEMENT_3D('',#812,#678,#679);
#614=AXIS2_PLACEMENT_3D('',#901,#682,#683);
#615=AXIS2_PLACEMENT_3D('',#911,#684,#685);
#616=AXIS2_PLACEMENT_3D('',#912,#686,#687);
#617=AXIS2_PLACEMENT_3D('',#914,#688,#689);
#618=AXIS2_PLACEMENT_3D('',#922,#690,#691);
#619=AXIS2_PLACEMENT_3D('',#923,#692,#693);
#620=AXIS2_PLACEMENT_3D('',#926,#695,#696);
#621=AXIS2_PLACEMENT_3D('',#927,#697,#698);
#622=AXIS2_PLACEMENT_3D('',#929,#699,#700);
#623=AXIS2_PLACEMENT_3D('',#930,#701,#702);
#624=AXIS2_PLACEMENT_3D('',#973,#704,#705);
#625=AXIS2_PLACEMENT_3D('',#974,#706,#707);
#626=AXIS2_PLACEMENT_3D('',#976,#708,#709);
#627=AXIS2_PLACEMENT_3D('',#977,#710,#711);
#628=AXIS2_PLACEMENT_3D('',#980,#713,#714);
#629=AXIS2_PLACEMENT_3D('',#981,#715,#716);
#630=AXIS2_PLACEMENT_3D('',#983,#717,#718);
#631=AXIS2_PLACEMENT_3D('',#984,#719,#720);
#632=AXIS2_PLACEMENT_3D('',#1027,#722,#723);
#633=AXIS2_PLACEMENT_3D('',#1028,#724,#725);
#634=AXIS2_PLACEMENT_3D('',#1030,#726,#727);
#635=AXIS2_PLACEMENT_3D('',#1031,#728,#729);
#636=AXIS2_PLACEMENT_3D('',#1073,#731,#732);
#637=AXIS2_PLACEMENT_3D('',#1125,#734,#735);
#638=AXIS2_PLACEMENT_3D('',#1165,#737,#738);
#639=AXIS2_PLACEMENT_3D('',#1215,#740,#741);
#640=AXIS2_PLACEMENT_3D('',#1217,#742,#743);
#641=AXIS2_PLACEMENT_3D('',#1218,#744,#745);
#642=AXIS2_PLACEMENT_3D('',#1220,#746,#747);
#643=AXIS2_PLACEMENT_3D('',#1223,#750,#751);
#644=AXIS2_PLACEMENT_3D('',#1229,#752,#753);
#645=AXIS2_PLACEMENT_3D('',#1233,#754,#755);
#646=AXIS2_PLACEMENT_3D('',#1244,#758,#759);
#647=AXIS2_PLACEMENT_3D('',#1255,#761,#762);
#648=AXIS2_PLACEMENT_3D('',#1292,#764,#765);
#649=AXIS2_PLACEMENT_3D('',#1295,#766,#767);
#650=AXIS2_PLACEMENT_3D('',#1297,#768,#769);
#651=AXIS2_PLACEMENT_3D('',#1333,#772,#773);
#652=AXIS2_PLACEMENT_3D('',#1335,#774,#775);
#653=AXIS2_PLACEMENT_3D('',#1338,#777,#778);
#654=AXIS2_PLACEMENT_3D('',#1339,#779,#780);
#655=AXIS2_PLACEMENT_3D('',#1340,#781,#782);
#656=AXIS2_PLACEMENT_3D('',#1342,#783,#784);
#657=AXIS2_PLACEMENT_3D('',#1343,#785,#786);
#658=AXIS2_PLACEMENT_3D('',#1354,#789,#790);
#659=AXIS2_PLACEMENT_3D('',#1406,#791,#792);
#660=AXIS2_PLACEMENT_3D('',#1408,#794,#795);
#661=AXIS2_PLACEMENT_3D('',#1410,#797,#798);
#662=DIRECTION('axis',(0.,0.,1.));
#663=DIRECTION('refdir',(1.,0.,0.));
#664=DIRECTION('center_axis',(0.,-1.,-2.22044604925031E-16));
#665=DIRECTION('ref_axis',(1.,0.,0.));
#666=DIRECTION('center_axis',(0.,-1.,-2.22044604925031E-16));
#667=DIRECTION('ref_axis',(1.,0.,-8.27785023508974E-17));
#668=DIRECTION('center_axis',(0.,-1.,-2.22044604925031E-16));
#669=DIRECTION('ref_axis',(1.,0.,-8.27785023508974E-17));
#670=DIRECTION('center_axis',(0.,2.22044604925031E-16,-1.));
#671=DIRECTION('ref_axis',(-1.,0.,0.));
#672=DIRECTION('center_axis',(0.,1.,2.22044604925031E-16));
#673=DIRECTION('ref_axis',(1.,0.,0.));
#674=DIRECTION('center_axis',(0.,1.,2.22044604925031E-16));
#675=DIRECTION('ref_axis',(1.,0.,0.));
#676=DIRECTION('center_axis',(0.,-1.,-2.22044604925031E-16));
#677=DIRECTION('ref_axis',(-1.,0.,0.));
#678=DIRECTION('center_axis',(0.,1.,2.22044604925031E-16));
#679=DIRECTION('ref_axis',(-1.,0.,0.));
#680=DIRECTION('',(0.,1.,2.22044604925031E-16));
#681=DIRECTION('',(0.,1.,2.22044604925031E-16));
#682=DIRECTION('center_axis',(0.,1.,2.22044604925031E-16));
#683=DIRECTION('ref_axis',(0.,0.,1.));
#684=DIRECTION('center_axis',(-5.51449227710758E-31,1.,2.22044604925035E-16));
#685=DIRECTION('ref_axis',(0.,-2.22044604925035E-16,1.));
#686=DIRECTION('center_axis',(-1.,0.,0.));
#687=DIRECTION('ref_axis',(0.,0.,-1.));
#688=DIRECTION('center_axis',(-5.51449227710758E-31,1.,2.22044604925035E-16));
#689=DIRECTION('ref_axis',(0.,-2.22044604925035E-16,1.));
#690=DIRECTION('center_axis',(0.,-1.,0.));
#691=DIRECTION('ref_axis',(1.,0.,0.));
#692=DIRECTION('center_axis',(1.,0.,-3.21110659430045E-14));
#693=DIRECTION('ref_axis',(3.78764947150399E-43,1.,1.17954647728819E-29));
#694=DIRECTION('',(1.,0.,-3.21110659430045E-14));
#695=DIRECTION('center_axis',(1.,1.90013267970816E-43,-3.22180213547263E-14));
#696=DIRECTION('ref_axis',(1.90013267970817E-43,1.,1.17954647728819E-29));
#697=DIRECTION('center_axis',(1.,1.90013267970816E-43,-3.22180213547263E-14));
#698=DIRECTION('ref_axis',(1.90013267970817E-43,1.,1.17954647728819E-29));
#699=DIRECTION('center_axis',(-1.,-1.90013267970816E-43,3.22180213547263E-14));
#700=DIRECTION('ref_axis',(1.2335811384724E-16,1.,-1.99345637700513E-31));
#701=DIRECTION('center_axis',(1.,0.,-1.63971400560023E-14));
#702=DIRECTION('ref_axis',(0.,1.,0.));
#703=DIRECTION('',(1.,0.,-1.63971400560023E-14));
#704=DIRECTION('center_axis',(1.,0.,-1.61090106773631E-14));
#705=DIRECTION('ref_axis',(0.,1.,0.));
#706=DIRECTION('center_axis',(1.,0.,-1.61090106773631E-14));
#707=DIRECTION('ref_axis',(0.,1.,0.));
#708=DIRECTION('center_axis',(-1.,0.,1.61090106773631E-14));
#709=DIRECTION('ref_axis',(0.,-1.,0.));
#710=DIRECTION('center_axis',(-1.,0.,1.63971400560023E-14));
#711=DIRECTION('ref_axis',(0.,1.,0.));
#712=DIRECTION('',(-1.,0.,1.63971400560023E-14));
#713=DIRECTION('center_axis',(-1.,0.,1.61090106773631E-14));
#714=DIRECTION('ref_axis',(0.,1.,0.));
#715=DIRECTION('center_axis',(1.,0.,-1.61090106773631E-14));
#716=DIRECTION('ref_axis',(0.,1.,0.));
#717=DIRECTION('center_axis',(1.,0.,-1.61090106773631E-14));
#718=DIRECTION('ref_axis',(1.2335811384724E-16,1.,-1.99345637700513E-31));
#719=DIRECTION('center_axis',(-1.,0.,0.));
#720=DIRECTION('ref_axis',(0.,1.,0.));
#721=DIRECTION('',(-1.,0.,0.));
#722=DIRECTION('center_axis',(-1.,0.,0.));
#723=DIRECTION('ref_axis',(0.,1.,0.));
#724=DIRECTION('center_axis',(1.,0.,0.));
#725=DIRECTION('ref_axis',(0.,1.,0.));
#726=DIRECTION('center_axis',(1.,0.,0.));
#727=DIRECTION('ref_axis',(0.,-1.,0.));
#728=DIRECTION('center_axis',(1.,0.,0.));
#729=DIRECTION('ref_axis',(0.,-1.,0.));
#730=DIRECTION('',(-1.,0.,0.));
#731=DIRECTION('center_axis',(1.,0.,0.));
#732=DIRECTION('ref_axis',(0.,-1.,0.));
#733=DIRECTION('',(1.,0.,0.));
#734=DIRECTION('center_axis',(-1.,1.2335811384724E-16,1.61599129139884E-14));
#735=DIRECTION('ref_axis',(1.2335811384724E-16,1.,-1.99345637700513E-31));
#736=DIRECTION('',(-1.,1.2335811384724E-16,1.61599129139884E-14));
#737=DIRECTION('center_axis',(-1.,1.2335811384724E-16,1.61599129139884E-14));
#738=DIRECTION('ref_axis',(1.2335811384724E-16,1.,-1.99345637700513E-31));
#739=DIRECTION('',(-1.,1.2335811384724E-16,1.61599129139884E-14));
#740=DIRECTION('center_axis',(0.,-1.,-2.22044604925031E-16));
#741=DIRECTION('ref_axis',(-1.,0.,0.));
#742=DIRECTION('center_axis',(0.,-1.,-2.22044604925031E-16));
#743=DIRECTION('ref_axis',(1.,0.,0.));
#744=DIRECTION('center_axis',(0.,-1.,-2.368475785867E-16));
#745=DIRECTION('ref_axis',(1.,0.,0.));
#746=DIRECTION('center_axis',(0.,-1.,-2.22044604925031E-16));
#747=DIRECTION('ref_axis',(1.,0.,0.));
#748=DIRECTION('',(0.,-1.,-2.368475785867E-16));
#749=DIRECTION('',(0.,-1.,-2.368475785867E-16));
#750=DIRECTION('center_axis',(0.,1.,2.22044604925031E-16));
#751=DIRECTION('ref_axis',(1.53022755080037E-8,-2.22044604925031E-16,1.));
#752=DIRECTION('center_axis',(0.,1.,2.22044604925031E-16));
#753=DIRECTION('ref_axis',(1.,0.,0.));
#754=DIRECTION('center_axis',(-0.976030131231051,-0.0317925124179496,0.215300764242144));
#755=DIRECTION('ref_axis',(0.0325560231980526,-0.999469912180216,-2.21926901784512E-16));
#756=DIRECTION('',(-0.215409655911161,2.16831835478699E-16,-0.976523773463931));
#757=DIRECTION('',(-0.215409655911161,2.16831835478706E-16,-0.976523773463931));
#758=DIRECTION('center_axis',(1.10289845542152E-30,-1.,-2.22044604925038E-16));
#759=DIRECTION('ref_axis',(1.,1.10289845542152E-30,2.44892651806498E-46));
#760=DIRECTION('',(-0.215409655911161,-2.16831835478706E-16,0.976523773463931));
#761=DIRECTION('center_axis',(0.976030131231051,-0.0317925124179496,0.215300764242144));
#762=DIRECTION('ref_axis',(0.0325560231980527,0.999469912180216,2.21926901784512E-16));
#763=DIRECTION('',(-0.215409655911161,-2.16831835478699E-16,0.976523773463931));
#764=DIRECTION('center_axis',(0.,-1.,-2.22044604925031E-16));
#765=DIRECTION('ref_axis',(1.,0.,0.));
#766=DIRECTION('center_axis',(0.,1.,2.22044604925031E-16));
#767=DIRECTION('ref_axis',(1.,0.,0.));
#768=DIRECTION('center_axis',(0.,1.,2.22044604925031E-16));
#769=DIRECTION('ref_axis',(1.,0.,0.));
#770=DIRECTION('',(0.215409655911161,-2.16831835478699E-16,0.976523773463931));
#771=DIRECTION('',(0.215409655911161,2.16831835478699E-16,-0.976523773463931));
#772=DIRECTION('center_axis',(0.,-1.,-2.22044604925031E-16));
#773=DIRECTION('ref_axis',(-1.,0.,0.));
#774=DIRECTION('center_axis',(0.,-1.,-2.22044604925031E-16));
#775=DIRECTION('ref_axis',(-1.,0.,0.));
#776=DIRECTION('',(0.,-1.,-2.22044604925031E-16));
#777=DIRECTION('center_axis',(0.,-1.,-2.22044604925031E-16));
#778=DIRECTION('ref_axis',(-1.,0.,0.));
#779=DIRECTION('center_axis',(0.,-1.,-2.22044604925031E-16));
#780=DIRECTION('ref_axis',(-1.,0.,0.));
#781=DIRECTION('center_axis',(0.,1.,2.22044604925031E-16));
#782=DIRECTION('ref_axis',(-1.,0.,0.));
#783=DIRECTION('center_axis',(0.,1.,2.22044604925031E-16));
#784=DIRECTION('ref_axis',(1.,0.,0.));
#785=DIRECTION('center_axis',(0.,1.,2.22044604925031E-16));
#786=DIRECTION('ref_axis',(1.,0.,0.));
#787=DIRECTION('',(0.0351134684226042,-0.999383332027974,-2.17607517457742E-16));
#788=DIRECTION('',(0.0351134684226042,-0.999383332027974,-2.17607517457742E-16));
#789=DIRECTION('center_axis',(-1.10289845542152E-30,1.,2.22044604925038E-16));
#790=DIRECTION('ref_axis',(1.,0.,0.));
#791=DIRECTION('center_axis',(0.976030131231051,-0.0317925124179496,0.215300764242144));
#792=DIRECTION('ref_axis',(0.0325560231980527,0.999469912180216,2.21926901784512E-16));
#793=DIRECTION('',(0.215409655911161,2.16831835478706E-16,-0.976523773463931));
#794=DIRECTION('center_axis',(1.10289845542152E-30,-1.,-2.22044604925038E-16));
#795=DIRECTION('ref_axis',(1.,1.10289845542152E-30,2.44892651806498E-46));
#796=DIRECTION('',(-0.215409655911161,2.16831835478706E-16,-0.976523773463931));
#797=DIRECTION('center_axis',(-0.976030131231051,-0.0317925124179496,0.215300764242144));
#798=DIRECTION('ref_axis',(0.0325560231980526,-0.999469912180216,-2.21926901784512E-16));
#799=CARTESIAN_POINT('',(0.,0.,0.));
#800=CARTESIAN_POINT('Origin',(-64.9999973773956,66.3602705570314,50.2));
#801=CARTESIAN_POINT('',(-88.6583553825572,75.1801355765389,50.2));
#802=CARTESIAN_POINT('',(-64.9999973773956,75.1801355765389,26.5416419948385));
#803=CARTESIAN_POINT('Origin',(-64.9999973773956,75.1801355765389,50.2));
#804=CARTESIAN_POINT('Origin',(-64.9999973773956,75.1801355765389,50.2));
#805=CARTESIAN_POINT('',(-81.4499973773956,66.3602705570314,50.2));
#806=CARTESIAN_POINT('Origin',(-90.4499973773956,66.3602705570314,50.2));
#807=CARTESIAN_POINT('',(-48.5499973773956,66.3602705570314,50.2));
#808=CARTESIAN_POINT('Origin',(-64.9999973773956,66.3602705570314,50.2));
#809=CARTESIAN_POINT('Origin',(-64.9999973773956,66.3602705570314,50.2));
#810=CARTESIAN_POINT('Origin',(-64.9999973773956,85.0000005960463,50.2));
#811=CARTESIAN_POINT('',(-48.5499973773956,43.0000005960464,50.2));
#812=CARTESIAN_POINT('Origin',(-64.9999973773956,43.0000005960464,50.2));
#813=CARTESIAN_POINT('',(-48.5499973773956,50.4967523594979,50.2000000000001));
#814=CARTESIAN_POINT('',(-48.5499973773956,85.0000005960463,50.2));
#815=CARTESIAN_POINT('',(-48.5499973773956,57.4937999294022,50.2000000000001));
#816=CARTESIAN_POINT('Ctrl Pts',(-48.5499973773956,50.4967523594979,50.2000000000002));
#817=CARTESIAN_POINT('Ctrl Pts',(-48.5499973773956,50.5086830979835,50.6106521696403));
#818=CARTESIAN_POINT('Ctrl Pts',(-48.5666772890935,50.5972626417888,51.0412915008497));
#819=CARTESIAN_POINT('Ctrl Pts',(-48.6293009087912,50.9410610218119,51.8702003827391));
#820=CARTESIAN_POINT('Ctrl Pts',(-48.6768526988965,51.2101595973231,52.2629094391386));
#821=CARTESIAN_POINT('Ctrl Pts',(-48.7672585572169,51.8301770661466,52.8830835703085));
#822=CARTESIAN_POINT('Ctrl Pts',(-48.8160669058792,52.2229366293257,53.1523005269418));
#823=CARTESIAN_POINT('Ctrl Pts',(-48.8854145462284,53.0849735075938,53.5099705017159));
#824=CARTESIAN_POINT('Ctrl Pts',(-48.9048530601674,53.5543666739141,53.5983568687819));
#825=CARTESIAN_POINT('Ctrl Pts',(-48.9048530601674,54.436185614986,53.5983568687819));
#826=CARTESIAN_POINT('Ctrl Pts',(-48.8854145462284,54.9055787813063,53.5099705017159));
#827=CARTESIAN_POINT('Ctrl Pts',(-48.8160669058792,55.7676156595744,53.1523005269418));
#828=CARTESIAN_POINT('Ctrl Pts',(-48.7672585572169,56.1603752227535,52.8830835703085));
#829=CARTESIAN_POINT('Ctrl Pts',(-48.6768526988965,56.780392691577,52.2629094391385));
#830=CARTESIAN_POINT('Ctrl Pts',(-48.6293009087912,57.0494912670882,51.8702003827391));
#831=CARTESIAN_POINT('Ctrl Pts',(-48.5666772890935,57.3932896471113,51.0412915008497));
#832=CARTESIAN_POINT('Ctrl Pts',(-48.5499973773956,57.4818691909167,50.6106521696403));
#833=CARTESIAN_POINT('Ctrl Pts',(-48.5499973773956,57.4937999294022,50.2000000000002));
#834=CARTESIAN_POINT('',(-48.5499973773956,85.0000005960463,50.2));
#835=CARTESIAN_POINT('',(-48.9491199323664,53.9952761444501,46.5983568687819));
#836=CARTESIAN_POINT('Ctrl Pts',(-48.5499973773956,57.4937999294022,50.2000000000002));
#837=CARTESIAN_POINT('Ctrl Pts',(-48.5499973773956,57.4947885833212,50.165970851063));
#838=CARTESIAN_POINT('Ctrl Pts',(-48.5501030283645,57.4952761444501,50.132079644287));
#839=CARTESIAN_POINT('Ctrl Pts',(-48.5530371876317,57.4952761444501,49.6572221898962));
#840=CARTESIAN_POINT('Ctrl Pts',(-48.5754725757085,57.4068035741631,49.1877313674923));
#841=CARTESIAN_POINT('Ctrl Pts',(-48.6513945734757,57.049052664781,48.3257297107891));
#842=CARTESIAN_POINT('Ctrl Pts',(-48.7039193053684,56.7798520061485,47.9331021925777));
#843=CARTESIAN_POINT('Ctrl Pts',(-48.8022191418926,56.1599096280389,47.313326008979));
#844=CARTESIAN_POINT('Ctrl Pts',(-48.8544930954681,55.767360789841,47.0442883774903));
#845=CARTESIAN_POINT('Ctrl Pts',(-48.9285003432392,54.9055893565642,46.6867667134967));
#846=CARTESIAN_POINT('Ctrl Pts',(-48.9491199323664,54.4362407065342,46.5983568687819));
#847=CARTESIAN_POINT('Ctrl Pts',(-48.9491199323664,53.9952761444501,46.5983568687819));
#848=CARTESIAN_POINT('',(-48.5503114024636,50.4952761444501,50.0983568687819));
#849=CARTESIAN_POINT('Ctrl Pts',(-48.9491199323664,53.9952761444501,46.5983568687819));
#850=CARTESIAN_POINT('Ctrl Pts',(-48.9491199323664,53.5543115823659,46.5983568687819));
#851=CARTESIAN_POINT('Ctrl Pts',(-48.9285003432392,53.0849629323359,46.6867667134967));
#852=CARTESIAN_POINT('Ctrl Pts',(-48.8544930954681,52.2231914990591,47.0442883774903));
#853=CARTESIAN_POINT('Ctrl Pts',(-48.8022191418926,51.8306426608612,47.313326008979));
#854=CARTESIAN_POINT('Ctrl Pts',(-48.7039193053684,51.2107002827516,47.9331021925777));
#855=CARTESIAN_POINT('Ctrl Pts',(-48.6513945734757,50.9414996241191,48.3257297107891));
#856=CARTESIAN_POINT('Ctrl Pts',(-48.5754725757085,50.5837487147371,49.1877313674923));
#857=CARTESIAN_POINT('Ctrl Pts',(-48.5530371876317,50.4952761444501,49.6572221898962));
#858=CARTESIAN_POINT('Ctrl Pts',(-48.5503114024636,50.4952761444501,50.0983568687819));
#859=CARTESIAN_POINT('Ctrl Pts',(-48.5503114024636,50.4952761444501,50.0983568687819));
#860=CARTESIAN_POINT('Ctrl Pts',(-48.5501030283645,50.4952761444501,50.132079644287));
#861=CARTESIAN_POINT('Ctrl Pts',(-48.5499973773956,50.4957637055789,50.165970851063));
#862=CARTESIAN_POINT('Ctrl Pts',(-48.5499973773956,50.4967523594979,50.2000000000002));
#863=CARTESIAN_POINT('',(-81.0951416946237,53.9952761444501,53.5983568687824));
#864=CARTESIAN_POINT('',(-81.4496833523277,50.4952761444501,50.0983568687824));
#865=CARTESIAN_POINT('Ctrl Pts',(-81.0951416946237,53.9952761444501,53.5983568687824));
#866=CARTESIAN_POINT('Ctrl Pts',(-81.0951416946237,53.5543666739141,53.5983568687824));
#867=CARTESIAN_POINT('Ctrl Pts',(-81.1145802085628,53.0849735075938,53.5099705017164));
#868=CARTESIAN_POINT('Ctrl Pts',(-81.183927848912,52.2229366293257,53.1523005269423));
#869=CARTESIAN_POINT('Ctrl Pts',(-81.2327361975743,51.8301770661466,52.883083570309));
#870=CARTESIAN_POINT('Ctrl Pts',(-81.3231420558947,51.2101595973231,52.2629094391391));
#871=CARTESIAN_POINT('Ctrl Pts',(-81.370693846,50.9410610218119,51.8702003827396));
#872=CARTESIAN_POINT('Ctrl Pts',(-81.43580892489,50.5835847413683,51.0083136457963));
#873=CARTESIAN_POINT('Ctrl Pts',(-81.452406314025,50.4952761444501,50.5390346037845));
#874=CARTESIAN_POINT('Ctrl Pts',(-81.4496833523277,50.4952761444501,50.0983568687824));
#875=CARTESIAN_POINT('Ctrl Pts',(-81.4496833523277,50.4952761444501,50.0983568687824));
#876=CARTESIAN_POINT('Ctrl Pts',(-81.4469575671596,50.4952761444501,49.6572221898967));
#877=CARTESIAN_POINT('Ctrl Pts',(-81.4245221790828,50.5837487147371,49.1877313674928));
#878=CARTESIAN_POINT('Ctrl Pts',(-81.3486001813156,50.9414996241191,48.3257297107896));
#879=CARTESIAN_POINT('Ctrl Pts',(-81.2960754494229,51.2107002827516,47.9331021925782));
#880=CARTESIAN_POINT('Ctrl Pts',(-81.1977756128987,51.8306426608613,47.3133260089795));
#881=CARTESIAN_POINT('Ctrl Pts',(-81.1455016593233,52.2231914990591,47.0442883774908));
#882=CARTESIAN_POINT('Ctrl Pts',(-81.0714944115522,53.0849629323359,46.6867667134973));
#883=CARTESIAN_POINT('Ctrl Pts',(-81.050874822425,53.5543115823659,46.5983568687824));
#884=CARTESIAN_POINT('Ctrl Pts',(-81.050874822425,54.4362407065342,46.5983568687824));
#885=CARTESIAN_POINT('Ctrl Pts',(-81.0714944115522,54.9055893565642,46.6867667134973));
#886=CARTESIAN_POINT('Ctrl Pts',(-81.1455016593233,55.767360789841,47.0442883774908));
#887=CARTESIAN_POINT('Ctrl Pts',(-81.1977756128987,56.1599096280389,47.3133260089795));
#888=CARTESIAN_POINT('Ctrl Pts',(-81.2960754494229,56.7798520061485,47.9331021925782));
#889=CARTESIAN_POINT('Ctrl Pts',(-81.3486001813156,57.049052664781,48.3257297107896));
#890=CARTESIAN_POINT('Ctrl Pts',(-81.4245221790828,57.4068035741631,49.1877313674928));
#891=CARTESIAN_POINT('Ctrl Pts',(-81.4469575671596,57.4952761444501,49.6572221898967));
#892=CARTESIAN_POINT('Ctrl Pts',(-81.452406314025,57.4952761444501,50.5390346037845));
#893=CARTESIAN_POINT('Ctrl Pts',(-81.43580892489,57.4069675475319,51.0083136457963));
#894=CARTESIAN_POINT('Ctrl Pts',(-81.370693846,57.0494912670882,51.8702003827396));
#895=CARTESIAN_POINT('Ctrl Pts',(-81.3231420558947,56.780392691577,52.2629094391391));
#896=CARTESIAN_POINT('Ctrl Pts',(-81.2327361975743,56.1603752227535,52.883083570309));
#897=CARTESIAN_POINT('Ctrl Pts',(-81.183927848912,55.7676156595744,53.1523005269423));
#898=CARTESIAN_POINT('Ctrl Pts',(-81.1145802085628,54.9055787813063,53.5099705017164));
#899=CARTESIAN_POINT('Ctrl Pts',(-81.0951416946237,54.436185614986,53.5983568687824));
#900=CARTESIAN_POINT('Ctrl Pts',(-81.0951416946237,53.9952761444501,53.5983568687824));
#901=CARTESIAN_POINT('Origin',(-64.9999973773956,84.0000005960463,50.2));
#902=CARTESIAN_POINT('',(-82.4780103465777,81.3000005969695,25.2630064219128));
#903=CARTESIAN_POINT('',(-82.6406575614135,83.6839793802429,24.8777039930501));
#904=CARTESIAN_POINT('Ctrl Pts',(-82.4780103464931,81.3000005970595,25.2630064221735));
#905=CARTESIAN_POINT('Ctrl Pts',(-82.5106457587407,81.6212713236156,25.1624998484446));
#906=CARTESIAN_POINT('Ctrl Pts',(-82.5401751996923,81.9585831805567,25.0784424007603));
#907=CARTESIAN_POINT('Ctrl Pts',(-82.599032488996,82.7641566385847,24.9305781618795));
#908=CARTESIAN_POINT('Ctrl Pts',(-82.6243549234616,83.2363745650214,24.8855134600496));
#909=CARTESIAN_POINT('Ctrl Pts',(-82.6406575614135,83.6839793802429,24.87770399305));
#910=CARTESIAN_POINT('',(-64.9999973773956,81.3000005960464,19.7478311769245));
#911=CARTESIAN_POINT('Origin',(-64.9999973773956,81.3000005960463,50.2));
#912=CARTESIAN_POINT('Origin',(-64.9999973773956,84.0000005960463,28.333283989677));
#913=CARTESIAN_POINT('',(-47.5219851827506,81.3000005960463,25.263005879759));
#914=CARTESIAN_POINT('Origin',(-64.9999973773956,81.3000005960463,50.2));
#915=CARTESIAN_POINT('',(-47.3593379683553,83.6839793802429,24.8777034531656));
#916=CARTESIAN_POINT('Ctrl Pts',(-47.3593379683553,83.6839793802429,24.8777034531655));
#917=CARTESIAN_POINT('Ctrl Pts',(-47.3756406064799,83.2363745620232,24.8855129205056));
#918=CARTESIAN_POINT('Ctrl Pts',(-47.4009630411374,82.7641566323343,24.9305776227251));
#919=CARTESIAN_POINT('Ctrl Pts',(-47.4598203303998,81.9585831741735,25.0784418613986));
#920=CARTESIAN_POINT('Ctrl Pts',(-47.4893497709603,81.6212713202135,25.1624993077501));
#921=CARTESIAN_POINT('Ctrl Pts',(-47.5219851827506,81.3000005960463,25.263005879759));
#922=CARTESIAN_POINT('Origin',(-64.9999973773956,83.6839793802429,50.2));
#923=CARTESIAN_POINT('Origin',(-87.4534209357922,53.9952761444501,50.0983568687826));
#924=CARTESIAN_POINT('',(-74.4534209357922,50.4952761444501,50.0983568687822));
#925=CARTESIAN_POINT('',(-87.4534209357922,50.4952761444501,50.0983568687826));
#926=CARTESIAN_POINT('Origin',(-74.4534209357922,53.9952761444501,50.0983568687822));
#927=CARTESIAN_POINT('Origin',(-74.4534209357922,53.9952761444501,50.0983568687822));
#928=CARTESIAN_POINT('',(-74.4534209357922,51.3952761444501,50.0983568687823));
#929=CARTESIAN_POINT('Origin',(-74.4534209357922,53.9952761444501,50.0983568687823));
#930=CARTESIAN_POINT('Origin',(-102.598481795981,101.99527614445,50.0983568687834));
#931=CARTESIAN_POINT('',(-96.3202425329386,101.982011193058,53.5983317317022));
#932=CARTESIAN_POINT('',(-96.3813956806348,98.4952761444501,50.0983568648069));
#933=CARTESIAN_POINT('Ctrl Pts',(-96.3202425329386,101.982011193058,53.5983317317022));
#934=CARTESIAN_POINT('Ctrl Pts',(-96.3049406905298,101.54394109984,53.5966714402085));
#935=CARTESIAN_POINT('Ctrl Pts',(-96.2984804362643,101.076750862581,53.507603417741));
#936=CARTESIAN_POINT('Ctrl Pts',(-96.3039805531418,100.217657353912,53.1490489527246));
#937=CARTESIAN_POINT('Ctrl Pts',(-96.3154069882202,99.8257485370429,52.879567805446));
#938=CARTESIAN_POINT('Ctrl Pts',(-96.3405534250753,99.2069189911196,52.2587427146663));
#939=CARTESIAN_POINT('Ctrl Pts',(-96.3558706970004,98.9386565058358,51.8658191525683));
#940=CARTESIAN_POINT('Ctrl Pts',(-96.3772610208831,98.5828554022147,51.0051265403334));
#941=CARTESIAN_POINT('Ctrl Pts',(-96.3828137329,98.4953258836708,50.5373408754632));
#942=CARTESIAN_POINT('Ctrl Pts',(-96.3813965367885,98.4952761519457,50.0986213673726));
#943=CARTESIAN_POINT('Ctrl Pts',(-96.3813961090023,98.4952761444498,50.0984891154264));
#944=CARTESIAN_POINT('Ctrl Pts',(-96.3813956806348,98.4952761444501,50.0983568608305));
#945=CARTESIAN_POINT('Ctrl Pts',(-96.3813956806348,98.4952761444501,50.0983568608305));
#946=CARTESIAN_POINT('Ctrl Pts',(-96.3799751800569,98.4952761454466,49.6597901667372));
#947=CARTESIAN_POINT('Ctrl Pts',(-96.371397786205,98.582737175274,49.192088710005));
#948=CARTESIAN_POINT('Ctrl Pts',(-96.3444316429756,98.9383558125418,48.3314066729714));
#949=CARTESIAN_POINT('Ctrl Pts',(-96.3265591684879,99.2065600752365,47.9384279770341));
#950=CARTESIAN_POINT('Ctrl Pts',(-96.2973671995731,99.8252590943778,47.3175402721465));
#951=CARTESIAN_POINT('Ctrl Pts',(-96.2841782431757,100.217066144605,47.048015236409));
#952=CARTESIAN_POINT('Ctrl Pts',(-96.2763266415376,101.07601482097,46.6893139747619));
#953=CARTESIAN_POINT('Ctrl Pts',(-96.2821995848556,101.543164139647,46.6001446459809));
#954=CARTESIAN_POINT('Ctrl Pts',(-96.3128977485204,102.422647249974,46.5966119999065));
#955=CARTESIAN_POINT('Ctrl Pts',(-96.3399056476648,102.893132181677,46.6833000377693));
#956=CARTESIAN_POINT('Ctrl Pts',(-96.4083191663301,103.75834449428,47.0388881259529));
#957=CARTESIAN_POINT('Ctrl Pts',(-96.4491829766738,104.153127503625,47.3077568542158));
#958=CARTESIAN_POINT('Ctrl Pts',(-96.5220876866861,104.7767312184,47.9287903491729));
#959=CARTESIAN_POINT('Ctrl Pts',(-96.5589250515433,105.047311624306,48.3224315275178));
#960=CARTESIAN_POINT('Ctrl Pts',(-96.6110997499303,105.40657629568,49.1862917859703));
#961=CARTESIAN_POINT('Ctrl Pts',(-96.6259157620805,105.495226085989,49.65655661043));
#962=CARTESIAN_POINT('Ctrl Pts',(-96.628767136634,105.495326145377,50.5392528240301));
#963=CARTESIAN_POINT('Ctrl Pts',(-96.6169950658187,105.406820970896,51.0095137437777));
#964=CARTESIAN_POINT('Ctrl Pts',(-96.5704191429753,105.047771825141,51.8734948998046));
#965=CARTESIAN_POINT('Ctrl Pts',(-96.5361372559934,104.777259531268,52.2672563591589));
#966=CARTESIAN_POINT('Ctrl Pts',(-96.4672724793276,104.153704128879,52.8885233778591));
#967=CARTESIAN_POINT('Ctrl Pts',(-96.4281667177874,103.758931715642,53.1574873606868));
#968=CARTESIAN_POINT('Ctrl Pts',(-96.3620899786071,102.893784843971,53.513242239985));
#969=CARTESIAN_POINT('Ctrl Pts',(-96.3356588118628,102.423357441764,53.6000044398688));
#970=CARTESIAN_POINT('Ctrl Pts',(-96.3202425329386,101.982011193058,53.5983317317022));
#971=CARTESIAN_POINT('',(-89.5984817959811,98.4952761444501,50.0983568687831));
#972=CARTESIAN_POINT('',(-102.598481795981,98.4952761444501,50.0983568687834));
#973=CARTESIAN_POINT('Origin',(-89.5984817959811,101.99527614445,50.0983568687831));
#974=CARTESIAN_POINT('Origin',(-89.5984817959811,101.99527614445,50.0983568687831));
#975=CARTESIAN_POINT('',(-89.5984817959811,104.59527614445,50.0983568687833));
#976=CARTESIAN_POINT('Origin',(-89.5984817959811,101.99527614445,50.0983568687833));
#977=CARTESIAN_POINT('Origin',(-42.5465738189991,53.9952761444501,50.0983568687818));
#978=CARTESIAN_POINT('',(-55.5465738189991,50.4952761444501,50.098356868782));
#979=CARTESIAN_POINT('',(-42.5465738189991,50.4952761444501,50.0983568687818));
#980=CARTESIAN_POINT('Origin',(-55.5465738189991,53.9952761444501,50.098356868782));
#981=CARTESIAN_POINT('Origin',(-55.5465738189991,53.9952761444501,50.098356868782));
#982=CARTESIAN_POINT('',(-55.5465738189991,51.3952761444501,50.098356868782));
#983=CARTESIAN_POINT('Origin',(-55.5465738189991,53.9952761444501,50.098356868782));
#984=CARTESIAN_POINT('Origin',(-27.4015129588101,101.99527614445,50.0983568687833));
#985=CARTESIAN_POINT('',(-33.7025050070728,101.981217703335,46.5983851031495));
#986=CARTESIAN_POINT('',(-33.6185990741565,98.4952761444501,50.0983568648069));
#987=CARTESIAN_POINT('Ctrl Pts',(-33.7025050070728,101.981217703335,46.5983851031495));
#988=CARTESIAN_POINT('Ctrl Pts',(-33.7177951699356,101.543164139647,46.600144645981));
#989=CARTESIAN_POINT('Ctrl Pts',(-33.7236681132536,101.07601482097,46.6893139747619));
#990=CARTESIAN_POINT('Ctrl Pts',(-33.7158165116156,100.217066144605,47.048015236409));
#991=CARTESIAN_POINT('Ctrl Pts',(-33.7026275552181,99.8252590943778,47.3175402721465));
#992=CARTESIAN_POINT('Ctrl Pts',(-33.6734355863033,99.2065600752365,47.9384279770342));
#993=CARTESIAN_POINT('Ctrl Pts',(-33.6555631118157,98.9383558125418,48.3314066729714));
#994=CARTESIAN_POINT('Ctrl Pts',(-33.6285969685863,98.582737175274,49.192088710005));
#995=CARTESIAN_POINT('Ctrl Pts',(-33.6200195747344,98.4952761454466,49.6597901667372));
#996=CARTESIAN_POINT('Ctrl Pts',(-33.6185990741565,98.4952761444501,50.0983568608305));
#997=CARTESIAN_POINT('Ctrl Pts',(-33.6185990741565,98.4952761444501,50.0983568608305));
#998=CARTESIAN_POINT('Ctrl Pts',(-33.618598645789,98.4952761444498,50.0984891154264));
#999=CARTESIAN_POINT('Ctrl Pts',(-33.6185982180027,98.4952761519457,50.0986213673726));
#1000=CARTESIAN_POINT('Ctrl Pts',(-33.6171810218913,98.4953258836708,50.5373408754632));
#1001=CARTESIAN_POINT('Ctrl Pts',(-33.6227337339081,98.5828554022147,51.0051265403334));
#1002=CARTESIAN_POINT('Ctrl Pts',(-33.6441240577908,98.9386565058358,51.8658191525683));
#1003=CARTESIAN_POINT('Ctrl Pts',(-33.659441329716,99.2069189911196,52.2587427146664));
#1004=CARTESIAN_POINT('Ctrl Pts',(-33.6845877665711,99.8257485370429,52.8795678054461));
#1005=CARTESIAN_POINT('Ctrl Pts',(-33.6960142016495,100.217657353912,53.1490489527246));
#1006=CARTESIAN_POINT('Ctrl Pts',(-33.701514318527,101.076750862581,53.507603417741));
#1007=CARTESIAN_POINT('Ctrl Pts',(-33.6950540642614,101.54394109984,53.5966714402085));
#1008=CARTESIAN_POINT('Ctrl Pts',(-33.6643359429285,102.423357441764,53.6000044398688));
#1009=CARTESIAN_POINT('Ctrl Pts',(-33.6379047761841,102.893784843971,53.513242239985));
#1010=CARTESIAN_POINT('Ctrl Pts',(-33.5718280370038,103.758931715642,53.1574873606868));
#1011=CARTESIAN_POINT('Ctrl Pts',(-33.5327222754637,104.153704128879,52.8885233778591));
#1012=CARTESIAN_POINT('Ctrl Pts',(-33.4638574987979,104.777259531268,52.2672563591589));
#1013=CARTESIAN_POINT('Ctrl Pts',(-33.4295756118159,105.047771825141,51.8734948998046));
#1014=CARTESIAN_POINT('Ctrl Pts',(-33.3829996889725,105.406820970896,51.0095137437777));
#1015=CARTESIAN_POINT('Ctrl Pts',(-33.3712276181573,105.495326145377,50.5392528240301));
#1016=CARTESIAN_POINT('Ctrl Pts',(-33.3740789927108,105.495226085989,49.65655661043));
#1017=CARTESIAN_POINT('Ctrl Pts',(-33.388895004861,105.40657629568,49.1862917859703));
#1018=CARTESIAN_POINT('Ctrl Pts',(-33.441069703248,105.047311624306,48.3224315275178));
#1019=CARTESIAN_POINT('Ctrl Pts',(-33.4779070681051,104.7767312184,47.9287903491729));
#1020=CARTESIAN_POINT('Ctrl Pts',(-33.5508117781175,104.153127503625,47.3077568542158));
#1021=CARTESIAN_POINT('Ctrl Pts',(-33.5916755884611,103.75834449428,47.0388881259529));
#1022=CARTESIAN_POINT('Ctrl Pts',(-33.6600891071264,102.893132181677,46.6833000377693));
#1023=CARTESIAN_POINT('Ctrl Pts',(-33.6870970062709,102.422647249974,46.5966119999065));
#1024=CARTESIAN_POINT('Ctrl Pts',(-33.7025050070728,101.981217703335,46.5983851031495));
#1025=CARTESIAN_POINT('',(-40.4015129588101,98.4952761444501,50.0983568687833));
#1026=CARTESIAN_POINT('',(-27.4015129588101,98.4952761444501,50.0983568687833));
#1027=CARTESIAN_POINT('Origin',(-40.4015129588101,101.99527614445,50.0983568687833));
#1028=CARTESIAN_POINT('Origin',(-40.4015129588101,101.99527614445,50.0983568687833));
#1029=CARTESIAN_POINT('',(-40.4015129588101,104.59527614445,50.0983568687833));
#1030=CARTESIAN_POINT('Origin',(-40.4015129588101,101.99527614445,50.0983568687833));
#1031=CARTESIAN_POINT('Origin',(-39.0063675828141,101.99527614445,50.0983568687833));
#1032=CARTESIAN_POINT('',(-45.211652357232,104.59527614445,50.0983568761629));
#1033=CARTESIAN_POINT('',(-39.0063675828141,104.59527614445,50.0983568687833));
#1034=CARTESIAN_POINT('',(-45.4622352824823,101.983689333412,52.6983310505416));
#1035=CARTESIAN_POINT('Ctrl Pts',(-45.4622352824823,101.983689333412,52.6983310505416));
#1036=CARTESIAN_POINT('Ctrl Pts',(-45.473572180196,101.658396490653,52.6968813797227));
#1037=CARTESIAN_POINT('Ctrl Pts',(-45.477031920774,101.311529836865,52.6305347942704));
#1038=CARTESIAN_POINT('Ctrl Pts',(-45.4682370666207,100.673802694967,52.3640007121686));
#1039=CARTESIAN_POINT('Ctrl Pts',(-45.4564576382764,100.382932491454,52.1638209940429));
#1040=CARTESIAN_POINT('Ctrl Pts',(-45.4317949800055,99.923639744786,51.7028097761613));
#1041=CARTESIAN_POINT('Ctrl Pts',(-45.4173337021611,99.7245052143714,51.4110497840709));
#1042=CARTESIAN_POINT('Ctrl Pts',(-45.3975436396314,99.4603476454152,50.7719300477077));
#1043=CARTESIAN_POINT('Ctrl Pts',(-45.3926721343871,99.3953352430631,50.4245518298559));
#1044=CARTESIAN_POINT('Ctrl Pts',(-45.3960386930962,99.3952171059804,49.7729650272228));
#1045=CARTESIAN_POINT('Ctrl Pts',(-45.4045057553406,99.4601534918091,49.4254928501877));
#1046=CARTESIAN_POINT('Ctrl Pts',(-45.4309333835463,99.7241748039547,48.7862244320168));
#1047=CARTESIAN_POINT('Ctrl Pts',(-45.4484377364922,99.9232464492086,48.4944039273835));
#1048=CARTESIAN_POINT('Ctrl Pts',(-45.4779220955244,100.3823795794,48.0333428427108));
#1049=CARTESIAN_POINT('Ctrl Pts',(-45.4918058407075,100.673115994192,47.8331220832561));
#1050=CARTESIAN_POINT('Ctrl Pts',(-45.5034136258218,101.310654859618,47.5664228776488));
#1051=CARTESIAN_POINT('Ctrl Pts',(-45.5006596673542,101.657470181081,47.4999546090247));
#1052=CARTESIAN_POINT('Ctrl Pts',(-45.4779136297446,102.311034291647,47.4968049977444));
#1053=CARTESIAN_POINT('Ctrl Pts',(-45.4562595005423,102.660822954319,47.5610624730344));
#1054=CARTESIAN_POINT('Ctrl Pts',(-45.3996725265877,103.303944370866,47.8249886292493));
#1055=CARTESIAN_POINT('Ctrl Pts',(-45.3652242679364,103.597332585134,48.0246258383868));
#1056=CARTESIAN_POINT('Ctrl Pts',(-45.3032571730604,104.06080630863,48.4857877826159));
#1057=CARTESIAN_POINT('Ctrl Pts',(-45.2716557735638,104.261977852102,48.7781584602898));
#1058=CARTESIAN_POINT('Ctrl Pts',(-45.2264736749588,104.529200046114,49.4200574015751));
#1059=CARTESIAN_POINT('Ctrl Pts',(-45.2133507755526,104.595216587149,49.7696320057295));
#1060=CARTESIAN_POINT('Ctrl Pts',(-45.2116539739069,104.595276130205,50.0980426037626));
#1061=CARTESIAN_POINT('Ctrl Pts',(-45.2116531643959,104.595276144451,50.0981997411945));
#1062=CARTESIAN_POINT('Ctrl Pts',(-45.211652357232,104.59527614445,50.0983568835426));
#1063=CARTESIAN_POINT('Ctrl Pts',(-45.211652357232,104.59527614445,50.0983568835426));
#1064=CARTESIAN_POINT('Ctrl Pts',(-45.2099677520126,104.595276142588,50.4263235158135));
#1065=CARTESIAN_POINT('Ctrl Pts',(-45.2194704958142,104.529433355699,50.7757089620302));
#1066=CARTESIAN_POINT('Ctrl Pts',(-45.2579808743381,104.262534045369,51.417605123217));
#1067=CARTESIAN_POINT('Ctrl Pts',(-45.2865398638505,104.061439418407,51.7101285604979));
#1068=CARTESIAN_POINT('Ctrl Pts',(-45.343693048389,103.598008684029,52.1715822709962));
#1069=CARTESIAN_POINT('Ctrl Pts',(-45.3760421857815,103.304625061314,52.3713334029578));
#1070=CARTESIAN_POINT('Ctrl Pts',(-45.4298352281656,102.661579218066,52.6354530172732));
#1071=CARTESIAN_POINT('Ctrl Pts',(-45.4507979018674,102.311865360746,52.6997935703014));
#1072=CARTESIAN_POINT('Ctrl Pts',(-45.4622352824823,101.983689333412,52.6983310505416));
#1073=CARTESIAN_POINT('Origin',(-90.9936224781113,101.99527614445,50.0983568687833));
#1074=CARTESIAN_POINT('',(-84.7883423975593,104.59527614445,50.0983568761629));
#1075=CARTESIAN_POINT('',(-90.9936224781113,104.59527614445,50.0983568687833));
#1076=CARTESIAN_POINT('',(-84.7885336085469,104.593288591279,50.2000000000004));
#1077=CARTESIAN_POINT('Ctrl Pts',(-84.7885336085469,104.593288591279,50.2000000000008));
#1078=CARTESIAN_POINT('Ctrl Pts',(-84.788580443813,104.594621595006,50.1659282409576));
#1079=CARTESIAN_POINT('Ctrl Pts',(-84.7885153540143,104.595276144259,50.1320288355332));
#1080=CARTESIAN_POINT('Ctrl Pts',(-84.7883423975593,104.59527614445,50.0983568835426));
#1081=CARTESIAN_POINT('',(-84.5377594723089,101.983689333412,52.6983310505416));
#1082=CARTESIAN_POINT('Ctrl Pts',(-84.5377594723089,101.983689333412,52.6983310505416));
#1083=CARTESIAN_POINT('Ctrl Pts',(-84.5491968529238,102.311865360746,52.6997935703014));
#1084=CARTESIAN_POINT('Ctrl Pts',(-84.5701595266256,102.661579218066,52.6354530172732));
#1085=CARTESIAN_POINT('Ctrl Pts',(-84.6239525690098,103.304625061314,52.3713334029578));
#1086=CARTESIAN_POINT('Ctrl Pts',(-84.6563017064022,103.598008684029,52.1715822709962));
#1087=CARTESIAN_POINT('Ctrl Pts',(-84.7134548909408,104.061439418407,51.7101285604979));
#1088=CARTESIAN_POINT('Ctrl Pts',(-84.7420138804532,104.262534045369,51.417605123217));
#1089=CARTESIAN_POINT('Ctrl Pts',(-84.7785478246272,104.515735516698,50.8086524352092));
#1090=CARTESIAN_POINT('Ctrl Pts',(-84.78812426579,104.581638066656,50.4977890155296));
#1091=CARTESIAN_POINT('Ctrl Pts',(-84.7885336085469,104.593288591279,50.2000000000008));
#1092=CARTESIAN_POINT('',(-84.6059705717428,99.3972636976215,50.2000000000004));
#1093=CARTESIAN_POINT('Ctrl Pts',(-84.6059705717428,99.3972636976215,50.2000000000007));
#1094=CARTESIAN_POINT('Ctrl Pts',(-84.6063771244648,99.4088348135546,50.4957593184906));
#1095=CARTESIAN_POINT('Ctrl Pts',(-84.6014330862571,99.4739362856573,50.8048072739912));
#1096=CARTESIAN_POINT('Ctrl Pts',(-84.5826610526301,99.7245052143714,51.4110497840709));
#1097=CARTESIAN_POINT('Ctrl Pts',(-84.5681997747858,99.923639744786,51.7028097761613));
#1098=CARTESIAN_POINT('Ctrl Pts',(-84.5435371165149,100.382932491454,52.1638209940429));
#1099=CARTESIAN_POINT('Ctrl Pts',(-84.5317576881705,100.673802694967,52.3640007121686));
#1100=CARTESIAN_POINT('Ctrl Pts',(-84.5229628340172,101.311529836865,52.6305347942704));
#1101=CARTESIAN_POINT('Ctrl Pts',(-84.5264225745953,101.658396490653,52.6968813797227));
#1102=CARTESIAN_POINT('Ctrl Pts',(-84.5377594723089,101.983689333412,52.6983310505416));
#1103=CARTESIAN_POINT('Ctrl Pts',(-84.7883423975593,104.59527614445,50.0983568835426));
#1104=CARTESIAN_POINT('Ctrl Pts',(-84.7883415903954,104.595276144451,50.0981997411946));
#1105=CARTESIAN_POINT('Ctrl Pts',(-84.7883407808843,104.595276130205,50.0980426037626));
#1106=CARTESIAN_POINT('Ctrl Pts',(-84.7866439792387,104.595216587149,49.7696320057295));
#1107=CARTESIAN_POINT('Ctrl Pts',(-84.7735210798325,104.529200046114,49.4200574015751));
#1108=CARTESIAN_POINT('Ctrl Pts',(-84.7283389812274,104.261977852102,48.7781584602898));
#1109=CARTESIAN_POINT('Ctrl Pts',(-84.6967375817308,104.06080630863,48.4857877826159));
#1110=CARTESIAN_POINT('Ctrl Pts',(-84.6347704868548,103.597332585134,48.0246258383868));
#1111=CARTESIAN_POINT('Ctrl Pts',(-84.6003222282035,103.303944370866,47.8249886292493));
#1112=CARTESIAN_POINT('Ctrl Pts',(-84.5437352542489,102.660822954319,47.5610624730344));
#1113=CARTESIAN_POINT('Ctrl Pts',(-84.5220811250466,102.311034291647,47.4968049977444));
#1114=CARTESIAN_POINT('Ctrl Pts',(-84.4993350874371,101.657470181081,47.4999546090247));
#1115=CARTESIAN_POINT('Ctrl Pts',(-84.4965811289694,101.310654859618,47.5664228776488));
#1116=CARTESIAN_POINT('Ctrl Pts',(-84.5081889140837,100.673115994192,47.8331220832561));
#1117=CARTESIAN_POINT('Ctrl Pts',(-84.5220726592669,100.3823795794,48.0333428427108));
#1118=CARTESIAN_POINT('Ctrl Pts',(-84.5515570182991,99.9232464492086,48.4944039273835));
#1119=CARTESIAN_POINT('Ctrl Pts',(-84.5690613712449,99.7241748039547,48.7862244320168));
#1120=CARTESIAN_POINT('Ctrl Pts',(-84.5954889994507,99.4601534918091,49.4254928501877));
#1121=CARTESIAN_POINT('Ctrl Pts',(-84.603956061695,99.3952171059804,49.7729650272228));
#1122=CARTESIAN_POINT('Ctrl Pts',(-84.6058128453155,99.3952822630203,50.1323396310715));
#1123=CARTESIAN_POINT('Ctrl Pts',(-84.605923947623,99.3959367034429,50.1660818458528));
#1124=CARTESIAN_POINT('Ctrl Pts',(-84.6059705717428,99.3972636976215,50.2000000000007));
#1125=CARTESIAN_POINT('Origin',(-41.0063675828141,53.9952761444501,50.0983568687818));
#1126=CARTESIAN_POINT('',(-59.9010103531058,51.3952761444501,50.0983568687821));
#1127=CARTESIAN_POINT('',(-41.0063675828141,51.3952761444501,50.0983568687818));
#1128=CARTESIAN_POINT('',(-60.6743616563087,53.9952761444501,47.4983568687821));
#1129=CARTESIAN_POINT('Ctrl Pts',(-59.9010103531058,51.3952761444501,50.0983568687821));
#1130=CARTESIAN_POINT('Ctrl Pts',(-59.8944017128384,51.3952761444501,50.4298831664058));
#1131=CARTESIAN_POINT('Ctrl Pts',(-59.922744863766,51.4625551017223,50.7803109504189));
#1132=CARTESIAN_POINT('Ctrl Pts',(-60.0372047543279,51.7290771408288,51.4189927074111));
#1133=CARTESIAN_POINT('Ctrl Pts',(-60.1219277088877,51.9280366850129,51.707613940046));
#1134=CARTESIAN_POINT('Ctrl Pts',(-60.2869351799417,52.3832309057196,52.1637246562695));
#1135=CARTESIAN_POINT('Ctrl Pts',(-60.378999376577,52.6719949197935,52.3630534871679));
#1136=CARTESIAN_POINT('Ctrl Pts',(-60.5138742886673,53.3108886278689,52.6304577472137));
#1137=CARTESIAN_POINT('Ctrl Pts',(-60.5538515232643,53.6616869529471,52.6983568687821));
#1138=CARTESIAN_POINT('Ctrl Pts',(-60.5538515232643,54.3284109525572,52.6983568687821));
#1139=CARTESIAN_POINT('Ctrl Pts',(-60.5139843100555,54.6787770038366,52.6306388359372));
#1140=CARTESIAN_POINT('Ctrl Pts',(-60.3794013378066,55.317017420846,52.3638873173951));
#1141=CARTESIAN_POINT('Ctrl Pts',(-60.2875076580133,55.6055575098844,52.1650307655178));
#1142=CARTESIAN_POINT('Ctrl Pts',(-60.1224693293192,56.0612040039079,51.7093842714943));
#1143=CARTESIAN_POINT('Ctrl Pts',(-60.0375626029656,56.2606377043364,51.4205412636127));
#1144=CARTESIAN_POINT('Ctrl Pts',(-59.9228245239876,56.5278158675082,50.7812019697744));
#1145=CARTESIAN_POINT('Ctrl Pts',(-59.8943926738124,56.5952761444501,50.4303366144205));
#1146=CARTESIAN_POINT('Ctrl Pts',(-59.9076665338396,56.5952761444501,49.7644456759038));
#1147=CARTESIAN_POINT('Ctrl Pts',(-59.950457849171,56.5271408620044,49.4131294698527));
#1148=CARTESIAN_POINT('Ctrl Pts',(-60.0923702477189,56.2595926662414,48.7744437750259));
#1149=CARTESIAN_POINT('Ctrl Pts',(-60.1901619389678,56.0605141638991,48.4866396260611));
#1150=CARTESIAN_POINT('Ctrl Pts',(-60.3769512289829,55.60641729732,48.032542759482));
#1151=CARTESIAN_POINT('Ctrl Pts',(-60.4794885412034,55.3187985053488,47.8338875335405));
#1152=CARTESIAN_POINT('Ctrl Pts',(-60.6297285950883,54.6810379857908,47.5667051677432));
#1153=CARTESIAN_POINT('Ctrl Pts',(-60.6743616563087,54.3301021502422,47.4983568687821));
#1154=CARTESIAN_POINT('Ctrl Pts',(-60.6743616563087,53.9952761444501,47.4983568687821));
#1155=CARTESIAN_POINT('Ctrl Pts',(-60.6743616563087,53.9952761444501,47.4983568687821));
#1156=CARTESIAN_POINT('Ctrl Pts',(-60.6743616563087,53.6609523313424,47.4983568687821));
#1157=CARTESIAN_POINT('Ctrl Pts',(-60.6298631741915,53.3104890346016,47.5665050151628));
#1158=CARTESIAN_POINT('Ctrl Pts',(-60.4799807312791,52.6734413225584,47.8329732244212));
#1159=CARTESIAN_POINT('Ctrl Pts',(-60.3776534444984,52.386066380764,48.0311132978327));
#1160=CARTESIAN_POINT('Ctrl Pts',(-60.1908445856885,51.931475311921,48.484704735967));
#1161=CARTESIAN_POINT('Ctrl Pts',(-60.0928369361266,51.7318792531043,48.7727495173031));
#1162=CARTESIAN_POINT('Ctrl Pts',(-59.9505853093321,51.4636121134847,49.4121514180041));
#1163=CARTESIAN_POINT('Ctrl Pts',(-59.9076765070169,51.3952761444501,49.7639453656402));
#1164=CARTESIAN_POINT('Ctrl Pts',(-59.9010103531058,51.3952761444501,50.0983568687821));
#1165=CARTESIAN_POINT('Origin',(-41.0063675828141,53.9952761444501,50.0983568687818));
#1166=CARTESIAN_POINT('',(-69.3256330984826,53.9952761444501,47.4983568687822));
#1167=CARTESIAN_POINT('',(-70.0989844016855,51.3952761444501,50.0983568687822));
#1168=CARTESIAN_POINT('Ctrl Pts',(-70.0989844016855,51.3952761444501,50.0983568687822));
#1169=CARTESIAN_POINT('Ctrl Pts',(-70.0923182477744,51.3952761444501,49.7639453656403));
#1170=CARTESIAN_POINT('Ctrl Pts',(-70.0494094454592,51.4636121134847,49.4121514180043));
#1171=CARTESIAN_POINT('Ctrl Pts',(-69.9071578186647,51.7318792531043,48.7727495173033));
#1172=CARTESIAN_POINT('Ctrl Pts',(-69.8091501691028,51.9314753119209,48.4847047359671));
#1173=CARTESIAN_POINT('Ctrl Pts',(-69.622341310293,52.386066380764,48.0311132978328));
#1174=CARTESIAN_POINT('Ctrl Pts',(-69.5200140235122,52.6734413225584,47.8329732244214));
#1175=CARTESIAN_POINT('Ctrl Pts',(-69.3701315805998,53.3104890346016,47.566505015163));
#1176=CARTESIAN_POINT('Ctrl Pts',(-69.3256330984826,53.6609523313424,47.4983568687822));
#1177=CARTESIAN_POINT('Ctrl Pts',(-69.3256330984826,53.9952761444501,47.4983568687822));
#1178=CARTESIAN_POINT('',(-70.0999973773956,56.5932885912786,50.2000000000003));
#1179=CARTESIAN_POINT('Ctrl Pts',(-69.3256330984826,53.9952761444501,47.4983568687822));
#1180=CARTESIAN_POINT('Ctrl Pts',(-69.3256330984826,54.3301021502422,47.4983568687822));
#1181=CARTESIAN_POINT('Ctrl Pts',(-69.370266159703,54.6810379857908,47.5667051677434));
#1182=CARTESIAN_POINT('Ctrl Pts',(-69.520506213588,55.3187985053488,47.8338875335407));
#1183=CARTESIAN_POINT('Ctrl Pts',(-69.6230435258084,55.60641729732,48.0325427594822));
#1184=CARTESIAN_POINT('Ctrl Pts',(-69.8098328158235,56.0605141638991,48.4866396260612));
#1185=CARTESIAN_POINT('Ctrl Pts',(-69.9076245070724,56.2595926662414,48.7744437750261));
#1186=CARTESIAN_POINT('Ctrl Pts',(-70.0495369056203,56.5271408620044,49.4131294698528));
#1187=CARTESIAN_POINT('Ctrl Pts',(-70.0923282209517,56.5952761444501,49.764445675904));
#1188=CARTESIAN_POINT('Ctrl Pts',(-70.0996562272209,56.5952761444501,50.132059389028));
#1189=CARTESIAN_POINT('Ctrl Pts',(-70.0999973773956,56.5946204197816,50.1659582798528));
#1190=CARTESIAN_POINT('Ctrl Pts',(-70.0999973773956,56.5932885912786,50.2000000000006));
#1191=CARTESIAN_POINT('',(-70.0999973773956,51.3972636976215,50.2000000000003));
#1192=CARTESIAN_POINT('Ctrl Pts',(-70.0999973773956,56.5932885912786,50.2000000000006));
#1193=CARTESIAN_POINT('Ctrl Pts',(-70.0999973773956,56.5815015169683,50.5012792443795));
#1194=CARTESIAN_POINT('Ctrl Pts',(-70.0713461368935,56.5142539295107,50.8136547711541));
#1195=CARTESIAN_POINT('Ctrl Pts',(-69.9624321518256,56.2606377043364,51.4205412636129));
#1196=CARTESIAN_POINT('Ctrl Pts',(-69.877525425472,56.0612040039079,51.7093842714945));
#1197=CARTESIAN_POINT('Ctrl Pts',(-69.7124870967779,55.6055575098844,52.165030765518));
#1198=CARTESIAN_POINT('Ctrl Pts',(-69.6205934169846,55.317017420846,52.3638873173953));
#1199=CARTESIAN_POINT('Ctrl Pts',(-69.4860104447357,54.6787770038366,52.6306388359373));
#1200=CARTESIAN_POINT('Ctrl Pts',(-69.4461432315269,54.3284109525572,52.6983568687822));
#1201=CARTESIAN_POINT('Ctrl Pts',(-69.4461432315269,53.6616869529471,52.6983568687822));
#1202=CARTESIAN_POINT('Ctrl Pts',(-69.4861204661239,53.3108886278689,52.6304577472138));
#1203=CARTESIAN_POINT('Ctrl Pts',(-69.6209953782142,52.6719949197935,52.363053487168));
#1204=CARTESIAN_POINT('Ctrl Pts',(-69.7130595748495,52.3832309057196,52.1637246562697));
#1205=CARTESIAN_POINT('Ctrl Pts',(-69.8780670459036,51.9280366850129,51.7076139400462));
#1206=CARTESIAN_POINT('Ctrl Pts',(-69.9627900004633,51.7290771408288,51.4189927074112));
#1207=CARTESIAN_POINT('Ctrl Pts',(-70.0714320837742,51.476101976912,50.8127740895909));
#1208=CARTESIAN_POINT('Ctrl Pts',(-70.0999973773956,51.4090333181304,50.5008331228093));
#1209=CARTESIAN_POINT('Ctrl Pts',(-70.0999973773956,51.3972636976215,50.2000000000006));
#1210=CARTESIAN_POINT('Ctrl Pts',(-70.0999973773956,51.3972636976215,50.2000000000006));
#1211=CARTESIAN_POINT('Ctrl Pts',(-70.0999973773956,51.3959318451415,50.1659576669975));
#1212=CARTESIAN_POINT('Ctrl Pts',(-70.0996562142318,51.3952761444501,50.1320587374236));
#1213=CARTESIAN_POINT('Ctrl Pts',(-70.0989844016855,51.3952761444501,50.0983568687822));
#1214=CARTESIAN_POINT('',(-41.0063675828141,51.3952761444501,50.0983568687818));
#1215=CARTESIAN_POINT('Origin',(-64.9999973773956,43.0000005960464,50.2));
#1216=CARTESIAN_POINT('',(-70.0999973773956,43.0000005960464,50.2));
#1217=CARTESIAN_POINT('Origin',(-64.9999973773956,43.0000005960464,50.2));
#1218=CARTESIAN_POINT('Origin',(-64.9999973773956,-76.9999994039536,50.2));
#1219=CARTESIAN_POINT('',(-70.0999973773956,72.8000005960464,50.2));
#1220=CARTESIAN_POINT('Origin',(-64.9999973773956,72.8000005960464,50.2));
#1221=CARTESIAN_POINT('',(-70.0999973773956,-76.9999994039536,50.2));
#1222=CARTESIAN_POINT('',(-70.0999973773956,-76.9999994039536,50.2));
#1223=CARTESIAN_POINT('Origin',(-64.9999973773956,121.578638974975,50.2));
#1224=CARTESIAN_POINT('',(-45.9695521523453,121.900000596046,24.2205320594026));
#1225=CARTESIAN_POINT('Ctrl Pts',(-45.9695521523509,121.900000595895,24.2205320594058));
#1226=CARTESIAN_POINT('Ctrl Pts',(-46.6746803014747,102.48192288997,24.5497312778813));
#1227=CARTESIAN_POINT('Ctrl Pts',(-47.3593379683553,83.6839793802429,24.8777034531656));
#1228=CARTESIAN_POINT('',(-84.030443372144,121.900000596046,24.2205326232208));
#1229=CARTESIAN_POINT('Origin',(-64.9999973773956,121.900000596046,50.2));
#1230=CARTESIAN_POINT('Ctrl Pts',(-82.6406575614135,83.6839793802429,24.8777039930501));
#1231=CARTESIAN_POINT('Ctrl Pts',(-83.3253152257741,102.481922894074,24.5497318297955));
#1232=CARTESIAN_POINT('Ctrl Pts',(-84.0304433721384,121.900000595895,24.2205326232238));
#1233=CARTESIAN_POINT('Origin',(-81.810299136741,121.682075471867,34.2530064503286));
#1234=CARTESIAN_POINT('',(-84.7417089079314,121.900000596046,20.9961288609844));
#1235=CARTESIAN_POINT('',(-79.7498120224071,121.900000596046,43.6260614086949));
#1236=CARTESIAN_POINT('',(-83.3052032430356,81.3000005960463,21.513065291031));
#1237=CARTESIAN_POINT('Ctrl Pts',(-83.3052032430356,81.3000005960463,21.513065291031));
#1238=CARTESIAN_POINT('Ctrl Pts',(-83.6058233810937,89.6733641215214,21.3867115874963));
#1239=CARTESIAN_POINT('Ctrl Pts',(-83.9037987084746,98.0597456298159,21.2742699877167));
#1240=CARTESIAN_POINT('Ctrl Pts',(-84.3784378776013,111.523028248554,21.1106358695959));
#1241=CARTESIAN_POINT('Ctrl Pts',(-84.560362690018,116.70880511736,21.0516708196498));
#1242=CARTESIAN_POINT('Ctrl Pts',(-84.7417089079314,121.900000596046,20.9961288609844));
#1243=CARTESIAN_POINT('',(-80.5928193961919,81.3000005960463,33.8092053967225));
#1244=CARTESIAN_POINT('Origin',(-64.9999978244305,81.3000005960463,30.1943730568196));
#1245=CARTESIAN_POINT('',(-46.6947924058253,81.3000005960463,21.513065291031));
#1246=CARTESIAN_POINT('Ctrl Pts',(-46.6947924058253,81.3000005960463,21.513065291031));
#1247=CARTESIAN_POINT('Ctrl Pts',(-48.1446526451021,81.3000005960463,20.9711412393943));
#1248=CARTESIAN_POINT('Ctrl Pts',(-49.6202444907561,81.3000005960473,20.4926466086099));
#1249=CARTESIAN_POINT('Ctrl Pts',(-57.6874962985913,81.3000005960473,18.2685822125));
#1250=CARTESIAN_POINT('Ctrl Pts',(-64.5412655173353,81.3000005960463,17.7589407932153));
#1251=CARTESIAN_POINT('Ctrl Pts',(-75.410038318769,81.3000005960463,19.0821380793682));
#1252=CARTESIAN_POINT('Ctrl Pts',(-79.4365813250452,81.3000005960463,20.0670643543519));
#1253=CARTESIAN_POINT('Ctrl Pts',(-83.3052032430356,81.3000005960463,21.513065291031));
#1254=CARTESIAN_POINT('',(-49.032176252669,81.3000005960463,32.1092053967225));
#1255=CARTESIAN_POINT('Origin',(-47.4396965121199,121.682075471867,30.8530064503286));
#1256=CARTESIAN_POINT('',(-45.2582867409295,121.900000596046,20.9961288609844));
#1257=CARTESIAN_POINT('Ctrl Pts',(-45.2582867409295,121.900000596046,20.9961288609844));
#1258=CARTESIAN_POINT('Ctrl Pts',(-45.4388602947984,116.730923307308,21.0514341713485));
#1259=CARTESIAN_POINT('Ctrl Pts',(-45.6200058036416,111.567267585445,21.1101329231016));
#1260=CARTESIAN_POINT('Ctrl Pts',(-46.0946198137677,98.1041325189236,21.2736747754702));
#1261=CARTESIAN_POINT('Ctrl Pts',(-46.3933787517622,89.6954664264958,21.3863780646435));
#1262=CARTESIAN_POINT('Ctrl Pts',(-46.6947924058253,81.3000005960463,21.513065291031));
#1263=CARTESIAN_POINT('',(-49.8751836057109,121.900000596046,41.92606131466));
#1264=CARTESIAN_POINT('Ctrl Pts',(-85.8441406670358,121.876546857654,21.3247701779062));
#1265=CARTESIAN_POINT('Ctrl Pts',(-84.9608725468311,108.252414794074,21.3721390495283));
#1266=CARTESIAN_POINT('Ctrl Pts',(-84.1030274456622,94.6263304387491,21.4312092358815));
#1267=CARTESIAN_POINT('Ctrl Pts',(-83.2870576643545,80.9970294937002,21.5149219553589));
#1268=CARTESIAN_POINT('Ctrl Pts',(-80.0660817693326,122.003115565165,19.5510733919928));
#1269=CARTESIAN_POINT('Ctrl Pts',(-79.4493008136318,108.385843625026,19.5731910293991));
#1270=CARTESIAN_POINT('Ctrl Pts',(-78.8515574037716,94.7676343696224,19.6005859818623));
#1271=CARTESIAN_POINT('Ctrl Pts',(-78.2877002705569,81.1478408815872,19.6388850852102));
#1272=CARTESIAN_POINT('Ctrl Pts',(-66.0517388214326,122.175196895034,17.144284833136));
#1273=CARTESIAN_POINT('Ctrl Pts',(-66.0143947519882,108.567750734608,17.126609918434));
#1274=CARTESIAN_POINT('Ctrl Pts',(-65.9785534802979,94.9612099869418,17.1038159003796));
#1275=CARTESIAN_POINT('Ctrl Pts',(-65.9460327020765,81.3558047244019,17.0733966698648));
#1276=CARTESIAN_POINT('Ctrl Pts',(-51.8599335120954,122.045305134335,18.9598411300217));
#1277=CARTESIAN_POINT('Ctrl Pts',(-52.3878764655277,108.430391867945,18.9728930506439));
#1278=CARTESIAN_POINT('Ctrl Pts',(-52.8989380991351,94.8145543284313,18.991243570377));
#1279=CARTESIAN_POINT('Ctrl Pts',(-53.3787478429029,81.1981113442162,19.0135394618273));
#1280=CARTESIAN_POINT('Ctrl Pts',(-44.1558549818246,121.876546857654,21.3247701779063));
#1281=CARTESIAN_POINT('Ctrl Pts',(-45.0391231020294,108.252414794074,21.3721390495284));
#1282=CARTESIAN_POINT('Ctrl Pts',(-45.8969682031983,94.6263304387491,21.4312092358817));
#1283=CARTESIAN_POINT('Ctrl Pts',(-46.7129379845061,80.9970294937002,21.514921955359));
#1284=CARTESIAN_POINT('Ctrl Pts',(-84.7417089079314,121.900000596046,20.9961288609844));
#1285=CARTESIAN_POINT('Ctrl Pts',(-82.8118659139575,121.900000596046,20.4386829775818));
#1286=CARTESIAN_POINT('Ctrl Pts',(-80.8565008243109,121.900000596046,19.9621733013963));
#1287=CARTESIAN_POINT('Ctrl Pts',(-70.6070951072106,121.900000596046,17.921651297662));
#1288=CARTESIAN_POINT('Ctrl Pts',(-62.1136038408587,121.900000596047,17.7595648173478));
#1289=CARTESIAN_POINT('Ctrl Pts',(-50.8990802622807,121.900000596047,19.5518644734746));
#1290=CARTESIAN_POINT('Ctrl Pts',(-48.0523967980663,121.900000596046,20.1890346289725));
#1291=CARTESIAN_POINT('Ctrl Pts',(-45.2582867409295,121.900000596046,20.9961288609844));
#1292=CARTESIAN_POINT('Origin',(-64.9999973773956,121.900000596046,50.2));
#1293=CARTESIAN_POINT('',(-57.5523984954122,121.900000596046,31.2117150287295));
#1294=CARTESIAN_POINT('',(-85.3966072735793,121.900000596046,50.2));
#1295=CARTESIAN_POINT('Origin',(-64.9999973773956,121.900000596046,50.2));
#1296=CARTESIAN_POINT('',(-72.4475970822541,121.900000596046,31.2117153514782));
#1297=CARTESIAN_POINT('Origin',(-64.9999973773956,121.900000596046,50.2));
#1298=CARTESIAN_POINT('',(-73.0391608185863,121.900000596046,28.5299597467726));
#1299=CARTESIAN_POINT('',(-70.1750389018403,121.900000596046,41.5139791026876));
#1300=CARTESIAN_POINT('',(-56.9608348302747,121.900000596046,28.5299597467726));
#1301=CARTESIAN_POINT('Ctrl Pts',(-56.9608348311793,121.900000595991,28.5299597814533));
#1302=CARTESIAN_POINT('Ctrl Pts',(-57.1180610225856,121.900000595346,28.5091403273903));
#1303=CARTESIAN_POINT('Ctrl Pts',(-57.27536549794,121.900000589074,28.4889355552338));
#1304=CARTESIAN_POINT('Ctrl Pts',(-57.4327343827561,121.900000578134,28.4693464642188));
#1305=CARTESIAN_POINT('Ctrl Pts',(-58.3951980274476,121.900000511224,28.3495401381046));
#1306=CARTESIAN_POINT('Ctrl Pts',(-59.3601810214689,121.900000276909,28.2527444352747));
#1307=CARTESIAN_POINT('Ctrl Pts',(-60.3268612043485,121.90000005045,28.1789048153057));
#1308=CARTESIAN_POINT('Ctrl Pts',(-61.2956123281194,121.899999823506,28.1049070070433));
#1309=CARTESIAN_POINT('Ctrl Pts',(-62.266068330465,121.899999604479,28.0539637281211));
#1310=CARTESIAN_POINT('Ctrl Pts',(-63.2374064760088,121.899999483611,28.0260721474171));
#1311=CARTESIAN_POINT('Ctrl Pts',(-63.8246750349813,121.899999410535,28.0092089690455));
#1312=CARTESIAN_POINT('Ctrl Pts',(-64.4122661147312,121.899999371672,28.0007730707866));
#1313=CARTESIAN_POINT('Ctrl Pts',(-64.9999977583734,121.899999371672,28.0007730701545));
#1314=CARTESIAN_POINT('Ctrl Pts',(-65.9720467508851,121.899999371672,28.000773069109));
#1315=CARTESIAN_POINT('Ctrl Pts',(-66.9437111326907,121.899999482536,28.0238457239507));
#1316=CARTESIAN_POINT('Ctrl Pts',(-67.9141681626773,121.899999666183,28.0699623539563));
#1317=CARTESIAN_POINT('Ctrl Pts',(-68.7709717047644,121.899999828323,28.1106781102619));
#1318=CARTESIAN_POINT('Ctrl Pts',(-69.626834387187,121.900000045959,28.1693571351802));
#1319=CARTESIAN_POINT('Ctrl Pts',(-70.4811895031947,121.900000237016,28.2460134523834));
#1320=CARTESIAN_POINT('Ctrl Pts',(-70.9083670611985,121.900000332544,28.284341610985));
#1321=CARTESIAN_POINT('Ctrl Pts',(-71.3351676975071,121.90000042061,28.3271645872369));
#1322=CARTESIAN_POINT('Ctrl Pts',(-71.7615202530199,121.900000486041,28.3744871021305));
#1323=CARTESIAN_POINT('Ctrl Pts',(-72.0203096598559,121.900000525757,28.4032111367375));
#1324=CARTESIAN_POINT('Ctrl Pts',(-72.2789339749811,121.900000557071,28.4335929757422));
#1325=CARTESIAN_POINT('Ctrl Pts',(-72.5373772244849,121.900000576,28.4656340305989));
#1326=CARTESIAN_POINT('Ctrl Pts',(-72.694373920463,121.9000005875,28.4850980319138));
#1327=CARTESIAN_POINT('Ctrl Pts',(-72.8513061252987,121.900000594415,28.5051746319211));
#1328=CARTESIAN_POINT('Ctrl Pts',(-73.0081626171441,121.900000595791,28.5258631837957));
#1329=CARTESIAN_POINT('Ctrl Pts',(-73.0184957008803,121.900000595882,28.5272260635617));
#1330=CARTESIAN_POINT('Ctrl Pts',(-73.0288284347321,121.900000595949,28.5285915961004));
#1331=CARTESIAN_POINT('Ctrl Pts',(-73.0391608176815,121.900000595991,28.5299597814533));
#1332=CARTESIAN_POINT('',(-59.4499567262776,121.900000596046,39.8139790086526));
#1333=CARTESIAN_POINT('Origin',(-64.9999973773956,85.0000005960463,50.2));
#1334=CARTESIAN_POINT('',(-54.2399973773956,84.8000005960463,50.2));
#1335=CARTESIAN_POINT('Origin',(-64.9999973773956,84.8000005960463,50.2));
#1336=CARTESIAN_POINT('',(-54.2399973773956,72.8000005960464,50.2));
#1337=CARTESIAN_POINT('',(-54.2399973773956,85.0000005960463,50.2));
#1338=CARTESIAN_POINT('Origin',(-64.9999973773956,72.8000005960464,50.2));
#1339=CARTESIAN_POINT('Origin',(-64.9999973773956,72.8000005960464,50.2));
#1340=CARTESIAN_POINT('Origin',(-64.9999973773956,84.8000005960463,50.2));
#1341=CARTESIAN_POINT('',(-84.0930937600658,84.8000005960463,50.2));
#1342=CARTESIAN_POINT('Origin',(-64.9999973773956,84.8000005960463,50.2));
#1343=CARTESIAN_POINT('Origin',(-64.9999973773956,121.992977902362,50.2));
#1344=CARTESIAN_POINT('',(-71.2844494409895,91.1000005960464,31.9365514337889));
#1345=CARTESIAN_POINT('Ctrl Pts',(-71.2844494409879,91.1000005960035,31.93655143379));
#1346=CARTESIAN_POINT('Ctrl Pts',(-71.8537901264341,106.124791234319,31.5741847637964));
#1347=CARTESIAN_POINT('Ctrl Pts',(-72.4475970822541,121.900000596046,31.2117153514783));
#1348=CARTESIAN_POINT('',(-85.3998740438012,121.992977902362,50.2));
#1349=CARTESIAN_POINT('',(-85.3998740438012,121.992977902362,50.2));
#1350=CARTESIAN_POINT('',(-58.7155461447954,91.1000005960464,31.936551147844));
#1351=CARTESIAN_POINT('Ctrl Pts',(-57.5523984954123,121.900000596046,31.2117150287298));
#1352=CARTESIAN_POINT('Ctrl Pts',(-58.146205455676,106.124791221831,31.5741844593485));
#1353=CARTESIAN_POINT('Ctrl Pts',(-58.715546144797,91.1000005960035,31.9365511478452));
#1354=CARTESIAN_POINT('Origin',(-64.9999973773956,91.1000005960464,50.2));
#1355=CARTESIAN_POINT('Ctrl Pts',(-73.0660484178665,121.899994679392,28.533526282399));
#1356=CARTESIAN_POINT('Ctrl Pts',(-72.7221911466947,111.632997328381,28.5336704532184));
#1357=CARTESIAN_POINT('Ctrl Pts',(-72.3784732223801,101.365995295196,28.5338421546541));
#1358=CARTESIAN_POINT('Ctrl Pts',(-72.0349646711713,91.0989862268925,28.5340618928529));
#1359=CARTESIAN_POINT('Ctrl Pts',(-67.7199979067612,121.901173084525,27.8231886647508));
#1360=CARTESIAN_POINT('Ctrl Pts',(-67.6069230228524,111.634225890422,27.8231560414843));
#1361=CARTESIAN_POINT('Ctrl Pts',(-67.4938881212173,101.36727923194,27.8233949223411));
#1362=CARTESIAN_POINT('Ctrl Pts',(-67.3809391280638,91.1003359051694,27.8233371766296));
#1363=CARTESIAN_POINT('Ctrl Pts',(-62.2799977420997,121.901173084525,27.8231886647508));
#1364=CARTESIAN_POINT('Ctrl Pts',(-62.3930726260084,111.634225890422,27.8231560414844));
#1365=CARTESIAN_POINT('Ctrl Pts',(-62.5061075276436,101.36727923194,27.8233949223411));
#1366=CARTESIAN_POINT('Ctrl Pts',(-62.6190565207971,91.1003359051694,27.8233371766296));
#1367=CARTESIAN_POINT('Ctrl Pts',(-56.9339472309944,121.899994679392,28.533526282399));
#1368=CARTESIAN_POINT('Ctrl Pts',(-57.2778045021662,111.632997328381,28.5336704532184));
#1369=CARTESIAN_POINT('Ctrl Pts',(-57.6215224264808,101.365995295196,28.5338421546541));
#1370=CARTESIAN_POINT('Ctrl Pts',(-57.9650309776896,91.0989862268925,28.5340618928529));
#1371=CARTESIAN_POINT('',(-72.03499860923,91.1000005960463,28.5340618711002));
#1372=CARTESIAN_POINT('Ctrl Pts',(-73.0391608179741,121.90000059599,28.529959781492));
#1373=CARTESIAN_POINT('Ctrl Pts',(-72.8725091422339,116.787851030411,28.5305586816425));
#1374=CARTESIAN_POINT('Ctrl Pts',(-72.7053777471686,111.661246605554,28.5311953128908));
#1375=CARTESIAN_POINT('Ctrl Pts',(-72.5387127268804,106.549221262118,28.5318731835678));
#1376=CARTESIAN_POINT('Ctrl Pts',(-72.3710166705695,101.405571512617,28.5325552477407));
#1377=CARTESIAN_POINT('Ctrl Pts',(-72.2027488559715,96.2446604132866,28.533283314737));
#1378=CARTESIAN_POINT('Ctrl Pts',(-72.0349986094373,91.1000005960458,28.5340618711432));
#1379=CARTESIAN_POINT('',(-57.9649970396309,91.1000005960463,28.5340618711002));
#1380=CARTESIAN_POINT('Ctrl Pts',(-72.0349986092283,91.1000005960463,28.5340618711112));
#1381=CARTESIAN_POINT('Ctrl Pts',(-71.2544054374338,91.100000597337,28.4148578157772));
#1382=CARTESIAN_POINT('Ctrl Pts',(-70.4711458943495,91.1000002964318,28.3156980261802));
#1383=CARTESIAN_POINT('Ctrl Pts',(-69.6859881672637,91.0999999493985,28.2365141197991));
#1384=CARTESIAN_POINT('Ctrl Pts',(-68.8981195899312,91.099999601167,28.1570568215826));
#1385=CARTESIAN_POINT('Ctrl Pts',(-68.1083392618958,91.0999992065401,28.0977135555677));
#1386=CARTESIAN_POINT('Ctrl Pts',(-67.3174163578905,91.0999989256881,28.058467258362));
#1387=CARTESIAN_POINT('Ctrl Pts',(-66.5457934407682,91.0999986516893,28.0201786436529));
#1388=CARTESIAN_POINT('Ctrl Pts',(-65.7730826216011,91.0999984856082,28.0010183543039));
#1389=CARTESIAN_POINT('Ctrl Pts',(-64.9999977408348,91.0999984856082,28.0010183556854));
#1390=CARTESIAN_POINT('Ctrl Pts',(-64.2076571126534,91.0999984856082,28.0010183571014));
#1391=CARTESIAN_POINT('Ctrl Pts',(-63.4157094208757,91.0999986604609,28.0211448042009));
#1392=CARTESIAN_POINT('Ctrl Pts',(-62.6249231595585,91.0999989463475,28.0613639164374));
#1393=CARTESIAN_POINT('Ctrl Pts',(-61.8358427410657,91.0999992316175,28.1014962701054));
#1394=CARTESIAN_POINT('Ctrl Pts',(-61.0479183088132,91.0999996274022,28.1616347183104));
#1395=CARTESIAN_POINT('Ctrl Pts',(-60.2619139228894,91.0999999723428,28.2417974082717));
#1396=CARTESIAN_POINT('Ctrl Pts',(-59.4942041545415,91.1000003092547,28.3200942743485));
#1397=CARTESIAN_POINT('Ctrl Pts',(-58.728325715129,91.1000005973085,28.417494269754));
#1398=CARTESIAN_POINT('Ctrl Pts',(-57.9649970396326,91.1000005960463,28.5340618711112));
#1399=CARTESIAN_POINT('Ctrl Pts',(-57.9649970394236,91.1000005960458,28.5340618711431));
#1400=CARTESIAN_POINT('Ctrl Pts',(-57.7972458405786,96.244689619293,28.5332833103172));
#1401=CARTESIAN_POINT('Ctrl Pts',(-57.6289770648989,101.405630197838,28.5325552394612));
#1402=CARTESIAN_POINT('Ctrl Pts',(-57.4612800570413,106.549309136836,28.5318731719153));
#1403=CARTESIAN_POINT('Ctrl Pts',(-57.2946159891093,111.661305272374,28.531195305606));
#1404=CARTESIAN_POINT('Ctrl Pts',(-57.1274855545673,116.787880235472,28.530558678221));
#1405=CARTESIAN_POINT('Ctrl Pts',(-56.9608348308869,121.90000059599,28.529959781492));
#1406=CARTESIAN_POINT('Origin',(-57.0047917981843,121.993642093563,28.7430589607556));
#1407=CARTESIAN_POINT('',(-58.3025432799011,91.1000005960464,30.0642714936566));
#1408=CARTESIAN_POINT('Origin',(-64.9999978244305,91.1000005960464,30.1943730568196));
#1409=CARTESIAN_POINT('',(-71.3224523689598,91.1000005960464,31.7642714936566));
#1410=CARTESIAN_POINT('Origin',(-72.2452038506767,121.993642093563,32.1430589607556));
#1411=UNCERTAINTY_MEASURE_WITH_UNIT(LENGTH_MEASURE(0.01),#1415,
'DISTANCE_ACCURACY_VALUE',
'Maximum model space distance between geometric entities at asserted c
onnectivities');
#1412=UNCERTAINTY_MEASURE_WITH_UNIT(LENGTH_MEASURE(0.01),#1415,
'DISTANCE_ACCURACY_VALUE',
'Maximum model space distance between geometric entities at asserted c
onnectivities');
#1413=(
GEOMETRIC_REPRESENTATION_CONTEXT(3)
GLOBAL_UNCERTAINTY_ASSIGNED_CONTEXT((#1411))
GLOBAL_UNIT_ASSIGNED_CONTEXT((#1415,#1417,#1418))
REPRESENTATION_CONTEXT('','3D')
);
#1414=(
GEOMETRIC_REPRESENTATION_CONTEXT(3)
GLOBAL_UNCERTAINTY_ASSIGNED_CONTEXT((#1412))
GLOBAL_UNIT_ASSIGNED_CONTEXT((#1415,#1417,#1418))
REPRESENTATION_CONTEXT('','3D')
);
#1415=(
LENGTH_UNIT()
NAMED_UNIT(*)
SI_UNIT(.MILLI.,.METRE.)
);
#1416=(
LENGTH_UNIT()
NAMED_UNIT(*)
SI_UNIT($,.METRE.)
);
#1417=(
NAMED_UNIT(*)
PLANE_ANGLE_UNIT()
SI_UNIT($,.RADIAN.)
);
#1418=(
NAMED_UNIT(*)
SI_UNIT($,.STERADIAN.)
SOLID_ANGLE_UNIT()
);
#1419=SHAPE_DEFINITION_REPRESENTATION(#1420,#1421);
#1420=PRODUCT_DEFINITION_SHAPE('',$,#1423);
#1421=SHAPE_REPRESENTATION('',(#605),#1413);
#1422=PRODUCT_DEFINITION_CONTEXT('part definition',#1427,'design');
#1423=PRODUCT_DEFINITION('2026-06-24-14-54-07-121','WheelCoupler',#1424,
#1422);
#1424=PRODUCT_DEFINITION_FORMATION('',$,#1429);
#1425=PRODUCT_RELATED_PRODUCT_CATEGORY('WheelCoupler','WheelCoupler',(#1429));
#1426=APPLICATION_PROTOCOL_DEFINITION('international standard',
'automotive_design',2009,#1427);
#1427=APPLICATION_CONTEXT(
'Core Data for Automotive Mechanical Design Process');
#1428=PRODUCT_CONTEXT('part definition',#1427,'mechanical');
#1429=PRODUCT('2026-06-24-14-54-07-121','WheelCoupler',$,(#1428));
#1430=PRESENTATION_STYLE_ASSIGNMENT((#1432));
#1431=PRESENTATION_STYLE_ASSIGNMENT((#1433));
#1432=SURFACE_STYLE_USAGE(.BOTH.,#1434);
#1433=SURFACE_STYLE_USAGE(.BOTH.,#1435);
#1434=SURFACE_SIDE_STYLE('',(#1436));
#1435=SURFACE_SIDE_STYLE('',(#1437));
#1436=SURFACE_STYLE_FILL_AREA(#1438);
#1437=SURFACE_STYLE_FILL_AREA(#1439);
#1438=FILL_AREA_STYLE('\X\C7elik - Saten',(#1440));
#1439=FILL_AREA_STYLE('Opaque(45,45,45)',(#1441));
#1440=FILL_AREA_STYLE_COLOUR('\X\C7elik - Saten',#1442);
#1441=FILL_AREA_STYLE_COLOUR('Opaque(45,45,45)',#1443);
#1442=COLOUR_RGB('\X\C7elik - Saten',0.627450980392157,0.627450980392157,
0.627450980392157);
#1443=COLOUR_RGB('Opaque(45,45,45)',0.176470588235294,0.176470588235294,
0.176470588235294);
ENDSEC;
END-ISO-10303-21;
